<?xml version="1.0" encoding="utf-8"?>
<!-- Generator: Adobe Illustrator 15.0.2, SVG Export Plug-In . SVG Version: 6.00 Build 0)  -->
<!DOCTYPE svg PUBLIC "-//W3C//DTD SVG 1.1//EN" "http://www.w3.org/Graphics/SVG/1.1/DTD/svg11.dtd">
<svg version="1.1" id="Ebene_1" xmlns="http://www.w3.org/2000/svg" xmlns:xlink="http://www.w3.org/1999/xlink" x="0px" y="0px"
	 width="653.5px" height="653.5px" viewBox="0 0 653.5 653.5" enable-background="new 0 0 653.5 653.5" xml:space="preserve">
<path fill="#333333" d="M-50.5,550.5v-101h101v101H-50.5z"/>
<g>
	<g>
		<path fill="none" d="M49.5,150.5v-101h101v101H49.5z"/>
		<path fill="#999999" d="M149.5,150.5v-101h101v101H149.5z"/>
		<path fill="none" d="M249.5,150.5v-101h101v101H249.5z"/>
		<path fill="#F1007E" d="M349.5,150.5v-101h101v101H349.5z"/>
		<path fill="none" d="M449.5,150.5v-101h101v101H449.5z"/>
		<path fill="none" d="M549.5,150.5v-101h101v101H549.5z"/>
		<path fill="#999999" d="M49.5,250.5v-101h101v101H49.5z"/>
		<path fill="#808080" d="M-50.5,351.5v-101h101v101H-50.5z"/>
		<path fill="#999999" d="M149.5,250.5v-101h101v101H149.5z"/>
		<path fill="none" d="M249.5,250.5v-101h101v101H249.5z"/>
		<path fill="none" d="M349.5,250.5v-101h101v101H349.5z"/>
		<path fill="#F1007E" d="M449.5,250.5v-101h101v101H449.5z"/>
		<path fill="none" d="M549.5,250.5v-101h101v101H549.5z"/>
		<path fill="none" d="M49.5,350.5v-101h101v101H49.5z"/>
		<path fill="#999999" d="M149.5,350.5v-101h101v101H149.5z"/>
		<path fill="none" d="M249.5,350.5v-101h101v101H249.5z"/>
		<path fill="#52002B" d="M349.5,350.5v-101h101v101H349.5z"/>
		<path fill="none" d="M449.5,350.5v-101h101v101H449.5z"/>
		<path fill="#F1007E" d="M549.5,350.5v-101h101v101H549.5z"/>
		<path fill="none" d="M49.5,450.5v-101h101v101H49.5z"/>
		<path fill="#999999" d="M149.5,450.5v-101h101v101H149.5z"/>
		<path fill="none" d="M249.5,450.5v-101h101v101H249.5z"/>
		<path fill="none" d="M349.5,450.5v-101h101v101H349.5z"/>
		<path fill="#F1007E" d="M449.5,450.5v-101h101v101H449.5z"/>
		<path fill="none" d="M549.5,450.5v-101h101v101H549.5z"/>
		<path fill="none" d="M49.5,550.5v-101h101v101H49.5z"/>
		<path fill="#999999" d="M149.5,550.5v-101h101v101H149.5z"/>
		<path fill="none" d="M249.5,550.5v-101h101v101H249.5z"/>
		<path fill="#F1007E" d="M349.5,550.5v-101h101v101H349.5z"/>
		<path fill="none" d="M449.5,550.5v-101h101v101H449.5z"/>
		<path fill="none" d="M549.5,550.5v-101h101v101H549.5z"/>
		<path fill="none" d="M49.5,650.5v-101h101v101H49.5z"/>
		<path fill="none" d="M149.5,650.5v-101h101v101H149.5z"/>
		<path fill="none" d="M249.5,650.5v-101h101v101H249.5z"/>
		<path fill="none" d="M349.5,650.5v-101h101v101H349.5z"/>
		<path fill="none" d="M449.5,650.5v-101h101v101H449.5z"/>
		<path fill="none" d="M549.5,650.5v-101h101v101H549.5z"/>
	</g>
	<path fill="none" d="M450,150V50h100v100H450z"/>
	<g>
		<path fill="none" stroke="#FFFFFF" stroke-width="6" stroke-miterlimit="10" d="M0,600V0h600v600H0z"/>
		<g>
			<path fill="#FFFFFF" d="M553.25,575h-62.4c-6,0-11.149-2.15-15.449-6.45c-4.301-4.3-6.45-9.399-6.45-15.3l0,0v-8.4h22.95v2.25
				c0,3.301,0,4.95,0,4.95s1.649,0,4.949,0l0,0h50.25c3.301,0,4.95,0,4.95,0s0-1.649,0-4.95l0,0v-10.05c0-3.3,0-4.95,0-4.95
				s-1.649,0-4.95,0l0,0H486.65V509.15h56.399c3.3,0,4.95,0,4.95,0s0-1.65,0-4.95l0,0v-9.3c0-3.301,0-4.95,0-4.95s-1.65,0-4.95,0
				l0,0h-46.2c-3.3,0-4.949,0-4.949,0s0,1.649,0,4.95l0,0v3.449h-22.95v-9.6c0-6,2.149-11.127,6.45-15.38
				c4.3-4.247,9.449-6.37,15.449-6.37l0,0H549.2c6,0,11.126,2.123,15.38,6.37c4.246,4.253,6.37,9.38,6.37,15.38l0,0v21.6
				c0,1.101-0.077,2.273-0.23,3.521c-0.146,1.253-0.37,2.38-0.67,3.38l0,0c1.5,1.8,2.7,3.877,3.601,6.23
				c0.899,2.346,1.35,4.819,1.35,7.42l0,0v22.35c0,5.9-2.123,11-6.37,15.3C564.377,572.85,559.25,575,553.25,575L553.25,575z"/>
			<path fill="#FFFFFF" d="M458.825,575h-85.5c-6.101,0-11.327-2.174-15.681-6.52c-4.346-4.354-6.52-9.58-6.52-15.681l0,0v-63.6
				c0-6.101,2.174-11.323,6.52-15.67c4.354-4.354,9.58-6.53,15.681-6.53l0,0h85.5v23.4h-79.5c-3.3,0-4.95,0-4.95,0s0,1.649,0,4.949
				l0,0v51.301c0,3.3,0,4.949,0,4.949s1.65,0,4.95,0l0,0h79.5V575z"/>
			<path fill="#FFFFFF" d="M257.225,575h-23.25V467.15h85.65c6.1,0,11.35,2.199,15.75,6.6s6.6,9.6,6.6,15.6l0,0v27.9
				c0,6-2.199,11.2-6.6,15.6c-4.4,4.4-9.65,6.601-15.75,6.601l0,0h-1.05l23.399,27.6V575h-24l-29.85-35.55l-30.9,0.149V575z
				 M262.175,516.05L262.175,516.05h51.3c3.301,0,4.95,0,4.95,0s0-1.649,0-4.95l0,0v-15.75c0-3.3,0-4.949,0-4.949s-1.649,0-4.95,0
				l0,0h-51.3c-3.3,0-4.95,0-4.95,0s0,1.649,0,4.949l0,0v15.75c0,3.301,0,4.95,0,4.95S258.875,516.05,262.175,516.05z"/>
		</g>
	</g>
</g>
<text transform="matrix(1 0 0 1 146.5 439.5)" fill="#FFFFFF" font-family="'Orbitron-Regular'" font-size="48">ActivityPub</text>
</svg>
