<svg xmlns="http://www.w3.org/2000/svg" viewBox="0 0 300 199"><defs/><path fill="#4e4840" d="M0 0h300v199H0z"/><g fill-opacity=".5"><path fill="#eeebe7" d="M218.6-11.1l-122 125.4L23-18.2z"/><path d="M299.4 217.4V-18.2l-123 70.3z"/><path fill="#030006" d="M147 29.9l27 52.7L42.8 52.1z"/><path fill="#fff" d="M47.5 48.6l124.2-37.5L45 14.6z"/><path d="M42.8 181l-61 6L.6-12.4z"/><path fill="#fff" d="M178.7-18.2L180 86.1l-35.2-72.6z"/><path fill="#caba8e" d="M35.7 148.2L133 88.5 33.4 99z"/><path fill="#a5a6af" d="M169.3 115.4L273.6 133l-119.5 11.7z"/><path fill="#37383c" d="M130.7 12.3L179.9 58l-82 3.5z"/><path fill="#1e0b00" d="M304.1 108.4l-150 85.5 145.3 23.5z"/><path fill="#0b0600" d="M-18.2 149.4l141.8 16.4-17.5 48z"/><path fill="#fff" d="M46.3 14.6l1.2 34L127 30z"/><path fill="#2d1a04" d="M40.4 67.4l5.9-85.6-64.5 29.3z"/><path fill="#e6dfda" d="M110.7 53.3l-17.5 57.4 43.3-24.6z"/><path fill="#ebd9bb" d="M109.6 144.7l39.8 54-12.9-32.9z"/><path fill="#fff" d="M148.2 40.4l16.4-58.6 14.1 56.3z"/><path fill="#020000" d="M313.5 136.5l-14-154.7-66.9 133.6z"/><path fill="#2e2c2d" d="M228 113L181-18.1v143z"/><path fill="#403122" d="M246.7 73.2l17.6-82L150.6 51z"/><path fill="#434139" d="M104.9 131.8L75.6 48.6-18.2 37z"/><path fill="#7b7f7e" d="M136.5 102.5l-21 24.6 71.4 50.4z"/><path fill="#a7aba1" d="M189.3 21.7l25.7 1.2v-34z"/><path fill="#fff" d="M112 13.5l-63.4 1.1 78.5 24.7z"/><path fill="#8b9ab1" d="M195.1 70.9L173 59.2l3.5 50.4z"/><path fill="#030c15" d="M172.9 83.8V113l-47-41z"/><path fill="#fedeb9" d="M95.5 70.9l25.8-10.5-55 4.6z"/><path fill="#f4f3ef" d="M103.7 78l-7 44.5L92 83.8z"/><path fill="#413e41" d="M150.6 26.4l-54 55 37.6-68z"/><path fill="#000f1c" d="M24 89.6l22.3-16.4 55 17.6z"/><path fill="#7c6147" d="M25.2 14.6l125.4-5.8-25.8-27z"/><path fill="#312214" d="M271.3 217.4l-100.8-80.9 143 5.9z"/><path fill="#fbdebb" d="M126 204.5l4.7-20-7-21z"/><path fill="#12120f" d="M229.1 112l-48-34-2.4 44.5z"/><path d="M51 103.7l35 1.3-17.4-6z"/><path fill="#8c8d9a" d="M271.3 138.9l-32.8-3.5 9.4-17.6z"/><path fill="#32291f" d="M119 153l51.5 59.7 91.4 4.7z"/><path fill="#736e64" d="M94.3 204.5L98 126l18.7 79.7z"/><path fill="#1e2628" d="M97.9 108.4l4.6 27L169.3 72z"/><path d="M150.6 213.9l-21.1-36.4-2.4 38.7z"/><path fill="#faf1d7" d="M184.6 127.1l-11.7-11.7-9.4 13z"/><path fill="#161312" d="M70.9 62.7L58 43.9l62.1 15.3z"/><path fill="#726f7a" d="M8.8 102.5l28.1-43.3 35.2-7z"/><path fill="#fff" d="M46.3 15.8l97.3-4.7-93.8 30.5z"/><path fill="#030000" d="M-18.2 187l32.8-95 23.5 87.9z"/><path fill="#fff" d="M176.4 40.4l1.1-58.6-28 54z"/><path fill="#fffff9" d="M156.4 212.7l15.3 4.7-29.3-34z"/><path fill="#917e4e" d="M95.5 89.6l-69.1 55.1 60.9-14z"/><path fill="#100b00" d="M103.7 137.7l-49.2 41L65 217.4z"/><path fill="#625329" d="M21.7 104.9l15.2 58.6 57.4 3.5z"/><path fill="#6a5035" d="M81.4 68.6l13 9.3 34-8.2z"/><path d="M49.8 140l34-3.5-12.9 8.2z"/><path fill="#ffffe7" d="M128.3 130.7l-7-1.2 2.3-11.7z"/><path fill="#696664" d="M236.1 58l9.4 39.9 4.7-39.9z"/><path fill="#ccbb8e" d="M31 116.6l36.4-2.3-35.2-17.6z"/><path fill="#44321e" d="M44-18.2L-18.3 87.3 41.6 65z"/><path fill="#f2ece6" d="M102.5 97.9l-27-28.2 49.3 27z"/><path fill="#291908" d="M215-3l84.4-2.3-20 91.4z"/><path fill="#494548" d="M201 38l-69.2 42.3-17.5-34z"/><path fill="#5f5954" d="M184.6 127.1l4.7 49.3-89.1-37.5z"/><path fill="#fffff8" d="M95.5 37l8.2-47L78 45.1z"/><path fill="#8b9991" d="M-18.2 190.4l51.6-8.2-51.6 24.6z"/><path fill="#bfbeac" d="M93.2 134.2l9.3 8.2-7-29.3z"/><path fill="#463b1c" d="M95.5 148.2l-2.3-59.7-18.8 75z"/><path fill="#030703" d="M123.6 168.2l-22.2-30.5 9.3 45.7z"/><path fill="#2d2f36" d="M115.4 27.5l15.3-11.7 10.5 15.3z"/><path d="M49.8 106l3.5-5.8 18.8 3.5z"/><path fill="#a69375" d="M86.1 99L69.7 88.5l-35.1 9.4z"/><path fill="#9498a7" d="M237.3 133l-61-12.9 14.1 17.6z"/><path d="M96.7 181l-2.4-19.9L37 178.7z"/><path fill="#ecc5c2" d="M68.6 61.5L47.5 58l15.2-2.3z"/><path fill="#2b2624" d="M44 47.5l42 15.2 23.5-18.8z"/><path fill="#aaadb8" d="M96.7 150.6v20l9.4-9.5z"/><path fill="#9e9589" d="M110.7 11.1l13 17.6v21.1z"/><path fill="#707b6c" d="M54.5 179.9v14l-29.3-9.3z"/><path fill="#050807" d="M249 24l69.2 96.1-50.4 25.8z"/><path fill="#fff" d="M117.8 92l-21.1 17.6-1.2-16.4z"/><path fill="#c8b698" d="M127.1 162.3l-18.7-27-3.5 8.3z"/><path fill="#273b44" d="M76.8 59.2l-64.5 45.7 32.8-41z"/><path fill="#464f56" d="M176.4 136.5L121.3 85l-3.5 27z"/><path fill="#94825a" d="M29.9 133l58.6 3.5 1.1-36.3z"/><path fill="#f0dcbf" d="M135.4 174l-17.6-22.2 8.2 21z"/><path fill="#eee9ce" d="M177.5 115.4l-1.1-19.9 3.5 10.6z"/><path fill="#07090a" d="M209.2 108.4l19.9 18.7 34-12.8z"/><path fill="#fff" d="M175.2 34.6l-41-22.3 42.2-2.3zm-3.5 42.2l5.8-4.7-5.8-3.5z"/><path fill="#463a2f" d="M167 190.4l82-28.1-64.4-23.4z"/><path fill="#171316" d="M182.2 94.3l-56.2 7L142.4 85z"/><path fill="#e5cfb1" d="M116.6 60.4l8.2 7L94.3 65z"/><path fill="#8994a7" d="M26.4 74.4L22.9 85l18.7-11.8z"/><path fill="#3c3839" d="M122.5 62.7l-14.1-27L59.2 51z"/><path fill="#e9d5b7" d="M87.3 82.6l28.1-10.5 18.8 14z"/><path fill="#3e362e" d="M179.9 25.2l14 56.2 51.6-65.6z"/><path fill="#fff" d="M113 33.4l-26.9 7L108.4 10z"/><path fill="#0a0d0c" d="M109.6 149.4L85 151.8l18.7-11.8z"/><path fill="#54493c" d="M39.3 128.3L18.2 72.1-.6 77.9z"/><path fill="#e0cbb2" d="M52.1-4.1l9.4-14L86.1 7.5z"/><path fill="#0b110e" d="M21.7 87.3l44.5-9.4-3.5 16.4z"/><path fill="#433522" d="M128.3 216.2l-66.8-21 59.8-20z"/><path fill="#1e2c3c" d="M145.9 123.6l22.3-27 10.5 16.5z"/><path fill="#7784a4" d="M194 79.1l-10.6 9.4 4.7 4.7z"/></g></svg>