<svg xmlns="http://www.w3.org/2000/svg" viewBox="0 0 300 198"><defs/><path fill="#937a5f" d="M0 0h300v198H0z"/><g fill-opacity=".5"><path d="M243.2 212.7l75-20-23.5-210.9z"/><path fill="#fbe4c1" d="M265.4-18.2l-278.9 4.7L157.6 94.3z"/><path fill="#050000" d="M167 67.4l5.9 148.8L96.7 174z"/><path d="M318.2 189.3L297-18.2l-52.8 234.4z"/><path fill="#ade3ee" d="M288.9-18.2l-31.7 174.6L210.4 99z"/><path fill="#f4dcbf" d="M-18.2 196.3l129-23.4L7.5 108.4z"/><path fill="#ffd791" d="M170.5 204.5l12.9-110.2 72.7 110.2z"/><path d="M318.2 205.7l-82-28.2-20-56.2z"/><path fill="#610000" d="M92 142.4l90.2 73.8-49.2-130z"/><path fill="#b1692e" d="M-18.2 110.7l27-128.9 165.2 163z"/><path d="M215 108.4l-16.4-15.2 18.8-54z"/><path fill="#e5bf9c" d="M90.8 213.9l13-177L58 167z"/><path d="M175.2 168.2l-80.9-24.6 43.4 72.6z"/><path fill="#42512e" d="M229.1 99l18.8 14 14-82z"/><path fill="#4a2d02" d="M38 40.4L-18.1 8.8v150z"/><path d="M273.6-7.6l21.1 7-61 22.3zm-82 116L127.1 92l-17.5 18.7zm126.6 96.1L285.4 15.8l-32.9 175.8z"/><path fill="#cbe2e2" d="M271.3 60.4l-45.7-27L290-.6z"/><path fill="#e3f2f7" d="M259.6 155.3L215 115.4l49.3-7z"/><path fill="#cbb795" d="M155.3-4.1l16.4 97.3L58 94.3z"/><path fill="#0f2f1f" d="M92 81.4l53.9-8.2-39.8-4.6z"/><path fill="#ffc58d" d="M170.5 116.6l46.9 3.5-43.4 96.1z"/><path fill="#ffe8c0" d="M199.8-14.6v71.4l61-75z"/><path fill="#f2f6ec" d="M97.9 52.1l77.3 1.2-82 21.1z"/><path fill="#07191a" d="M195.1 104.9L160 124.8 122.5 92z"/><path fill="#be3118" d="M92 141.2l56.2-30.5 13 45.7z"/><path fill="#000400" d="M149.4 216.2l-22.3-100.8-8.2 76.2z"/><path fill="#68624e" d="M147-18.2h33l2.3 61z"/><path fill="#b97746" d="M-12.3 102.5L99 114.3l-7-84.4z"/><path fill="#d9b898" d="M100.2 179.9L92 108.4l-61 44.5z"/><path fill="#b47b3c" d="M273.6 216.2l-60.9-79.7 24.6 75z"/><path fill="#9fac9c" d="M224.4 28.7l-8.2 57.4 46.9-2.3z"/><path fill="#120f00" d="M274.8 216.2l-21-71.5L222 146z"/><path fill="#ffd595" d="M192.8 52.1l1.1 45.8L205.7 52z"/><path fill="#e38365" d="M90.8 115.4l69.2 13-16.4-17.7z"/><path fill="#5e675b" d="M165.8 67.4l27-7-3.5 51.5z"/><path fill="#b39475" d="M-18.2 194l109 3.5 11.7-41z"/><path d="M168.2 149.4l-3.6 66.8-39.8-14zm139.4 66.8l-48-56.2 39.8-172.3z"/><path fill="#00130e" d="M107.2 101.4L105 113l-14-9.4z"/><path d="M317-8.8l-70.3 24.6 49.2-34z"/><path fill="#746d52" d="M116.6 19.3l-20 15.3L115.5 52z"/><path fill="#e6a574" d="M88.5 59.2L79 13.5 13.5 10z"/><path fill="#ebf2ec" d="M60.4 12.3l42.1-2.3-42.1-23.5z"/><path fill="#f93014" d="M122.5 140l-22.3 17.6v-30.5z"/><path fill="#4c5936" d="M233.8 109.6l-7-43.4 27 39.9z"/><path fill="#382e07" d="M211.5 35.7l7 90.3L201 76.8z"/><path fill="#0c160e" d="M272.5 86.1l23.4-3.5-44.5 41z"/><path fill="#fff" d="M247.9 145.9l-8.3-35.2-5.8 24.7z"/><path fill="#efdaba" d="M107.2 85l10.6 15.2-10.6 16.4z"/><path fill="#fff" d="M257.2 27.5l-16.4 42.2 2.4-27z"/><path fill="#ece9da" d="M162.3 72l8.2-26.9-46.9 20z"/><path d="M109.6 135.4l11.7-11.8-12.9 1.2z"/><path fill="#e9fcff" d="M253.7 116.6V87.3l12.9-10.5z"/><path fill="#6a7964" d="M259.6 81.4l-14-23.4 16.3-25.8z"/><path fill="#3b4d33" d="M236.1 11.1l30.5-14-45.7 43.3z"/><path fill="#e4b17e" d="M222 216.2L195.2 75.6 180 216.2z"/><path fill="#81491c" d="M33.4 120.1L65 126l29.3-31.7z"/><path fill="#eef8ff" d="M269 19.3l17.5-9.3L269 60.4z"/><path fill="#d19c64" d="M94.3 97.9L174 83.8 35.7 70.9z"/><path fill="#0a0d01" d="M150.6 131.8l-15.2 5.9 10.5-16.4z"/><path fill="#d81d0d" d="M157.6 168.2l-2.3-25.8-23.5-10.6z"/><path fill="#510a03" d="M99 162.3l17.6 21.1 54-23.4z"/><path fill="#b28a66" d="M185.7 60.4l-27 22.2 27 37.5z"/><path fill="#f6ffff" d="M233.8-5.3l27-5.8-34 30.4z"/><path fill="#6a5418" d="M217.4 130.7l10.5-21.1 1.2 50.4z"/><path fill="#011101" d="M119 97.9l-10.6 17.5 43.4-18.7z"/><path fill="#0a1708" d="M318.2 83.8l-48-1.2 25.7-100.8z"/><path fill="#d6ccb6" d="M6.4 115.4L-18.2 173h44.6z"/><path fill="#bd9262" d="M170.5 46.3l28.1-50.4v61z"/><path d="M150.6 198.6l17.6-65.6 2.3 32.8z"/><path fill="#1a5434" d="M124.8 120.1l1.2 28.1 9.4-41z"/><path fill="#92947d" d="M228 78l-1.2-45.8L252.5 17z"/><path d="M4.1 112l-22.3-45.8v103.1z"/><path fill="#dfdcd6" d="M242 79.1l-18.8 4.7L248 86z"/><path fill="#5d604a" d="M151.8 73.2L85 81.4l24.6-15.2z"/><path fill="#fff" d="M250.2 117.8l-17.6-9.4 5.9 30.5z"/><path fill="#070000" d="M96.7 216.2H85l12.9-30.5z"/><path fill="#ee5831" d="M114.3 140l7-9.3 3.5 34z"/><path fill="#e6bf9a" d="M114.3 107.2l-30.5 42.2-22.3-4.7z"/><path fill="#101e24" d="M141.2 106l22.3 23.5 19.9-31.6z"/><path fill="#f6fffe" d="M113-1.8l-7 15.3 7 3.5z"/><path fill="#ecf5e8" d="M94.3 7.6l2.4 39.9-8.2-24.6z"/><path fill="#4a5f28" d="M172.9 59.2l-10.6 10.5 18.8 2.4z"/><path d="M124.8 185.7l22.3-34-23.5 3.6z"/><path fill="#c5a584" d="M99 45.1l45.7-34 46.9-1.1z"/><path fill="#fff" d="M222 38l2.4-11.6-5.8 2.3z"/><path fill="#eec18d" d="M169.3 121.3l31.7-18.8-27 68z"/><path fill="#2b260e" d="M218.6 49.8l-20 50.4 15.3 2.3z"/><path fill="#465150" d="M134.2 7.6l-23.5-25.8h32.9z"/><path fill="#563c2b" d="M60.4 5.3v-23.5L51 1.8z"/><path fill="#cbb78c" d="M167 93.2L141.2 72l29.3 2.3z"/><path fill="#55350e" d="M-8.8 47.5l48 7L17 73.2z"/><path fill="#004265" d="M189.3 108.4l-3.6-24.6 5.9 5.8z"/><path fill="#3d5f44" d="M251.4 72l-8.2 40 10.5-3.6z"/><path fill="#8da7a4" d="M254.9 114.3l1.2 38.6-10.6-11.7z"/><path fill="#5a0000" d="M-3 85l21.2 5.8L-18.2 44z"/><path fill="#c2a385" d="M40.4 122.5l65.7 49.2-43.4 37.5z"/><path fill="#544c25" d="M209.2 83.8l14-45.7-12.8 4.7z"/></g></svg>