<svg xmlns="http://www.w3.org/2000/svg" viewBox="0 0 300 199"><defs/><path fill="#606d3b" d="M0 0h300v199H0z"/><g fill-opacity=".5"><path fill="#fffafc" d="M295.9 216.2l-314-16.4 157-36.3z"/><path fill="#10161b" d="M292.4 137.7l-116-155.9 117.2 34z"/><path fill="#a0b950" d="M211.5 47.5L-17 134.2l173.4-143z"/><path fill="#495b1a" d="M158.8 37L18.2 189.2l300-16.4z"/><path fill="#070a12" d="M85 52.1l34-70.3-137.2 43.4z"/><path fill="#fffbff" d="M85 217.4l-103.2-27 194.6-2.3z"/><path fill="#1a081c" d="M318.2 213.9l-52.8-23.5 32.8-89z"/><path fill="#a1a474" d="M143.6 154.1L-3 179.9l151.1 14z"/><path fill="#050708" d="M244.3 168.2L208 109.6 190.4 167z"/><path fill="#9cb743" d="M196.3 29.9l-12.9 36.3 93.7 46.9z"/><path fill="#1d3e05" d="M.6 165.8L86 136.5l31.7 29.3z"/><path fill="#abb167" d="M198.6 167l49.3 34-113.7-24.6z"/><path fill="#fff2ff" d="M99 196.3l117.2 21-2.3-31.6z"/><path fill="#becd89" d="M33.4 148.2L5.3 133h61z"/><path fill="#d9e9dc" d="M37 42.8l30.4 5.8-46.9 3.5z"/><path fill="#a2b790" d="M245.5 38l12.9 20-34-8.2z"/><path fill="#a2ad92" d="M272.5 66.2l15.2-5.8-1.2 29.2z"/><path fill="#a284b0" d="M147 196.3l-32.7-44.5 29.3 1.1z"/><path fill="#1d201a" d="M10 42.8l24.6-61 52.7 63.3z"/><path fill="#232b0f" d="M158.8 99l-7 69.2-27-54z"/><path fill="#400b34" d="M122.5 191.6l17.5-7-2.3-14z"/><path fill="#8cb34a" d="M-18.2 195.1l10.6-29.3 100.8 5.9z"/><path fill="#a8ba64" d="M151.8 32.2L54.5 76.8 167-17z"/><path fill="#182705" d="M269 129.5l-1.2-61 34 42.2z"/><path fill="#748c34" d="M-11.1 122.5l29.3-80.9 63.2 107.8z"/><path fill="#637b25" d="M151.8 13.5l3.5 87.9 136 39.8z"/><path fill="#646d5e" d="M269-8.8l49.2 22.3-77.4 18.7z"/><path fill="#aabb73" d="M54.5 63.9l-20 38.6 61-35.1z"/><path fill="#222220" d="M182.2-18.2l29.3 64.5 88-64.5z"/><path fill="#788738" d="M253.7 217.4l18.8-88-59.8 75z"/><path fill="#f7edf7" d="M90.8 217.4l28.1-34-85.5 9.4z"/><path fill="#3b4131" d="M136.5 10l-123-28.2 69.1 57.5z"/><path fill="#6d872f" d="M101.4 142.4l77.3-93.8-85.5 7z"/><path fill="#e6eee9" d="M8.8 52.1l14-7L37 48.6z"/><path fill="#0e2e00" d="M26.4 145.9L45 171.7 4 145.9z"/><path fill="#658621" d="M109.6 167l10.5 17.6-61-2.4z"/><path fill="#c7c8a2" d="M162.3 6.4l-18.7 5.9L108.4-17z"/><path fill="#0c1b00" d="M293.6 55.7L227.9 79l42.2-32.8z"/><path fill="#000200" d="M38 60.4L32.3 65 17 51z"/><path fill="#aebc95" d="M25.2 62.7L13.5 45.1 17 74.4z"/><path fill="#2b4901" d="M81.4 52.1l-45.7-3.5 32.9 13z"/><path fill="#473b3d" d="M265.4 155.3l27-54-17.6 116z"/><path fill="#3a4903" d="M13.5 108.4l23.4-10.5L30 72z"/><path fill="#91bd09" d="M-18.2 109.6l34-29.3 11.7 17.6z"/><path fill="#cfd6bf" d="M293.6 12.3l10.5-1.2-24.6-9.3z"/><path fill="#3b3d13" d="M181 113l-36.3 1.3 44.6-52.8z"/><path fill="#202918" d="M-.6 49.8l97.3-16.4-43.4-17.6z"/><path fill="#dce3db" d="M8.8 165.8L-6.4 174l22.2-3.5z"/><path fill="#816259" d="M178.7 116.6l2.4 38.7-31.7-39.9z"/><path fill="#96b059" d="M247.9 123.6V80.3l22.2 27z"/><path fill="#2d410b" d="M112 66.2l-8.3 14-20-5.8z"/><path fill="#21350d" d="M17 122.5L3 135.4l-21.2-27z"/><path fill="#303e14" d="M203.3 174l41-78.5-8.2 76.2z"/><path fill="#717689" d="M27.5 18.2L-5.3 2.9 18.2-8.8z"/><path fill="#acc06b" d="M153 62.7l-9.4-12.9 9.3-30.5z"/><path fill="#d3e775" d="M52.1 55.7L37 53.3 49.8 64z"/><path fill="#354b1d" d="M150.6 137.7l51.5 31.6-58.5-1.1z"/><path fill="#e3e4e4" d="M143.6 154.1l-2.4 17.6-5.8-22.3z"/><path fill="#92a64c" d="M157.6 185.7l69.2-7-72.7-14z"/><path fill="#e6ede6" d="M292.4 37l8.2 1-10.6 3.6z"/><path fill="#222d18" d="M113 164.6l27-49.2-14-5.8z"/><path fill="#86666e" d="M115.4 191.6l27-3.5-10.6-56.3z"/><path fill="#8fa154" d="M20.5 123.6l48-35.1 21.1 12.9z"/><path fill="#cbce7b" d="M179.9 54.5l19.9 5.9-7 8.2z"/><path fill="#5b4b5a" d="M160 .6l32.8 25.8 8.2-39.9z"/><path fill="#b8c2a6" d="M286.5 14.6l10.6 2.4-15.3 7z"/><path fill="#4f621e" d="M192.8 73.2l-29.3-58.6-8.2 36.4z"/><path fill="#bac891" d="M68.6 141.2l-13-4.7 10.6-9.4z"/><path fill="#bcd08d" d="M74.4 88.5l31.7-7-8.2 8.1z"/><path fill="#121e13" d="M274.8 74.4l43.4-17.6v17.6z"/><path fill="#b4b59e" d="M134.2 167l-11.7-16.4-5.9 32.8z"/><path fill="#c7d1bd" d="M256 18.2h-5.8L249 29.9z"/><path fill="#6c823b" d="M48.6 187l11.8-26-78.6 33z"/><path fill="#7a8a55" d="M92 12.3L53.3-2.9l21.1-13z"/><path fill="#4d6a13" d="M117.8 156.4L66.2 146 92 81.4z"/><path fill="#233614" d="M245.5 48.6l29.3 59.8-45.7-48z"/><path fill="#1a1513" d="M279.5 155.3l14 44.5 23.5-37.5z"/><path fill="#7a7361" d="M287.7 165.8l-24.6-3.5-17.6 39.8z"/><path fill="#d4f2a8" d="M103.7 164.6l1.2 6-13-3.6z"/><path fill="#090b0a" d="M225.6 157.6l-28.1 10.6 7-37.5z"/><path fill="#253715" d="M106 163.5L71 126v42.2z"/><path fill="#667f29" d="M142.4 24l-17.6-2.3-8.2 48z"/><path fill="#9ea49b" d="M276 76.8l42.2-5.9v11.7z"/><path fill="#e9dcdd" d="M242 208l-96.1-24.6-41 34z"/><path fill="#2e3823" d="M318.2 96.7L267.8-8.8l-10.6 35.2z"/><path fill="#2c5a05" d="M.6 52.1l-18.8-17.5L18.2 2.9z"/><path fill="#5e5a50" d="M24 42.8l11.7-41v32.8z"/><path fill="#455516" d="M11.1 127.1l24.6 8.3 17.6-21.1z"/><path fill="#546824" d="M274.8 127.1l-48 21.1v62.2z"/><path fill="#a2aa98" d="M291.2 62.7L269 63.9l20 7z"/><path fill="#bcc993" d="M32.2 142.4l20-13-20 24.7z"/><path fill="#302f11" d="M191.6 112l-7 39.8-5.9-39.9z"/><path fill="#fff" d="M127.1 63.9v2.3L119 64z"/><path fill="#2e3c0d" d="M133 73.2l-8.2 34-7-14z"/><path fill="#584c4d" d="M131.8 165.8l-7-27 17.6-12.8z"/><path fill="#a3ab68" d="M48.6 137.7l-15.2-20-18.8-5.8z"/><path fill="#112b00" d="M22.9 75.6l-24.7 7 1.2-7z"/><path fill="#b2c75e" d="M201 39.3L226.8 86l-7-29.3z"/><path fill="#87954c" d="M192.8 160l-23.5 23.4 17.6 7z"/><path fill="#192900" d="M55.7 69.7l-8.2 2.4-10.6-13z"/></g></svg>