<svg xmlns="http://www.w3.org/2000/svg" viewBox="0 0 300 199"><defs/><path fill="#525d47" d="M0 0h300v199H0z"/><g fill-opacity=".5"><path fill="#a6ba9f" d="M165.8 143.6L235 4 97.9-18.2z"/><path fill="#051101" d="M4.1-18.2l-22.3 195.7 113.7-35.1z"/><path fill="#c6afc8" d="M115.4 168.2l164 25.7-82 23.5z"/><path fill="#221323" d="M144.7 113L49.8 88.6l172.3-8.2z"/><path fill="#aabcab" d="M216.2 104.9l-58.6-84.4L228 38.1z"/><path fill="#352b26" d="M315.8 128.3L82.6 149.4l235.6 41z"/><path fill="#c7caec" d="M172.9 136.5l11.7-29.3-38.7-11.7z"/><path fill="#9ba77e" d="M176.4 70.9L90.8 81.4 99 20.5z"/><path fill="#193912" d="M220.9-18.2l10.5 57.5h86.8z"/><path fill="#91b081" d="M58 95.5L45.1 24l27 36.4z"/><path fill="#100b1a" d="M100.2 175.2l51.6-18.8V112z"/><path fill="#c9dcc6" d="M97.9 94.3l11.7 42.2-13-3.5z"/><path fill="#ff8f4c" d="M131.8 144.7l-15.2-2.3 4.7-24.6z"/><path fill="#1a251a" d="M-18.2 162.3L87.3 62.7 72.1 170.5z"/><path fill="#6fab43" d="M14.6 217.4l-32.8-52.8 78.6 8.3z"/><path fill="#7fae69" d="M249 102.5l69.2 30.5-51.6 4.7z"/><path fill="#d3ffff" d="M128.3 117.8l5.9 10.5 3.5-19.9z"/><path fill="#4b663e" d="M72-18.2l129 79.7L33.4 30z"/><path fill="#7b646c" d="M284.2 162.3l-32.8 35.2L127 169.3z"/><path fill="#8fa36c" d="M243.2 46.3l18.7-14-8.2 76.1z"/><path fill="#25170f" d="M209.2 102.5L133 90.8l72.7-9.4z"/><path fill="#2e4b1e" d="M270.1 119l-7-137.2 55 112.5z"/><path fill="#bdcc9e" d="M176.4 55.7l-59.8 3.5L133 82.6z"/><path fill="#1c2513" d="M52.1 27.5l-70.3-28 79.7-17.7z"/><path fill="#403e3a" d="M252.5 61.5L128.3 167 249 137.7z"/><path fill="#4f6a50" d="M192.8 26.4l18.7 36.3 4.7-57.4z"/><path fill="#a4a4bb" d="M92 115.4L86 98l-4.7 44.5z"/><path fill="#acc198" d="M11.1 53.3l9.4 9.4-8.2-28.1z"/><path fill="#505b50" d="M142.4 122.5L184.6 52l-11.7 46z"/><path fill="#b7c3bf" d="M196.3 51l-18.8-40-19.9 38.7z"/><path fill="#dfb164" d="M202.1 104.9l-9.3-3.5 8.2 32.8z"/><path fill="#171d0a" d="M308.8 168.2l-28.1-29.3-45.7 19.9z"/><path fill="#405d32" d="M128.3 212.7L54.5 101.4l16.4 91.4z"/><path fill="#d7d5e4" d="M164.6 128.3l-14-16.4 31.6-11.7z"/><path fill="#00050f" d="M117.8 134.2l-14 2.3-1.3 23.5z"/><path fill="#7a9f74" d="M216.2 154.1l2.4-45.7 11.7 27z"/><path fill="#c5b7ba" d="M224.4-18.2h-17.6l13 62.1z"/><path fill="#353219" d="M67.4 104.9l19.9-49.2L76.8 11z"/><path fill="#5b593f" d="M172.9 109.6l-29.3-38.7 24.6 4.7z"/><path fill="#194da8" d="M65 128.3l1.2-23.4-12.9-2.4z"/><path fill="#00000f" d="M143.6 149.4l-7-46.9 17.5 18.8z"/><path fill="#0f1600" d="M41.6 127.1l32.8 50.4-18.7 1.2z"/><path fill="#575182" d="M190.4 135.4l-36.3-6-5.9 21.2z"/><path fill="#707f58" d="M175.2 199.8l-98.4-22.3 55-4.6z"/><path fill="#5c624c" d="M117.8 38l-5.9 47-70.3-2.4z"/><path fill="#86a863" d="M3 217.4l46.8-61-68 50.4z"/><path fill="#a5a2a6" d="M254.9 194l-35.2 23.4-83.2-39.9z"/><path fill="#3c343a" d="M114.3 78l45.7 32.7-56.3 1.2z"/><path fill="#95e4eb" d="M164.6 99l-18.6 6 15.2-11.7z"/><path fill="#a3c18e" d="M258.4 121.3l7-27L269 133z"/><path fill="#070113" d="M81.4 144.7l-1.1-58.6-16.4 28.2z"/><path fill="#9ccba0" d="M86.1 209.2l-17.5-17.6-13 1.2z"/><path fill="#383e1c" d="M137.7 217.4l-28.1-38.7-59.8 5.9z"/><path fill="#bbd19e" d="M223.2 60.4l-32.8 14-8.2-12.9z"/><path fill="#685e66" d="M219.7 81.4l18.8-48-15.3-51.6z"/><path fill="#1c1a18" d="M120.1 78l41 16.3-72.6-1.1z"/><path fill="#153605" d="M233.8-1.8l18.7 7-7 49.3z"/><path fill="#d0bab4" d="M128.3 96.7l1.2 12.9 3.5-3.5z"/><path fill="#141723" d="M210.4 148.2l-10.6-34 17.6-4.6z"/><path fill="#442424" d="M190.4 155.3l-9.3-66.8 18.7 35.1z"/><path fill="#e0ffb6" d="M129.5 11.1L140-5.3l1.2 11.7z"/><path fill="#4f781e" d="M7.6 197.5l23.5 19.9L87.3 160z"/><path fill="#738e62" d="M203.3 92l3.5-31.6 27 59.7z"/><path fill="#456139" d="M171.7 41.6l1.2 44.5L185.7 71z"/><path fill="#486b37" d="M287.7 142.4l30.5-41L278.3 38z"/><path fill="#244301" d="M-1.8 172.9L-18.2 208l34-31.6z"/><path fill="#beccc1" d="M172.9-.6l2.3-17.6 27 34z"/><path fill="#1b4100" d="M153 27.5l-7.1 1.2 7 18.8z"/><path fill="#2f3926" d="M230.3 70.9l30.4 58.6-23.4 7z"/><path fill="#486921" d="M-18.2-6.4L10 73.2 11 17z"/><path fill="#85917a" d="M87.3 40.4L147.1 30l-44.6-6z"/><path fill="#0e140a" d="M161.1 88.5l-1.1-14-17.6 23.4z"/><path fill="#181930" d="M92 148.2l-3.5-32.8 9.4 7z"/><path fill="#0086a0" d="M103.7 147l-10.5-3.4 9.3-9.4z"/><path fill="#708561" d="M68.6 55.7l-5.9-37.5-17.6 75z"/><path fill="#e8dbd2" d="M167 56.8L165.8 71l-14-11.7z"/><path fill="#8da46a" d="M150.6 86.1l-18.8-3.5L153 46.3z"/><path fill="#777b8c" d="M83.8 149.4l11.7-43.3-12.9-1.2z"/><path fill="#a3adab" d="M53.3 76.8L62.7 92l1.2-7z"/><path fill="#1a200a" d="M17 171.7L48.6 154l-63.2-48z"/><path fill="#81906e" d="M38 .6l6 35.1-9.4-7z"/><path fill="#e5673a" d="M115.4 145.9l11.7-1.2v-24.6z"/><path fill="#7d9c6e" d="M81.4 145.9l-14 3.5L85 162.3z"/><path fill="#18260c" d="M254.9 82.6l8.2-10.5-4.7 36.3z"/><path fill="#a5baa4" d="M264.3 49.8l-13-7 3.6 16.4z"/><path fill="#19170c" d="M3-18.2l28 37.5-8 43.4z"/><path fill="#57714c" d="M251.4 20.5l15.2 48-2.3-73.8z"/><path fill="#617a54" d="M8.8 94.3L7.6 79.1l18.8 16.4z"/><path fill="#60697a" d="M148.2 145.9l15.3-1.2-2.4-27z"/><path fill="#4d6442" d="M216.2 17l-21 31.6 5.8-36.3z"/><path fill="#7c9fb0" d="M.6 172.9l20-1.2-35.2-8.2z"/><path fill="#f8fbff" d="M155.3 115.4l-1.2 7 9.4-9.3z"/><path fill="#192943" d="M168.2 143.6l-13-14.1L173 133z"/><path fill="#c7cee1" d="M179.9 131.8L164.6 119l-2.3 11.8z"/><path fill="#b5aab6" d="M119 100.2l2.3-4.7 2.3 8.2z"/><path fill="#ffecc8" d="M99 113l-3.5 3.6 16.4 2.3z"/><path fill="#cecdda" d="M167 117.8l11.7-1.2v-21z"/><path fill="#231a17" d="M250.2 168.2l-31.6-10.6 71.4-10.5z"/><path fill="#295300" d="M107.2 5.3l5.9 22.2L88.5-5.3z"/><path fill="#638043" d="M121.3 162.3l-23.4 29.3-3.6-28.1z"/></g></svg>