<svg xmlns="http://www.w3.org/2000/svg" viewBox="0 0 300 199"><defs/><path fill="#583c4e" d="M0 0h300v199H0z"/><g fill-opacity=".5"><path fill="#dfd9d2" d="M24 42.8l186.4 21-201.6 41z"/><path fill="#000005" d="M-18.2 195.1l120.7-130L242 217.3z"/><path fill="#9c6b82" d="M-18.2-14.6l307 12.8-304.6 69.2z"/><path fill="#fff" d="M85 33.4L40.4 76.8 71 77.9z"/><path fill="#fffffc" d="M203.3 54.5l-27 20-66.7-13z"/><path fill="#9d8391" d="M197.5 76.8l114.8-14.1-68 57.4z"/><path d="M188 157.6l-28-23.4L190.4 65z"/><path fill="#35001f" d="M288.9 217.4l-79.7-78.5 109-27z"/><path d="M-18.2 188l29.3-67.9 30.5 97.3zM68.6 80.3l65.6 137 91.4-3.4z"/><path fill="#3c2f5f" d="M58 217.4l-36.3-51.6L87.3 46.3z"/><path fill="#e998c7" d="M213.9 147l-24.6-3.4 25.7 49.2z"/><path fill="#674965" d="M86.1 73.2l69.2 70.4 12.9-72.7z"/><path fill="#948492" d="M89.6 90.8l-29.2 23.5-78.6-41z"/><path fill="#533536" d="M62.7 40.4l154.7 21.1L75.6 1.8z"/><path fill="#f8fff0" d="M147 66.2l-53.8-14-11.8 22.2z"/><path fill="#cb99be" d="M37-18.2L3 52.1-18.3 3z"/><path fill="#0e0000" d="M109.6 53.3l-8.2-5.8-1.2 28z"/><path fill="#7c5661" d="M304.1 6.4l-102 84.4-30.4-93.7z"/><path fill="#010000" d="M80.3 34.6L65 33.4 45.1 70.9z"/><path d="M318.2 194l-187.5-6 89 29.4z"/><path fill="#e078b3" d="M260.7 187l-49.2-9.5 4.7 15.3z"/><path fill="#978391" d="M138.9 92l25.7-4.7-7 58.6z"/><path fill="#b697ac" d="M272.5 31l15.2-11.7-42.2-37.5z"/><path fill="#86687f" d="M44-5.3L-17 112l66.8-8.2z"/><path fill="#411d20" d="M149.4 70.9L133 21.7l28.1 5.8z"/><path fill="#fff" d="M45.1 73.2l31.7-31.6L72 76.8z"/><path fill="#070000" d="M122.5 83.8l4.6 75-64.4-12.9z"/><path d="M83.8 38l-5.9 41.1 13-29.3z"/><path fill="#464ca3" d="M63.9 154.1l18.7 7L30 199.8z"/><path fill="#450a54" d="M142.4 128.3l62 55.1-50.3-2.3z"/><path fill="#c23933" d="M87.3 70.9l15.2 27 3.6-23.5z"/><path fill="#382721" d="M148.2 86.1l-24.6-16.4 77.4 4.7z"/><path fill="#fff" d="M189.3 59.2l-39.9 1.2 31.7 14z"/><path fill="#18051f" d="M1.8 172.9l59.7-65.7-79.7 25.8z"/><path fill="#4b2233" d="M44-18.2l56.2 71.5-91.4-68z"/><path fill="#0e0200" d="M40.4 76.8L55.7 86l22.2-1z"/><path fill="#a47399" d="M54.5-18.2h132.4l-34 43.4z"/><path fill="#593f3f" d="M102.5 54.5l131.3 7-57.4-41z"/><path fill="#6a3e55" d="M192.8 99l23.4 78.5 87.9-98.4z"/><path fill="#948482" d="M176.4 58l-11.8-12.9L202.1 23z"/><path fill="#4a0d1f" d="M276 41.6l-28.1-52.7-1.2 38.6z"/><path fill="#fff" d="M80.3 80.3L99 55.7l-10.5-1.2z"/><path fill="#070001" d="M183.4 151.8l11.7-57.5-30.5 14.1z"/><path fill="#003" d="M46.3 217.4h-64.5L86.1 167z"/><path d="M8.8 217.4l21-43.4-48-68z"/><path fill="#9f979b" d="M260.7 68.6l-56.2 7 59.8 15.2z"/><path d="M198.6 205.7L187 148.2l35.2 61z"/><path fill="#462931" d="M189.3 51l8.2 23.4 52.7-5.8z"/><path fill="#9a7d8f" d="M235 49.8l30.4-14 16.4 11.7z"/><path fill="#21040f" d="M170.5 19.3l9.4 14.1-1.2-42.2z"/><path fill="#351117" d="M281.8.6l11.8 61 15.2-15.3z"/><path fill="#654891" d="M120.1 106l20 2.4-9.4 22.3z"/><path fill="#fffffa" d="M117.8 73.2l30.4-12.8-37.5-3.6z"/><path fill="#3e1914" d="M17 33.4l-24.6 41 19.9-14z"/><path fill="#6b2b4c" d="M126 187l-49.2-2.4L65 217.4z"/><path fill="#97738a" d="M21.7 3L65 29.8l-18.7 41z"/><path fill="#0a0000" d="M82.6 60.4L68.6 86l9.3-1.1z"/><path fill="#b594a7" d="M303 8.8l-24.7 16.4 18.8-22.3z"/><path fill="#090c30" d="M138.9 110.7l-41-38.6 36.3 18.7z"/><path fill="#79616e" d="M211.5 134.2L189.3 85l65.6-8.2z"/><path fill="#0b000d" d="M144.7 117.8L87.3 181l65.6 8.2z"/><path fill="#310125" d="M318.2 155.3v51.5l-86.8-31.6z"/><path fill="#7a5f62" d="M107.2 6.4l-8.2 47 31.7 1z"/><path fill="#260115" d="M252.5 113l39.9 17.7-46.9-5.9z"/><path fill="#ac879a" d="M245.5 33.4l-28.1-3.5L229 18.2z"/><path fill="#46243a" d="M-18.2 120.1l68 45.7 25.8-56.2z"/><path fill="#212870" d="M67.4 177.5l-34 16.4-9.4-49.2z"/><path fill="#674f6b" d="M90.8 72l57.4 21.2-21-22.3z"/><path d="M287.7 92l17.6-8.2 12.9 17.6z"/><path fill="#9a8b99" d="M28.7 99L-17 75.6 88.5 92z"/><path fill="#caa8cb" d="M216.2 15.8l38.7-34H236z"/><path fill="#010004" d="M117.8 172.9l28.1 44.5L280.7 202z"/><path fill="#fff" d="M76.8 61.5L79 41.6 48.6 66.2z"/><path fill="#806678" d="M274.8 69.7l15.2-41L270.1 44z"/><path d="M286.5 11.1l-5.8-4.7 12.9-18.7z"/><path fill="#51153c" d="M205.7 161.1l43.3 21.1h-28z"/><path fill="#140005" d="M121.3 95.5l-43.4-1.2 9.4 77.4z"/><path fill="#57454b" d="M14.6 83.8L59.2 85l-15.3-8.2z"/><path fill="#45252c" d="M112 56.8l52.6-2.3L188.1 17z"/><path fill="#682450" d="M128.3 156.4l14 16.5-11.6 1.1z"/><path fill="#ff756f" d="M102.5 80.3l-1.1 14L95.5 78z"/><path fill="#a2939f" d="M162.3 121.3l-15.2 9.4 9.3 9.3z"/><path fill="#290719" d="M63.9 149.4L39.3 167l10.5-52.7z"/><path fill="#380e1f" d="M228 18.2l-13-3.6-24.6 25.8z"/><path fill="#83606a" d="M68.6 128.3l-5.9-27-4.7 32.9z"/><path fill="#fffff4" d="M143.6 70.9L111.9 58h34z"/><path fill="#6e5d68" d="M26.4 108.4l50.4 1.2L59.2 85z"/><path fill="#120608" d="M181 85l-16.4-7-22.2 5.8z"/><path fill="#482532" d="M258.4 69.7l15.2-28.1-48 18.8z"/><path fill="#230f16" d="M63.9 41.6h23.4l-21-14z"/><path fill="#1c0813" d="M201 102.5l-35.2 41-1.2-38.6z"/><path fill="#624" d="M82.6 158.8l1.2-16.4L51 155.3z"/><path fill="#aa9b9a" d="M201 29.9L190.4 38l-8.2-15.2z"/><path fill="#765162" d="M89.6 3l18.8 51.5-46.9-32.8z"/><path fill="#695765" d="M190.4 89.6l-58.6 35.2 37.5-41z"/><path fill="#c5a3c5" d="M154.1 92l-7 11.7 7 4.7z"/><path fill="#522e35" d="M142.4 26.4l5.8 44.5 13-41z"/><path fill="#420d49" d="M154.1 177.5l28.1 14.1 8.2-49.2z"/><path fill="#7070b0" d="M143.6 78l-22.3 5.8 4.7 7z"/></g></svg>