<svg xmlns="http://www.w3.org/2000/svg" viewBox="0 0 300 199"><defs/><path fill="#4c412e" d="M0 0h300v199H0z"/><g fill-opacity=".5"><path fill="#ce9b5a" d="M197.5 217.4l-82-174.6L4 157.6z"/><path d="M313.5 217.4L31-18.2 186.9-10z"/><path d="M168.2 187l150-105.6-22.3 136z"/><path fill="#837d7d" d="M24 127.1l35.2-98.4 154.7 105.5z"/><path fill="#af7106" d="M5.3 217.4L24 154l137.1-41z"/><path d="M28.7-18.2l214.5 139.5-56.3-139.5z"/><path fill="#bb8f43" d="M198.6 106l-82-5.8-23.4 117.2z"/><path fill="#53666c" d="M189.3-13.5l49.2 109 36.3-113.7z"/><path fill="#210000" d="M56.8 164.6l35.2 6 3.5-31.7z"/><path fill="#040001" d="M112 126l7-34-16.5 18.7z"/><path fill="#535657" d="M-15.8 122.5L133 62.7 34.6-18.2z"/><path fill="#a26919" d="M58 171.7l102 45.7 29.3-59.8z"/><path fill="#150b00" d="M299.4 147l-90.2-37.4-31.7 107.8z"/><path fill="#010602" d="M201 94.3l-43.4 8.2-49.2-68z"/><path fill="#0a151c" d="M-1.8 217.4L-18.2 126l44.6 28z"/><path fill="#313b3e" d="M272.5-18.2l45.7 113.7-93.8 57.4z"/><path fill="#837e7d" d="M168.2 163.5l-24.6-61 49.2 1.2z"/><path fill="#0f0000" d="M107.2 188L64 184.7l-18.8 27z"/><path fill="#79482d" d="M129.5 70.9l-15.2 24.6 49.2 50.4z"/><path fill="#a1aba1" d="M103.7 145.9L64 108.4l39.8 8.2z"/><path fill="#7b5a5f" d="M21.7 103.7l-8.2 66.8 84.4-76.2z"/><path fill="#cfb54d" d="M128.3 99L92 181l49.2-51.5z"/><path fill="#4e221b" d="M136.5 217.4l44.6-64.5-76.2 64.5z"/><path fill="#322c17" d="M163.5 128.3l28.1-10.5-43.4 1.1z"/><path fill="#c48263" d="M150.6 112l9.4 86.6-21.1-23.4z"/><path fill="#ba6d04" d="M44 150.6l3.5 66.8L11 196.3z"/><path fill="#cacabb" d="M149.4 100.2l-2.3 12.9 34-2.4z"/><path fill="#6b7d7f" d="M97.9 113L133 67.5 71 42.8z"/><path fill="#140d00" d="M253.7 153L204.5 19.2l-36.3 70.3z"/><path fill="#9c3836" d="M21.7 131.8l-39.9-38.6 97.3 43.3z"/><path fill="#d6aa71" d="M150.6 100.2L137.7 85 126 100.2z"/><path d="M232.6 182.2l57.4-14-11.7-42.2z"/><path fill="#3f220b" d="M249 169.3l-77.3-10.5 62-45.7z"/><path fill="#d19419" d="M163.5 178.7L160 194l43.3 13z"/><path fill="#0d0804" d="M99 160l-32.8-2.4 4.7 14z"/><path fill="#826951" d="M192.8 153l11.7-15.3-38.7-50.4z"/><path fill="#b78e05" d="M103.7 127.1l-21 25.8-62.2 7z"/><path fill="#9e9a94" d="M74.4 80.3l43.4 27-5.9-16.5z"/><path fill="#939495" d="M19.3 151.8l3.6-16.4 34 4.6z"/><path fill="#40443f" d="M222 54.5l22.3 69.1 73.9-141.8z"/><path fill="#bcbdb6" d="M176.4 134.2l21-9.4-44.5 4.7z"/><path fill="#5a0909" d="M147 106l-3.4 11.8-20-11.7z"/><path fill="#3f4136" d="M169.3 74.4l1.2 28.1L140 41.6z"/><path fill="#f74d58" d="M69.7 123.6l-21 5.9 21 8.2z"/><path d="M103.7 106l10.6 7-5.9 11.8z"/><path fill="#2e312c" d="M290 168.2l28.2-88L266.6 58z"/><path fill="#353e3c" d="M-.6-18.2l72.7 93.8-73.9-35.2z"/><path fill="#d1962b" d="M181 157.6l6 10.6-29.4 19.9z"/><path fill="#a27520" d="M148.2 120.1l-17.5 79.7h-41z"/><path fill="#656460" d="M-18.2-12.3L65 36.9 21.7-15.8z"/><path fill="#868b82" d="M209.2 34.6l8.2-7 21 23.4z"/><path fill="#1a0b02" d="M177.5 183.4l23.5 28.1-7-63.3z"/><path fill="#b78766" d="M187 138.9l-44.6 17.5 2.3 20z"/><path fill="#5d4b41" d="M12.3 90.8l10.6-42.2 58.5 62.1z"/><path fill="#030500" d="M198.6-18.2l-82 9.4 51.6 91.4z"/><path fill="#636e68" d="M208 .6l20-12.9 58.5 49.2z"/><path fill="#67432a" d="M192.8 126l-35.2 18.7 43.4 3.5z"/><path fill="#452f15" d="M74.4 191.6l-27-17.6-2.3 43.4z"/><path fill="#030600" d="M4.1 210.4L-18.2 160l32.8 17.5z"/><path fill="#475147" d="M96.7-18.2l24.6 38.7-44.5-38.7z"/><path d="M150.6 62.7L113 31.1l44.5 72.6z"/><path fill="#000100" d="M135.4 58l-82-62 30.4-14z"/><path fill="#9c5e41" d="M74.4 184.6l-31.6-16.4 17.6-11.8z"/><path fill="#886e54" d="M114.3 119l-23.5 29.2 9.4 11.8z"/><path fill="#6e6e69" d="M37 113l67.9-2.3-38.7-44.5z"/><path fill="#453f3b" d="M-18.2 148.2l31.7 21.1L31 92z"/><path fill="#1d1307" d="M253.7 138.9l-46.9 5.8-28-97.2z"/><path fill="#454f4a" d="M120.1 48.6l8.2 42.2 7-17.6z"/><path fill="#150d00" d="M75.6 184.6L62.7 208l44.5-21z"/><path fill="#b19432" d="M73.2 177.5l51.6-28-20 26.9z"/><path fill="#221d1a" d="M318.2 174l-43.4 43.4-100.8-34z"/><path fill="#3b4035" d="M122.5 20.5l19.9 15.2 9.4 27z"/><path d="M259.6 165.8l-75 7 35.1 8.3z"/><path fill="#313b3a" d="M311.1 48.6l-99.6-66.8 106.7 20z"/><path fill="#201503" d="M175.2 121.3l9.4-12.9-1.2 10.5z"/><path fill="#873800" d="M72 154.1l14.1 8.2 9.4-22.3z"/><path fill="#403f37" d="M287.7 122.5l-64.5-75 23.5 85.5z"/><path d="M267.8 177.5l9.3-48-36.3 5.9z"/><path fill="#cbb65f" d="M112 122.5l23.4-13-27 36.4z"/><path fill="#bf7a65" d="M127.1 110.7l-11.7 2.4-2.3-14z"/><path fill="#83621d" d="M119 189.3l-48.1-20-15.2 13z"/><path fill="#2b1800" d="M155.3 183.4l9.3-17.6 11.8-4.7z"/><path fill="#3a413b" d="M76.8 42.8L133 60.4 51-5.3z"/><path fill="#6d6d66" d="M236.1 49.8l27 30.5-15.2-5.9z"/><path fill="#99610a" d="M49.8 148.2L2.9 217.4 21.7 161z"/><path fill="#b1b9b9" d="M103.7 123.6L75.6 112l28.1 3.5z"/><path fill="#626c66" d="M217.4 39.3l-34-57.5h36.3z"/><path fill="#060703" d="M110.7 106l5.9 11.8-11.7 3.5z"/><path fill="#080a02" d="M198.6 10l23.5 49.2L138.9 38z"/><path fill="#b08930" d="M92 194l44.5-7-35.1 30.4z"/><path fill="#5a635d" d="M149.4 89.6l17.6 4.7 14 15.3z"/><path fill="#3e2914" d="M242 144.7l7 22.3-66.8 3.5z"/><path fill="#363731" d="M215 20.5L281.8 99 262 41.6z"/><path fill="#aaa693" d="M158.8 103.7l30.5 2.4-44.6 11.7z"/><path fill="#88705e" d="M157.6 157.6l24.6-14-21 28z"/><path fill="#100" d="M174 157.6l9.4-10.5 5.9 9.3z"/><path fill="#353734" d="M8.8 83.8l11.7-102-38.7 90.3z"/><path fill="#554239" d="M-18.2 75.6l92.6 34-63.3-55.1z"/><path fill="#ccd3cd" d="M157.6 130.7l4.7 4.7 8.2-7z"/><path fill="#898d80" d="M39.3 109.6L35.7 99 71 110.7z"/></g></svg>