<svg xmlns="http://www.w3.org/2000/svg" viewBox="0 0 300 199"><defs/><path fill="#75695d" d="M0 0h300v199H0z"/><g fill-opacity=".5"><path fill="#e6ffff" d="M217.4 217.4l-215.6-27 285.9-39.8z"/><path fill="#260e04" d="M25.2 201l154.7-69.2-198-85.5z"/><path fill="#ead4c4" d="M136.5 124.8l25.8-97.3 78.5 52.8z"/><path fill="#0f0000" d="M318.2 199.8L231.4 92l55.1-31.6z"/><path fill="#fff" d="M88.5 203.3l106.6 14 79.7-51.5z"/><path fill="#cad5ab" d="M199.8 95.5l11.7-73.8 59.8 151.2z"/><path fill="#fff" d="M179.9 115.4l-61-41 13 35.2z"/><path fill="#708a96" d="M86.1 205.7l167.6-42.2-92.6-22.3z"/><path fill="#361b00" d="M246.7 21.7l-5.9 112.5 77.4 3.5z"/><path fill="#7ea4c2" d="M-18.2 185.7l30.5 31.7 123-56.3z"/><path fill="#321100" d="M48.6 136.5l90.3 41-20-111.3z"/><path fill="#1c0000" d="M-18.2 52.1L44 26.4 3 100.2z"/><path fill="#bfb2a9" d="M304.1 29.9l-58.6-17.6 72.7 91.4z"/><path fill="#ae8e78" d="M1.8 119l91.4-59.8-44.6 61z"/><path fill="#5b3e27" d="M56.8 59.2l261.4-70.3-211-3.5z"/><path fill="#fefbfe" d="M179.9 142.4l-29.3 10.5 17.6 20z"/><path fill="#396142" d="M243.2 127.1l-127.8-10.5 134.8 51.6z"/><path fill="#8d3a15" d="M231.4 103.7l59.8-34L231.4 58z"/><path fill="#fff" d="M73.2 21.7L78-1.8 52.1-18.2z"/><path fill="#fffbff" d="M92 169.3l29.3 2.4-58.6 32.8z"/><path fill="#864a28" d="M25.2 160l28.1 55L72.1 71z"/><path fill="#fff" d="M251.4 184.6l-1.2-43.4 20 16.4z"/><path fill="#f2f2f9" d="M211.5 110.7l25.8 15.3 7-29.3z"/><path fill="#0f2300" d="M271.3 115.4l-38.7-28.1 43.4 76.2z"/><path fill="#8a6c4f" d="M157.6 31l-2.3 73.9L79 7.6z"/><path fill="#fff" d="M137.7 205.7l102-41-21.1 52.7z"/><path fill="#c6ccc5" d="M62.7 70.9l35.2 17.6-14.1-38.7z"/><path fill="#a28a78" d="M156.4 14.6l91.5 7-38.7 93.8z"/><path fill="#1c2a40" d="M44 108.4l37.4-66.8-70.3 68z"/><path fill="#e9d6c8" d="M158.8 54.5l34-7-25.8 70.3z"/><path fill="#fff" d="M133 72v40l-11.7-28.2z"/><path fill="#616164" d="M161.1 129.5l21.1 56.2L201 40.4z"/><path fill="#384047" d="M86.1 181l-104.3-66.7v63.2z"/><path fill="#3e7d9d" d="M318.2 197.5L201 206.8l80.8-32.8z"/><path fill="#949ead" d="M46.3 178.7l-61 38.7 48.1-62.1z"/><path fill="#150000" d="M232.6 32.2l52.8 35.2-34-38.7z"/><path d="M80.3 24l12.9 40 4.7-31.7z"/><path fill="#ffd78c" d="M276 148.2l15.2 3.6-15.2 19.9z"/><path fill="#c2cece" d="M40.4 112l-27 9.3-31.6-8.2z"/><path fill="#373f43" d="M149.4 174l-5.8-63.3-27 69.2z"/><path fill="#171b1c" d="M94.3 79.1l16.4 69.1-63.2 41z"/><path fill="#7bdb50" d="M247.9 122.5l-31.7 43.3 46.9-27z"/><path fill="#fffcfc" d="M142.4 206.8l-21.1-25.7 17.6-5.9z"/><path fill="#dafaff" d="M70.9 153h14l-22.2 7z"/><path fill="#7a390e" d="M313.5 187L290 156.3l-27 9.4z"/><path fill="#e7be99" d="M51 70.9l-18.8 3.5-4.7-22.3z"/><path fill="#3b2b1c" d="M195.1 67.4L194-18.2l13 39.9z"/><path fill="#90471c" d="M131.8 157.6L123.6 71l-16.4 32.8z"/><path fill="#823b0f" d="M72 72l10.6 51.6-63.3 57.5z"/><path fill="#d6f1ff" d="M-12.3 172.9l25.8 44.5-2.4-32.8z"/><path fill="#6a3723" d="M49.8 33.4L18.2 62.7 6.4-18.2z"/><path fill="#1b0f03" d="M-18.2 1.8L.6 92l45.7 16.4z"/><path fill="#77604b" d="M137.7 95.5l28.1 7-29.3-84.3z"/><path fill="#000006" d="M74.4 58L65 47.5l6-21.1z"/><path fill="#28471d" d="M211.5 140l-3.5-31.6 46.9 52.7z"/><path fill="#719d6a" d="M254.9 190.4l-36.3-41 14-4.7z"/><path fill="#dacabf" d="M160 66.2l14 50.4 15.3-49.2z"/><path fill="#b2bdc0" d="M191.6 179.9l9.4-38.7-22.3 12.9z"/><path fill="#fff" d="M60.4 78L58 89.5l7-3.5zM4.1 11.1L6.4-8.8l-18.7 21.1z"/><path fill="#616b44" d="M164.6 99l58.6-5.8-15.2 17.5z"/><path fill="#140600" d="M29.9 171.7L20.5 161l-38.7 16.4z"/><path fill="#b05d31" d="M266.6 90.8l-18.7-15.2L283 51z"/><path fill="#45504d" d="M154.1 187l27-27 3.5 18.7z"/><path fill="#b89d93" d="M198.6 104.9l1.2-89 48 36.2z"/><path fill="#5f666c" d="M189.3 96.7l9.3 85.5 23.5-11.7z"/><path fill="#271d0c" d="M306.4 163.5L291.2 72l-51.6 44.5z"/><path fill="#fff" d="M250.2 168.2l-100.8 24.6 57.4 24.6zM75.6 212.7L92 172.9l15.2 42.1z"/><path fill="#e7e8e1" d="M215 110.7l11.8-17.5 9.3 37.5z"/><path fill="#602f16" d="M232.6 55.7l1.2 46.8 29.3-14z"/><path fill="#d3d3d6" d="M182.2 145.9l-27 22.3 2.4-23.5z"/><path fill="#55707d" d="M72 167l51.6-11.7-89 50.4z"/><path fill="#a4a596" d="M107.2 81.4L58 65l27 24.6z"/><path fill="#ffe9be" d="M49.8 55.7l-10.5 1.1v-9.3z"/><path fill="#a09285" d="M272.5 5.3L236 20.5l82 50.4z"/><path fill="#596e82" d="M179.9 133l-61-24.6 95 9.4z"/><path fill="#485e6e" d="M141.2 165.8l-12.9-8.2-21 38.7z"/><path fill="#3e1604" d="M254.9 34.6L287.7 65l-34-1.1z"/><path fill="#403222" d="M219.7-15.8l73.9-2.4-61 39.9z"/><path fill="#3e2e21" d="M131.8 128.3L126 153l79.7-22.2z"/><path fill="#edf7fe" d="M172.9 113l-37.5-8.1 44.5-4.7z"/><path fill="#120706" d="M82.6 140l-1.2-45.7 29.3-10.5z"/><path fill="#fffff9" d="M264.3 144.7l-3.6 35.2-11.7-31.7z"/><path fill="#ad5c2e" d="M40.4 164.6l-1.1-44.5 23.4-32.8z"/><path fill="#5d8cc8" d="M68.6 20.5L83.8 23 73.2 37z"/><path fill="#fff" d="M175.2 163.5l-7 9.4-5.9-18.8z"/><path fill="#20231d" d="M-15.8 142.4l30.4-23.5 23.5 17.6z"/><path fill="#5b555b" d="M254.9 188l-5.9 4.8-8.2-22.3z"/><path d="M249 156.4l-3.5-9.3-8.2 12.9z"/><path fill="#a38f7c" d="M116.6 40.4l-15.2 8.2 2.3-43.3z"/><path fill="#476567" d="M151.8 184.6h-8.2l-1.2 17.5z"/><path fill="#3c5476" d="M68.6 44L52 92l-19.9 2.3z"/><path fill="#fff0d9" d="M192.8 83.8l-2.4-8.2-5.8 22.3z"/><path fill="#9a7d65" d="M153 24l37.4 28.1 2.4-46.8z"/><path fill="#95e661" d="M237.3 160l-12.9-9.4 15.2-7z"/><path fill="#4b3012" d="M148.2 14.6l8.2-31.6-109 3.5z"/><path fill="#fdffff" d="M123.6 85l4.7-14.1 2.4 31.6z"/><path fill="#1e2300" d="M276 162.3l-8.2-41-3.5 24.6z"/><path fill="#83838b" d="M294.7 109.6l23.5 39.8-23.5-86.7z"/></g></svg>