<svg xmlns="http://www.w3.org/2000/svg" viewBox="0 0 300 199"><defs/><path fill="#46423d" d="M0 0h300v199H0z"/><g fill-opacity=".5"><path fill="#fff" d="M142.4 42.8l175.8-34-179.3-27z"/><path fill="#f1deb8" d="M126 87.3l42.2 100.8 18.7-100.8z"/><path fill="#050000" d="M137.7 127.1L-18.2 7.6 6.4 217.4z"/><path d="M190.4 175.2l-19.9-143 48-50.4z"/><path fill="#b1d0cd" d="M213.9 33.4L311-18.2l-25.7 73.9z"/><path fill="#0e0602" d="M137.7 198.6l180.5 8.2v-164z"/><path fill="#fff" d="M199.8 4.1l-78.5-22.3L147 41.6z"/><path fill="#070508" d="M56.8 201L72.1-18.2 110.7 146z"/><path fill="#9d7e63" d="M188 96.7l-83 79.7 8.2-71.5z"/><path fill="#9d8170" d="M254.9 153l-55.1-38.7-5.9 36.3z"/><path fill="#838171" d="M141.2-15.8L140 29.9l-91.4-48z"/><path fill="#fff" d="M216.2-18.2l-68 63.3-7-45.7z"/><path fill="#545e4a" d="M246.7 168.2L222 27.5l68 13z"/><path d="M196.3-18.2l21 15.3-19.8 75z"/><path fill="#74695b" d="M196.3 7.6L181 100.2l-17.6-66.8z"/><path fill="#b2ccc9" d="M199.8-10l82 50.4 23.5-58.6z"/><path fill="#000201" d="M314.6-18.2l-75 211 78.6-112.5z"/><path d="M102.5 155.3L78 163.5l34 53.9z"/><path fill="#b4987c" d="M258.4 183.4l9.4-23.4 19.9 4.6z"/><path fill="#090513" d="M150.6 107.2l18.7 10.6v-17.6z"/><path fill="#d0ceb5" d="M184.6 87.3L152.9 160l25.8-21.1z"/><path fill="#beae8e" d="M102.5 158.8l21.1-25.8 9.4 30.5z"/><path fill="#413237" d="M-18.2 24l85.6 23.5 14 83.2z"/><path d="M170.5 191.6l34-20-17.6-71.4z"/><path fill="#e4e4cc" d="M185.7 94.3l-30.4-8.2-20 15.3z"/><path fill="#000101" d="M-18.2 121.3L.6 188l71.5 1.2z"/><path fill="#8a816a" d="M-18.2 6.4l78.6-24.6 3.5 29.3z"/><path fill="#161112" d="M97.9 90.8l21-23.4 18.8 30.5z"/><path fill="#c6b691" d="M151.8 155.3l1.1-75-16.4 44.5z"/><path fill="#02080b" d="M92 104.9l-8.2-123-23.4 30.4z"/><path fill="#371a12" d="M267.8 134.2l-56.3 9.4 25.8-50.4z"/><path fill="#fff" d="M149.4 37L140-18.3 192.8 11z"/><path fill="#fffce5" d="M109.6 3L76.8-18.3l65.6 16.4z"/><path fill="#5d4f44" d="M185.7 26.4L140 43.9l-10.5 70.4z"/><path fill="#0b0907" d="M196.3 21.7l-14 97.2 28-2.3z"/><path fill="#070b10" d="M260.7 168.2l57.5 29.3-170 8.2z"/><path fill="#6b7766" d="M269 62.7l-57.5-39.8 1.2 44.5z"/><path fill="#576265" d="M86.1.6L98 107.2 114.3 1.8z"/><path fill="#5b443c" d="M134.2 138.9l-27 50.4 69.2-9.4z"/><path fill="#39221c" d="M134.2 120.1l-29.3 28.1-13-60.9z"/><path fill="#a8b4af" d="M217.4-18.2l-4.7 51.6L318.2 17z"/><path fill="#7a7770" d="M190.4 177.5l-7 9.4 29.3-2.3z"/><path fill="#a89b85" d="M187 45.1l8.1-32.8-12.9 7z"/><path fill="#50504e" d="M140 42.8l-28-21.1L140-.6z"/><path fill="#c8c7b5" d="M213.9 124.8l-13 14v-18.7z"/><path fill="#a1664a" d="M229.1 141.2l28.1 2.4-14 23.4z"/><path fill="#d5f0f1" d="M279.5 35.7v16.4l11.7-32.8z"/><path fill="#322c29" d="M164.6 32.2l34 16.4-27 41z"/><path fill="#4c473a" d="M318.2 106l-7-51.5-38.7 97.3z"/><path fill="#a18f78" d="M131.8 75.6l-7 35.1L145.9 92z"/><path d="M306.4 135.4l11.8 50.3-45.7-32.8z"/><path fill="#0e1b28" d="M292.4 20.5l25.8-38.7-15.3 7z"/><path fill="#4f5752" d="M265.4 31l-41-2.3L276 75.6z"/><path fill="#b7b0a4" d="M112 129.5h5.8l-5.9-14z"/><path fill="#83705e" d="M116.6 194l17.6-15.3-3.5-52.7z"/><path fill="#8b9f9e" d="M280.7 32.2l-14.1 24.6L279.5 3z"/><path fill="#fffffd" d="M163.5 39.3L154-18.2l-14 50.4z"/><path fill="#b5dde8" d="M308.8-18.2L290 33.4l28.2-31.6z"/><path fill="#101621" d="M90.8 188l91.4 6-116 23.4z"/><path fill="#1e0901" d="M225.6 165.8l2.3-34-10.5 5.9z"/><path fill="#909790" d="M104.9 102.5l3.5-11.7 9.4 4.7z"/><path fill="#a19586" d="M269 168.2l16.4 9.3-7-15.2z"/><path fill="#73716b" d="M81.4 141.2l-4.6 9.4 10.5 3.5z"/><path fill="#816d5c" d="M127.1 93.2l31.7-18.8 24.6 3.5z"/><path fill="#686866" d="M69.7 196.3l7-22.3L92 184.6z"/><path fill="#42464a" d="M-6.4 33.4L63.9 5.3 65 47.5z"/><path fill="#6e736d" d="M184.6 99l-4.7 18.8-37.5 7z"/><path fill="#315839" d="M271.3 101.4l10.5-32.8-76.1-4.7z"/><path fill="#3e4e53" d="M291.2-13.5l-7 29.3 14-24.6z"/><path fill="#7c6a5a" d="M176.4 167l-17.6 21 20-52.6z"/><path fill="#e1ffff" d="M290 10l23.5-28.2h-18.8z"/><path fill="#515c5d" d="M277.1 25.2l8.3-8.2-8.4 28z"/><path fill="#b9d4d3" d="M288.9-1.8l-14.1 39.9V-6.4z"/><path fill="#b4ab98" d="M104.9 150.6l18.7-5.9-19.9 23.5z"/><path fill="#0f0f0d" d="M87.3 137.7l30.5-4.7-35.2 51.6z"/><path fill="#6f7276" d="M272.5 13.5V31l9.3-31.7z"/><path fill="#c3dedb" d="M270.1 35.7l-2.3-49.2 15.2-4.7z"/><path fill="#828c86" d="M274.8-3l-9.4 36.4-7-9.4z"/><path fill="#d5c7a5" d="M153 145.9l25.7-24.6-2.3 28.1z"/><path fill="#3a3130" d="M167 172.9L133 140l14 64.5z"/><path fill="#0d0b0a" d="M199.8 181l-28.1 1.2 11.7-45.7z"/><path fill="#120c0b" d="M72 183.4l-37.4-63.3-4.7 69.2z"/><path fill="#383f4c" d="M31 191.6l14.1 25.8 42.2-28.1z"/><path fill="#211813" d="M175.2 83.8l48 22.3-16.4 15.2z"/><path fill="#ad8366" d="M262 181l4.6-11.7v13z"/><path fill="#070706" d="M108.4 177.5L89.6 139l7 78.5z"/><path fill="#cae5e0" d="M260.7-18.2h16.4l-12.8 45.7z"/><path fill="#1a0806" d="M251.4 145.9l2.3-14H228z"/><path fill="#7c7269" d="M191.6 150.6l18.8-5.9-11.8-25.8z"/><path fill="#687876" d="M262 18.2l7-8.2-2.4-11.8z"/><path fill="#0e0504" d="M126 99l4.7-11.7h-25.8z"/><path fill="#222329" d="M106 70.9l30.5-2.3 9.4-21.1z"/><path fill="#fff" d="M142.4-1.8l1.2 39.9L215-17z"/><path fill="#060906" d="M238.5 202.1l32.8-83.2-3.5 45.7z"/><path fill="#5d5853" d="M149.4 56.8l-14-21L192.8 65z"/><path fill="#0e1215" d="M202.1-18.2L191.6 78l21.1-52.7z"/><path fill="#4a3b38" d="M120.1 160l-18.7 17.5 53.9-18.7z"/><path fill="#4e392d" d="M205.7 76.8l60.9 32.8-45.7 19.9z"/><path fill="#9c8478" d="M229.1 22.9l-16.4 12.8 17.6 5.9z"/><path fill="#d7c5a2" d="M140 123.6l11.8-32.8-13 5.9z"/></g></svg>