<svg xmlns="http://www.w3.org/2000/svg" viewBox="0 0 300 200"><defs/><path fill="#948f87" d="M0 0h300v200H0z"/><g fill-opacity=".5"><path fill="#fff" d="M-18.2 18.2l313-36.4 23.4 90.3z"/><path fill="#3d3327" d="M-18.2 202.1l336.4-17.5-22.3-134.8z"/><path fill="#f3fdff" d="M13.5 68.6l304.7-55.1-336.4-31.7z"/><path fill="#7d6f5d" d="M-18.2 61.5L318.2 85-14.6 209.2z"/><path fill="#0c0504" d="M266.6 165.8l-71.5 29.3-56.2-61z"/><path fill="#f5f8f8" d="M145.9 70.9l57.4-89 114.9 57.4z"/><path fill="#d5dae3" d="M-18.2 12.3l232-30.5-103 88z"/><path fill="#8b847a" d="M274.8 170.5L109.6 73.2 301.8 51z"/><path fill="#47413a" d="M172.9 202.1l-191-38.6L72 142.4z"/><path fill="#c2ac95" d="M169.3 176.4l-51.5-9.4-13-37.5z"/><path fill="#341804" d="M144.7 41.6v28.1L126 64z"/><path fill="#eaecee" d="M294.7-18.2l23.5 77.4-200.4-34z"/><path fill="#ffe8c1" d="M318.2 172.9v17.5l-48-4.7z"/><path fill="#160e0b" d="M163.5 163.5L273.6 188 248 155.3z"/><path fill="#edceae" d="M213.9 130.7l36.3 27 7-11.8z"/><path fill="#50504f" d="M318.2 78l-47 25.7-90.1-29.3z"/><path fill="#281d10" d="M192.8 169.3l-75 10.6 28.1 17.6z"/><path fill="#928b7e" d="M73.2 117.8l119.6 16.4 45.7-90.3z"/><path fill="#665a4d" d="M250.2 154.1l-145.3 10.5 82-37.5z"/><path d="M292.4 158.8l-28.1 25.8 21-8.2z"/><path fill="#361c0b" d="M151.8 49.8l8.2-4.7-5.9-10.5z"/><path fill="#150b00" d="M99 190.4L71 194l14-23.4z"/><path fill="#381e08" d="M22.9 127.1l24.6 4.7-1.2-14z"/><path fill="#2c251e" d="M79.1 103.7L76.8 58 85 80.3z"/><path fill="#dfe0dd" d="M185.7 69.7l-41-9.3 100.8-78.6z"/><path fill="#7b766e" d="M182.2 178.7l-39.8 9.4 79.7 11.7z"/><path fill="#a2947f" d="M249 176.4h-34l18.8 42.2z"/><path fill="#c7ccd4" d="M-18.2 63.9l45.7-82 51.6 80.8z"/><path fill="#bbab92" d="M121.3 167l-20-115-18.6 33z"/><path fill="#817c74" d="M225.6 55.7h89l-30.4 31.6z"/><path fill="#dbb385" d="M46.3 97.9L74.4 86V55.7z"/><path fill="#d4d7db" d="M120.1 69.7l34-85.5L-4.1 24z"/><path fill="#0b0708" d="M167 156.4l53.9 32.9-57.4-13z"/><path fill="#120f11" d="M52.1 158.8l-31.6 4.7 27 5.8z"/><path fill="#83776f" d="M78 184.6v-29.3L13.4 133z"/><path d="M318.2 78l-22.3 7-1.2-13z"/><path fill="#968878" d="M157.6 144.7L140 169.3l27 14.1z"/><path fill="#6a573c" d="M70.9 73.2L8.8 83.8l21-17.6z"/><path fill="#76797b" d="M-18.2 167l45.7 51.6 22.3-50.4z"/><path fill="#7a6047" d="M120.1 70.9l27 15.2 3.5-38.6z"/><path fill="#908065" d="M83.8 168.2l8.2 14 48-9.3z"/><path fill="#040502" d="M66.2 194l-17.6-9.4-8.2 3.5z"/><path fill="#c8ab80" d="M45.1 113L6.4 128.4l20-25.8z"/><path fill="#3d301e" d="M140 134.2l1.2 19.9 34-21z"/><path fill="#eaebe8" d="M318.2 53.3l-43.4-71.5-62.1 72.7z"/><path fill="#d4d6d6" d="M72-18.2L139 51 86 72z"/><path fill="#7d7a74" d="M41.6 83.8l77.3 37.5L86.1 161z"/><path fill="#bfa78f" d="M265.4 165.8l-9.3-22.2 22.2 11.7z"/><path fill="#baa98f" d="M-14.6 143.6l69 14L23 141.2z"/><path fill="#fee7c3" d="M116.6 143.6l-9.4-15.3 7 28.1z"/><path fill="#c7b79e" d="M31 63.9L5.4 48.6l2.3 30.5z"/><path fill="#251e1a" d="M265.4 169.3l-41-28 36.3 45.6z"/><path fill="#423a33" d="M100.2 195.1l5.9-45.7 14 17.6z"/><path fill="#5c5a40" d="M160 5.3l2.3 5.8-7 2.4z"/><path fill="#dbd2bf" d="M102.5 151.8l-8.2-3.6 13 14.1z"/><path fill="#3c2e25" d="M154.1 49.8l-14-4.7-8.3 22.3z"/><path fill="#716b67" d="M308.8 177.5l-4.7-77.3-119.5-22.3z"/><path fill="#b4a084" d="M130.7 62.7l-5.9 32.8h-21z"/><path fill="#c1af9a" d="M270.1 211.5l-55-18.7 73.8-2.4z"/><path fill="#333332" d="M85 157.6l-17.6-9.4-5.9-21z"/><path fill="#050303" d="M292.4 163.5l-13 3.5 1.3 15.2z"/><path fill="#8b7f6e" d="M129.5 189.3l-73.8 14L195 218.6z"/><path fill="#635d54" d="M185.7 130.7l-48 21 58.6 10.6z"/><path fill="#5b4939" d="M78 55.7l-2.4 22.2 11.7-22.2z"/><path fill="#1a0f03" d="M119 184.6l42-3.6-15.2-7z"/><path fill="#c2ae93" d="M160 194l-23.5 24.6 92.6-17.6z"/><path fill="#d7dad9" d="M144.7 22.9l1.2 25.7 10.5-4.7z"/><path fill="#8f8174" d="M135.4 121.3l5.8 44.5-24.6 10.6z"/><path fill="#a3a09a" d="M168.2 97.9l27-30.5h-31.7z"/><path fill="#594e44" d="M48.6 136.5l-32.8 4.7 37.5 5.9z"/><path fill="#c4cbd9" d="M88.5 8.8l-83.2-27-23.5 82z"/><path fill="#504639" d="M12.3 116.6l-18.7-7 35.1 2.3z"/><path fill="#25190a" d="M215 143.6L198.6 133l23.5 7z"/><path fill="#827a70" d="M292.4 93.2l-76.2 43.3L81.4 98z"/><path fill="#403d36" d="M270.1 90.8l18.8 2.4-7-20z"/><path fill="#3f2609" d="M13.5 131.8l14-5.8-1.1-5.9z"/><path fill="#735c44" d="M158.8 87.3l5.8-14-17.5-7z"/><path fill="#7e7467" d="M236.1 63.9l-5.8 18.7 1.1-37.5z"/><path fill="#534735" d="M225.6 183.4l50.4 5.9-30.5-14.1z"/><path fill="#433e35" d="M81.4 140L99 171.7l13-2.4z"/><path fill="#eddac3" d="M233.8 136.5h-10.6l22.3 16.4z"/><path fill="#7f6f58" d="M49.8 61.5L21.7 82.6l34 8.2z"/><path fill="#614f36" d="M6.4 80.3L-5.3 93.2 5.3 56.8z"/><path fill="#0b0200" d="M79.1 191.6l3.5-32.8 4.7 17.6z"/><path fill="#70675d" d="M113 131.8l25.9 47-13-56.3z"/><path fill="#d3c1a1" d="M68.6 138.9L58 141.2 47.5 133z"/><path fill="#c4bcac" d="M74.4 81.4L61.5 55.7l17.6-9.4z"/><path fill="#010000" d="M171.7 168.2l-15.3-13 28.2 8.3z"/><path fill="#92897c" d="M318.2 55.7L249 75.6l-38.6-18.8z"/><path fill="#554630" d="M52.1 82.6L64 71v-9.4z"/><path fill="#caccc5" d="M46.3 45.1l20-3.5-7.1 32.8z"/><path fill="#eaebef" d="M127.1-11.1l47 32.8L89.5.6z"/><path fill="#656561" d="M-18.2 174v-21l57.5-3.6z"/><path fill="#b39c7e" d="M143.6 62.7l12.8 31.6-12.8 3.6z"/><path fill="#422f1c" d="M46.3 113l3.5 6-16.4 10.5z"/><path fill="#7c786d" d="M156.4 195.1l51.6-3.5-52.7-10.5z"/><path fill="#82817e" d="M24 184.6l-42.2 15.2L92 216.2z"/><path fill="#eddab4" d="M114.3 147l-2.4 9.4 9.4 7z"/><path fill="#c2ac98" d="M35.7 131.8l-10.5 3.6-10.6-7z"/><path fill="#635d54" d="M242 92l-35.2-2.4 8.2-19.9z"/></g></svg>