<svg xmlns="http://www.w3.org/2000/svg" viewBox="0 0 300 198"><defs/><path fill="#77797d" d="M0 0h300v198H0z"/><g fill-opacity=".5"><path fill="#fcfdfe" d="M318.2 20.5L92 131.8l-96.1-150z"/><path d="M151.8 101.4l166.4 94.9-336.4 1.2z"/><path fill="#191621" d="M99 201L296 83.8l22.3 113.7z"/><path fill="#070a12" d="M-18.2 120.1l199.3 14-168.8 82.1z"/><path fill="#dfe1df" d="M-14.6 90.8h281.2l27-109z"/><path fill="#828795" d="M249-18.2H.6l-9.4 70.3z"/><path fill="#a3a7b0" d="M291.2 79.1L99 7.6 318.2-17z"/><path fill="#848788" d="M68.6 130.7L208 92 51 89.6z"/><path fill="#c5ccdc" d="M133 147l24.6 9.4-23.4 23.5z"/><path fill="#f5f5ee" d="M47.5 12.3l71.4 77.3 117.2-1.1z"/><path fill="#949aa4" d="M86.1 72l-102 17.6L-.5-18.2z"/><path fill="#0e0908" d="M86.1 142.4l63.3 55-164 18.8z"/><path fill="#646b75" d="M187 117.8l131.2-55.1-99.6 96z"/><path fill="#0e1622" d="M226.8 137.7l91.4 65.6-5.9-58.6z"/><path fill="#656a73" d="M126 7.6l-45.7 14-41-39.8z"/><path fill="#878d94" d="M246.7 89.6l71.5 1.2-27-109z"/><path fill="#181916" d="M202.1 185.7l-96-63.2 45.7-15.3z"/><path fill="#80383a" d="M151.8 165.8l24.6 39.9-50.4-22.3z"/><path fill="#3d4452" d="M-18.2 216.2l99.6-75L-10 94.3z"/><path fill="#939597" d="M235 87.3l-120.7 7 80.8 23.5z"/><path fill="#e4e5e0" d="M29.9 88.5l220.3-66.8-89 68z"/><path fill="#bbbcc1" d="M219.7-18.2L106.1 33.4l175.7 22.3z"/><path fill="#69707d" d="M110.7 93.2l-128.9 1.1L10 140z"/><path fill="#111720" d="M-6.4 162.3l48-1.2-59.8 35.2z"/><path fill="#bebfbd" d="M236.1 89.6l18.8-34-86.7 16.5z"/><path fill="#4a4e55" d="M229.1 130.7l-31.6-2.4 53.9 88z"/><path fill="#585e6a" d="M311.1 87.3l-58.6 56.3-34-49.3z"/><path fill="#83878c" d="M83.8 141.2l-55-53.9 79.6 35.2z"/><path fill="#0e0f0e" d="M176.4 112l-28.2-1.3 51.6 25.8z"/><path fill="#8d96a5" d="M140 148.2L122.5 167l30.4 7z"/><path fill="#b9babc" d="M42.8 4.1L65 107.2l28.2-50.4z"/><path fill="#490201" d="M137.7 181l36.3 1.2-72.6 34z"/><path fill="#b3b5b2" d="M76.8 100.2l25.7 20 55.1-16.5z"/><path fill="#dadad9" d="M136.5 29.9l23.5 34L51 28.7z"/><path fill="#262728" d="M68.6 165.8l42.1 16.4 52.8-71.5z"/><path fill="#0c0c09" d="M217.4 176.4l41 39.8-82-3.5z"/><path fill="#9498a0" d="M65 70.9L31 82.6-12.2-18.2z"/><path fill="#41464e" d="M90.8 134.2l-76.2 55 45.8-62z"/><path fill="#200d0c" d="M162.3 149.4l-9.4 11.7 20 34z"/><path fill="#989ca0" d="M225.6-18.2L223.2 24l-31.6-11.7z"/><path fill="#929497" d="M154.1 88.5l92.6 23.4-63.3 3.5z"/><path fill="#1a1a19" d="M188 149.4l-48 3.5 11.8-29.3z"/><path fill="#c8c9cc" d="M217.4 89.6l44.5-83.2-73.8 22.3z"/><path fill="#767b81" d="M311.1 34.6l-34-3.5 41-37.5z"/><path fill="#7c7a7c" d="M137.7 102.5l12.9-11.7-50.4 3.5z"/><path fill="#f2f3f1" d="M117.8 79.1l72.6-34-32.8 44.5z"/><path fill="#222632" d="M216.2 142.4l50.4 73.8 51.6-42.2z"/><path fill="#c4c4c4" d="M171.7 107.2l-2.4-8.2-21 3.5z"/><path fill="#757a87" d="M-4.1 28.7l38.7 14L-8.8 85z"/><path fill="#08080a" d="M48.6 169.3L.6 208l106.6 8.2z"/><path fill="#a2a6ac" d="M291.2-18.2L231.4 92l55.1-34z"/><path fill="#1e1d1d" d="M126 144.7l10.5-15.2-5.8 38.7z"/><path fill="#62666c" d="M267.8 115.4l-70.3 1.2 18.7 24.6z"/><path fill="#8a8f94" d="M110.7 94.3l-65.6 27 23.5 8.2z"/><path fill="#716675" d="M129.5 171.7l27 12.9-3.6-25.8z"/><path fill="#2c313b" d="M90.8 130.7l-109 24.6 1.2 51.5z"/><path fill="#3c4044" d="M169.3 151.8l21.1 24.6 1.2 39.8z"/><path fill="#81858c" d="M138.9-18.2L53.3 10l55.1 15.2z"/><path fill="#3b3c3f" d="M135.4 121.3l-54 37.5 35.2-11.7z"/><path fill="#4f6967" d="M156.4 190.4L126 216.2l90.2-1.2z"/><path fill="#494c58" d="M89.6 127.1l-107.8 23.5 13-28.1z"/><path fill="#1d1f1e" d="M240.8 198.6l-38.7-29.3-16.4-48z"/><path fill="#1a1917" d="M154.1 104.9l15.2 8.2-49.2 10.5z"/><path fill="#6c727b" d="M209.2 92l-7 17.6 51.5-20z"/><path fill="#2e343f" d="M318.2 127.1L251.4 187 222 149.4z"/><path fill="#52575a" d="M31 176.4L73.3 147H54.5z"/><path fill="#b2b3b7" d="M179.9 44l-71.5-21.1 66.8-24.7z"/><path fill="#515256" d="M172.9 135.4l25.7 14-25.7-25.8z"/><path fill="#68171a" d="M170.5 190.4l-1.2-10.5-36.3-2.4z"/><path fill="#100f0d" d="M90.8 136.5l29.3-14L78 164.6z"/><path fill="#9fa3ad" d="M59.2 42.8L55.7-17l-66.8 41z"/><path fill="#13161e" d="M272.5 216.2L249 188.1l69.2-3.5z"/><path fill="#23272b" d="M124.8 216.2l-65.6-37.5 70.3-9.4z"/><path fill="#9ea7b1" d="M136.5 150.6l15.3 15.2-21.1 1.2z"/><path fill="#7b8087" d="M-14.6 86.1l14-43.3 28.1 38.6z"/><path fill="#e2e2e0" d="M101.4 88.5l35.1-55.1-52.7 16.4z"/><path fill="#edecdf" d="M184.6 75.6l30.4 14h-66.8z"/><path fill="#b8bab9" d="M96.7 117.8l-22.3-2.4 30.5-5.8z"/><path fill="#81868c" d="M75.6 135.4l-20-42.2L86.2 92z"/><path fill="#b9bbb9" d="M264.3 61.5L186.9 71l37.5 18.7z"/><path fill="#c9c9cc" d="M52.1 19.3l37.5 7L85 62.8z"/><path fill="#939391" d="M104.9 117.8h14l-22.2 12.9z"/><path fill="#3c4350" d="M262 124.8l45.6-38.7 5.9 62.1z"/><path fill="#6d737b" d="M257.2 133l-29.3 2.4 7-16.5z"/><path fill="#b7b9b8" d="M192.8 117.8l-15.3-8.2 15.3 2.3z"/><path fill="#9ea0a1" d="M212.7 121.3l-8.2 5.8-8.2-5.8z"/><path fill="#c1c6bd" d="M54.5 89.6l-48-1.1L39.2 79z"/><path fill="#4e515b" d="M20.5 119l-29.3-8.3h51.6z"/><path fill="#7a7e7f" d="M72 147l17.6-11.6-10.5 3.5z"/><path fill="#a0a1a1" d="M171.7-17l-32.8 40h-47z"/><path fill="#161516" d="M74.4 177.5l14 11.8 44.6-45.7z"/><path fill="#d5d6ce" d="M114.3 60.4v21L51 90.8z"/><path fill="#b8b9c0" d="M258.4 10l-25.8 35 62.1-36.3z"/><path fill="#b9b8b3" d="M130.7 97.9L154 106h-21z"/><path fill="#7c7b7e" d="M156.4 99l-37.5 1.2 21.1-7z"/><path fill="#94989e" d="M41.6 48.6l17.6 27L1.8 62.7z"/><path fill="#adafaf" d="M49.8 14.6l55 8.3L78 28.7z"/><path fill="#686a67" d="M210.4 141.2L185.7 119l9.4-2.3z"/><path fill="#515562" d="M283 124.8l-36.3-23.4L283 89.6z"/><path d="M176.4 216.2l31.6-30.5 2.4 30.5z"/></g></svg>