<svg xmlns="http://www.w3.org/2000/svg" viewBox="0 0 300 196"><defs/><path fill="#757476" d="M0 0h300v196H0z"/><g fill-opacity=".5"><path d="M254.9 215l-273-21L32.1 22.8z"/><path fill="#fff" d="M276 215L318.2 3l-197-21.2zM112 12.3L-18.3 56.8l25.8-75z"/><path fill="#061011" d="M157.6-18.2L169.3 215l-187.5-27z"/><path fill="#fff3f7" d="M171.7 56.8l-9.4 95 90.2 27z"/><path fill="#001114" d="M247.9 199.8L-17 198.6 4.1 46.3z"/><path fill="#b28771" d="M114.3 124.8l49.2-143-106.7 48z"/><path fill="#fff" d="M110.7-8.8L-18.2 1.8l13 55z"/><path fill="#e4d8df" d="M318.2 37l-155.9 1 132.4 150z"/><path fill="#10354d" d="M279.5 215l38.7-39.8-127.8 5.9z"/><path fill="#5a2b2d" d="M198.6 129.5L194 77.9l-16.4 91.4z"/><path d="M144.7 29.9l11.7 119.5-30.4-31.6z"/><path fill="#7c1818" d="M205.7 14.6l3.5 36.4-16.4 30.4z"/><path fill="#fffaff" d="M65-18.2L69.7 44-.6 12.3z"/><path fill="#d1cbcb" d="M189.3 110.7l128.9 23.5-107.8 49.2z"/><path fill="#001916" d="M78 70.9l-96.2-29.3 16.4 168.8z"/><path fill="#7a5c47" d="M144.7 129.5l-49.2-1.2 36.3 37.5z"/><path fill="#ab491a" d="M108.4-18.2L83.8 13.5l53.9 18.7z"/><path fill="#abbec3" d="M136.5 40.4l-5.8 52.8-18.8 3.5z"/><path fill="#e0dce5" d="M305.3 79.1l-95-65.6L201 72z"/><path fill="#98150f" d="M170.5 19.3v39.9L164.6 38z"/><path fill="#18070b" d="M107.2 49.8L99 25.2l25.8 12.9z"/><path fill="#24302f" d="M42.8 33.4l38.6 137.1 27-91.4z"/><path fill="#00030b" d="M151.8 133l-47-18.7 44.6-48z"/><path fill="#8f9ba5" d="M212.7 151.8l68-44.6-89.1 24.6z"/><path fill="#e5e1ee" d="M203.3 28.7l-37.5 103.1 8.2-123z"/><path fill="#fffefa" d="M-.6-18.2l29.3 66.8-41-1.1z"/><path fill="#8c0000" d="M215-15.8L206.8 24l-3.5-42.2z"/><path fill="#030b18" d="M149.4 59.2l-14-28.1 26.9-3.6z"/><path fill="#ffd37c" d="M151.8 31l-10.6-5.8 12.9-31.6z"/><path fill="#bfbdbb" d="M249 48.6l-63.3 106.7 10.6-57.4z"/><path fill="#410000" d="M192.8 85l3.5 5.8 3.5-21z"/><path fill="#fffffa" d="M169.3 112l15.3 16.3-18.8 21.1z"/><path fill="#4086ac" d="M149.4 14.6l-11.7-32.8-10.6 49.3z"/><path fill="#002f1f" d="M25.2 37l23.4-3.6 1.2 43.4z"/><path fill="#2d4b5e" d="M203.3 206.8l9.4-29.3 66.8 5.9z"/><path fill="#a00000" d="M169.3-18.2l1.2 36.4 9.4-36.4z"/><path fill="#fff6f3" d="M56.8 39.3l25.8-25.8-63.3 2.3z"/><path fill="#f3e4df" d="M212.7 175.2l-23.4-28.1 66.8 8.2z"/><path fill="#7c574f" d="M112 113L70.8 23l1.3 56z"/><path fill="#bcbabc" d="M292.4 190.4l-36.3-68 62-42.1z"/><path fill="#8fa2c2" d="M185.7-12.3L318.2.6l-31.7 36.3z"/><path fill="#e7d6e1" d="M163.5 28.7l4.7 24.6-8.2 21.1z"/><path fill="#532227" d="M195.1 89.6l-10.5 23.5 4.7 23.4z"/><path fill="#b9c4d1" d="M170.5 53.3L194 75.6l-11.7 68z"/><path fill="#0e0910" d="M168.2 145.9h-50.4l62 56.2z"/><path fill="#7f504a" d="M163.5 154.1l32.8 5.9-12.9 15.2z"/><path fill="#be7066" d="M133 67.4L88.5 31 73.2 59z"/><path fill="#47656b" d="M49.8 148.2l11.7-18.7 32.8-10.6z"/><path fill="#bbbcb1" d="M116.6 29.9l25.8 25.8-7-20z"/><path fill="#eadadf" d="M31-18.2l75 43.4L-18.1 6.4z"/><path fill="#640805" d="M170.5 67.4l-3.5-20-3.5 37.6z"/><path fill="#6d7389" d="M188 85l-28-9.4-2.4 14z"/><path fill="#2a0000" d="M184.6 149.4l5.8-25.8-7 11.8z"/><path fill="#5d080d" d="M167 89.6l-3.5 31.7L160 106z"/><path fill="#789daf" d="M96.7 133l28.1 22.3-12.9-17.6z"/><path fill="#929394" d="M254.9 167l44.5 12.9-75-1.2z"/><path fill="#bdedca" d="M-18.2 48.6v8.2l29.3-2.3z"/><path fill="#15364a" d="M270.1 185.7l48 1.2-41 14z"/><path fill="#8490a0" d="M228 209.2l11.6-5.9-31.6-22.2z"/><path fill="#141d2f" d="M151.8 40.4l9.3-12.9-4.7-22.2z"/><path fill="#480000" d="M203.3 51l-5.8 12.9L201 38z"/><path fill="#e7e0e5" d="M197.5 87.3l35.1-44.5-25.8-8.2z"/><path fill="#031219" d="M169.3 209.2l-69.1-77.4-118.4 66.8z"/><path fill="#eee7e2" d="M265.4 115.4L230.3 99l17.6-46.9z"/><path fill="#f3f6d9" d="M75.6 46.3L58 27.5 69.7 51z"/><path fill="#b0aaa7" d="M116.6 70.9l20-21.1-7.1 38.7z"/><path fill="#3f282a" d="M128.3 63.9l-19.9-35.2 22.3 14z"/><path fill="#8b4218" d="M108.4 121.3l34 11.7-1.2 14z"/><path fill="#95afc1" d="M133 162.3l-10.5-5.9 12.9 13z"/><path fill="#c0bec1" d="M202.1 60.4l32.9 8.2-49.3 87.8z"/><path fill="#fffaf8" d="M33.4 11.1l-51.6 30.5 37.5 8.2z"/><path fill="#758488" d="M235 106l4.6 15.3L255 120z"/><path fill="#610000" d="M167 78l-2.4 8.1 2.4 8.2z"/><path fill="#18392a" d="M97.9 69.7L25.2 40.4l-4.7 20z"/><path fill="#6f8285" d="M86.1 124.8l-10.5 3.5 28.1 4.7z"/><path fill="#fffad2" d="M128.3-18.2V7.6l-24.6-25.8z"/><path fill="#e1d6e0" d="M169.3 70.9l4.7-75 27 42.2z"/><path fill="#061c1e" d="M-18.2 167L3 61.5 91 119z"/><path fill="#fffbf7" d="M177.5 138.9l-17.5 3.5 19.9-20z"/><path fill="#d1c9cc" d="M266.6 188l22.3 27h-41z"/><path fill="#878480" d="M187 114.3L169.2 133l9.4-21z"/><path fill="#f5f1fa" d="M161.1 28.7l4.7 16.4 1.2-27z"/><path fill="#3f161b" d="M162.3 121.3L150.6 160l10.5 39.8z"/><path fill="#1b2f2b" d="M120.1 136.5L85 126l15.2-27z"/><path fill="#a66948" d="M82.6 13.5L148.2 31l-46.8-49.3z"/><path fill="#ffffd7" d="M104.9 106l1.2-5.8 2.3 5.9z"/><path fill="#0a060e" d="M40.4 205.7l109-44.6 56.3 25.8z"/><path fill="#0f0804" d="M55.7 41.6l12.9 8.2 2.3 18.8z"/><path fill="#530411" d="M195.1 69.7l5.9-8.2-4.7 22.3z"/><path fill="#ab8278" d="M198.6 215h-87.9l56.3-22.2z"/><path fill="#8d877a" d="M219.7 78l-17.6 22.2L221 89.6z"/><path fill="#ece3e8" d="M94.3-3L28.7 38-14.6-6.3z"/><path fill="#c6c6d7" d="M191.6 42.8L208-.6l-35 11.7z"/><path fill="#72819a" d="M161.1 114.3l1.2-23.5-4.7 9.4z"/><path fill="#521d21" d="M188 175.2l-11.6 18.7 7-49.2z"/><path fill="#fff5eb" d="M167 110.7l12.9 5.9-16.4 16.4z"/><path fill="#9aa9b1" d="M184.6 133l-5.9 30.5-4.7-15.3z"/><path fill="#1c5883" d="M129.5 21.7l7 3.5-4.7-25.8z"/><path fill="#370000" d="M187 121.3l4.6-23.4 2.3 10.5z"/></g></svg>