<svg xmlns="http://www.w3.org/2000/svg" viewBox="0 0 298 388"><defs/><path fill="#f1eff1" d="M0 0h298v388H0z"/><g fill-opacity=".5"><path fill="#d0b4c1" d="M167.5 155.4L28 31l207.7-1.5z"/><path fill="#d6d8d9" d="M35.6 347.8L25 163l253.1 1.5z"/><path fill="#fff" d="M322 244.8L-23.4 379.7l316.8 31.8z"/><path fill="#ff0d91" d="M188.7 49.3l45.5 1.5-41-22.8z"/><path fill="#fff" d="M322-8.3L219-16l75.8 365.3z"/><path fill="#87968f" d="M103.8 31L91.7 53.9l91-9z"/><path fill="#fff" d="M-20.5 247.8l148.6-194-151.6-3z"/><path fill="#babbb9" d="M199.3 238.7l81.8 27.3-171.2-1.5z"/><path fill="#ff098e" d="M59.9 31L84 40.3 64.4 56.8z"/><path fill="#bdbfbd" d="M38.6 332.7l57.6-27.3 80.4 15.2z"/><path fill="#87918c" d="M53.8 25l4.6 36.4-28.8-18.2z"/><path fill="#fff" d="M40.2 240.2l207.6 3L143.2 213z"/><path fill="#bcbdbc" d="M231.1 223.6l42.5-22.8-125.8-1.5z"/><path fill="#fff" d="M238.7 2.3l-144 37.9-118.2-44z"/><path fill="#8d918e" d="M99.3 106.9l36.3 10.6h-62z"/><path fill="#fff" d="M261.4 196.3l-94-24.3-69.6 25.8z"/><path fill="#c4c4cb" d="M53.8 235.7l-22.7-38 162.1 3.1z"/><path fill="#eefbf5" d="M88.7 94.7l125.8-3-12.2-50z"/><path fill="#a6aaa9" d="M96.2 64.4l59.2 19.7 48.5-16.7z"/><path fill="#fff" d="M322 347.8L16 411.5-20.6 325zM190.2 163l122.8-4.6-18.2-181.9z"/><path fill="#ff0082" d="M211.4 34.1l16.7 1.5 1.5 10.6z"/><path fill="#8b928f" d="M117.5 35.6l62.1 19.7 4.5-19.7z"/><path fill="#fff" d="M-23.5 166L.8-14.4l101.5 171.3z"/><path fill="#828a86" d="M220.5 111.4H160l31.8 10.6z"/><path fill="#b1b2b1" d="M246.3 66l-10.6 18-62.2-18z"/><path fill="#fff" d="M-23.5 241.7L31.1 64.4l-6 347z"/><path fill="#dabbcb" d="M206.9 141.7L135.6 122l-42.4 21.2z"/><path fill="#fff" d="M172 140.2L114.4 119l133.4-1.5zm7.6 166.8l-92.5-24.3-92.4 25.7z"/><path fill="#bebfbe" d="M241.7 317.5l-45.4 10.6-38-13.6z"/><path fill="#b4b4c6" d="M85.6 293.3l44-15.2-94 1.5z"/><path fill="#fff" d="M322 320.6l-43.9 90.9-178.8-91zM106.9 2.3L96.2 53.8 58.4 81.1z"/><path fill="#c9c9c7" d="M138.7 199.3l-41 22.7 121.3-3z"/><path fill="#bcbcbb" d="M28 250.8l112.2 3-56 13.7z"/><path fill="#bdbdbc" d="M97.8 176.6l57.6-16.7 45.4 16.7z"/><path fill="#fff" d="M187.2 69l-57.6-15.2 110.6-1.5z"/><path fill="#636463" d="M114.4 52.3L99.3 41.7l7.6-13.7z"/><path fill="#bdbfbe" d="M270.5 244.8l-65.1-1.5 62.1 21.2z"/><path fill="#86958e" d="M97.8 94.7l48.5 3-34.9 7.6z"/><path fill="#c3c3c2" d="M25 185.7l7.6-25.8 92.4 24.2z"/><path fill="#babab9" d="M175 176.6l50-16.7 42.5 15.2z"/><path fill="#fff" d="M307 288.7l-223-7.6 109.1 36.4z"/><path fill="#a2a3cd" d="M197.8 282.7l33.3-9.1 31.9 9z"/><path fill="#fff" d="M-23.5-6.8L6.8 53.8 114.4-9.9z"/><path fill="#fd006a" d="M193.2 50.8l-6 3 3-21.2z"/><path fill="#fff" d="M287.2 176.6L131.1 178l80.3 21.2zM41.7 266L87 279.6l53.1-15.1zM67.4 46.2L60 34.1l12 7.6zm189.5-4.5L322.1-16 81 2.3zM79.6 163l3-113.7-106 39.4z"/><path fill="#bbc1be" d="M138.7 79.6l-50 3-3-25.8z"/><path fill="#fff" d="M143.2 96.2l-47 12.2 92.5 1.5zm12.2 66.8l-66.7-16.7 127.3-3zm-45.5-66.8L88.7 67.4l94 22.8z"/><path fill="#fe3399" d="M208.4 52.3L219 29.6l7.6 22.7z"/><path fill="#bebebd" d="M29.6 308.4v24.3l59-24.3z"/><path fill="#fff" d="M28 197.8l85-1.5L69 184zM237.2 119l-21.2 6V41.7z"/><path fill="#ff44a2" d="M58.4 58.4l1.5-28.8 7.5 19.7z"/><path fill="#727473" d="M140.2 96.2l1.5 6.1H119z"/><path fill="#fff" d="M175 222l88 22.8 42.4-24.3z"/><path fill="#b7b9b8" d="M143.2 61.4l-1.5 21.2H87.1z"/><path fill="#fff" d="M105.3 47.7L140.2 63l-37.9 3z"/><path fill="#929492" d="M260 214.5l-21.3 6h31.8z"/><path fill="#fff" d="M167.5 47.7l4.5-15.1 3 27.3zM76.5 222H210l-62.1 21.3zM66 41.7L53.7 55.3 75 41.7z"/><path fill="#76827c" d="M146.3 117.5l28.8-1.6-21.3-4.5z"/><path fill="#c2c2c1" d="M87.1 178l45.5-13.6-83.3-1.5z"/><path fill="#c4c3c3" d="M144.7 82.6l39.4-18.2 38 16.7z"/><path fill="#fff" d="M88.7 231.1l-47 12.2-36.4-13.7zm97-254.6l24.2 13.6 1.5 57.6z"/><path fill="#b5b7b5" d="M128 276.6h51.6l-27.3 7.6z"/><path fill="#ff8dce" d="M152.3 135.6l30.3-9H119z"/><path fill="#fff" d="M59.9 159.9L49.3 37.1 29.6 141.7z"/><path fill="#a6a6d2" d="M28 231.1l50-12-50-1.6z"/><path fill="#fff" d="M291.8 276.6l-45.5-12.1-41 13.6z"/><path fill="#f2f2f2" d="M31 167.5L67.5 184l51.5-15z"/><path fill="#fff" d="M94.7 56.8L111.4-.8l-53 12.2z"/><path fill="#efeeee" d="M199.3 203.9l-81.8-1.6 36.3 13.7z"/><path fill="#fff" d="M141.7 138.7L66 114.4l-53 24.3zm69.7-162.2L301-8.3l-1.6 269.7z"/><path fill="#bebebe" d="M234.2 164.4l13.6 12.2 27.3-13.7z"/><path fill="#454646" d="M53.8 53.8l-1.5-21.2-3 12.1z"/><path fill="#6e7170" d="M84.1 76.5V66l10.6 16.7z"/><path fill="#fff" d="M-11.4 411.5l16.7-81.9 286.5 1.6z"/><path fill="#f9fbfa" d="M141.7 87.1l-7.6-48.5-12 51.6z"/><path fill="#fff" d="M44.7 187.2l47 12.1 42.4-13.6z"/><path fill="#c1c1c1" d="M109.9 220.5l87.9-1.5-42.4-13.6z"/><path fill="#a2a2a2" d="M153.8 240.2l7.6 7.6-28.8-1.5z"/><path fill="#9c9c9b" d="M25 261.4l18.2 6.1 19.7-6z"/><path fill="#fff" d="M14.4 264.5L49.3 278l39.4-10.6zM170.5 69L169 81l13.6 10.7zM82.6-2.3l34.9-21.2 9 74.3z"/><path fill="#a2a2a2" d="M246.3 316l12.1 6-28.8-1.4z"/><path fill="#a4a6a1" d="M176.6 281.1h34.8l-16.6-6z"/><path fill="#b9b9db" d="M120.5 290.2L75 276.6l-42.4 13.6z"/><path fill="#252726" d="M176.6 53.8l1.5 3v-7.5z"/></g></svg>