<?xml version="1.0" encoding="utf-8"?>
<!-- Generator: Adobe Illustrator 15.0.2, SVG Export Plug-In . SVG Version: 6.00 Build 0)  -->
<!DOCTYPE svg PUBLIC "-//W3C//DTD SVG 1.1//EN" "http://www.w3.org/Graphics/SVG/1.1/DTD/svg11.dtd">
<svg version="1.1"
	 id="svg2" xmlns:rdf="http://www.w3.org/1999/02/22-rdf-syntax-ns#" xmlns:svg="http://www.w3.org/2000/svg" xmlns:cc="http://creativecommons.org/ns#" xmlns:dc="http://purl.org/dc/elements/1.1/"
	 xmlns="http://www.w3.org/2000/svg" xmlns:xlink="http://www.w3.org/1999/xlink" x="0px" y="0px" width="1380px" height="276px"
	 viewBox="0 0 1380 276" enable-background="new 0 0 1380 276" xml:space="preserve">
<text transform="matrix(1 0 0 1 351.0454 115.5469)" font-family="'PTSans-Regular'" font-size="80">Remote Chaos Experience</text>
<text transform="matrix(1 0 0 1 351.0454 211.5469)" font-family="'PTSans-Bold'" font-size="80">27–30 December 2020</text>
<path fill="#333333" d="M37.365,226.015v-37.716h37.716v37.716H37.365z"/>
<g>
	<g>
		<path fill="none" d="M74.707,76.645V38.929h37.716v37.716H74.707z"/>
		<path fill="#999999" d="M112.05,76.645V38.929h37.716v37.716H112.05z"/>
		<path fill="none" d="M149.392,76.645V38.929h37.715v37.716H149.392z"/>
		<path fill="#F1007E" d="M186.734,76.645V38.929h37.716v37.716H186.734z"/>
		<path fill="none" d="M224.076,76.645V38.929h37.717v37.716H224.076z"/>
		<path fill="none" d="M261.42,76.645V38.929h37.715v37.716H261.42z"/>
		<path fill="#999999" d="M74.707,113.987V76.271h37.716v37.716H74.707z"/>
		<path fill="#808080" d="M37.365,151.702v-37.715h37.716v37.715H37.365z"/>
		<path fill="#999999" d="M112.05,113.987V76.271h37.716v37.716H112.05z"/>
		<path fill="none" d="M149.392,113.987V76.271h37.715v37.716H149.392z"/>
		<path fill="none" d="M186.734,113.987V76.271h37.716v37.716H186.734z"/>
		<path fill="#F1007E" d="M224.076,113.987V76.271h37.717v37.716H224.076z"/>
		<path fill="none" d="M261.42,113.987V76.271h37.715v37.716H261.42z"/>
		<path fill="none" d="M74.707,151.329v-37.715h37.716v37.715H74.707z"/>
		<path fill="#999999" d="M112.05,151.329v-37.715h37.716v37.715H112.05z"/>
		<path fill="none" d="M149.392,151.329v-37.715h37.715v37.715H149.392z"/>
		<path fill="#52002B" d="M186.734,151.329v-37.715h37.716v37.715H186.734z"/>
		<path fill="none" d="M224.076,151.329v-37.715h37.717v37.715H224.076z"/>
		<path fill="#F1007E" d="M261.42,151.329v-37.715h37.715v37.715H261.42z"/>
		<path fill="none" d="M74.707,188.672v-37.716h37.716v37.716H74.707z"/>
		<path fill="#999999" d="M112.05,188.672v-37.716h37.716v37.716H112.05z"/>
		<path fill="none" d="M149.392,188.672v-37.716h37.715v37.716H149.392z"/>
		<path fill="none" d="M186.734,188.672v-37.716h37.716v37.716H186.734z"/>
		<path fill="#F1007E" d="M224.076,188.672v-37.716h37.717v37.716H224.076z"/>
		<path fill="none" d="M261.42,188.672v-37.716h37.715v37.716H261.42z"/>
		<path fill="none" d="M74.707,226.015v-37.716h37.716v37.716H74.707z"/>
		<path fill="#999999" d="M112.05,226.015v-37.716h37.716v37.716H112.05z"/>
		<path fill="none" d="M149.392,226.015v-37.716h37.715v37.716H149.392z"/>
		<path fill="#F1007E" d="M186.734,226.015v-37.716h37.716v37.716H186.734z"/>
		<path fill="none" d="M224.076,226.015v-37.716h37.717v37.716H224.076z"/>
		<path fill="none" d="M261.42,226.015v-37.716h37.715v37.716H261.42z"/>
		<path fill="none" d="M74.707,263.356v-37.716h37.716v37.716H74.707z"/>
		<path fill="none" d="M112.05,263.356v-37.716h37.716v37.716H112.05z"/>
		<path fill="none" d="M149.392,263.356v-37.716h37.715v37.716H149.392z"/>
		<path fill="none" d="M186.734,263.356v-37.716h37.716v37.716H186.734z"/>
		<path fill="none" d="M224.076,263.356v-37.716h37.717v37.716H224.076z"/>
		<path fill="none" d="M261.42,263.356v-37.716h37.715v37.716H261.42z"/>
	</g>
	<path fill="none" d="M224.264,76.458V39.115h37.343v37.343H224.264z"/>
	<g>
		<path fill="none" stroke="#000000" stroke-width="6" stroke-miterlimit="10" d="M56.223,244.499V20.444h224.055v224.055H56.223z"
			/>
		<g>
			<path stroke="#000000" stroke-miterlimit="10" d="M262.819,235.163h-23.302c-2.24,0-4.163-0.803-5.769-2.408
				c-1.606-1.605-2.409-3.51-2.409-5.714l0,0v-3.138h8.57v0.842c0,1.232,0,1.848,0,1.848s0.616,0,1.849,0l0,0h18.764
				c1.233,0,1.85,0,1.85,0s0-0.615,0-1.848l0,0v-3.754c0-1.231,0-1.849,0-1.849s-0.616,0-1.85,0l0,0h-22.573v-8.569h21.061
				c1.233,0,1.849,0,1.849,0s0-0.616,0-1.849l0,0v-3.473c0-1.232,0-1.849,0-1.849s-0.615,0-1.849,0l0,0h-17.252
				c-1.232,0-1.848,0-1.848,0s0,0.616,0,1.849l0,0v1.287h-8.57v-3.585c0-2.239,0.803-4.154,2.408-5.743
				c1.606-1.585,3.528-2.378,5.77-2.378l0,0h21.79c2.24,0,4.154,0.793,5.743,2.378c1.586,1.589,2.378,3.504,2.378,5.743l0,0v8.066
				c0,0.411-0.028,0.85-0.086,1.314c-0.054,0.469-0.138,0.89-0.25,1.263l0,0c0.561,0.672,1.009,1.447,1.345,2.327
				c0.336,0.876,0.504,1.799,0.504,2.771l0,0v8.346c0,2.203-0.792,4.108-2.379,5.714C266.975,234.36,265.06,235.163,262.819,235.163
				L262.819,235.163z"/>
			<path stroke="#000000" stroke-miterlimit="10" d="M227.559,235.163h-31.928c-2.278,0-4.229-0.812-5.855-2.435
				c-1.623-1.626-2.435-3.577-2.435-5.855l0,0v-23.75c0-2.278,0.812-4.229,2.435-5.852c1.626-1.626,3.577-2.438,5.855-2.438l0,0
				h31.928v8.737h-29.687c-1.232,0-1.849,0-1.849,0s0,0.616,0,1.849l0,0v19.157c0,1.232,0,1.848,0,1.848s0.616,0,1.849,0l0,0h29.687
				V235.163z"/>
			<path stroke="#000000" stroke-miterlimit="10" d="M152.276,235.163h-8.682V194.89h31.985c2.276,0,4.237,0.82,5.881,2.465
				c1.644,1.643,2.464,3.584,2.464,5.825l0,0v10.418c0,2.241-0.82,4.183-2.464,5.826c-1.644,1.643-3.604,2.465-5.881,2.465l0,0
				h-0.394l8.738,10.306v2.969h-8.962l-11.147-13.275l-11.538,0.056V235.163L152.276,235.163z M154.125,213.149L154.125,213.149
				h19.157c1.232,0,1.848,0,1.848,0s0-0.615,0-1.848l0,0v-5.882c0-1.232,0-1.848,0-1.848s-0.615,0-1.848,0l0,0h-19.157
				c-1.232,0-1.849,0-1.849,0s0,0.615,0,1.848l0,0v5.882c0,1.232,0,1.848,0,1.848S152.893,213.149,154.125,213.149z"/>
		</g>
	</g>
</g>
<text transform="matrix(1 0 0 1 110.9287 184.5635)" font-family="'Orbitron-Regular'" font-size="17.9244">ActivityPub</text>
</svg>
