<?xml version="1.0" encoding="utf-8"?>
<!-- Generator: Adobe Illustrator 15.0.2, SVG Export Plug-In . SVG Version: 6.00 Build 0)  -->
<!DOCTYPE svg PUBLIC "-//W3C//DTD SVG 1.1//EN" "http://www.w3.org/Graphics/SVG/1.1/DTD/svg11.dtd">
<svg version="1.1" id="Ebene_1" xmlns="http://www.w3.org/2000/svg" xmlns:xlink="http://www.w3.org/1999/xlink" x="0px" y="0px"
	 width="300px" height="100px" viewBox="0 -34.5 300 100" enable-background="new 0 -34.5 300 100" xml:space="preserve">
<g id="surface1">
	<path fill="#AAB2AB" d="M14.617-33.295l269.892,0.482c3.767,0,7.141-0.558,7.141,7.533l-0.33,88.877H7.806V-25.61
		C7.806-29.604,8.199-33.295,14.617-33.295z"/>
	<path d="M287.502-34.5H12.499c-2.955,0-5.352,2.397-5.352,5.352v93.443c0,0.659,0.545,1.205,1.205,1.205h283.298
		c0.658,0,1.204-0.546,1.204-1.205v-93.443C292.854-32.103,290.457-34.5,287.502-34.5z M12.499-32.078h275.003
		c1.623,0,2.93,1.307,2.93,2.93c0,0,0,37.73,0,64.946H93.234C86.03,48.823,72.156,57.663,56.228,57.663
		c-15.942,0-29.816-8.84-37.02-21.865H9.568c0-27.216,0-64.946,0-64.946C9.568-30.771,10.875-32.078,12.499-32.078z"/>
	<path fill="#FFFFFF" d="M158.94,42.723h13.241v2.447l-8.446,10.223h8.687v3.069H158.7v-2.461l8.446-10.222h-8.206V42.723
		 M175.364,42.723h10.944v3.057h-6.886v2.942h6.48v3.057h-6.48v3.614h7.115v3.069h-11.174V42.723 M195.885,49.697
		c0.85,0,1.458-0.164,1.826-0.48c0.367-0.306,0.558-0.825,0.558-1.562c0-0.709-0.19-1.229-0.558-1.534
		c-0.368-0.304-0.977-0.456-1.826-0.456h-1.712v4.032H195.885 M194.173,52.501v5.961h-4.059V42.723h6.202
		c2.066,0,3.588,0.342,4.553,1.04c0.964,0.697,1.458,1.788,1.458,3.298c0,1.039-0.254,1.889-0.761,2.562
		c-0.495,0.672-1.256,1.154-2.27,1.471c0.557,0.127,1.052,0.419,1.483,0.875c0.443,0.432,0.888,1.116,1.344,2.017l2.207,4.478
		h-4.324l-1.916-3.919c-0.393-0.787-0.786-1.319-1.192-1.611c-0.393-0.292-0.913-0.431-1.572-0.431H194.173 M213.919,45.373
		c-1.243,0-2.194,0.457-2.879,1.369c-0.686,0.913-1.027,2.207-1.027,3.855c0,1.662,0.342,2.942,1.027,3.855
		c0.685,0.914,1.636,1.37,2.879,1.37s2.207-0.456,2.892-1.37c0.673-0.913,1.015-2.193,1.015-3.855c0-1.648-0.342-2.942-1.015-3.855
		C216.126,45.83,215.162,45.373,213.919,45.373 M213.919,42.432c2.523,0,4.515,0.723,5.948,2.168
		c1.433,1.458,2.144,3.449,2.144,5.998c0,2.55-0.711,4.541-2.144,5.986c-1.434,1.459-3.425,2.182-5.948,2.182
		s-4.502-0.723-5.948-2.182c-1.434-1.445-2.144-3.437-2.144-5.986c0-2.549,0.71-4.54,2.144-5.998
		C209.417,43.154,211.396,42.432,213.919,42.432"/>
	<path fill="#FFFFFF" d="M88.707,12.184c0.013,17.92-14.522,32.466-32.454,32.479c-17.921,0.014-32.467-14.508-32.48-32.441
		c0-0.012,0-0.025,0-0.038C23.76-5.749,38.294-20.283,56.215-20.296c17.932-0.013,32.479,14.509,32.492,32.441
		C88.707,12.158,88.707,12.171,88.707,12.184z"/>
	<path d="M82.632-14.259c7.19,7.204,10.793,16.018,10.793,26.443s-3.539,19.15-10.615,26.163
		c-7.509,7.382-16.374,11.072-26.62,11.072c-10.108,0-18.833-3.652-26.151-10.983c-7.331-7.317-10.983-16.068-10.983-26.252
		c0-10.184,3.652-18.998,10.983-26.443c7.127-7.204,15.853-10.792,26.151-10.792C66.613-25.052,75.428-21.463,82.632-14.259z
		 M34.883-9.415c-6.088,6.151-9.131,13.342-9.131,21.611c0,8.257,3.019,15.396,9.03,21.408c6.024,6.023,13.202,9.042,21.522,9.042
		c8.319,0,15.548-3.044,21.699-9.131c5.833-5.645,8.75-12.759,8.75-21.319c0-8.51-2.968-15.726-8.891-21.662
		c-5.935-5.923-13.113-8.89-21.559-8.89C47.856-18.355,40.717-15.375,34.883-9.415z M50.9,8.557
		c-0.938-2.029-2.32-3.044-4.186-3.044c-3.284,0-4.92,2.219-4.92,6.633c0,4.413,1.636,6.62,4.92,6.62
		c2.169,0,3.717-1.065,4.643-3.221l4.552,2.422c-2.167,3.843-5.415,5.771-9.752,5.771c-3.348,0-6.037-1.015-8.041-3.069
		c-2.017-2.055-3.018-4.882-3.018-8.484c0-3.538,1.027-6.354,3.107-8.434c2.08-2.093,4.667-3.132,7.761-3.132
		c4.592,0,7.863,1.813,9.854,5.428L50.9,8.557z M72.296,8.557C71.37,6.527,70,5.513,68.212,5.513c-3.349,0-5.022,2.219-5.022,6.633
		c0,4.413,1.674,6.62,5.022,6.62c2.168,0,3.69-1.065,4.553-3.221l4.654,2.422c-2.168,3.843-5.415,5.771-9.739,5.771
		c-3.35,0-6.024-1.015-8.028-3.069c-2.017-2.055-3.019-4.882-3.019-8.484c0-3.538,1.015-6.354,3.056-8.434
		c2.043-2.093,4.642-3.132,7.801-3.132c4.578,0,7.85,1.813,9.829,5.428L72.296,8.557z"/>
	<path fill="#FFFFFF" d="M202.048,0.174c0,13.798-5.593,24.997-12.491,24.997c-6.912,0-12.506-11.199-12.506-24.997
		c0-13.812,5.594-24.997,12.506-24.997C196.455-24.823,202.048-13.638,202.048,0.174z"/>
	<path d="M190.355-27.296c-15.739,0-19.709,14.863-19.709,27.458c0,12.606,3.97,27.457,19.709,27.457
		c15.751,0,19.708-14.851,19.708-27.457C210.063-12.433,206.106-27.296,190.355-27.296z M190.355-16.935
		c0.646,0,1.229,0.089,1.775,0.229c1.129,0.977,1.687,2.321,0.596,4.21L182.238,6.781c-0.316-2.447-0.367-4.832-0.367-6.62
		C181.871-5.381,182.264-16.935,190.355-16.935z M198.205-8.057c0.559,2.968,0.635,6.049,0.635,8.218
		c0,5.554-0.38,17.107-8.484,17.107c-0.635,0-1.218-0.063-1.764-0.202c-0.114-0.025-0.203-0.063-0.304-0.102
		c-0.165-0.051-0.342-0.102-0.495-0.165c-1.813-0.761-2.941-2.156-1.306-4.604L198.205-8.057z"/>
</g>
</svg>
