<?xml version="1.0" encoding="utf-8"?>
<!-- Generator: Adobe Illustrator 15.0.2, SVG Export Plug-In . SVG Version: 6.00 Build 0)  -->
<!DOCTYPE svg PUBLIC "-//W3C//DTD SVG 1.1//EN" "http://www.w3.org/Graphics/SVG/1.1/DTD/svg11.dtd">
<svg version="1.1" id="Ebene_1" xmlns="http://www.w3.org/2000/svg" xmlns:xlink="http://www.w3.org/1999/xlink" x="0px" y="0px"
	 width="300px" height="100px" viewBox="0 0 300 100" enable-background="new 0 0 300 100" xml:space="preserve">
<path fill="#ABB1AA" d="M287.5,98.75h-275c-2.1,0-3.75-1.7-3.75-3.75V5c0-2.1,1.7-3.75,3.75-3.75h275c2.1,0,3.75,1.7,3.75,3.75v90
	C291.25,97.05,289.55,98.75,287.5,98.75z"/>
<path d="M287.5,0h-275c-2.75,0-5,2.25-5,5v90c0,2.75,2.25,5,5,5h275c2.75,0,5-2.25,5-5V5C292.5,2.25,290.25,0,287.5,0z M12.5,3h275
	c1.1,0,2,0.9,2,2v65h-279V5C10.5,3.9,11.4,3,12.5,3z"/>
<circle fill="#ABB1AA" cx="56.5" cy="46.5" r="43.25"/>
<path d="M188.9,8.15h-0.7c-14.851,0.4-26.8,12.55-26.8,27.5c0,15.2,12.3,27.5,27.5,27.5c15.199,0,27.5-12.301,27.5-27.5
	S204.1,8.15,188.9,8.15z M188.9,58.4c-12.551,0-22.75-10.2-22.75-22.75c0-12.35,9.8-22.4,22.05-22.75h0.75
	c12.55,0,22.75,10.2,22.75,22.75C211.7,48.2,201.45,58.4,188.9,58.4z"/>
<path fill="#FFFFFF" d="M184,83.95c1.75-0.8,2.6-1.95,2.6-3.351c0-1.449-0.6-2.6-1.85-3.399c-1.2-0.8-2.9-1.2-5.05-1.2
	c-1.15,0-3.101,0.05-5.9,0.15V94h6.351c2.25,0,4.1-0.5,5.55-1.45s2.149-2.25,2.149-3.85C187.85,86.3,186.55,84.7,184,83.95z
	 M177.5,78.7c0.85-0.05,1.55-0.05,2.1-0.05c2.2,0,3.301,0.699,3.301,2.05c0,1.55-1.2,2.35-3.601,2.35c-0.649,0-1.2,0-1.8-0.05V78.7
	L177.5,78.7z M182.9,90.7c-0.75,0.5-1.95,0.7-3.601,0.7c-0.45,0-1.05-0.051-1.8-0.101V85.4c0.9,0,1.5-0.051,1.85-0.051
	c1.7,0,2.95,0.25,3.601,0.7c0.7,0.45,1.05,1.2,1.05,2.2C184,89.45,183.65,90.25,182.9,90.7L182.9,90.7z"/>
<polygon fill="#FFFFFF" points="201.55,76.15 196.6,83.75 191.7,76.15 187.75,76.15 194.8,86.7 194.8,94 198.5,94 198.5,86.7 
	205.45,76.15 "/>
<circle fill="#FFFFFF" cx="188.9" cy="35.65" r="25"/>
<path d="M188.9,13.15c12.399,0,22.5,10.1,22.5,22.5s-10.101,22.5-22.5,22.5c-12.4,0-22.5-10.101-22.5-22.5S176.5,13.15,188.9,13.15
	 M188.9,8.15c-15.2,0-27.5,12.3-27.5,27.5s12.3,27.5,27.5,27.5c15.199,0,27.5-12.301,27.5-27.5S204.1,8.15,188.9,8.15z"/>
<circle cx="188.9" cy="21.8" r="3.95"/>
<path d="M195.5,29.25c0-0.4,0.05-1.15-0.55-1.75c-0.55-0.55-1.351-0.55-1.75-0.55h-8.65c-0.399,0-1.149-0.05-1.75,0.55
	c-0.55,0.55-0.55,1.35-0.55,1.75V40.2h2.5v13.2H193V40.2h2.5V29.25z"/>
<circle fill="#FFFFFF" stroke="#000000" stroke-width="14" stroke-miterlimit="10" cx="56.5" cy="46.5" r="34.25"/>
<path d="M46.9,53.15c-3.45,0-5.05-2.851-5.05-6.65s1.35-6.65,5.05-6.65c1,0,3,0.55,4.15,3.05l5-2.6c-2.1-3.85-5.75-5.4-9.95-5.4
	c-6.1,0-11,4.3-11,11.65c0,7.45,4.6,11.65,11.2,11.65c4.25,0,7.85-2.351,9.85-5.851L51.5,50C50.5,52.4,48.9,53.15,46.9,53.15z"/>
<path d="M73.2,49.9c-1.05,2.5-2.6,3.25-4.6,3.25c-3.45,0-5.05-2.851-5.05-6.65s1.35-6.65,5.05-6.65c1,0,3,0.55,4.15,3.05l5-2.6
	c-2.1-3.85-5.75-5.4-9.95-5.4c-6.1,0-11,4.3-11,11.65C56.8,54,61.4,58.2,68,58.2c4.25,0,7.85-2.351,9.85-5.851L73.2,49.9z"/>
</svg>
