<svg xmlns="http://www.w3.org/2000/svg" viewBox="0 0 300 168"><defs/><path fill="#696d66" d="M0 0h300v168H0z"/><g fill-opacity=".5"><path fill="#fff" d="M-18.2.6l220.3 73.8 116-75z"/><path fill="#141410" d="M318.2 167l-336.4 8.2L130.7-.6z"/><path fill="#fffffa" d="M172.9 104.9l-7-123L318.1 7.5z"/><path fill="#1a1c06" d="M318.2 134.2l-127.8 52.7 31.7-164z"/><path fill="#fbffff" d="M106-18.2l-12.8 95-111.4-56.3z"/><path d="M34.6 179.9L58 24l72.7 150z"/><path fill="#fff" d="M177.5 171.7l-28-72.7 25.7 30.5z"/><path fill="#b5d2d9" d="M-4.1 1.8l37.5 144.1L55.7-1.8z"/><path fill="#fff" d="M292.4 72l-18.8-90.2L318.2 17z"/><path fill="#fffffd" d="M224.4-1.8l-73.8-16.4 50.4 136z"/><path fill="#110c00" d="M270.1 31l-10.5 156 58.6-77.4z"/><path fill="#a5b2c2" d="M258.4 147L235 33.5l30.4 7z"/><path fill="#fff" d="M81.4 83.8L113.1-.6 58-18.2z"/><path fill="#040c00" d="M224.4 15.8l-7 55.1 44.5 52.7z"/><path fill="#1d0811" d="M99 24l42.2-22.2L98 156.4z"/><path d="M162.3 14.6L138.9 4.1 174 74.4z"/><path fill="#8f8b83" d="M141.2 119L119 48.5 223.2 78z"/><path fill="#1c3504" d="M-1.8 4.1l-14 150L31 186.9z"/><path fill="#fff" d="M112-1.8l206.2 42.2v-58.6z"/><path fill="#0e101c" d="M19.3 88.5l148.9 98.4L126 81.4z"/><path fill="#effefe" d="M257.2 116.6l5.9 22.3-16.4 1.1z"/><path fill="#232216" d="M169.3 123.6l138.3-56.2-114.8 103.1z"/><path fill="#74845d" d="M48.6 82.6L-17 108.4l63.3 36.3z"/><path fill="#192312" d="M60.4 32.2L45 66.2l64.5 71.5z"/><path fill="#c1d2d6" d="M.6-12.3L15.8 93.2l36.3-41z"/><path fill="#fffff1" d="M185.7 86.1H167l17.6-48z"/><path fill="#fff" d="M93.2 66.2l-22.3-61L76.8 78z"/><path fill="#0e2403" d="M291.2 52.1L276 30l-15.3 38.7z"/><path fill="#150607" d="M174 63.9l-17.6 30.4L160 30z"/><path fill="#2f4123" d="M171.7 90.8L181 187l137-9.4z"/></g></svg>