<?xml version="1.0" encoding="utf-8"?>
<!-- Generator: Adobe Illustrator 15.0.2, SVG Export Plug-In . SVG Version: 6.00 Build 0)  -->
<!DOCTYPE svg PUBLIC "-//W3C//DTD SVG 1.1//EN" "http://www.w3.org/Graphics/SVG/1.1/DTD/svg11.dtd">
<svg version="1.1" id="Ebene_1" xmlns="http://www.w3.org/2000/svg" xmlns:xlink="http://www.w3.org/1999/xlink" x="0px" y="0px"
	 width="256px" height="256px" viewBox="0 0 256 256" enable-background="new 0 0 256 256" xml:space="preserve">
<g>
	<path fill="#3E373C" d="M168.47,131.2c0,22.811-18.504,41.269-41.269,41.269c-22.811,0-41.315-18.505-41.315-41.269
		c0-22.812,18.505-41.269,41.315-41.269C149.966,89.884,168.47,108.389,168.47,131.2"/>
	<g>
		<path fill="#FF7A00" d="M181.153,35.459l-13.961,26.124c-13.962-5.821-26.929-8.708-38.902-8.708
			c-20.539,0-38.713,6.673-54.614,20.019C57.821,86.288,49.87,102.426,49.87,121.403v59.584H21.995V28.455H49.87v32.513
			C67.713,36.974,93.837,25,128.29,25C147.646,25,165.299,28.455,181.153,35.459z"/>
	</g>
	<g>
		<path fill="#3E373C" d="M73.107,224.29l13.962-26.124c13.961,5.821,26.929,8.708,38.901,8.708c20.54,0,38.713-6.673,54.615-20.019
			c15.901-13.346,23.805-29.531,23.805-48.51V78.763h27.875v152.532h-27.875v-32.514c-17.795,23.995-43.966,36.016-78.42,36.016
			C106.614,234.75,89.01,231.295,73.107,224.29z"/>
	</g>
</g>
</svg>
