<?xml version="1.0" encoding="UTF-8" standalone="no"?>
<!-- Generator: Adobe Illustrator 15.0.2, SVG Export Plug-In . SVG Version: 6.00 Build 0)  -->

<svg
   version="1.1"
   id="Ebene_1"
   x="0px"
   y="0px"
   width="10.5cm"
   height="15.5cm"
   viewBox="0 0 396.85041 585.82678"
   enable-background="new 0 0 102.047 102.047"
   xml:space="preserve"
   sodipodi:docname="ProfileRel.svg"
   inkscape:version="1.2.1 (9c6d41e4, 2022-07-14)"
   xmlns:inkscape="http://www.inkscape.org/namespaces/inkscape"
   xmlns:sodipodi="http://sodipodi.sourceforge.net/DTD/sodipodi-0.dtd"
   xmlns:xlink="http://www.w3.org/1999/xlink"
   xmlns="http://www.w3.org/2000/svg"
   xmlns:svg="http://www.w3.org/2000/svg"><sodipodi:namedview
   id="namedview47939"
   pagecolor="#ffffff"
   bordercolor="#000000"
   borderopacity="0.25"
   inkscape:showpageshadow="2"
   inkscape:pageopacity="0.0"
   inkscape:pagecheckerboard="0"
   inkscape:deskcolor="#d1d1d1"
   inkscape:document-units="cm"
   showgrid="false"
   inkscape:zoom="1"
   inkscape:cx="261.5"
   inkscape:cy="298.5"
   inkscape:window-width="1344"
   inkscape:window-height="833"
   inkscape:window-x="72"
   inkscape:window-y="47"
   inkscape:window-maximized="0"
   inkscape:current-layer="g62145"
   showguides="true" /><defs
   id="defs189"><linearGradient
     inkscape:collect="always"
     id="linearGradient80152"><stop
       style="stop-color:#aaaaaa;stop-opacity:1;"
       offset="0"
       id="stop80148" /><stop
       style="stop-color:#aaaaaa;stop-opacity:0;"
       offset="1"
       id="stop80150" /></linearGradient><color-profile
     name="Adobe-RGB--1998-"
     xlink:href="file:///System/Library/ColorSync/Profiles/AdobeRGB1998.icc"
     id="color-profile136212" /><linearGradient
     inkscape:collect="always"
     xlink:href="#linearGradient80152"
     id="linearGradient80154"
     x1="-352.53763"
     y1="111.53803"
     x2="-288.35623"
     y2="111.53803"
     gradientUnits="userSpaceOnUse" /><linearGradient
     inkscape:collect="always"
     xlink:href="#linearGradient80152"
     id="linearGradient80160"
     x1="-382.32358"
     y1="201.42032"
     x2="-347.18553"
     y2="201.42032"
     gradientUnits="userSpaceOnUse" /></defs>


<g
   id="g57460"
   transform="rotate(180,198.25722,146.11608)"><text
     xml:space="preserve"
     style="font-size:2.66667px;font-family:redaktor;-inkscape-font-specification:redaktor;text-align:end;text-anchor:end;fill:#ffffff;fill-opacity:1;fill-rule:evenodd;stroke:#3e3d3a;stroke-width:0;stroke-linecap:round;stroke-miterlimit:10"
     x="269"
     y="-131"
     id="text1238"><tspan
       sodipodi:role="line"
       id="tspan1236"
       x="269"
       y="-131" /></text><g
     id="g62145"><g
       id="g5457-0-2"
       transform="matrix(-1.5025223,0,0,-1.5025223,701.05022,45.442328)"><rect
         style="fill:none;fill-opacity:1;fill-rule:evenodd;stroke:#663399;stroke-width:2.66724;stroke-linecap:round;stroke-miterlimit:10;stroke-dasharray:none;stroke-opacity:1"
         id="rect5401-0-1"
         width="117.14389"
         height="148.5981"
         x="217.87721"
         y="43.537933"
         ry="6.4374166"
         rx="6.4374166" /></g><rect
       style="fill:#300064;fill-opacity:1;fill-rule:evenodd;stroke:#aaaaaa;stroke-width:0;stroke-linecap:round;stroke-miterlimit:10;stroke-dasharray:none;stroke-opacity:1"
       id="rect5511-14-0"
       width="136.06299"
       height="3.023622"
       x="-363.59412"
       y="97.57692"
       ry="1.5"
       rx="1.5"
       transform="scale(-1)" /><rect
       style="fill:#300064;fill-opacity:1;fill-rule:evenodd;stroke:#aaaaaa;stroke-width:0;stroke-linecap:round;stroke-miterlimit:10;stroke-dasharray:none;stroke-opacity:1"
       id="rect5511-1-8-5"
       width="136.06299"
       height="3.023622"
       x="-363.59412"
       y="171.16748"
       ry="1.5"
       rx="1.5"
       transform="scale(-1)" /><text
       xml:space="preserve"
       style="font-style:normal;font-variant:normal;font-weight:bold;font-stretch:normal;font-size:14.6667px;font-family:'Maven Pro';-inkscape-font-specification:'Maven Pro Bold';text-align:center;text-anchor:middle;fill:#300064;fill-opacity:1;fill-rule:evenodd;stroke:#aaaaaa;stroke-width:0;stroke-linecap:round;stroke-miterlimit:10;stroke-dasharray:none;stroke-opacity:1"
       x="-363.82147"
       y="115.0947"
       id="text5808-5-5"
       transform="scale(-1)"><tspan
         id="tspan5806-3-1"
         style="font-style:normal;font-variant:normal;font-weight:500;font-stretch:normal;font-size:14.6667px;font-family:'Maven Pro';-inkscape-font-specification:'Maven Pro Medium';text-align:start;text-anchor:start;fill:#300064;fill-opacity:1;stroke:#aaaaaa;stroke-width:0;stroke-opacity:1"
         x="-363.82147"
         y="115.0947">Summary</tspan></text><text
       xml:space="preserve"
       style="font-style:normal;font-variant:normal;font-weight:bold;font-stretch:normal;font-size:14.6655px;font-family:'Maven Pro';-inkscape-font-specification:'Maven Pro Bold';text-align:center;text-anchor:middle;fill:#300064;fill-opacity:1;fill-rule:evenodd;stroke:#aaaaaa;stroke-width:0;stroke-linecap:round;stroke-miterlimit:10;stroke-dasharray:none;stroke-opacity:1"
       x="-364.32678"
       y="188.67032"
       id="text5808-7-1-4"
       transform="scale(-0.9999212,-1.0000788)"><tspan
         id="tspan5806-0-9-4"
         style="font-style:normal;font-variant:normal;font-weight:500;font-stretch:normal;font-size:14.6655px;font-family:'Maven Pro';-inkscape-font-specification:'Maven Pro Medium';text-align:start;text-anchor:start;fill:#300064;fill-opacity:1;stroke:#aaaaaa;stroke-width:0;stroke-opacity:1"
         x="-364.32678"
         y="188.67032">Content</tspan></text><g
       id="g8732-3-7"
       transform="rotate(180,190.59407,11.802104)"><g
         id="g8738-9-8"
         transform="translate(-3.7795277)"><rect
           style="fill:#ffffff;fill-opacity:1;fill-rule:evenodd;stroke:#300064;stroke-width:3.77953;stroke-linecap:round;stroke-miterlimit:10;stroke-dasharray:none;stroke-opacity:1"
           id="rect8314-10-8"
           width="45.354328"
           height="45.354332"
           x="180.49162"
           y="221.10237"
           ry="0" /><rect
           style="fill:none;fill-rule:evenodd;stroke:#300064;stroke-width:3.77953;stroke-linecap:round;stroke-miterlimit:10;stroke-dasharray:none;stroke-opacity:1"
           id="rect8314-1-4-5"
           width="45.354328"
           height="45.354332"
           x="225.84595"
           y="221.10237"
           ry="0" /><rect
           style="fill:none;fill-rule:evenodd;stroke:#300064;stroke-width:3.77953;stroke-linecap:round;stroke-miterlimit:10;stroke-dasharray:none;stroke-opacity:1"
           id="rect8314-17-9-8"
           width="45.354328"
           height="45.354332"
           x="271.20029"
           y="221.10237"
           ry="0" /><rect
           style="fill:none;fill-rule:evenodd;stroke:#300064;stroke-width:3.77953;stroke-linecap:round;stroke-miterlimit:10;stroke-dasharray:none;stroke-opacity:1"
           id="rect8314-1-9-0-8"
           width="45.354328"
           height="45.354332"
           x="316.5546"
           y="221.10237"
           ry="0" /></g></g><g
       id="g22183-2-4"
       transform="matrix(-1.5025223,0,0,-1.5025223,706.52883,49.103628)"><path
         id="path21922-0-3"
         style="fill:none;fill-rule:evenodd;stroke:#aa0000;stroke-width:1.25773;stroke-dasharray:none"
         d="m 222.35394,187.3648 c 0.17728,-0.63524 0.94375,-0.0744 1.05581,0.29464 0.30367,1.0002 -0.75442,1.78488 -1.6451,1.81697 -1.59322,0.0574 -2.67143,-1.51766 -2.57814,-2.99555 0.13691,-2.16886 2.28814,-3.57557 4.34601,-3.3393 2.74282,0.31492 4.4867,3.06075 4.10046,5.69646 -0.48604,3.31678 -3.83429,5.40133 -7.04691,4.86163 -3.89092,-0.65365 -6.31796,-4.60833 -5.62279,-8.39737 0.81923,-4.46525 5.38268,-7.23585 9.74782,-6.38395 5.03973,0.98355 8.15458,6.15723 7.14512,11.09827 -1.14702,5.61433 -6.93194,9.0739 -12.44873,7.90628 -6.18901,-1.30989 -4.47378,-9.1851 -8.66744,-13.79918 -1.0524,-1.1579 -4.65477,-1.26609 -2.72125,-3.01961" /><circle
         style="fill:#000000;fill-opacity:1;fill-rule:evenodd;stroke:#a30055;stroke-width:0;stroke-linecap:round;stroke-miterlimit:10;stroke-dasharray:none;stroke-opacity:1"
         id="path21651-1-1"
         cx="224.49872"
         cy="185.58527"
         r="4.0247283" /></g><text
       xml:space="preserve"
       style="font-size:9.33333px;line-height:0.8;font-family:'Maven Pro';-inkscape-font-specification:'Maven Pro, Normal';letter-spacing:-0.75px;fill:#000000;fill-opacity:1;fill-rule:evenodd;stroke:#000000;stroke-width:0;stroke-linecap:round;stroke-miterlimit:10;stroke-opacity:1"
       x="-200.71634"
       y="239.13335"
       id="text2339-7-2-4"
       transform="scale(-1)"><tspan
         sodipodi:role="line"
         id="tspan110691-8"
         x="-200.71634"
         y="239.13335"
         style="font-size:9.33333px;fill:#000000;fill-opacity:1;stroke:#000000;stroke-width:0;stroke-opacity:1">RELATION</tspan></text><text
       xml:space="preserve"
       style="font-style:normal;font-variant:normal;font-weight:bold;font-stretch:normal;font-size:12px;line-height:0.8;font-family:'Maven Pro';-inkscape-font-specification:'Maven Pro Bold';opacity:0.8;fill:#000000;fill-opacity:1;fill-rule:evenodd;stroke:#d32403;stroke-width:0;stroke-linecap:round;stroke-miterlimit:10;stroke-opacity:1"
       x="-364.46414"
       y="72.603844"
       id="text48249-4"
       transform="scale(-1)"><tspan
         sodipodi:role="line"
         x="-364.46414"
         y="72.603844"
         style="font-style:normal;font-variant:normal;font-weight:500;font-stretch:normal;font-size:12px;font-family:'Maven Pro';-inkscape-font-specification:'Maven Pro Medium';fill:#000000;fill-opacity:1"
         id="tspan70886">Alyssa's photography </tspan><tspan
         sodipodi:role="line"
         x="-364.46414"
         y="82.203842"
         style="font-style:normal;font-variant:normal;font-weight:500;font-stretch:normal;font-size:12px;font-family:'Maven Pro';-inkscape-font-specification:'Maven Pro Medium';fill:#000000;fill-opacity:1"
         id="tspan120921">was influenced by</tspan><tspan
         sodipodi:role="line"
         x="-364.46414"
         y="91.803841"
         style="font-style:normal;font-variant:normal;font-weight:500;font-stretch:normal;font-size:12px;font-family:'Maven Pro';-inkscape-font-specification:'Maven Pro Medium';fill:#000000;fill-opacity:1"
         id="tspan121653">Wahidi and Niedringhaus</tspan><tspan
         sodipodi:role="line"
         x="-364.46414"
         y="101.40385"
         style="font-style:normal;font-variant:normal;font-weight:500;font-stretch:normal;font-size:12px;font-family:'Maven Pro';-inkscape-font-specification:'Maven Pro Medium';fill:#000000;fill-opacity:1"
         id="tspan120923" /></text><text
       xml:space="preserve"
       style="font-style:normal;font-variant:normal;font-weight:bold;font-stretch:normal;font-size:12px;line-height:0.8;font-family:'Maven Pro';-inkscape-font-specification:'Maven Pro Bold';opacity:0.8;fill:#000000;fill-opacity:1;fill-rule:evenodd;stroke:#d32403;stroke-width:0;stroke-linecap:round;stroke-miterlimit:10;stroke-opacity:1"
       x="-364.47906"
       y="165.87915"
       id="text48249-4-6"
       transform="scale(-1)"><tspan
         sodipodi:role="line"
         x="-364.47906"
         y="165.87915"
         style="font-style:normal;font-variant:normal;font-weight:500;font-stretch:normal;font-size:12px;font-family:'Maven Pro';-inkscape-font-specification:'Maven Pro Medium';fill:#000000;fill-opacity:1"
         id="tspan120923-1">[…]</tspan></text><text
       xml:space="preserve"
       style="font-size:14.6667px;line-height:0.8;font-family:redaktor;-inkscape-font-specification:redaktor;opacity:0.8;fill:#ffffff;fill-opacity:1;fill-rule:evenodd;stroke-width:0;stroke-linecap:round;stroke-miterlimit:10"
       x="-364.59625"
       y="42.705765"
       id="text39045-8"
       transform="scale(-1)"><tspan
         style="font-style:normal;font-variant:normal;font-weight:500;font-stretch:normal;font-size:20px;font-family:'Maven Pro';-inkscape-font-specification:'Maven Pro Medium';fill:#000000;fill-opacity:1"
         sodipodi:role="line"
         x="-364.59625"
         y="42.705765"
         id="tspan70668">About Alyssa's</tspan><tspan
         style="font-style:normal;font-variant:normal;font-weight:500;font-stretch:normal;font-size:20px;font-family:'Maven Pro';-inkscape-font-specification:'Maven Pro Medium';fill:#000000;fill-opacity:1"
         sodipodi:role="line"
         x="-364.59625"
         y="58.705765"
         id="tspan120925">heroes</tspan><tspan
         style="font-style:normal;font-variant:normal;font-weight:500;font-stretch:normal;font-size:12px;font-family:'Maven Pro';-inkscape-font-specification:'Maven Pro Medium';fill:#000000;fill-opacity:1"
         sodipodi:role="line"
         x="-364.59625"
         y="72.563599"
         id="tspan83471" /></text><path
       d="m 173.19163,-200.34651 c 3.181,0 6.088,-1.165 8.325,-3.086 2.282,2.12 5.338,3.419 8.699,3.419 7.062,0 12.787,-5.725 12.787,-12.787 0,-7.062 -5.725,-12.786 -12.787,-12.786 -0.117,0 -0.233,0.006 -0.35,0.009 -1.912,-2.427 -4.874,-3.989 -8.196,-3.989 -3.17,0 -6.012,1.423 -7.927,3.661 -0.183,-0.007 -0.366,-0.014 -0.55,-0.014 -7.062,0 -12.787,5.725 -12.787,12.786 0,7.061 5.725,12.787 12.786,12.787 z m 8.478,-26.887 c 2.06,0 3.942,0.774 5.373,2.046 -1.931,0.494 -3.684,1.428 -5.15,2.688 -1.478,-1.374 -3.281,-2.399 -5.281,-2.954 1.387,-1.112 3.146,-1.78 5.058,-1.78 z m -0.133,5.963 8.62,8.595 -8.285,8.263 -8.62,-8.597 8.286,-8.261 z"
       id="path113775" /><rect
       style="fill:#300064;fill-opacity:1;fill-rule:evenodd;stroke:#aaaaaa;stroke-width:0;stroke-linecap:round;stroke-miterlimit:10;stroke-dasharray:none;stroke-opacity:1"
       id="rect5511-1-8-5-7"
       width="174.06212"
       height="3.023622"
       x="-194.5459"
       y="77.898994"
       ry="1.5"
       rx="1.4999999"
       transform="scale(-1)" /><text
       xml:space="preserve"
       style="font-style:normal;font-variant:normal;font-weight:bold;font-stretch:normal;font-size:14.6655px;font-family:'Maven Pro';-inkscape-font-specification:'Maven Pro Bold';text-align:center;text-anchor:middle;fill:#300064;fill-opacity:1;fill-rule:evenodd;stroke:#aaaaaa;stroke-width:0;stroke-linecap:round;stroke-miterlimit:10;stroke-dasharray:none;stroke-opacity:1"
       x="-182.93126"
       y="95.40918"
       id="text5808-7-1-4-1"
       transform="scale(-0.9999212,-1.0000788)"><tspan
         id="tspan5806-0-9-4-2"
         style="font-style:normal;font-variant:normal;font-weight:500;font-stretch:normal;font-size:14.6655px;font-family:'Maven Pro';-inkscape-font-specification:'Maven Pro Medium';text-align:start;text-anchor:start;fill:#300064;fill-opacity:1;stroke:#aaaaaa;stroke-width:0;stroke-opacity:1"
         x="-182.93126"
         y="95.40918">subject</tspan></text><path
       id="path182"
       d="m 169.85836,-3.5983319 c 4.69693,-0.008 9.52734,-3.169344 8.83756,-9.1361771 16.94765,-1.401632 28.98004,-25.590544 15.52019,-38.800503 2.26467,4.029502 2.11643,12.97891 0,17.072826 -1.38534,-2.130382 -2.02992,-5.001896 -3.52392,-7.023633 0.0629,-0.598371 0.0989,-1.201574 0.0989,-1.813922 0,-9.201411 -7.21321,-16.915321 -16.92453,-18.993676 2.3772,0.230502 4.58875,0.691003 6.37999,1.447704 1.44976,-3.20608 1.65371,-7.658264 3.10425,-10.864347 h -3.58144 v -0.0706 h -0.0999 -0.53772 -0.72738 c -0.0341,0.006 -0.0675,0.007 -0.0999,0.007 -0.12689,-4.9e-4 -0.24135,-0.0399 -0.35209,-0.0928 v 0.15839 h -23.31562 c 1.04154,3.613536 1.58077,7.731221 3.10426,10.864348 0.90571,-0.269305 1.91867,-0.509925 2.99124,-0.723355 -8.34616,2.804826 -14.27729,9.923722 -14.27729,18.268321 0,8.010103 5.46664,14.892167 13.2866,17.911182 -2.29334,2.850605 -3.99517,6.293282 -6.65642,8.776018 0.33839,-4.827329 -12.94884,-23.275924 -13.19176,-10.86535 3.26579,9.407855 11.92578,13.423203 21.72867,16.293985 0.0517,5.1429851 4.0919,7.5915821 8.23629,7.5845621 z m -8.23629,-14.5668351 c -0.31043,-2.69539 0.0814,-4.687241 0.77985,-6.372926 1.9744,0.50834 4.05915,0.785894 6.22059,0.785894 0.34925,0 0.69702,-0.0092 1.04316,-0.02323 -2.58752,1.964304 -5.15882,3.943954 -8.0436,5.610238 z m 25.53712,-14.419536 c 1.04618,-1.403966 1.89042,-2.933632 2.50195,-4.558003 0.30346,1.238648 0.37075,2.635709 -0.1019,4.23214 -0.82805,0.08072 -1.62628,0.190814 -2.40005,0.325863 z m -1.92894,-37.777517 v -0.34302 c -0.004,0.12229 -0.0485,0.2331 -0.0969,0.34302 z m 0,-0.34302 v -0.7173 c -0.002,0.003 -0.004,0.01 -0.006,0.0121 0.003,0.003 0.004,0.008 0.004,0.0293 -0.002,0.20805 -2.7e-4,0.41643 0,0.62448 0.001,0.0172 0.002,0.0347 0.001,0.0514 z m -1.52639,-0.88174 c 0.0173,-0.0877 0.0432,-0.16453 0.0767,-0.23002 -0.0564,-0.0106 -0.1131,-0.0188 -0.16948,-0.0293 z m -16.42312,-1.46485 c 0.3317,-0.0257 0.62462,-0.0903 0.87871,-0.1937 -0.29226,0.0682 -0.58523,0.1318 -0.87871,0.1937 z m -12.57031,-0.0484 c -0.0147,-0.004 -0.0584,-0.0253 -0.0696,-0.0283 0.01,0.005 0.041,0.0225 0.0514,0.0283 0.006,-2.2e-4 0.0121,2.3e-4 0.0182,0 z"
       style="fill:#03404e;fill-opacity:1;stroke-width:2.36617" /><path
       fill="#0ac1eb"
       d="m 139.89315,-27.479225 c 0.24292,-12.41065 13.53056,6.038852 13.19218,10.865432 4.41603,-4.119549 6.177,-10.895701 12.41608,-13.192187 -1.93714,3.235572 -4.55338,5.793606 -3.8805,11.639982 9.01908,-5.209974 14.97101,-13.484775 27.93812,-14.744393 1.6399,-5.542921 -3.11838,-8.754429 -2.32831,-10.864655 4.48666,0.946067 4.84366,6.021003 6.98415,9.313231 2.11643,-4.093942 2.26467,-13.043176 0,-17.072705 -3.09044,-4.669802 -8.31593,-7.204547 -13.96906,-9.312445 -5.92865,-2.506035 -16.42388,-1.80599 -22.50386,0 -11.99001,4.669031 -24.56208,17.252751 -17.8488,33.36774 z m 42.50168,-12.664435 c 1.71442,0 3.10441,1.389998 3.10441,3.104405 0,1.714412 -1.38999,3.104411 -3.10441,3.104411 -1.7144,0 -3.10441,-1.389999 -3.10441,-3.104411 0,-1.714407 1.39001,-3.104405 3.10441,-3.104405 z m -14.71412,-15.007492 c 2.57201,0 4.67059,0.59216 5.17117,0.894068 0.33605,0.201791 0.32752,0.442379 0.29181,0.567336 -0.0978,0.352343 -0.50601,0.352343 -0.65968,0.352343 v -0.710907 c -0.0388,0.03881 -0.0753,0.09391 -0.0916,0.166864 -0.0349,0.152892 0.0388,0.270857 0.0807,0.304231 -0.61235,-0.488167 -8.10717,-2.297257 -12.59692,1.944133 l -0.53396,-0.56422 c 2.44239,-2.305802 5.64925,-2.953848 8.33844,-2.953848 z m -15.55463,16.559697 c 1.7144,0 3.1044,1.389999 3.1044,3.104405 0,1.714413 -1.39,3.104411 -3.1044,3.104411 -1.71441,0 -3.10441,-1.389998 -3.10441,-3.104411 0,-1.714406 1.39,-3.104405 3.10441,-3.104405 z"
       id="path184"
       style="stroke-width:2.36617" /><text
       xml:space="preserve"
       style="font-weight:500;font-size:20px;line-height:0.8;font-family:'Maven Pro';-inkscape-font-specification:'Maven Pro Medium';fill:#300064;fill-opacity:1;fill-rule:evenodd;stroke:#300064;stroke-width:0;stroke-linecap:round;stroke-miterlimit:10;stroke-opacity:1"
       x="-146.51448"
       y="72.767838"
       id="text124976"
       transform="scale(-1)"><tspan
         sodipodi:role="line"
         id="tspan124974"
         x="-146.51448"
         y="72.767838"
         style="font-style:normal;font-variant:normal;font-weight:bold;font-stretch:normal;font-size:20px;font-family:'Maven Pro';-inkscape-font-specification:'Maven Pro Bold'">Alyssa</tspan></text><rect
       style="fill:#300064;fill-opacity:1;fill-rule:evenodd;stroke:#aaaaaa;stroke-width:0;stroke-linecap:round;stroke-miterlimit:10;stroke-dasharray:none;stroke-opacity:1"
       id="rect5511-1-8-5-7-5"
       width="174.06212"
       height="3.023622"
       x="-194.54192"
       y="171.26421"
       ry="1.5"
       rx="1.4999999"
       transform="scale(-1)" /><text
       xml:space="preserve"
       style="font-style:normal;font-variant:normal;font-weight:bold;font-stretch:normal;font-size:14.6655px;font-family:'Maven Pro';-inkscape-font-specification:'Maven Pro Bold';text-align:center;text-anchor:middle;fill:#300064;fill-opacity:1;fill-rule:evenodd;stroke:#aaaaaa;stroke-width:0;stroke-linecap:round;stroke-miterlimit:10;stroke-dasharray:none;stroke-opacity:1"
       x="-182.85793"
       y="188.76703"
       id="text5808-7-1-4-1-5"
       transform="scale(-0.9999212,-1.0000788)"><tspan
         id="tspan5806-0-9-4-2-3"
         style="font-style:normal;font-variant:normal;font-weight:500;font-stretch:normal;font-size:14.6655px;font-family:'Maven Pro';-inkscape-font-specification:'Maven Pro Medium';text-align:start;text-anchor:start;fill:#300064;fill-opacity:1;stroke:#aaaaaa;stroke-width:0;stroke-opacity:1"
         x="-182.85793"
         y="188.76703">object</tspan></text><text
       xml:space="preserve"
       style="font-weight:500;font-size:20px;line-height:0.8;font-family:'Maven Pro';-inkscape-font-specification:'Maven Pro Medium';fill:#300064;fill-opacity:1;fill-rule:evenodd;stroke:#300064;stroke-width:0;stroke-linecap:round;stroke-miterlimit:10;stroke-opacity:1"
       x="-194.51137"
       y="166.13304"
       id="text124976-4"
       transform="scale(-1)"><tspan
         sodipodi:role="line"
         id="tspan124974-7"
         x="-194.51137"
         y="166.13304"
         style="font-style:normal;font-variant:normal;font-weight:bold;font-stretch:normal;font-size:20px;font-family:'Maven Pro';-inkscape-font-specification:'Maven Pro Bold'">Anja Niedringhaus</tspan></text><text
       xml:space="preserve"
       style="font-style:normal;font-variant:normal;font-weight:bold;font-stretch:normal;font-size:14.6655px;font-family:'Maven Pro';-inkscape-font-specification:'Maven Pro Bold';text-align:center;text-anchor:middle;fill:#300064;fill-opacity:1;fill-rule:evenodd;stroke:#aaaaaa;stroke-width:0;stroke-linecap:round;stroke-miterlimit:10;stroke-dasharray:none;stroke-opacity:1"
       x="-183.23924"
       y="122.49818"
       id="text5808-7-1-4-1-6"
       transform="scale(-0.9999212,-1.0000788)"><tspan
         id="tspan5806-0-9-4-2-5"
         style="font-style:normal;font-variant:normal;font-weight:500;font-stretch:normal;font-size:14.6655px;font-family:'Maven Pro';-inkscape-font-specification:'Maven Pro Medium';text-align:start;text-anchor:start;fill:#300064;fill-opacity:1;stroke:#aaaaaa;stroke-width:0;stroke-opacity:1"
         x="-183.23924"
         y="122.49818">relationship</tspan></text><rect
       style="fill:#ffffff;fill-opacity:1;fill-rule:evenodd;stroke:#000000;stroke-width:0;stroke-linecap:round;stroke-miterlimit:10;stroke-opacity:1"
       id="rect127393"
       width="16"
       height="22"
       x="-205.51443"
       y="120.76784"
       transform="scale(-1)"
       rx="9.6723623"
       ry="9.6723623" /><text
       xml:space="preserve"
       style="font-style:normal;font-variant:normal;font-weight:bold;font-stretch:normal;font-size:14.6667px;line-height:0.8;font-family:'Maven Pro';-inkscape-font-specification:'Maven Pro Bold';fill:#000000;fill-opacity:1;fill-rule:evenodd;stroke:#000000;stroke-width:0;stroke-linecap:round;stroke-miterlimit:10;stroke-opacity:1"
       x="-18.97225"
       y="137.76784"
       id="text127227"
       transform="scale(-1)"><tspan
         sodipodi:role="line"
         id="tspan127225"
         x="-18.972231"
         y="137.76784"
         style="font-style:normal;font-variant:normal;font-weight:bold;font-stretch:normal;font-size:14.6667px;font-family:'Maven Pro';-inkscape-font-specification:'Maven Pro Bold';text-align:end;text-anchor:end;fill:#300064;fill-opacity:1;stroke:#000000;stroke-opacity:1">http://purl.org/vocab/relationship/influencedBy</tspan></text><g
       id="g8732-3-7-4"
       transform="rotate(-180,190.97202,152.15829)"><g
         id="g8738-9-8-4"
         transform="translate(-3.7795277)" /></g><g
       id="g136206"
       transform="rotate(-180,197.87707,154.13067)"><g
         id="g5457-0-2-6"
         transform="matrix(-1.5025223,0,0,-1.5025223,701.80613,326.15471)"><rect
           style="fill:none;fill-opacity:1;fill-rule:evenodd;stroke:#b30063;stroke-width:2.66724;stroke-linecap:round;stroke-miterlimit:10;stroke-dasharray:none;stroke-opacity:1"
           id="rect5401-0-1-5"
           width="117.14389"
           height="148.5981"
           x="217.87721"
           y="43.537933"
           ry="6.4374166"
           rx="6.4374166" /></g><rect
         style="fill:#a40057;fill-opacity:1;fill-rule:evenodd;stroke:#a40057;stroke-width:0;stroke-linecap:round;stroke-miterlimit:10;stroke-dasharray:none;stroke-opacity:1"
         id="rect5511-14-0-6"
         width="136.06299"
         height="3.023622"
         x="-364.35001"
         y="-183.13545"
         ry="1.5"
         rx="1.5"
         transform="scale(-1)" /><rect
         style="fill:#a40057;fill-opacity:1;fill-rule:evenodd;stroke:#a40057;stroke-width:0;stroke-linecap:round;stroke-miterlimit:10;stroke-dasharray:none;stroke-opacity:1"
         id="rect5511-1-8-5-5"
         width="136.06299"
         height="3.023622"
         x="-364.35001"
         y="-109.5449"
         ry="1.5"
         rx="1.5"
         transform="scale(-1)" /><text
         xml:space="preserve"
         style="font-style:normal;font-variant:normal;font-weight:bold;font-stretch:normal;font-size:14.6667px;font-family:'Maven Pro';-inkscape-font-specification:'Maven Pro Bold';text-align:center;text-anchor:middle;fill:#a40057;fill-opacity:1;fill-rule:evenodd;stroke:#a40057;stroke-width:0;stroke-linecap:round;stroke-miterlimit:10;stroke-dasharray:none;stroke-opacity:1"
         x="-364.57736"
         y="-165.61768"
         id="text5808-5-5-4"
         transform="scale(-1)"><tspan
           id="tspan5806-3-1-0"
           style="font-style:normal;font-variant:normal;font-weight:500;font-stretch:normal;font-size:14.6667px;font-family:'Maven Pro';-inkscape-font-specification:'Maven Pro Medium';text-align:start;text-anchor:start;fill:#a40057;fill-opacity:1;stroke:#a40057;stroke-width:0;stroke-opacity:1"
           x="-364.57736"
           y="-165.61768">Summary</tspan></text><text
         xml:space="preserve"
         style="font-style:normal;font-variant:normal;font-weight:bold;font-stretch:normal;font-size:14.6655px;font-family:'Maven Pro';-inkscape-font-specification:'Maven Pro Bold';text-align:center;text-anchor:middle;fill:#a40057;fill-opacity:1;fill-rule:evenodd;stroke:#a40057;stroke-width:0;stroke-linecap:round;stroke-miterlimit:10;stroke-dasharray:none;stroke-opacity:1"
         x="-365.08273"
         y="-92.019943"
         id="text5808-7-1-4-4"
         transform="scale(-0.9999212,-1.0000788)"><tspan
           id="tspan5806-0-9-4-0"
           style="font-style:normal;font-variant:normal;font-weight:500;font-stretch:normal;font-size:14.6655px;font-family:'Maven Pro';-inkscape-font-specification:'Maven Pro Medium';text-align:start;text-anchor:start;fill:#a40057;fill-opacity:1;stroke:#a40057;stroke-width:0;stroke-opacity:1"
           x="-365.08273"
           y="-92.019943">Content</tspan></text><rect
         style="fill:#ffffff;fill-opacity:1;fill-rule:evenodd;stroke:#870040;stroke-width:3.77953;stroke-linecap:round;stroke-miterlimit:10;stroke-dasharray:none;stroke-opacity:1"
         id="rect8314-10-8-3"
         width="45.354328"
         height="45.354332"
         x="180.49162"
         y="221.10237"
         ry="0"
         transform="rotate(180,192.86178,152.15829)" /><rect
         style="fill:none;fill-rule:evenodd;stroke:#870040;stroke-width:3.77953;stroke-linecap:round;stroke-miterlimit:10;stroke-dasharray:none;stroke-opacity:1"
         id="rect8314-1-4-5-4"
         width="45.354328"
         height="45.354332"
         x="225.84595"
         y="221.10237"
         ry="0"
         transform="rotate(180,192.86178,152.15829)" /><rect
         style="fill:none;fill-rule:evenodd;stroke:#870040;stroke-width:3.77953;stroke-linecap:round;stroke-miterlimit:10;stroke-dasharray:none;stroke-opacity:1"
         id="rect8314-17-9-8-3"
         width="45.354328"
         height="45.354332"
         x="271.20029"
         y="221.10237"
         ry="0"
         transform="rotate(180,192.86178,152.15829)" /><rect
         style="fill:none;fill-rule:evenodd;stroke:#870040;stroke-width:3.77953;stroke-linecap:round;stroke-miterlimit:10;stroke-dasharray:none;stroke-opacity:1"
         id="rect8314-1-9-0-8-7"
         width="45.354328"
         height="45.354332"
         x="316.5546"
         y="221.10237"
         ry="0"
         transform="rotate(180,192.86178,152.15829)" /><g
         id="g22183-2-4-2"
         transform="matrix(-1.5025223,0,0,-1.5025223,707.28474,329.81601)"><path
           id="path21922-0-3-3"
           style="fill:none;fill-rule:evenodd;stroke:#aa0000;stroke-width:1.25773;stroke-dasharray:none"
           d="m 222.35394,187.3648 c 0.17728,-0.63524 0.94375,-0.0744 1.05581,0.29464 0.30367,1.0002 -0.75442,1.78488 -1.6451,1.81697 -1.59322,0.0574 -2.67143,-1.51766 -2.57814,-2.99555 0.13691,-2.16886 2.28814,-3.57557 4.34601,-3.3393 2.74282,0.31492 4.4867,3.06075 4.10046,5.69646 -0.48604,3.31678 -3.83429,5.40133 -7.04691,4.86163 -3.89092,-0.65365 -6.31796,-4.60833 -5.62279,-8.39737 0.81923,-4.46525 5.38268,-7.23585 9.74782,-6.38395 5.03973,0.98355 8.15458,6.15723 7.14512,11.09827 -1.14702,5.61433 -6.93194,9.0739 -12.44873,7.90628 -6.18901,-1.30989 -4.47378,-9.1851 -8.66744,-13.79918 -1.0524,-1.1579 -4.65477,-1.26609 -2.72125,-3.01961" /><circle
           style="fill:#000000;fill-opacity:1;fill-rule:evenodd;stroke:#a30055;stroke-width:0;stroke-linecap:round;stroke-miterlimit:10;stroke-dasharray:none;stroke-opacity:1"
           id="path21651-1-1-9"
           cx="224.49872"
           cy="185.58527"
           r="4.0247283" /></g><text
         xml:space="preserve"
         style="font-size:9.33333px;line-height:0.8;font-family:'Maven Pro';-inkscape-font-specification:'Maven Pro, Normal';letter-spacing:0px;fill:#000000;fill-opacity:1;fill-rule:evenodd;stroke:#000000;stroke-width:0;stroke-linecap:round;stroke-miterlimit:10;stroke-opacity:1"
         x="-201.47226"
         y="-41.579037"
         id="text2339-7-2-4-3"
         transform="scale(-1)"><tspan
           sodipodi:role="line"
           id="tspan110691-8-5"
           x="-201.47226"
           y="-41.579037"
           style="font-size:9.33333px;fill:#000000;fill-opacity:1;stroke:#000000;stroke-width:0;stroke-opacity:1">PROFILE</tspan></text><text
         xml:space="preserve"
         style="font-style:normal;font-variant:normal;font-weight:bold;font-stretch:normal;font-size:12px;line-height:0.8;font-family:'Maven Pro';-inkscape-font-specification:'Maven Pro Bold';opacity:0.8;fill:#000000;fill-opacity:1;fill-rule:evenodd;stroke:#d32403;stroke-width:0;stroke-linecap:round;stroke-miterlimit:10;stroke-opacity:1"
         x="-365.22006"
         y="-208.10854"
         id="text48249-4-4"
         transform="scale(-1)"><tspan
           sodipodi:role="line"
           x="-365.22006"
           y="-208.10854"
           style="font-style:normal;font-variant:normal;font-weight:500;font-stretch:normal;font-size:12px;font-family:'Maven Pro';-inkscape-font-specification:'Maven Pro Medium';fill:#000000;fill-opacity:1"
           id="tspan131700">I am a photobookpublisher, </tspan><tspan
           sodipodi:role="line"
           x="-365.22006"
           y="-198.50853"
           style="font-style:normal;font-variant:normal;font-weight:500;font-stretch:normal;font-size:12px;font-family:'Maven Pro';-inkscape-font-specification:'Maven Pro Medium';fill:#000000;fill-opacity:1"
           id="tspan131702">photojournalist and </tspan><tspan
           sodipodi:role="line"
           x="-365.22006"
           y="-188.90854"
           style="font-style:normal;font-variant:normal;font-weight:500;font-stretch:normal;font-size:12px;font-family:'Maven Pro';-inkscape-font-specification:'Maven Pro Medium';fill:#000000;fill-opacity:1"
           id="tspan131710">Open Protocols Activist.</tspan></text><text
         xml:space="preserve"
         style="font-style:normal;font-variant:normal;font-weight:bold;font-stretch:normal;font-size:12px;line-height:0.8;font-family:'Maven Pro';-inkscape-font-specification:'Maven Pro Bold';opacity:0.8;fill:#000000;fill-opacity:1;fill-rule:evenodd;stroke:#d32403;stroke-width:0;stroke-linecap:round;stroke-miterlimit:10;stroke-opacity:1"
         x="-365.23495"
         y="-114.83323"
         id="text48249-4-6-3"
         transform="scale(-1)"><tspan
           sodipodi:role="line"
           x="-365.23495"
           y="-114.83323"
           style="font-style:normal;font-variant:normal;font-weight:500;font-stretch:normal;font-size:12px;font-family:'Maven Pro';-inkscape-font-specification:'Maven Pro Medium';fill:#000000;fill-opacity:1"
           id="tspan120923-1-0">[…]</tspan></text><text
         xml:space="preserve"
         style="font-size:14.6667px;line-height:0.8;font-family:redaktor;-inkscape-font-specification:redaktor;opacity:0.8;fill:#ffffff;fill-opacity:1;fill-rule:evenodd;stroke-width:0;stroke-linecap:round;stroke-miterlimit:10"
         x="-365.35214"
         y="-238.00662"
         id="text39045-8-9"
         transform="scale(-1)"><tspan
           style="font-style:normal;font-variant:normal;font-weight:500;font-stretch:normal;font-size:20px;font-family:'Maven Pro';-inkscape-font-specification:'Maven Pro Medium';fill:#000000;fill-opacity:1"
           sodipodi:role="line"
           x="-365.35214"
           y="-238.00662"
           id="tspan83471-3">Alyssa P. Hacker</tspan></text><rect
         style="fill:#a40057;fill-opacity:1;fill-rule:evenodd;stroke:#a40057;stroke-width:0;stroke-linecap:round;stroke-miterlimit:10;stroke-dasharray:none;stroke-opacity:1"
         id="rect5511-1-8-5-7-7"
         width="174.06212"
         height="3.023622"
         x="-195.30182"
         y="-202.81339"
         ry="1.5"
         rx="1.4999999"
         transform="scale(-1)" /><text
         xml:space="preserve"
         style="font-style:normal;font-variant:normal;font-weight:bold;font-stretch:normal;font-size:14.6655px;font-family:'Maven Pro';-inkscape-font-specification:'Maven Pro Bold';text-align:center;text-anchor:middle;fill:#a40057;fill-opacity:1;fill-rule:evenodd;stroke:#a40057;stroke-width:0;stroke-linecap:round;stroke-miterlimit:10;stroke-dasharray:none;stroke-opacity:1"
         x="-183.68723"
         y="-185.28108"
         id="text5808-7-1-4-1-2"
         transform="scale(-0.9999212,-1.0000788)"><tspan
           id="tspan5806-0-9-4-2-1"
           style="font-style:normal;font-variant:normal;font-weight:500;font-stretch:normal;font-size:14.6655px;font-family:'Maven Pro';-inkscape-font-specification:'Maven Pro Medium';text-align:start;text-anchor:start;fill:#a40057;fill-opacity:1;stroke:#a40057;stroke-width:0;stroke-opacity:1"
           x="-183.68723"
           y="-185.28108">describes</tspan></text><path
         id="path182-2"
         d="m 170.61427,277.11405 c 4.69693,-0.008 9.52734,-3.16935 8.83756,-9.13618 16.94765,-1.40163 28.98004,-25.59054 15.52019,-38.8005 2.26467,4.0295 2.11643,12.97891 0,17.07282 -1.38534,-2.13038 -2.02992,-5.00189 -3.52392,-7.02363 0.0629,-0.59837 0.0989,-1.20157 0.0989,-1.81392 0,-9.20141 -7.21321,-16.91532 -16.92453,-18.99368 2.3772,0.2305 4.58875,0.69101 6.37999,1.44771 1.44976,-3.20608 1.65371,-7.65827 3.10425,-10.86435 h -3.58144 v -0.0706 h -0.0999 -0.53772 -0.72738 c -0.0341,0.006 -0.0675,0.007 -0.0999,0.007 -0.12689,-4.9e-4 -0.24135,-0.0399 -0.35209,-0.0928 v 0.15839 h -23.31562 c 1.04154,3.61354 1.58077,7.73122 3.10426,10.86435 0.90571,-0.26931 1.91867,-0.50993 2.99124,-0.72336 -8.34616,2.80483 -14.27729,9.92372 -14.27729,18.26832 0,8.01011 5.46664,14.89217 13.2866,17.91119 -2.29334,2.8506 -3.99517,6.29328 -6.65642,8.77601 0.33839,-4.82732 -12.94884,-23.27592 -13.19176,-10.86535 3.26579,9.40786 11.92578,13.42321 21.72867,16.29399 0.0517,5.14298 4.0919,7.59158 8.23629,7.58456 z m -8.23629,-14.56684 c -0.31043,-2.69539 0.0814,-4.68724 0.77985,-6.37292 1.9744,0.50834 4.05915,0.78589 6.22059,0.78589 0.34925,0 0.69702,-0.009 1.04316,-0.0232 -2.58752,1.96431 -5.15882,3.94396 -8.0436,5.61024 z m 25.53712,-14.41953 c 1.04618,-1.40397 1.89042,-2.93363 2.50195,-4.55801 0.30346,1.23865 0.37075,2.63571 -0.1019,4.23214 -0.82805,0.0807 -1.62628,0.19082 -2.40005,0.32587 z m -1.92894,-37.77752 v -0.34302 c -0.004,0.12229 -0.0485,0.2331 -0.0969,0.34302 z m 0,-0.34302 v -0.7173 c -0.002,0.003 -0.004,0.01 -0.006,0.0121 0.003,0.003 0.004,0.008 0.004,0.0293 -0.002,0.20805 -2.7e-4,0.41643 0,0.62448 0.001,0.0172 0.002,0.0347 0.001,0.0514 z m -1.52639,-0.88174 c 0.0173,-0.0877 0.0432,-0.16453 0.0767,-0.23002 -0.0564,-0.0106 -0.1131,-0.0188 -0.16948,-0.0293 z m -16.42312,-1.46485 c 0.3317,-0.0257 0.62462,-0.0903 0.87871,-0.1937 -0.29226,0.0682 -0.58523,0.1318 -0.87871,0.1937 z m -12.57031,-0.0484 c -0.0147,-0.004 -0.0584,-0.0253 -0.0696,-0.0283 0.01,0.005 0.041,0.0225 0.0514,0.0283 0.006,-2.2e-4 0.0121,2.3e-4 0.0182,0 z"
         style="fill:#03404e;fill-opacity:1;stroke-width:2.36617" /><path
         fill="#0ac1eb"
         d="m 140.64906,253.23316 c 0.24292,-12.41065 13.53056,6.03885 13.19218,10.86543 4.41603,-4.11955 6.177,-10.8957 12.41608,-13.19219 -1.93714,3.23557 -4.55338,5.79361 -3.8805,11.63998 9.01908,-5.20997 14.97101,-13.48477 27.93812,-14.74439 1.6399,-5.54292 -3.11838,-8.75443 -2.32831,-10.86466 4.48666,0.94607 4.84366,6.02101 6.98415,9.31324 2.11643,-4.09395 2.26467,-13.04318 0,-17.07271 -3.09044,-4.6698 -8.31593,-7.20455 -13.96906,-9.31245 -5.92865,-2.50603 -16.42388,-1.80599 -22.50386,0 -11.99001,4.66904 -24.56208,17.25276 -17.8488,33.36775 z m 42.50168,-12.66444 c 1.71442,0 3.10441,1.39 3.10441,3.10441 0,1.71441 -1.38999,3.10441 -3.10441,3.10441 -1.7144,0 -3.10441,-1.39 -3.10441,-3.10441 0,-1.71441 1.39001,-3.10441 3.10441,-3.10441 z m -14.71412,-15.00749 c 2.57201,0 4.67059,0.59216 5.17117,0.89407 0.33605,0.20179 0.32752,0.44237 0.29181,0.56733 -0.0978,0.35234 -0.50601,0.35234 -0.65968,0.35234 v -0.7109 c -0.0388,0.0388 -0.0753,0.0939 -0.0916,0.16686 -0.0349,0.15289 0.0388,0.27086 0.0807,0.30423 -0.61235,-0.48816 -8.10717,-2.29725 -12.59692,1.94414 l -0.53396,-0.56422 c 2.44239,-2.30581 5.64925,-2.95385 8.33844,-2.95385 z m -15.55463,16.5597 c 1.7144,0 3.1044,1.38999 3.1044,3.1044 0,1.71441 -1.39,3.10441 -3.1044,3.10441 -1.71441,0 -3.10441,-1.39 -3.10441,-3.10441 0,-1.71441 1.39,-3.1044 3.10441,-3.1044 z"
         id="path184-8"
         style="stroke-width:2.36617" /><text
         xml:space="preserve"
         style="font-weight:500;font-size:20px;line-height:0.8;font-family:'Maven Pro';-inkscape-font-specification:'Maven Pro Medium';fill:#a40057;fill-opacity:1;fill-rule:evenodd;stroke:#a40057;stroke-width:0;stroke-linecap:round;stroke-miterlimit:10;stroke-opacity:1"
         x="-147.27039"
         y="-207.94455"
         id="text124976-7"
         transform="scale(-1)"><tspan
           sodipodi:role="line"
           id="tspan124974-2"
           x="-147.27039"
           y="-207.94455"
           style="font-style:normal;font-variant:normal;font-weight:bold;font-stretch:normal;font-size:20px;font-family:'Maven Pro';-inkscape-font-specification:'Maven Pro Bold';fill:#a40057;fill-opacity:1;stroke:#a40057;stroke-opacity:1">Alyssa</tspan></text><g
         id="g129842"
         transform="rotate(180,99.233097,41.03283)"><path
           d="m 21.932,18 -0.236,0.164 c -0.164,0.114 -0.332,0.221 -0.502,0.322 l -0.146,0.08 c -0.132,0.076 -0.264,0.15 -0.398,0.22 l -0.215,0.104 c -0.117,0.055 -0.232,0.111 -0.35,0.162 -0.077,0.035 -0.156,0.064 -0.236,0.097 -0.115,0.047 -0.232,0.092 -0.35,0.132 -0.079,0.029 -0.163,0.057 -0.243,0.084 -0.12,0.037 -0.243,0.075 -0.364,0.107 l -0.238,0.066 c -0.135,0.035 -0.273,0.064 -0.41,0.092 l -0.206,0.043 c -0.206,0.037 -0.415,0.072 -0.622,0.095 -0.597,0.068 -1.232,0.078 -1.85,0.026 l -0.25,-0.029 c -0.169,-0.018 -0.337,-0.036 -0.507,-0.064 -0.064,-0.009 -0.127,-0.022 -0.19,-0.035 L 14.517,19.645 C 14.365,19.615 14.211,19.582 14.06,19.545 13.969,19.524 13.88,19.496 13.763,19.467 13.616,19.426 13.47,19.381 13.326,19.332 13.228,19.299 13.131,19.266 13.032,19.229 12.889,19.176 12.751,19.119 12.575,19.043 12.492,19.008 12.411,18.971 12.327,18.937 12.186,18.872 12.048,18.8 11.91,18.726 l -0.084,-0.044 c -0.059,-0.031 -0.117,-0.062 -0.175,-0.092 -0.15,-0.085 -0.294,-0.176 -0.44,-0.271 l -0.475,-0.308 -0.328,0.09 c -0.053,0.012 -0.107,0.026 -0.164,0.046 C 7.69,18.998 5.9,21.282 5.688,23.965 5.673,24.144 5.667,24.323 5.667,24.501 l 0.001,3.801 0.006,0.064 c 0.036,1.822 1.551,3.301 3.378,3.301 H 23.615 C 25.48,31.667 27,30.149 27,28.283 v -3.777 c 0,-2.943 -1.969,-5.581 -4.786,-6.418 l -0.282,-0.087 z"
           id="path129713" /><path
           d="M 0,0 V 18 H 13.437 C 12.796,17.742 12.19,17.4 11.645,16.979 11.59,16.939 11.565,16.92 11.542,16.902 L 11.486,16.859 C 9.656,15.389 8.608,13.201 8.607,10.849 V 6.99 c 0,-0.845 0.182,-1.656 0.541,-2.406 0.923,-1.974 2.931,-3.251 5.115,-3.251 h 4.107 c 3.122,0 5.661,2.537 5.661,5.657 v 3.859 c 0,2.351 -1.048,4.542 -2.876,6.007 -0.595,0.481 -1.261,0.861 -1.966,1.144 h 12.81 V 0 h -32 z"
           id="path129715" /></g></g></g></g></svg>
