<!-- Generated by IcoMoon.io -->
<svg version="1.1" xmlns="http://www.w3.org/2000/svg" width="32" height="32" viewBox="0 0 32 32">
<title>audio</title>
<path d="M19.5 20.705c0 2.018-1.636 3.654-3.654 3.654s-3.654-1.636-3.654-3.654c0-2.018 1.636-3.654 3.654-3.654s3.654 1.636 3.654 3.654z"></path>
<path d="M15.846 10.962c-0.673 0-1.218-0.546-1.218-1.217 0-0.674 0.545-1.218 1.218-1.218s1.218 0.544 1.218 1.218c0 0.672-0.545 1.217-1.218 1.217z"></path>
<path d="M25.589 2.437h-19.488c-1.344 0-2.435 1.090-2.435 2.435v24.358c0 1.346 1.092 2.436 2.436 2.436h19.487c1.346 0 2.436-1.090 2.436-2.436v-24.358c-0-1.345-1.091-2.435-2.436-2.435zM15.846 6.090c2.018 0 3.654 1.637 3.654 3.655s-1.635 3.653-3.654 3.653c-2.019 0-3.654-1.635-3.654-3.653s1.635-3.655 3.654-3.655zM15.846 26.795c-3.363 0-6.090-2.726-6.090-6.090s2.727-6.089 6.090-6.089 6.090 2.726 6.090 6.089c0 3.364-2.727 6.090-6.090 6.090z"></path>
</svg>
