<!-- Generated by IcoMoon.io -->
<svg version="1.1" xmlns="http://www.w3.org/2000/svg" width="32" height="32" viewBox="0 0 32 32">
<title>collection</title>
<path d="M8.044 23.579h19.957v-21.912h-19.957v21.912zM23.567 8.586v6.389c0 0.432-0.352 0.784-0.784 0.784h-9.521c-0.432 0-0.783-0.352-0.783-0.784v-6.389c0-0.431 0.351-0.783 0.783-0.783h9.521c0.432 0 0.784 0.351 0.784 0.783z"></path>
<path d="M14.045 9.369h7.957v4.823h-7.957v-4.823z"></path>
<path d="M6.479 23.63v-21.096l-0.044-0.854-0.771 0.418c-0.054 0.027-0.105 0.054-0.175 0.098-0.030 0.018-0.059 0.036-0.088 0.056-0.151 0.106-0.294 0.223-0.422 0.349-0.021 0.021-0.042 0.043-0.075 0.079-0.107 0.113-0.205 0.232-0.3 0.365-0.025 0.035-0.052 0.072-0.076 0.11-0.109 0.169-0.197 0.329-0.265 0.49-0.010 0.024-0.018 0.048-0.025 0.066-0.060 0.15-0.109 0.306-0.151 0.485-0.011 0.048-0.021 0.095-0.031 0.146-0.039 0.219-0.058 0.404-0.058 0.586v19.812l0.79-0.475c0.404-0.243 0.84-0.423 1.295-0.535l0.395-0.099z"></path>
<path d="M4 28.405c0 1.797 1.463 3.262 3.262 3.262h20.74v-2.479h-20.74c-0.432 0-0.783-0.353-0.783-0.783 0-0.431 0.351-0.785 0.783-0.785h20.74v-2.479h-20.74c-1.798 0.004-3.262 1.467-3.262 3.265z"></path>
</svg>
