<!-- Generated by IcoMoon.io -->
<svg version="1.1" xmlns="http://www.w3.org/2000/svg" width="32" height="32" viewBox="0 0 32 32">
<title>event</title>
<path d="M24.461 15.159l-0.188-0.141c-0.14-0.11-0.251-0.207-0.356-0.312-0.097-0.093-0.21-0.224-0.319-0.372-0.043-0.057-0.090-0.122-0.133-0.186-0.214-0.32-0.37-0.67-0.473-1.042l-0.084-0.31-0.321-0.022c-0.866-0.058-1.681-0.433-2.3-1.058-0.098-0.093-0.21-0.224-0.318-0.37-0.044-0.059-0.093-0.124-0.136-0.188-0.206-0.308-0.361-0.644-0.461-1.002l-0.105-0.375-0.386 0.048c-0.263 0.034-0.534 0.037-0.803 0.012l-0.107-0.015c-0.076-0.010-0.151-0.019-0.227-0.033l-0.124-0.028c-0.067-0.016-0.135-0.031-0.201-0.050-0.040-0.012-0.081-0.024-0.128-0.040-0.062-0.021-0.126-0.042-0.189-0.068-0.042-0.016-0.084-0.034-0.126-0.052-0.061-0.027-0.12-0.055-0.182-0.086-0.038-0.020-0.079-0.039-0.116-0.061-0.061-0.034-0.118-0.070-0.21-0.128l-0.078-0.049c-0.061-0.042-0.12-0.088-0.18-0.135l-0.367-0.295-2.075 1.366-0.249 0.172 0.056 0.296 0.014 0.057c0.040 0.127 0.066 0.26 0.092 0.396 0.005 0.029 0.013 0.059 0.028 0.13 0.028 0.183 0.042 0.364 0.042 0.54 0 1.988-1.618 3.603-3.607 3.603-0.116 0-0.23-0.006-0.342-0.016l-0.114-0.015c-0.075-0.010-0.149-0.019-0.222-0.033l-0.129-0.029c-0.066-0.016-0.132-0.031-0.198-0.050-0.039-0.010-0.079-0.024-0.13-0.041-0.062-0.021-0.124-0.044-0.186-0.068-0.043-0.017-0.086-0.034-0.127-0.053-0.060-0.026-0.118-0.053-0.176-0.084-0.042-0.021-0.083-0.041-0.124-0.064-0.060-0.032-0.116-0.069-0.208-0.127l-0.075-0.049c-0.061-0.041-0.119-0.086-0.179-0.133l-0.376-0.317-5.627 3.912 23.554-2.338-1.026-0.7z"></path>
<path d="M27.965 26.225l-27.881 2.762v2.68l27.881-2.762z"></path>
<path d="M16.584 7.548c0.026 0.035 0.044 0.059 0.074 0.103 0.042 0.055 0.105 0.127 0.154 0.173 0.646 0.651 1.581 0.867 2.453 0.511 0.108-0.037 0.213-0.090 0.326-0.162 0.23-0.143 0.521-0.137 0.745 0.016 0.222 0.151 0.332 0.421 0.281 0.687-0.015 0.076-0.024 0.176-0.021 0.348l0.448-0.031-0.447 0.090c0.017 0.405 0.143 0.793 0.363 1.12 0.028 0.042 0.057 0.082 0.096 0.135 0.073 0.098 0.135 0.169 0.182 0.212 0.547 0.551 1.263 0.78 2.019 0.639l0.051-0.012c0.23-0.072 0.502-0.016 0.674 0.137 0.18 0.159 0.271 0.38 0.245 0.587l-0.004 0.080c0.004 0.434 0.132 0.855 0.37 1.216 0.026 0.038 0.055 0.079 0.093 0.127 0.075 0.102 0.137 0.172 0.182 0.214 0.44 0.444 0.997 0.678 1.607 0.678 0.345 0 0.651 0.255 0.699 0.581 0.049 0.334 0.165 0.642 0.359 0.93l0.090 0.122c0.068 0.093 0.13 0.163 0.177 0.208 0.073 0.074 0.15 0.143 0.23 0.204 0.238 0.188 0.503 0.321 0.779 0.391 0.204 0.058 0.399 0.084 0.6 0.084 1.242 0 2.253-1.009 2.253-2.25 0-0.444-0.131-0.875-0.373-1.236-0.081-0.126-0.171-0.236-0.292-0.357-0.103-0.103-0.226-0.203-0.365-0.296-0.351-0.237-0.776-0.363-1.223-0.363-0.345 0-0.651-0.255-0.698-0.58-0.049-0.336-0.169-0.648-0.352-0.922-0.082-0.127-0.171-0.238-0.292-0.356-0.104-0.104-0.227-0.204-0.368-0.298-0.352-0.237-0.775-0.364-1.223-0.364-0.193 0-0.365 0.021-0.52 0.065-0.215 0.061-0.444 0.011-0.617-0.131-0.171-0.142-0.26-0.359-0.239-0.62v-0.050c0-0.444-0.13-0.875-0.372-1.237-0.083-0.127-0.171-0.237-0.292-0.356-0.104-0.103-0.226-0.204-0.368-0.299-0.688-0.463-1.673-0.475-2.399-0.029-0.229 0.141-0.519 0.132-0.741-0.019-0.221-0.153-0.331-0.421-0.281-0.685 0.016-0.076 0.025-0.177 0.025-0.302 0-0.444-0.13-0.875-0.373-1.236-0.082-0.127-0.171-0.236-0.292-0.357-0.103-0.102-0.225-0.201-0.366-0.297-0.352-0.238-0.775-0.363-1.223-0.363-0.602 0-1.165 0.233-1.585 0.657-0.429 0.431-0.668 0.998-0.668 1.597 0 0.431 0.122 0.847 0.367 1.223l0.052 0.072z"></path>
<path d="M8.355 13.115c0.072 0.1 0.134 0.171 0.18 0.214 0.44 0.443 0.998 0.679 1.61 0.679 1.241 0 2.253-1.010 2.253-2.25 0-0.445-0.132-0.875-0.372-1.237-0.082-0.127-0.171-0.236-0.292-0.356-0.104-0.102-0.227-0.202-0.368-0.298-0.35-0.237-0.774-0.363-1.223-0.363-0.602 0-1.165 0.234-1.585 0.656-0.43 0.43-0.668 0.997-0.668 1.597 0 0.441 0.128 0.865 0.37 1.228 0.026 0.037 0.054 0.075 0.095 0.129z"></path>
<path d="M27.979 18.008l-0.303-0.163c-0.097-0.055-0.193-0.116-0.289-0.182l-0.063-0.039c-0.025-0.017-0.050-0.032-0.074-0.050-0.108-0.082-0.211-0.171-0.311-0.267-0.021-0.019-0.043-0.039-0.070-0.057l-0.15-0.151-26.637 2.643v7.884l27.882-2.765-0.001-6.587 0.015-0.266z"></path>
</svg>
