<!-- Generated by IcoMoon.io -->
<svg version="1.1" xmlns="http://www.w3.org/2000/svg" width="32" height="32" viewBox="0 0 32 32">
<title>image</title>
<path d="M1.808 10.501c0.318 0.327 0.743 0.507 1.195 0.507h2.276v-3.341h-2.276c-0.448 0-0.868 0.173-1.182 0.488h-0.001c-0.312 0.312-0.484 0.728-0.487 1.176l0.001 0.052c0.012 0.419 0.179 0.814 0.474 1.119z"></path>
<path d="M28.827 12.325h-25.202c-1.266 0-2.292 1.044-2.292 2.332v14.677c0 1.288 1.027 2.333 2.292 2.333h25.202c1.267 0 2.293-1.045 2.293-2.333v-14.677c0-1.288-1.026-2.332-2.293-2.332zM16.298 28.070c-3.34 0-6.048-2.707-6.048-6.047s2.707-6.048 6.048-6.048c3.34 0 6.047 2.709 6.047 6.048s-2.707 6.047-6.047 6.047z"></path>
<path d="M20.546 21.996c0 2.386-1.934 4.319-4.319 4.319s-4.319-1.934-4.319-4.319c0-2.386 1.934-4.319 4.319-4.319s4.319 1.934 4.319 4.319z"></path>
</svg>
