<!-- Generated by IcoMoon.io -->
<svg version="1.1" xmlns="http://www.w3.org/2000/svg" width="32" height="32" viewBox="0 0 32 32">
<title>link</title>
<path d="M13.7 19.96c-0.426 0-0.852-0.161-1.177-0.486-3.044-3.044-3.044-7.999 0-11.043l6.144-6.144c1.475-1.475 3.436-2.287 5.521-2.287 2.086 0 4.047 0.812 5.521 2.287 3.045 3.044 3.045 7.998 0 11.042l-2.809 2.809c-0.65 0.649-1.703 0.649-2.353 0-0.649-0.65-0.649-1.704 0-2.354l2.809-2.809c1.747-1.747 1.747-4.589 0-6.336-0.846-0.846-1.971-1.312-3.168-1.312-1.195 0-2.321 0.466-3.168 1.312l-6.144 6.144c-1.746 1.747-1.746 4.589 0 6.336 0.65 0.65 0.65 1.704 0 2.354-0.324 0.325-0.75 0.486-1.176 0.486z"></path>
<path d="M7.804 32c-2.085 0-4.046-0.812-5.521-2.287-3.044-3.044-3.044-7.998 0-11.042l2.809-2.808c0.649-0.65 1.703-0.65 2.353 0 0.65 0.649 0.65 1.704 0 2.354l-2.809 2.808c-1.746 1.747-1.746 4.589 0 6.336 0.847 0.846 1.972 1.312 3.168 1.312s2.322-0.466 3.168-1.312l6.144-6.144c1.747-1.747 1.747-4.589 0-6.336-0.65-0.65-0.65-1.704 0-2.353s1.704-0.65 2.353 0c3.045 3.044 3.045 7.998 0.001 11.042l-6.145 6.144c-1.474 1.475-3.435 2.287-5.521 2.287z"></path>
</svg>
