<!-- Generated by IcoMoon.io -->
<svg version="1.1" xmlns="http://www.w3.org/2000/svg" width="32" height="32" viewBox="0 0 32 32">
<title>orderedcollectionpage</title>
<path d="M2.658 20.663v-3.873l-0.414 0.006c-0.51 0.006-0.989 0.206-1.341 0.562-0.369 0.365-0.57 0.851-0.57 1.371 0 1.053 0.857 1.922 1.911 1.933l0.414 0.001z"></path>
<path d="M29.741 16.795l-0.413-0.005v3.873l0.413-0.005c0.509-0.006 0.988-0.208 1.34-0.562 0.367-0.366 0.569-0.851 0.569-1.371 0.001-1.052-0.856-1.919-1.91-1.93z"></path>
<path d="M24.402 6.025h-16.822v2.462h8.207c0.041 0 0.078 0.005 0.118 0.012v0l0.018 0.004c0.038 0.009 0.084 0.028 0.166 0.070 0.058 0.033 0.1 0.063 0.132 0.094l5.538 5.54c0.031 0.032 0.062 0.073 0.095 0.129l0.018 0.036c0.024 0.050 0.042 0.092 0.054 0.141l0.001 0.010c0.007 0.039 0.012 0.079 0.012 0.118v6.018h2.463l0-14.634z"></path>
<path d="M3.888 20.66h4.331l0.303-0.038 0.097-0.273 0.019-0.065c0.032-0.12 0.071-0.239 0.114-0.354l0.029-0.078c0.054-0.134 0.12-0.27 0.196-0.407l0.060-0.1c0.060-0.102 0.126-0.199 0.208-0.313l0.066-0.089c0.111-0.139 0.208-0.251 0.305-0.35 0.716-0.716 1.671-1.112 2.684-1.112 1.013 0 1.967 0.396 2.684 1.112 0.098 0.099 0.195 0.209 0.305 0.348 0.022 0.031 0.045 0.061 0.079 0.109 0.069 0.095 0.134 0.193 0.195 0.296l0.060 0.098c0.078 0.139 0.14 0.271 0.205 0.433l0.018 0.053c0.043 0.116 0.082 0.234 0.114 0.355 0.006 0.022 0.014 0.043 0.022 0.066l0.078 0.309h4.649v-5.403h-4.924c-0.34 0-0.615-0.276-0.615-0.616v-4.923h-11.283v10.942z"></path>
<path d="M19.839 14.027l-3.437-3.437v3.437z"></path>
<path d="M3.888 31.667h16.822v-9.776h-4.332l-0.304 0.038-0.096 0.273-0.020 0.066c-0.031 0.12-0.071 0.239-0.115 0.356l-0.029 0.078c-0.054 0.133-0.12 0.27-0.196 0.407l-0.059 0.099c-0.061 0.101-0.126 0.199-0.207 0.31l-0.066 0.090c-0.112 0.142-0.21 0.254-0.306 0.35-0.803 0.803-1.923 1.202-3.046 1.094l-0.113-0.015c-0.080-0.009-0.161-0.021-0.239-0.036-0.042-0.008-0.082-0.018-0.127-0.028-0.074-0.018-0.145-0.035-0.215-0.055-0.043-0.012-0.088-0.026-0.129-0.040-0.071-0.023-0.139-0.051-0.208-0.077l-0.117-0.047c-0.077-0.033-0.151-0.071-0.225-0.108l-0.082-0.042c-0.1-0.054-0.198-0.114-0.312-0.193l-0.044-0.033c-0.070-0.049-0.138-0.101-0.206-0.153l-0.094-0.081c-0.054-0.047-0.11-0.096-0.16-0.146-0.032-0.031-0.065-0.063-0.097-0.096-0.048-0.052-0.094-0.102-0.147-0.162-0.027-0.030-0.054-0.063-0.078-0.092-0.047-0.060-0.090-0.12-0.136-0.181l-0.067-0.095c-0.056-0.085-0.11-0.173-0.177-0.293-0.054-0.1-0.102-0.201-0.149-0.308l-0.039-0.099c-0.030-0.075-0.056-0.149-0.081-0.224l-0.151-0.558h-4.653v9.778z"></path>
<path d="M21.94 21.89h2.463v6.084h-2.463v-6.084z"></path>
<path d="M25.633 21.89h2.462v2.392h-2.462v-2.392z"></path>
<path d="M28.094 2.333h-16.82v2.462h13.744c0.34 0 0.617 0.276 0.617 0.615v15.249h2.462l-0.003-18.326z"></path>
<path d="M10.486 19.462c-0.485 0.485-0.75 1.129-0.75 1.814 0 1.414 1.15 2.564 2.564 2.564 0.685 0 1.328-0.269 1.813-0.751 0.485-0.485 0.75-1.128 0.75-1.813 0-0.686-0.266-1.329-0.75-1.814-0.485-0.484-1.129-0.75-1.814-0.75-0.686-0.002-1.33 0.265-1.814 0.75z"></path>
<path d="M2.991 5.469v-0.68l0.984-0.625h0.656v5.336h-0.578v-4.734l-1.062 0.703z"></path>
</svg>
