<!-- Generated by IcoMoon.io -->
<svg version="1.1" xmlns="http://www.w3.org/2000/svg" width="32" height="32" viewBox="0 0 32 32">
<title>orderedcollection</title>
<path d="M4.044 23.579h19.957v-21.912h-19.957v21.912zM19.567 8.586v6.389c0 0.432-0.352 0.784-0.784 0.784h-9.521c-0.432 0-0.783-0.352-0.783-0.784v-6.389c0-0.431 0.351-0.783 0.783-0.783h9.521c0.432 0 0.784 0.351 0.784 0.783z"></path>
<path d="M10.045 9.369h7.957v4.823h-7.957v-4.823z"></path>
<path d="M2.479 23.63v-21.096l-0.044-0.854-0.771 0.418c-0.054 0.027-0.105 0.054-0.175 0.098-0.030 0.018-0.059 0.036-0.088 0.056-0.151 0.106-0.294 0.223-0.422 0.349-0.021 0.021-0.042 0.043-0.075 0.079-0.107 0.113-0.205 0.232-0.3 0.365-0.025 0.035-0.052 0.072-0.076 0.11-0.109 0.169-0.197 0.329-0.265 0.49-0.010 0.024-0.018 0.048-0.025 0.066-0.060 0.15-0.109 0.306-0.151 0.485-0.011 0.048-0.021 0.095-0.031 0.146-0.039 0.219-0.058 0.404-0.058 0.586v19.812l0.79-0.475c0.404-0.243 0.84-0.423 1.295-0.535l0.395-0.1z"></path>
<path d="M0 28.405c0 1.797 1.463 3.262 3.262 3.262h20.74v-2.479h-20.74c-0.432 0-0.783-0.354-0.783-0.784 0-0.431 0.351-0.785 0.783-0.785h20.74v-2.479h-20.74c-1.798 0.004-3.262 1.467-3.262 3.265z"></path>
<path d="M26.158 1.637v-0.68l0.984-0.625h0.656v5.336h-0.578v-4.734l-1.062 0.703z"></path>
<path d="M26.3 24.666c0-0.219 0.033-0.432 0.1-0.636s0.167-0.397 0.303-0.577c0.136-0.18 0.326-0.323 0.569-0.429s0.526-0.159 0.847-0.159c1.21 0 1.814 0.837 1.814 2.512 0 0.508-0.063 0.951-0.189 1.328s-0.277 0.668-0.453 0.871-0.384 0.365-0.626 0.484c-0.242 0.12-0.451 0.195-0.626 0.227s-0.354 0.047-0.536 0.047c-0.271 0-0.53-0.031-0.777-0.094v-0.543c0.211 0.063 0.439 0.094 0.684 0.094 0.010 0 0.021 0 0.031 0 0.122 0 0.242-0.008 0.359-0.023s0.265-0.058 0.443-0.127c0.178-0.069 0.335-0.164 0.47-0.285s0.262-0.299 0.38-0.532c0.118-0.234 0.193-0.511 0.224-0.831-0.315 0.238-0.714 0.357-1.197 0.357-0.561 0-1.004-0.151-1.33-0.452s-0.489-0.712-0.489-1.231zM26.878 24.669c0 0.362 0.106 0.642 0.32 0.84s0.52 0.297 0.92 0.297c0.538 0 0.95-0.152 1.236-0.457-0.005-0.367-0.041-0.682-0.107-0.943s-0.141-0.455-0.225-0.58c-0.083-0.125-0.191-0.222-0.324-0.291s-0.235-0.107-0.306-0.115c-0.072-0.008-0.163-0.012-0.275-0.012-0.265 0-0.489 0.049-0.671 0.148s-0.31 0.227-0.384 0.383-0.124 0.29-0.148 0.402c-0.025 0.112-0.037 0.221-0.037 0.328z"></path>
</svg>
