<!-- Generated by IcoMoon.io -->
<svg version="1.1" xmlns="http://www.w3.org/2000/svg" width="32" height="32" viewBox="0 0 32 32">
<title>page</title>
<path d="M19.839 14.002l-3.437-3.437v3.437z"></path>
<path d="M8.463 6h-2.463v14.684h2.463v-12.222h7.324c0.041 0 0.078 0.005 0.118 0.012l0.018 0.004c0.038 0.009 0.084 0.028 0.166 0.070 0.058 0.033 0.1 0.063 0.132 0.094l5.538 5.54c0.031 0.032 0.062 0.073 0.095 0.129l0.018 0.036c0.024 0.050 0.042 0.092 0.054 0.141l0.001 0.010c0.007 0.039 0.012 0.079 0.012 0.118v6.018h2.463l0-14.634h-15.939z"></path>
<path d="M24.403 21.667h-2.463v6.333h-13.477v-6.333h-2.463v8.796h18.402v-2.245h0.001z"></path>
</svg>
