<!-- Generated by IcoMoon.io -->
<svg version="1.1" xmlns="http://www.w3.org/2000/svg" width="32" height="32" viewBox="0 0 32 32">
<title>place</title>
<path d="M23.436 19.415l-0.402-0.425-0.402 0.425c-0.857 0.904-2.008 1.4-3.242 1.4s-2.386-0.497-3.242-1.4l-0.402-0.425-0.402 0.425c-0.857 0.904-2.008 1.402-3.242 1.402s-2.386-0.498-3.241-1.402l-0.402-0.425-0.402 0.425c-0.551 0.581-1.247 1.006-2.012 1.225l-0.401 0.114v10.914h6.537v-2.874c0-1.965 1.6-3.563 3.565-3.563 1.963 0 3.563 1.599 3.563 3.563v2.874h6.54v-10.912l-0.402-0.114c-0.766-0.22-1.462-0.645-2.013-1.226z"></path>
<path d="M15.746 26.891c-1.049 0-1.903 0.852-1.903 1.902v2.873h3.805v-2.873c-0.001-1.050-0.853-1.902-1.902-1.902z"></path>
<path d="M7.114 2.333h16.656v1.939h-16.656v-1.939z"></path>
<path d="M2.73 11.866h5.167l2.371-5.934h-3.543z"></path>
<path d="M14.915 5.932h-2.859l-2.372 5.934h5.231z"></path>
<path d="M16.576 5.932v5.934h5.233l-2.374-5.934z"></path>
<path d="M28.658 11.866l-4.47-5.934h-2.965l2.374 5.934z"></path>
<path d="M7.626 16.342v-2.814h-5.626v2.814c0 1.551 1.263 2.813 2.814 2.813s2.812-1.262 2.812-2.813z"></path>
<path d="M9.288 16.342c0 1.551 1.264 2.813 2.813 2.813 1.552 0 2.813-1.263 2.813-2.813v-2.814h-5.626v2.814z"></path>
<path d="M23.864 16.342c0 1.551 1.262 2.813 2.813 2.813s2.813-1.263 2.813-2.813v-2.814h-5.627v2.814h0.001z"></path>
<path d="M16.576 16.342c0 1.551 1.264 2.813 2.814 2.813 1.552 0 2.813-1.263 2.813-2.813v-2.814h-5.627v2.814z"></path>
</svg>
