<!-- Generated by IcoMoon.io -->
<svg version="1.1" xmlns="http://www.w3.org/2000/svg" width="33" height="32" viewBox="0 0 33 32">
<title>video</title>
<path d="M23.471 31.667c1.305 0 2.367-1.061 2.367-2.366v-11.233c0-1.305-1.061-2.367-2.367-2.367h-21.105c-1.305 0-2.366 1.062-2.366 2.367v11.233c0 1.305 1.061 2.366 2.366 2.366h21.105zM5.584 24.45v-4.51c0-0.479 0.389-0.868 0.867-0.868h12.935c0.478 0 0.868 0.389 0.868 0.868v4.51c0 0.479-0.39 0.867-0.868 0.867h-12.935c-0.478-0-0.868-0.389-0.868-0.867z"></path>
<path d="M27.572 25.917l5.668 2.351v-9.171l-5.668 2.353z"></path>
<path d="M6.706 5.407c-2.36 0-4.28 1.92-4.28 4.281 0 2.358 1.92 4.278 4.28 4.278s4.279-1.919 4.279-4.278c0-2.361-1.92-4.281-4.279-4.281z"></path>
<path d="M18.704 2c-3.299 0-5.982 2.685-5.982 5.984 0 3.299 2.683 5.983 5.982 5.983 3.3 0 5.983-2.684 5.983-5.983 0-3.3-2.683-5.984-5.983-5.984zM18.704 11.236c-1.793 0-3.251-1.459-3.251-3.252 0-1.794 1.458-3.252 3.251-3.252s3.251 1.458 3.251 3.252c0 1.793-1.458 3.252-3.251 3.252z"></path>
<path d="M18.704 6.467c0.837 0 1.517 0.678 1.517 1.517s-0.68 1.515-1.517 1.515c-0.838 0-1.517-0.678-1.517-1.515-0-0.838 0.679-1.517 1.517-1.517z"></path>
<path d="M7.319 20.807h11.199v2.776h-11.199v-2.776z"></path>
</svg>
