<?xml version="1.0" encoding="UTF-8" standalone="no"?>
<!-- Generator: Adobe Illustrator 15.0.2, SVG Export Plug-In . SVG Version: 6.00 Build 0)  -->

<svg
   version="1.1"
   id="Ebene_1"
   x="0px"
   y="0px"
   width="10.5cm"
   height="15.5cm"
   viewBox="0 0 396.85041 585.82678"
   enable-background="new 0 0 102.047 102.047"
   xml:space="preserve"
   sodipodi:docname="Alyssa.svg"
   inkscape:version="1.2.1 (9c6d41e4, 2022-07-14)"
   xmlns:inkscape="http://www.inkscape.org/namespaces/inkscape"
   xmlns:sodipodi="http://sodipodi.sourceforge.net/DTD/sodipodi-0.dtd"
   xmlns:xlink="http://www.w3.org/1999/xlink"
   xmlns="http://www.w3.org/2000/svg"
   xmlns:svg="http://www.w3.org/2000/svg"><sodipodi:namedview
   id="namedview7866"
   pagecolor="#ffffff"
   bordercolor="#000000"
   borderopacity="0.25"
   inkscape:showpageshadow="2"
   inkscape:pageopacity="0.0"
   inkscape:pagecheckerboard="0"
   inkscape:deskcolor="#d1d1d1"
   inkscape:document-units="cm"
   showgrid="false"
   inkscape:zoom="1"
   inkscape:cx="194.5"
   inkscape:cy="319.5"
   inkscape:window-width="1344"
   inkscape:window-height="839"
   inkscape:window-x="109"
   inkscape:window-y="28"
   inkscape:window-maximized="0"
   inkscape:current-layer="Ebene_1"
   showguides="true" /><defs
   id="defs189"><color-profile
     name="Adobe-RGB--1998-"
     xlink:href="file:///System/Library/ColorSync/Profiles/AdobeRGB1998.icc"
     id="color-profile37533" /></defs>

<g
   id="g418"
   transform="matrix(1.5025223,0,0,1.5025223,-312.77261,-7.6956425)"><g
     id="g5457"
     transform="translate(5.0309233,2.6621902)"><rect
       style="fill:none;fill-opacity:1;fill-rule:evenodd;stroke:#0ac1eb;stroke-width:2.66359;stroke-linecap:round;stroke-miterlimit:10;stroke-dasharray:none;stroke-opacity:1"
       id="rect5401"
       width="116.82053"
       height="148.60175"
       x="217.87538"
       y="43.536106"
       ry="6.4375749" /><path
       id="rect867"
       style="fill:#0ac1eb;fill-opacity:1;fill-rule:evenodd;stroke:#ff0000;stroke-width:0;stroke-linecap:round;stroke-miterlimit:10"
       d="m 222.05077,22.583268 c -3.05084,0 -5.50766,2.456821 -5.50766,5.507666 v 10.102804 c 0,0.519397 0.0761,1.019146 0.20928,1.494882 h -0.20928 V 49.751127 H 336.34167 V 39.68862 h -0.20799 c 0.13319,-0.475736 0.20799,-0.975485 0.20799,-1.494882 V 28.090934 c 0,-3.050845 -2.45552,-5.507666 -5.50637,-5.507666 z" /></g><path
     id="path182"
     d="m 390.40205,25.24595 c -9.53058,0.01614 -19.33199,6.430945 -17.93235,18.53829 -34.38862,2.844062 -58.80365,51.925986 -31.49216,78.73042 -4.59525,-8.17629 -4.29447,-26.335614 0,-34.642616 2.81101,4.322785 4.11894,10.149396 7.15042,14.251726 -0.12756,1.21416 -0.20061,2.43812 -0.20061,3.68064 0,18.67066 14.63637,34.32302 34.34169,38.54023 -4.8236,-0.46772 -9.31106,-1.40212 -12.94568,-2.93755 -2.94172,6.50548 -3.35556,15.53945 -6.29886,22.04493 h 7.26712 v 0.14331 h 0.20266 1.0911 1.47593 c 0.0691,-0.011 0.137,-0.0142 0.20266,-0.0142 0.25747,0.001 0.48971,0.0808 0.71443,0.18833 v -0.32139 h 47.3099 c -2.11338,-7.33225 -3.20753,-15.68748 -6.29885,-22.04493 -1.83779,0.54645 -3.8932,1.03469 -6.06957,1.46776 16.93526,-5.69129 28.97018,-20.1363 28.97018,-37.0684 0,-16.253372 -11.0924,-30.217815 -26.95995,-36.343731 4.65343,-5.784186 8.10661,-12.769744 13.50658,-17.807486 -0.68661,9.795171 26.27461,47.229367 26.76752,22.046974 C 444.57757,54.6087 427.00551,46.461116 407.11437,40.635986 407.00948,30.200316 398.81148,25.231851 390.40205,25.246093 Z m 16.71232,29.557681 c 0.62991,5.469237 -0.16507,9.510922 -1.58239,12.931359 -4.00628,-1.031482 -8.23645,-1.594669 -12.62225,-1.594669 -0.70866,0 -1.41433,0.01874 -2.11669,0.04709 5.25037,-3.985788 10.46781,-8.002706 16.32133,-11.383772 z m -51.81756,29.258811 c -2.12282,2.848786 -3.83589,5.952646 -5.07673,9.248674 -0.61575,-2.513354 -0.7523,-5.348134 0.20675,-8.587469 1.68022,-0.163779 3.29991,-0.387191 4.86998,-0.661205 z m 3.91401,76.654678 v 0.69602 c 0.008,-0.24815 0.0984,-0.47299 0.19652,-0.69602 z m 0,0.69602 v 1.45547 c 0.003,-0.006 0.009,-0.0195 0.0126,-0.0246 -0.005,-0.005 -0.009,-0.0172 -0.008,-0.0594 0.003,-0.42215 5.6e-4,-0.84497 0,-1.26714 -0.002,-0.035 -0.003,-0.0704 -0.002,-0.10441 z m 3.09722,1.78914 c -0.0351,0.17789 -0.0877,0.33384 -0.15559,0.46673 0.11448,0.0214 0.22949,0.038 0.3439,0.0594 z m 33.32429,2.97234 c -0.67305,0.0521 -1.26743,0.18328 -1.783,0.39304 0.59302,-0.13842 1.1875,-0.26743 1.783,-0.39304 z m 25.50653,0.0983 c 0.0298,0.009 0.11859,0.0513 0.14126,0.0573 -0.0203,-0.011 -0.0832,-0.0457 -0.10441,-0.0573 -0.0126,4.4e-4 -0.0246,-4.7e-4 -0.0369,0 z"
     style="fill:#03404e;fill-opacity:1;stroke-width:1.5748" /><path
     fill="#0ac1eb"
     d="m 451.20472,73.702868 c -0.49291,25.182552 -27.45499,-12.253483 -26.76838,-22.047136 -8.96058,8.359014 -12.53379,22.108553 -25.19357,26.768372 3.93069,-6.565322 9.23932,-11.755847 7.87397,-23.618781 -18.30069,10.571601 -30.3778,27.36207 -56.68948,29.917963 -3.32754,11.24719 6.32753,17.763694 4.72439,22.045564 -9.1039,-1.91967 -9.8283,-12.217266 -14.17159,-18.897548 -4.29447,8.307044 -4.59525,26.466018 0,34.642358 6.27084,9.47554 16.87393,14.61882 28.34474,18.89597 12.02987,5.08501 33.32582,3.66455 45.66277,0 24.32902,-9.47397 49.83913,-35.0077 36.21715,-67.706762 z M 364.9642,99.40038 c -3.47873,0 -6.29919,-2.820454 -6.29919,-6.299182 0,-3.478724 2.82046,-6.299182 6.29919,-6.299182 3.47872,0 6.29918,2.820458 6.29918,6.299182 0,3.478728 -2.82046,6.299182 -6.29918,6.299182 z m 29.85654,30.45182 c -5.21887,0 -9.47712,-1.20156 -10.49286,-1.81416 -0.68189,-0.40945 -0.66456,-0.89763 -0.59212,-1.15118 0.19842,-0.71495 1.02676,-0.71495 1.33857,-0.71495 v 1.44251 c 0.0787,-0.0787 0.15276,-0.19055 0.18583,-0.33858 0.0709,-0.31024 -0.0787,-0.5496 -0.16378,-0.61732 1.24251,0.99055 16.45031,4.66139 25.5605,-3.94486 l 1.08346,1.14487 c -4.95588,4.67872 -11.46293,5.99367 -16.9196,5.99367 z m 31.56205,-33.601414 c -3.47872,0 -6.29918,-2.820456 -6.29918,-6.299179 0,-3.478723 2.82046,-6.299182 6.29918,-6.299182 3.47872,0 6.29918,2.820459 6.29918,6.299182 0,3.478723 -2.82046,6.299179 -6.29918,6.299179 z"
     id="path184"
     style="stroke-width:1.5748" /><text
     xml:space="preserve"
     style="font-size:13.311px;line-height:0.8;font-family:'Maven Pro';-inkscape-font-specification:'Maven Pro, Normal';fill:#0ac1eb;fill-opacity:1;fill-rule:evenodd;stroke:#ff0000;stroke-width:0;stroke-linecap:round;stroke-miterlimit:10"
     x="282.14975"
     y="37.828472"
     id="text2339"><tspan
       id="tspan2337"
       style="font-style:normal;font-variant:normal;font-weight:bold;font-stretch:normal;font-size:13.311px;font-family:'Maven Pro';-inkscape-font-specification:'Maven Pro Bold';text-align:center;text-anchor:middle;fill:#ffffff;fill-opacity:1;stroke-width:0"
       x="282.14975"
       y="37.828472"
       dy="0">HELLO</tspan><tspan
       style="font-style:normal;font-variant:normal;font-weight:bold;font-stretch:normal;font-size:9.76136px;font-family:'Maven Pro';-inkscape-font-specification:'Maven Pro Bold';text-align:center;text-anchor:middle;fill:#ffffff;fill-opacity:1;stroke-width:0"
       x="282.14975"
       y="48.477272"
       id="tspan3169">MY NAME IS</tspan></text><rect
     style="fill:#07819d;fill-opacity:1;fill-rule:evenodd;stroke:#07819d;stroke-width:0;stroke-linecap:round;stroke-miterlimit:10;stroke-dasharray:none;stroke-opacity:1"
     id="rect5511"
     width="90.556389"
     height="2.0123641"
     x="229.62399"
     y="117.81469"
     ry="0.99832129" /><rect
     style="fill:#07819d;fill-opacity:1;fill-rule:evenodd;stroke:#07819d;stroke-width:0;stroke-linecap:round;stroke-miterlimit:10;stroke-dasharray:none;stroke-opacity:1"
     id="rect5511-1"
     width="90.556389"
     height="2.0123641"
     x="229.62399"
     y="168.12383"
     ry="0.99832129" /><text
     xml:space="preserve"
     style="font-style:normal;font-variant:normal;font-weight:bold;font-stretch:normal;font-size:18.6353px;font-family:'Maven Pro';-inkscape-font-specification:'Maven Pro Bold';text-align:center;text-anchor:middle;fill:#07819d;fill-opacity:1;fill-rule:evenodd;stroke:#07819d;stroke-width:0;stroke-linecap:round;stroke-miterlimit:10;stroke-dasharray:none;stroke-opacity:1"
     x="282.11435"
     y="75.463486"
     id="text5723"><tspan
       id="tspan5721"
       style="font-size:18.6353px;stroke-width:0"
       x="282.11435"
       y="75.463486">Alyssa</tspan></text><text
     xml:space="preserve"
     style="font-style:normal;font-variant:normal;font-weight:bold;font-stretch:normal;font-size:9.76136px;font-family:'Maven Pro';-inkscape-font-specification:'Maven Pro Bold';text-align:center;text-anchor:middle;fill:#07819d;fill-opacity:1;fill-rule:evenodd;stroke:#07819d;stroke-width:0;stroke-linecap:round;stroke-miterlimit:10;stroke-dasharray:none;stroke-opacity:1"
     x="229.47269"
     y="129.47359"
     id="text5808"><tspan
       id="tspan5806"
       style="font-style:normal;font-variant:normal;font-weight:500;font-stretch:normal;font-size:9.76136px;font-family:'Maven Pro';-inkscape-font-specification:'Maven Pro Medium';text-align:start;text-anchor:start;stroke-width:0"
       x="229.47269"
       y="129.47359">Summary</tspan></text><text
     xml:space="preserve"
     style="font-style:normal;font-variant:normal;font-weight:bold;font-stretch:normal;font-size:9.76059px;font-family:'Maven Pro';-inkscape-font-specification:'Maven Pro Bold';text-align:center;text-anchor:middle;fill:#07819d;fill-opacity:1;fill-rule:evenodd;stroke:#07819d;stroke-width:0;stroke-linecap:round;stroke-miterlimit:10;stroke-dasharray:none;stroke-opacity:1"
     x="229.17357"
     y="179.76852"
     id="text5808-7"
     transform="scale(0.99992121,1.0000788)"><tspan
       id="tspan5806-0"
       style="font-style:normal;font-variant:normal;font-weight:500;font-stretch:normal;font-size:9.76059px;font-family:'Maven Pro';-inkscape-font-specification:'Maven Pro Medium';text-align:start;text-anchor:start;stroke-width:0"
       x="229.17357"
       y="179.76852">Content</tspan></text></g>
<g
   id="g8732"
   transform="translate(-3.285041,18.142472)"><g
     id="g8738"
     transform="translate(-3.7795277)"><rect
       style="fill:#ffffff;fill-opacity:1;fill-rule:evenodd;stroke:#07819d;stroke-width:3.77953;stroke-linecap:round;stroke-miterlimit:10;stroke-dasharray:none"
       id="rect8314"
       width="45.354328"
       height="45.354332"
       x="190.86615"
       y="221.10237"
       ry="0" /><rect
       style="fill:none;fill-rule:evenodd;stroke:#07819d;stroke-width:3.77953;stroke-linecap:round;stroke-miterlimit:10;stroke-dasharray:none"
       id="rect8314-1"
       width="45.354328"
       height="45.354332"
       x="236.22047"
       y="221.10237"
       ry="0" /><rect
       style="fill:none;fill-rule:evenodd;stroke:#07819d;stroke-width:3.77953;stroke-linecap:round;stroke-miterlimit:10;stroke-dasharray:none"
       id="rect8314-17"
       width="45.354328"
       height="45.354332"
       x="281.5748"
       y="221.10237"
       ry="0" /><rect
       style="fill:none;fill-rule:evenodd;stroke:#07819d;stroke-width:3.77953;stroke-linecap:round;stroke-miterlimit:10;stroke-dasharray:none"
       id="rect8314-1-9"
       width="45.354328"
       height="45.354332"
       x="326.92911"
       y="221.10237"
       ry="0" /></g></g><g
   id="g22183"
   transform="matrix(1.5025223,0,0,1.5025223,-310.7703,-4.5970265)"><path
     id="path21922"
     style="fill:none;fill-rule:evenodd;stroke:#aa0000;stroke-width:1.25773;stroke-dasharray:none"
     d="m 222.35394,187.3648 c 0.17728,-0.63524 0.94375,-0.0744 1.05581,0.29464 0.30367,1.0002 -0.75442,1.78488 -1.6451,1.81697 -1.59322,0.0574 -2.67143,-1.51766 -2.57814,-2.99555 0.13691,-2.16886 2.28814,-3.57557 4.34601,-3.3393 2.74282,0.31492 4.4867,3.06075 4.10046,5.69646 -0.48604,3.31678 -3.83429,5.40133 -7.04691,4.86163 -3.89092,-0.65365 -6.31796,-4.60833 -5.62279,-8.39737 0.81923,-4.46525 5.38268,-7.23585 9.74782,-6.38395 5.03973,0.98355 8.15458,6.15723 7.14512,11.09827 -1.14702,5.61433 -6.93194,9.0739 -12.44873,7.90628 -6.18901,-1.30989 -4.47378,-9.1851 -8.66744,-13.79918 -1.0524,-1.1579 -4.65477,-1.26609 -2.72125,-3.01961"
     sodipodi:nodetypes="csssssssssssc" /><circle
     style="fill:#000000;fill-opacity:1;fill-rule:evenodd;stroke:#a30055;stroke-width:0;stroke-linecap:round;stroke-miterlimit:10;stroke-dasharray:none;stroke-opacity:1"
     id="path21651"
     cx="224.49872"
     cy="185.58527"
     r="4.0247283" /></g><g
   id="g34240"
   transform="translate(0.49449038,16.731913)"><g
     id="g34062"
     transform="translate(0,-2)"><path
       d="m 201.59053,243.4395 0.056,0.043 c 0.023,0.019 0.048,0.038 0.103,0.078 0.986,0.763 2.165,1.273 3.407,1.478 0.403,0.069 0.83,0.105 1.268,0.105 1.759,0 3.477,-0.606 4.837,-1.706 1.827,-1.465 2.876,-3.657 2.876,-6.007 v -3.859 c 0,-3.119 -2.538,-5.657 -5.661,-5.657 h -4.107 c -2.184,0 -4.192,1.276 -5.116,3.251 -0.36,0.75 -0.541,1.561 -0.541,2.406 v 3.858 c 0.001,2.351 1.049,4.54 2.879,6.01 z"
       id="path8108" /><path
       d="m 212.04453,244.4195 -0.236,0.164 c -0.164,0.114 -0.332,0.221 -0.502,0.322 l -0.146,0.08 c -0.131,0.076 -0.264,0.15 -0.398,0.22 l -0.215,0.104 c -0.117,0.055 -0.232,0.111 -0.35,0.162 -0.078,0.035 -0.156,0.064 -0.236,0.097 -0.115,0.047 -0.232,0.092 -0.35,0.132 -0.079,0.029 -0.163,0.056 -0.244,0.084 -0.12,0.037 -0.242,0.075 -0.363,0.107 l -0.238,0.066 c -0.135,0.035 -0.274,0.064 -0.41,0.092 l -0.206,0.043 c -0.206,0.037 -0.415,0.072 -0.622,0.095 -0.597,0.067 -1.232,0.078 -1.85,0.026 l -0.25,-0.029 c -0.169,-0.018 -0.337,-0.037 -0.507,-0.064 -0.064,-0.009 -0.127,-0.022 -0.19,-0.035 l -0.102,-0.021 c -0.152,-0.03 -0.306,-0.063 -0.457,-0.1 -0.091,-0.021 -0.18,-0.048 -0.297,-0.078 -0.147,-0.041 -0.293,-0.086 -0.437,-0.135 -0.098,-0.033 -0.195,-0.066 -0.294,-0.103 -0.143,-0.053 -0.281,-0.11 -0.457,-0.186 -0.083,-0.036 -0.164,-0.072 -0.248,-0.107 -0.141,-0.065 -0.279,-0.137 -0.417,-0.211 l -0.084,-0.044 c -0.059,-0.031 -0.117,-0.062 -0.175,-0.092 -0.15,-0.085 -0.294,-0.176 -0.44,-0.271 l -0.475,-0.308 -0.328,0.091 c -0.053,0.012 -0.107,0.026 -0.164,0.045 -2.554,0.851 -4.344,3.135 -4.556,5.818 -0.015,0.178 -0.021,0.357 -0.021,0.536 l 0.001,3.801 0.006,0.064 c 0.036,1.821 1.551,3.301 3.378,3.301 h 14.563 c 1.865,0 3.385,-1.518 3.385,-3.385 v -3.777 c 0,-2.943 -1.969,-5.582 -4.786,-6.418 l -0.282,-0.087 z"
       id="path8110" /></g><text
     xml:space="preserve"
     style="font-weight:500;font-size:12px;font-family:'Maven Pro';-inkscape-font-specification:'Maven Pro Medium';fill:#dddddd;fill-opacity:1;fill-rule:evenodd;stroke:#787878;stroke-width:0;stroke-linecap:round;stroke-miterlimit:10;stroke-dasharray:none;stroke-opacity:1"
     x="186.51657"
     y="262.75"
     id="text34118"><tspan
       sodipodi:role="line"
       id="tspan34116"
       x="186.51657"
       y="262.75"
       style="font-size:12px;fill:#000000;fill-opacity:1">Person</tspan></text></g></svg>
