<?xml version="1.0" encoding="UTF-8" standalone="no"?>
<!-- Generator: Adobe Illustrator 15.0.2, SVG Export Plug-In . SVG Version: 6.00 Build 0)  -->

<svg
   version="1.1"
   id="Ebene_1"
   x="0px"
   y="0px"
   width="10.5cm"
   height="15.5cm"
   viewBox="0 0 396.85041 585.82678"
   enable-background="new 0 0 102.047 102.047"
   xml:space="preserve"
   sodipodi:docname="Robin.svg"
   inkscape:version="1.2.1 (9c6d41e4, 2022-07-14)"
   xmlns:inkscape="http://www.inkscape.org/namespaces/inkscape"
   xmlns:sodipodi="http://sodipodi.sourceforge.net/DTD/sodipodi-0.dtd"
   xmlns:xlink="http://www.w3.org/1999/xlink"
   xmlns="http://www.w3.org/2000/svg"
   xmlns:svg="http://www.w3.org/2000/svg"><sodipodi:namedview
   id="namedview7866"
   pagecolor="#ffffff"
   bordercolor="#000000"
   borderopacity="0.25"
   inkscape:showpageshadow="2"
   inkscape:pageopacity="0.0"
   inkscape:pagecheckerboard="0"
   inkscape:deskcolor="#d1d1d1"
   inkscape:document-units="cm"
   showgrid="false"
   inkscape:zoom="1"
   inkscape:cx="190"
   inkscape:cy="305.5"
   inkscape:window-width="1344"
   inkscape:window-height="839"
   inkscape:window-x="127"
   inkscape:window-y="25"
   inkscape:window-maximized="0"
   inkscape:current-layer="Ebene_1"
   showguides="true" /><defs
   id="defs189"><color-profile
     name="Adobe-RGB--1998-"
     xlink:href="file:///System/Library/ColorSync/Profiles/AdobeRGB1998.icc"
     id="color-profile38532" /></defs>


<g
   id="g5457"
   transform="matrix(1.5025511,0,0,1.5025222,-304.77615,-3.6956401)"><rect
     style="fill:none;fill-opacity:1;fill-rule:evenodd;stroke:#f1007e;stroke-width:2.66359;stroke-linecap:round;stroke-miterlimit:10;stroke-dasharray:none;stroke-opacity:1"
     id="rect5401"
     width="116.82053"
     height="148.60175"
     x="217.87538"
     y="43.536106"
     ry="6.4375749" /><path
     id="rect867"
     style="fill:#f1007e;fill-opacity:1;fill-rule:evenodd;stroke:#ff0000;stroke-width:0;stroke-linecap:round;stroke-miterlimit:10"
     d="m 222.05077,22.583268 c -3.05084,0 -5.50766,2.456821 -5.50766,5.507666 v 10.102804 c 0,0.519397 0.0761,1.019146 0.20928,1.494882 h -0.20928 V 49.751127 H 336.34167 V 39.68862 h -0.20799 c 0.13319,-0.475736 0.20799,-0.975485 0.20799,-1.494882 V 28.090934 c 0,-3.050845 -2.45552,-5.507666 -5.50637,-5.507666 z" /></g><text
   xml:space="preserve"
   style="font-size:20.0003px;line-height:0.8;font-family:'Maven Pro';-inkscape-font-specification:'Maven Pro, Normal';fill:#0ac1eb;fill-opacity:1;fill-rule:evenodd;stroke:#ff0000;stroke-width:0;stroke-linecap:round;stroke-miterlimit:10"
   x="111.60802"
   y="49.145138"
   id="text2339"><tspan
     id="tspan2337"
     style="font-style:normal;font-variant:normal;font-weight:bold;font-stretch:normal;font-size:20.0003px;font-family:'Maven Pro';-inkscape-font-specification:'Maven Pro Bold';text-align:center;text-anchor:middle;fill:#ffffff;fill-opacity:1;stroke-width:0"
     x="111.60802"
     y="49.145138">AHOI</tspan><tspan
     style="font-style:normal;font-variant:normal;font-weight:bold;font-stretch:normal;font-size:14.6668px;font-family:'Maven Pro';-inkscape-font-specification:'Maven Pro Bold';text-align:center;text-anchor:middle;fill:#ffffff;fill-opacity:1;stroke-width:0"
     x="111.60802"
     y="65.145348"
     id="tspan3169">JO SOC</tspan></text><rect
   style="fill:#a30055;fill-opacity:1;fill-rule:evenodd;stroke:#07819d;stroke-width:0;stroke-linecap:round;stroke-miterlimit:10;stroke-dasharray:none;stroke-opacity:1"
   id="rect5511"
   width="136.0656"
   height="3.023622"
   x="32.686398"
   y="169.32355"
   ry="1.5" /><rect
   style="fill:#a30055;fill-opacity:1;fill-rule:evenodd;stroke:#07819d;stroke-width:0;stroke-linecap:round;stroke-miterlimit:10;stroke-dasharray:none;stroke-opacity:1"
   id="rect5511-1"
   width="136.0656"
   height="3.023622"
   x="32.686398"
   y="244.91415"
   ry="1.5" /><text
   xml:space="preserve"
   style="font-style:normal;font-variant:normal;font-weight:bold;font-stretch:normal;font-size:28.0003px;font-family:'Maven Pro';-inkscape-font-specification:'Maven Pro Bold';text-align:center;text-anchor:middle;fill:#a30055;fill-opacity:1;fill-rule:evenodd;stroke:#07819d;stroke-width:0;stroke-linecap:round;stroke-miterlimit:10;stroke-dasharray:none;stroke-opacity:1"
   x="111.55482"
   y="105.69314"
   id="text5723"><tspan
     id="tspan5721"
     style="font-size:28.0003px;fill:#a30055;fill-opacity:1;stroke-width:0"
     x="111.55482"
     y="105.69314">Robin</tspan></text><text
   xml:space="preserve"
   style="font-style:normal;font-variant:normal;font-weight:bold;font-stretch:normal;font-size:14.6668px;font-family:'Maven Pro';-inkscape-font-specification:'Maven Pro Bold';text-align:center;text-anchor:middle;fill:#a30055;fill-opacity:1;fill-rule:evenodd;stroke:#07819d;stroke-width:0;stroke-linecap:round;stroke-miterlimit:10;stroke-dasharray:none;stroke-opacity:1"
   x="32.458725"
   y="186.84531"
   id="text5808"><tspan
     id="tspan5806"
     style="font-style:normal;font-variant:normal;font-weight:500;font-stretch:normal;font-size:14.6668px;font-family:'Maven Pro';-inkscape-font-specification:'Maven Pro Medium';text-align:start;text-anchor:start;fill:#a30055;fill-opacity:1;stroke-width:0"
     x="32.458725"
     y="186.84531">Summary</tspan></text><text
   xml:space="preserve"
   style="font-style:normal;font-variant:normal;font-weight:bold;font-stretch:normal;font-size:14.6656px;font-family:'Maven Pro';-inkscape-font-specification:'Maven Pro Bold';text-align:center;text-anchor:middle;fill:#a30055;fill-opacity:1;fill-rule:evenodd;stroke:#07819d;stroke-width:0;stroke-linecap:round;stroke-miterlimit:10;stroke-dasharray:none;stroke-opacity:1"
   x="31.984709"
   y="262.41373"
   id="text5808-7"
   transform="scale(0.99993081,1.0000692)"><tspan
     id="tspan5806-0"
     style="font-style:normal;font-variant:normal;font-weight:500;font-stretch:normal;font-size:14.6656px;font-family:'Maven Pro';-inkscape-font-specification:'Maven Pro Medium';text-align:start;text-anchor:start;fill:#a30055;fill-opacity:1;stroke-width:0"
     x="31.984709"
     y="262.41373">Content</tspan></text><path
   fill="#5c0432"
   d="m 337.87639,132.22772 c 0,-26.70592 -9.14621,-50.4756 -23.3753,-65.83644 2.13161,0.33736 4.36568,0.63723 6.45731,1.29694 -0.35483,7.17938 12.22994,9.09605 20.97632,9.09605 -2.49897,0 -4.99793,0 -7.49692,2.49892 3.57356,-1.78423 8.4015,-1.04205 12.69977,-1.36691 -6.80969,-10.20557 -15.75349,-18.86431 -26.18168,-25.354 1.92424,-0.085 3.9034,-0.14494 5.98754,-0.14494 v -2.49892 c -3.28365,0 -6.60979,0.12994 -9.84345,0.37484 -2.82131,-1.55682 -5.7501,-2.93623 -8.75384,-4.17069 l 4.853,-5.57259 c -2.94878,0 -5.71512,0.86962 -8.12665,2.39396 v -2.02911 c -2.68139,0 -5.21286,0.57475 -7.46443,1.56931 -1.16949,-0.30736 -2.354,-0.56475 -3.5435,-0.82214 -1.27199,-6.4547 -3.34613,-11.42504 -6.4798,-11.42504 v 2.49892 c 1.03456,0 2.60641,2.89124 3.82092,8.37136 -0.98213,-0.18242 -1.9767,-0.32736 -2.96882,-0.47479 -3.81838,-2.79129 -8.50891,-4.45807 -13.58932,-4.45807 v 2.49892 c 2.414,0 4.72301,0.43981 6.87962,1.20447 -1.98917,-0.13743 -3.99335,-0.2199 -6.01496,-0.2199 -2.46898,0 -4.913,0.10496 -7.33199,0.31237 -3.42359,-1.69927 -9.8784,-2.23154 -14.22159,-2.23154 v 2.49892 c 3.05374,0 5.64766,0.21741 7.76428,0.53477 -2.65892,0.42981 -5.27784,0.98207 -7.85177,1.65178 -1.15453,-0.25989 -3.62847,-0.31237 -8.97127,-0.31237 v 2.49892 c 0.65723,0 1.27449,0.002 1.85925,0.007 -8.4515,3.0112 -16.29577,7.29684 -23.29284,12.64452 7.26697,1.97414 16.3507,1.66927 23.30782,-2.96872 0.87963,1.75674 0.51479,3.20361 -0.20988,4.56053 -18.86968,14.30879 -31.64688,41.79685 -31.64688,73.37315 0,30.62425 12.01756,57.40262 29.9551,72.04375 -2.01169,-0.46977 -3.96086,-0.96209 -5.75513,-1.49434 -4.90548,10.08813 -6.64224,23.34488 -9.99584,34.97982 25.02963,0 50.04674,0 75.07136,0 h 5.84758 c 3.84341,0 7.6868,0 11.53271,0 -4.67056,-10.32302 -5.33028,-24.65679 -9.99589,-34.97982 -1.18198,0.49729 -2.42147,0.95709 -3.70593,1.38188 17.85257,-14.66613 29.80514,-41.38702 29.80514,-71.93129 z M 314.44362,64.2897 c -0.60727,0.20241 -1.12954,0.29737 -1.61436,0.34734 -1.55435,-1.56182 -3.16368,-3.02868 -4.82548,-4.38809 -0.72972,-1.79672 -1.51937,-3.456 -3.55602,-3.456 0,0.28986 0.0338,0.53477 0.0472,0.80715 -1.10951,-0.77967 -2.23903,-1.51685 -3.38357,-2.20405 0.87962,-0.24987 1.7818,-0.49478 2.77886,-0.72218 3.9309,1.76673 7.93419,5.68003 10.55312,9.61582 z M 304.34278,43.45124 c -0.34996,0.24739 -0.68968,0.50978 -1.02205,0.78466 -0.47982,-0.16243 -0.95212,-0.34485 -1.43689,-0.49978 0.79464,-0.15994 1.62181,-0.2449 2.45894,-0.28488 z"
   id="path20255"
   style="stroke-width:2.49894" /><path
   fill="#f1007e"
   d="m 347.13757,77.91628 c -4.29827,0.32737 -9.12375,-0.41732 -12.69475,1.36691 2.49893,-2.49892 4.99792,-2.49892 7.49692,-2.49892 -8.74643,0 -21.3237,-1.91667 -20.97632,-9.09605 -7.34198,-2.31149 -16.50817,-0.19243 -16.50817,-10.89527 4.99792,0 2.49895,9.99566 9.99582,7.49675 -4.9979,-7.49675 -14.99376,-14.9935 -19.99169,-7.49675 -7.49689,2.49891 4.99793,0 7.49691,4.99783 -4.99791,0 -7.49691,0 -12.49482,2.49892 0,-2.49892 0,-4.99784 0,-7.49675 -4.99796,2.49891 -7.49687,2.49891 -12.49484,2.49891 -0.69469,-0.69719 -0.79962,-1.5893 -0.7147,-2.51141 -4.3482,-0.0349 -8.02164,-0.2374 -12.23993,-1.21197 -0.6997,3.06117 -2.48145,5.24272 -7.03707,3.72338 0,0 0,-2.49891 0,-4.99783 -4.99791,2.49892 -9.99584,7.49675 -12.49482,12.49458 -2.49893,-4.99783 4.99795,-7.49675 2.49898,-12.49458 -6.9571,4.63799 -16.04084,4.94286 -23.30784,2.96872 -20.51152,15.67569 -33.75349,40.37997 -33.75349,68.1904 0,47.38445 38.41407,85.7953 85.79689,85.7953 47.38286,0 85.79696,-38.41085 85.79696,-85.7953 -0.003,-17.58487 -5.30284,-33.92777 -14.37404,-47.53687 z m -57.87352,93.65438 c -1.61431,0.96959 -5.26531,2.87376 -13.54689,2.87376 -8.65642,0 -22.08582,-2.0891 -29.94756,-9.51337 l 1.71928,-1.81673 c 14.45651,13.65659 38.58649,7.83162 40.55817,6.2598 -0.13253,0.10743 -0.37247,0.48479 -0.25983,0.97957 0.0527,0.23489 0.16747,0.41233 0.29738,0.53728 v -2.28904 c 0.4873,0 1.80676,0 2.12415,1.14202 0.10984,0.40232 0.13733,1.17699 -0.94462,1.82671 z m 25.18456,-36.58415 c -10.3382,0 -18.74224,-8.40634 -18.74224,-18.74186 0,-0.15991 0.0153,-0.31735 0.0265,-0.4773 h 2.49897 c -0.005,0.15995 -0.0264,0.31487 -0.0264,0.4773 0,8.9561 7.287,16.24295 16.24327,16.24295 8.95628,0 16.24327,-7.28685 16.24327,-16.24295 0,-8.95612 -7.28699,-16.24296 -16.24327,-16.24296 -8.74138,0 -15.87591,6.94949 -16.2108,15.61073 h -4.09079 v 0.008 h -39.42615 c -1.74186,8.5438 -9.31373,14.9935 -18.36498,14.9935 -10.33571,0 -18.74221,-8.40636 -18.74221,-18.74187 0,-10.33552 8.4065,-18.74187 18.74221,-18.74187 10.33569,0 18.74221,8.40635 18.74221,18.74187 0,0.35234 -0.0265,0.6997 -0.0527,1.04705 h -2.49898 c 0.0227,-0.34986 0.0526,-0.69471 0.0526,-1.04705 0,-8.95611 -7.28696,-16.24295 -16.24327,-16.24295 -8.95627,0 -16.24324,7.28684 -16.24324,16.24295 0,8.95611 7.28697,16.24294 16.24324,16.24294 8.54896,0 15.56103,-6.6446 16.18328,-15.03846 h 2.49896 c 0,0.0149 0,0.03 -0.003,0.045 h 40.953 c 1.49689,-8.85116 9.19371,-15.61822 18.46234,-15.61822 10.33572,0 18.74225,8.40634 18.74225,18.74185 0,10.33553 -8.40901,18.74189 -18.74475,18.74189 z m -9.99586,-18.85931 c 0,-5.52011 4.47563,-9.99566 9.99586,-9.99566 5.52019,0 9.99584,4.47555 9.99584,9.99566 0,5.52011 -4.47565,9.99566 -9.99584,9.99566 -5.52023,0 -9.99586,-4.47555 -9.99586,-9.99566 z m -57.47612,-4.99783 c 0,5.5201 -4.47567,9.99565 -9.99589,9.99565 -5.52021,0 -9.99583,-4.47555 -9.99583,-9.99565 0,-5.52011 4.47562,-9.99567 9.99583,-9.99567 5.52022,0 9.99589,4.47556 9.99589,9.99567 z"
   id="path20257"
   style="stroke-width:2.49894" /><g
   id="g22183"
   transform="matrix(1.5025511,0,0,1.5025222,-310.77627,-3.6956401)"><path
     id="path21922"
     style="fill:none;fill-rule:evenodd;stroke:#aa0000;stroke-width:1.25773;stroke-dasharray:none"
     d="m 222.35394,187.3648 c 0.17728,-0.63524 0.94375,-0.0744 1.05581,0.29464 0.30367,1.0002 -0.75442,1.78488 -1.6451,1.81697 -1.59322,0.0574 -2.67143,-1.51766 -2.57814,-2.99555 0.13691,-2.16886 2.28814,-3.57557 4.34601,-3.3393 2.74282,0.31492 4.4867,3.06075 4.10046,5.69646 -0.48604,3.31678 -3.83429,5.40133 -7.04691,4.86163 -3.89092,-0.65365 -6.31796,-4.60833 -5.62279,-8.39737 0.81923,-4.46525 5.38268,-7.23585 9.74782,-6.38395 5.03973,0.98355 8.15458,6.15723 7.14512,11.09827 -1.14702,5.61433 -6.93194,9.0739 -12.44873,7.90628 -6.18901,-1.30989 -4.47378,-9.1851 -8.66744,-13.79918 -1.0524,-1.1579 -4.65477,-1.26609 -2.72125,-3.01961"
     sodipodi:nodetypes="csssssssssssc" /><circle
     style="fill:#000000;fill-opacity:1;fill-rule:evenodd;stroke:#a30055;stroke-width:0;stroke-linecap:round;stroke-miterlimit:10;stroke-dasharray:none;stroke-opacity:1"
     id="path21651"
     cx="224.49872"
     cy="185.58527"
     r="4.0247283" /></g><g
   id="g8732"
   transform="matrix(1.0000192,0,0,0.99999997,4.7173529,18.14248)"><g
     id="g8738"
     transform="translate(-3.7795277)"><rect
       style="fill:#ffffff;fill-opacity:1;fill-rule:evenodd;stroke:#a30055;stroke-width:3.77953;stroke-linecap:round;stroke-miterlimit:10;stroke-dasharray:none;stroke-opacity:1"
       id="rect8314"
       width="45.354328"
       height="45.354332"
       x="190.86615"
       y="221.10237"
       ry="0" /><rect
       style="fill:none;fill-rule:evenodd;stroke:#a30055;stroke-width:3.77953;stroke-linecap:round;stroke-miterlimit:10;stroke-dasharray:none;stroke-opacity:1"
       id="rect8314-1"
       width="45.354328"
       height="45.354332"
       x="236.22047"
       y="221.10237"
       ry="0" /><rect
       style="fill:none;fill-rule:evenodd;stroke:#a30055;stroke-width:3.77953;stroke-linecap:round;stroke-miterlimit:10;stroke-dasharray:none;stroke-opacity:1"
       id="rect8314-17"
       width="45.354328"
       height="45.354332"
       x="281.5748"
       y="221.10237"
       ry="0" /><rect
       style="fill:none;fill-rule:evenodd;stroke:#a30055;stroke-width:3.77953;stroke-linecap:round;stroke-miterlimit:10;stroke-dasharray:none;stroke-opacity:1"
       id="rect8314-1-9"
       width="45.354328"
       height="45.354332"
       x="326.92911"
       y="221.10237"
       ry="0" /></g></g><g
   id="g34240"
   transform="matrix(1.0000192,0,0,0.99999997,8.5886471,16.35396)"><g
     id="g34062"
     transform="translate(0,-2)"><path
       d="m 201.59053,243.4395 0.056,0.043 c 0.023,0.019 0.048,0.038 0.103,0.078 0.986,0.763 2.165,1.273 3.407,1.478 0.403,0.069 0.83,0.105 1.268,0.105 1.759,0 3.477,-0.606 4.837,-1.706 1.827,-1.465 2.876,-3.657 2.876,-6.007 v -3.859 c 0,-3.119 -2.538,-5.657 -5.661,-5.657 h -4.107 c -2.184,0 -4.192,1.276 -5.116,3.251 -0.36,0.75 -0.541,1.561 -0.541,2.406 v 3.858 c 0.001,2.351 1.049,4.54 2.879,6.01 z"
       id="path8108-9" /><path
       d="m 212.04453,244.4195 -0.236,0.164 c -0.164,0.114 -0.332,0.221 -0.502,0.322 l -0.146,0.08 c -0.131,0.076 -0.264,0.15 -0.398,0.22 l -0.215,0.104 c -0.117,0.055 -0.232,0.111 -0.35,0.162 -0.078,0.035 -0.156,0.064 -0.236,0.097 -0.115,0.047 -0.232,0.092 -0.35,0.132 -0.079,0.029 -0.163,0.056 -0.244,0.084 -0.12,0.037 -0.242,0.075 -0.363,0.107 l -0.238,0.066 c -0.135,0.035 -0.274,0.064 -0.41,0.092 l -0.206,0.043 c -0.206,0.037 -0.415,0.072 -0.622,0.095 -0.597,0.067 -1.232,0.078 -1.85,0.026 l -0.25,-0.029 c -0.169,-0.018 -0.337,-0.037 -0.507,-0.064 -0.064,-0.009 -0.127,-0.022 -0.19,-0.035 l -0.102,-0.021 c -0.152,-0.03 -0.306,-0.063 -0.457,-0.1 -0.091,-0.021 -0.18,-0.048 -0.297,-0.078 -0.147,-0.041 -0.293,-0.086 -0.437,-0.135 -0.098,-0.033 -0.195,-0.066 -0.294,-0.103 -0.143,-0.053 -0.281,-0.11 -0.457,-0.186 -0.083,-0.036 -0.164,-0.072 -0.248,-0.107 -0.141,-0.065 -0.279,-0.137 -0.417,-0.211 l -0.084,-0.044 c -0.059,-0.031 -0.117,-0.062 -0.175,-0.092 -0.15,-0.085 -0.294,-0.176 -0.44,-0.271 l -0.475,-0.308 -0.328,0.091 c -0.053,0.012 -0.107,0.026 -0.164,0.045 -2.554,0.851 -4.344,3.135 -4.556,5.818 -0.015,0.178 -0.021,0.357 -0.021,0.536 l 0.001,3.801 0.006,0.064 c 0.036,1.821 1.551,3.301 3.378,3.301 h 14.563 c 1.865,0 3.385,-1.518 3.385,-3.385 v -3.777 c 0,-2.943 -1.969,-5.582 -4.786,-6.418 l -0.282,-0.087 z"
       id="path8110-5" /></g><text
     xml:space="preserve"
     style="font-weight:500;font-size:12px;font-family:'Maven Pro';-inkscape-font-specification:'Maven Pro Medium';fill:#dddddd;fill-opacity:1;fill-rule:evenodd;stroke:#787878;stroke-width:0;stroke-linecap:round;stroke-miterlimit:10;stroke-dasharray:none;stroke-opacity:1"
     x="186.51657"
     y="262.75"
     id="text34118"><tspan
       sodipodi:role="line"
       id="tspan34116"
       x="186.51657"
       y="262.75"
       style="font-size:12px;fill:#000000;fill-opacity:1">Person</tspan></text></g></svg>
