<?xml version="1.0" encoding="UTF-8" standalone="no"?>
<!-- Created with Inkscape (http://www.inkscape.org/) -->

<svg
   xmlns:dc="http://purl.org/dc/elements/1.1/"
   xmlns:cc="http://creativecommons.org/ns#"
   xmlns:rdf="http://www.w3.org/1999/02/22-rdf-syntax-ns#"
   xmlns:svg="http://www.w3.org/2000/svg"
   xmlns="http://www.w3.org/2000/svg"
   xmlns:xlink="http://www.w3.org/1999/xlink"
   xmlns:sodipodi="http://sodipodi.sourceforge.net/DTD/sodipodi-0.dtd"
   xmlns:inkscape="http://www.inkscape.org/namespaces/inkscape"
   width="715.09003"
   height="219"
   id="svg2"
   version="1.1"
   inkscape:version="0.48.1 "
   sodipodi:docname="Taxi.svg">
  <defs
     id="defs4">
    <linearGradient
       id="linearGradient3009">
      <stop
         style="stop-color:#ffb100;stop-opacity:1;"
         offset="0"
         id="stop3011" />
      <stop
         style="stop-color:#fff200;stop-opacity:1;"
         offset="1"
         id="stop3013" />
    </linearGradient>
    <linearGradient
       id="linearGradient3001">
      <stop
         style="stop-color:#ffb100;stop-opacity:1;"
         offset="0"
         id="stop3003" />
      <stop
         style="stop-color:#fff200;stop-opacity:1;"
         offset="1"
         id="stop3005" />
    </linearGradient>
    <inkscape:perspective
       sodipodi:type="inkscape:persp3d"
       inkscape:vp_x="0 : 526.18109 : 1"
       inkscape:vp_y="0 : 1000 : 0"
       inkscape:vp_z="744.09448 : 526.18109 : 1"
       inkscape:persp3d-origin="372.04724 : 350.78739 : 1"
       id="perspective3803" />
    <linearGradient
       inkscape:collect="always"
       xlink:href="#linearGradient3001"
       id="linearGradient3007"
       x1="-17.312792"
       y1="423.36218"
       x2="-609.41425"
       y2="248.36218"
       gradientUnits="userSpaceOnUse" />
    <linearGradient
       inkscape:collect="always"
       xlink:href="#linearGradient3009"
       id="linearGradient3015"
       x1="483.20639"
       y1="1132.6992"
       x2="163.55624"
       y2="1040.0806"
       gradientUnits="userSpaceOnUse" />
    <linearGradient
       inkscape:collect="always"
       xlink:href="#linearGradient3001"
       id="linearGradient3030"
       gradientUnits="userSpaceOnUse"
       x1="-17.312792"
       y1="423.36218"
       x2="-609.41425"
       y2="248.36218"
       gradientTransform="matrix(0.86471668,0,0,1,667.97066,-222.36218)" />
  </defs>
  <sodipodi:namedview
     id="base"
     pagecolor="#ffffff"
     bordercolor="#666666"
     borderopacity="1.0"
     inkscape:pageopacity="0.0"
     inkscape:pageshadow="2"
     inkscape:zoom="1.4142136"
     inkscape:cx="355.27295"
     inkscape:cy="142.68817"
     inkscape:document-units="px"
     inkscape:current-layer="layer1"
     showgrid="false"
     inkscape:window-width="1366"
     inkscape:window-height="706"
     inkscape:window-x="-8"
     inkscape:window-y="-8"
     inkscape:window-maximized="1" />
  <metadata
     id="metadata7">
    <rdf:RDF>
      <cc:Work
         rdf:about="">
        <dc:format>image/svg+xml</dc:format>
        <dc:type
           rdf:resource="http://purl.org/dc/dcmitype/StillImage" />
        <dc:title />
      </cc:Work>
    </rdf:RDF>
  </metadata>
  <g
     inkscape:label="Ebene 1"
     inkscape:groupmode="layer"
     id="layer1"
     transform="translate(0,-833.36218)">
    <g
       id="g3829"
       transform="matrix(0.86471668,0,0,1,667.97066,611)"
       style="fill-opacity:1;fill:#ffcc00">
      <path
         style="fill:#ffcc00;fill-opacity:1;stroke:none"
         d="m 110.8125,1.65625 c -0.0211,0.010119 -0.0414,0.021114 -0.0625,0.03125 l -0.0625,0 0,0.03125 C 26.110366,42.508172 -0.15625,221.375 -0.15625,221.375 l 110.84375,-1.5 494.0625,0 0,-218.1875 -493.9375,0 z M 604.75,1.6875 602.875,219.90625 715.71875,221.375 c 0,0 -26.29143,-179.04666 -110.96875,-219.71875 z"
         transform="matrix(1.1564481,0,0,1,-772.47343,222.36218)"
         id="rect3773"
         inkscape:connector-curvature="0"
         sodipodi:nodetypes="ccccccccccccccc" />
    </g>
    <rect
       style="fill:#000000;fill-opacity:1;stroke:none"
       id="rect3819"
       width="490"
       height="160"
       x="113.05853"
       y="863.53247" />
    <g
       transform="matrix(1.1450813,3.6327727e-4,-2.7420152e-4,0.87330036,0,0)"
       style="font-size:162.76580810999999000px;font-style:normal;font-weight:normal;line-height:125%;letter-spacing:0px;word-spacing:0px;fill:#ffcc00;fill-opacity:1;stroke:none;font-family:Sans"
       id="text3786">
      <path
         d="m 168.2058,1143.7552 0,-96.8011 -34.57184,0 0,-19.7099 92.58895,0 0,19.7099 -34.49236,0 0,96.8011 z"
         style="font-weight:bold;fill:#ffcc00;-inkscape-font-specification:Sans Bold;fill-opacity:1"
         id="path2991" />
      <path
         d="m 346.54881,1143.7552 -25.59111,0 -10.17286,-26.4653 -46.57264,0 -9.61654,26.4653 -24.9553,0 45.3805,-116.511 24.87583,0 z m -43.31415,-46.0957 -16.05405,-43.2347 -15.73614,43.2347 z"
         style="font-weight:bold;fill:#ffcc00;-inkscape-font-specification:Sans Bold;fill-opacity:1"
         id="path2993" />
      <path
         d="m 347.26408,1143.7552 39.81723,-60.7987 -36.08188,-55.7123 27.49852,0 23.3658,37.4329 22.88894,-37.4329 27.26009,0 -36.24082,56.5865 39.81722,59.9245 -28.37275,0 -25.82954,-40.294 -25.90901,40.294 z"
         style="font-weight:bold;fill:#ffcc00;-inkscape-font-specification:Sans Bold;fill-opacity:1"
         id="path2995" />
      <path
         d="m 467.11313,1143.7552 0,-116.511 23.52474,0 0,116.511 z"
         style="font-weight:bold;fill:#ffcc00;-inkscape-font-specification:Sans Bold;fill-opacity:1"
         id="path2997" />
    </g>
    <rect
       style="fill:#ffcc00;fill-opacity:1;stroke:none"
       id="rect3033"
       width="50.204582"
       height="22.627417"
       x="302.64169"
       y="112.93398"
       transform="translate(0,833.36218)" />
  </g>
</svg>
