<?xml version="1.0" encoding="utf-8"?>
<!-- Generator: Adobe Illustrator 15.0.2, SVG Export Plug-In . SVG Version: 6.00 Build 0)  -->
<!DOCTYPE svg PUBLIC "-//W3C//DTD SVG 1.1//EN" "http://www.w3.org/Graphics/SVG/1.1/DTD/svg11.dtd">
<svg version="1.1" id="Ebene_1" xmlns="http://www.w3.org/2000/svg" xmlns:xlink="http://www.w3.org/1999/xlink" x="0px" y="0px"
	 width="120.5px" height="93.543px" viewBox="0 0 120.5 93.543" enable-background="new 0 0 120.5 93.543" xml:space="preserve">
<path fill="#555555" d="M75.215,74.919l-0.021,15.624l30.229-29.895L75.277,30.837l-0.021,14.581h-60.12v29.5H75.24v0.001H75.215z
	 M48.548,66.499c-0.672,0.562-1.476,0.969-2.412,1.226c-0.936,0.256-1.86,0.383-2.772,0.383c-1.072,0-2.068-0.168-2.988-0.504
	s-1.716-0.858-2.388-1.57c-0.672-0.712-1.2-1.62-1.584-2.725c-0.384-1.104-0.576-2.416-0.576-3.938c0-1.584,0.228-2.932,0.684-4.044
	c0.456-1.111,1.056-2.017,1.8-2.712s1.58-1.199,2.508-1.512c0.928-0.313,1.872-0.471,2.832-0.471s1.804,0.072,2.532,0.219
	c0.728,0.145,1.308,0.297,1.74,0.454l-0.672,2.761c-0.4-0.158-0.848-0.283-1.344-0.371c-0.496-0.088-1.128-0.133-1.896-0.133
	c-0.688,0-1.32,0.104-1.896,0.312c-0.576,0.209-1.077,0.549-1.5,1.021c-0.424,0.473-0.752,1.075-0.984,1.812
	s-0.348,1.633-0.348,2.688c0,1.009,0.112,1.875,0.336,2.604s0.536,1.329,0.936,1.801c0.399,0.474,0.868,0.819,1.404,1.044
	c0.536,0.226,1.108,0.336,1.716,0.336c0.416,0,0.824-0.052,1.224-0.154c0.4-0.104,0.736-0.262,1.008-0.47v-3.168l-3.624-0.384
	v-1.993h6.264V66.499z M61.052,67.771h-10.08V50.971h9.959v2.93H54.26v3.912h6.072v2.928H54.26v4.104h6.792V67.771z M70.53,67.771
	h-3.286V53.898h-4.92V50.97h12.925v0.001h0.118v2.928h-0.066h-0.056H70.53V67.771z"/>
</svg>
