<?xml version="1.0" encoding="utf-8"?>
<!-- Generator: Adobe Illustrator 15.0.2, SVG Export Plug-In . SVG Version: 6.00 Build 0)  -->
<!DOCTYPE svg PUBLIC "-//W3C//DTD SVG 1.1//EN" "http://www.w3.org/Graphics/SVG/1.1/DTD/svg11.dtd">
<svg version="1.1" id="Ebene_1" xmlns="http://www.w3.org/2000/svg" xmlns:xlink="http://www.w3.org/1999/xlink" x="0px" y="0px"
	 width="120.5px" height="93.543px" viewBox="0 0 120.5 93.543" enable-background="new 0 0 120.5 93.543" xml:space="preserve">
	<path fill="#555555" d="M44.132,55.244c-0.288-0.527-0.664-0.939-1.128-1.235s-1.032-0.444-1.704-0.444
		c-1.168,0-2.072,0.471-2.712,1.404c-0.64,0.937-0.96,2.403-0.96,4.402c0,0.849,0.072,1.629,0.216,2.341
		c0.145,0.712,0.364,1.323,0.66,1.836s0.676,0.912,1.14,1.199c0.464,0.288,1.016,0.433,1.656,0.433
		c1.167,0,2.072-0.456,2.712-1.367c0.64-0.912,0.96-2.393,0.96-4.438c0-0.813-0.068-1.575-0.204-2.279
		C44.632,56.389,44.42,55.773,44.132,55.244z M28.423,54.115c-0.312-0.207-0.668-0.354-1.068-0.432
		c-0.4-0.08-0.808-0.121-1.224-0.121c-0.32,0-0.624,0.013-0.912,0.037c-0.288,0.021-0.52,0.051-0.696,0.084v5.445
		c0.064,0.018,0.16,0.032,0.288,0.048c0.128,0.019,0.264,0.028,0.408,0.036c0.144,0.008,0.284,0.014,0.42,0.014h0.3
		c0.432,0,0.86-0.039,1.284-0.119c0.423-0.08,0.804-0.229,1.14-0.444c0.336-0.216,0.604-0.517,0.804-0.899
		c0.2-0.384,0.3-0.889,0.3-1.512c0-0.527-0.096-0.964-0.288-1.309C28.987,54.6,28.735,54.323,28.423,54.115z M75.215,74.919
		l-0.021,15.624l30.229-29.895L75.277,30.837l-0.021,14.581h-60.12v29.5H75.24v0.001H75.215z M32.371,58.977
		c-0.369,0.729-0.856,1.323-1.464,1.787c-0.608,0.465-1.3,0.801-2.076,1.008c-0.776,0.209-1.581,0.312-2.412,0.312h-0.384
		c-0.176,0-0.36-0.003-0.552-0.012c-0.192-0.008-0.38-0.021-0.564-0.036c-0.184-0.017-0.316-0.031-0.396-0.048v5.783h-3.288V51.14
		c0.672-0.128,1.412-0.228,2.22-0.3s1.612-0.107,2.412-0.107c0.832,0,1.668,0.067,2.508,0.203c0.84,0.14,1.596,0.408,2.268,0.816
		s1.22,0.977,1.644,1.703c0.423,0.729,0.636,1.677,0.636,2.845C32.923,57.355,32.739,58.248,32.371,58.977z M46.568,65.839
		c-1.24,1.513-2.997,2.269-5.268,2.269c-1.216,0-2.272-0.209-3.168-0.625s-1.636-1.008-2.22-1.773s-1.02-1.688-1.308-2.76
		s-0.432-2.266-0.432-3.576c0-2.8,0.616-4.956,1.848-6.468c1.232-1.515,2.992-2.271,5.28-2.271c1.2,0,2.248,0.209,3.144,0.625
		s1.64,1.009,2.232,1.775c0.592,0.769,1.032,1.688,1.32,2.761c0.288,1.071,0.432,2.264,0.432,3.575
		C48.428,62.171,47.808,64.326,46.568,65.839z M60.873,65.218c-0.296,0.647-0.712,1.188-1.249,1.62s-1.184,0.752-1.943,0.96
		c-0.76,0.207-1.596,0.312-2.508,0.312c-1.2,0-2.256-0.112-3.168-0.337c-0.912-0.226-1.584-0.446-2.016-0.672l1.056-2.811
		c0.176,0.097,0.404,0.201,0.684,0.312c0.28,0.11,0.596,0.217,0.948,0.312c0.352,0.097,0.724,0.177,1.116,0.24
		c0.392,0.062,0.795,0.097,1.212,0.097c0.976,0,1.724-0.164,2.245-0.492c0.517-0.33,0.777-0.83,0.777-1.502
		c0-0.512-0.188-0.928-0.564-1.248c-0.375-0.318-0.848-0.609-1.416-0.876c-0.568-0.265-1.184-0.534-1.848-0.813
		s-1.28-0.624-1.848-1.032c-0.568-0.407-1.041-0.915-1.416-1.523c-0.376-0.605-0.564-1.384-0.564-2.327
		c0-0.814,0.136-1.522,0.408-2.125c0.272-0.601,0.66-1.101,1.164-1.5c0.504-0.396,1.1-0.693,1.788-0.888
		c0.688-0.192,1.456-0.289,2.304-0.289c0.976,0,1.896,0.085,2.76,0.253c0.864,0.168,1.576,0.412,2.137,0.731L59.9,54.381
		c-0.353-0.225-0.88-0.429-1.584-0.611c-0.704-0.184-1.464-0.274-2.28-0.274c-0.768,0-1.356,0.149-1.764,0.456
		c-0.408,0.305-0.612,0.712-0.612,1.225c0,0.479,0.188,0.88,0.564,1.199c0.376,0.32,0.848,0.616,1.416,0.889
		c0.568,0.271,1.184,0.555,1.848,0.842c0.663,0.287,1.28,0.637,1.849,1.045c0.567,0.405,1.039,0.912,1.416,1.512
		c0.374,0.601,0.562,1.349,0.562,2.244C61.314,63.799,61.168,64.57,60.873,65.218z M70.53,53.898v13.873h-3.286V53.898h-4.92V50.97
		h12.925v0.001h0.118v2.928H70.53z"/>
</svg>
