<?xml version="1.0" encoding="utf-8"?>
<!-- Generator: Adobe Illustrator 15.0.2, SVG Export Plug-In . SVG Version: 6.00 Build 0)  -->
<!DOCTYPE svg PUBLIC "-//W3C//DTD SVG 1.1//EN" "http://www.w3.org/Graphics/SVG/1.1/DTD/svg11.dtd">
<svg version="1.1" id="Ebene_1" xmlns="http://www.w3.org/2000/svg" xmlns:xlink="http://www.w3.org/1999/xlink" x="0px" y="0px"
	 width="102.047px" height="102.047px" viewBox="0 0 102.047 102.047" enable-background="new 0 0 102.047 102.047"
	 xml:space="preserve">
<path fill="#04475F" d="M59.107,9.952c-0.142-14.137-23.673-12.472-22,2c-21.837,1.806-37.34,32.972-19.997,49.993
	c-2.918-5.192-2.727-16.723,0-21.998c1.785,2.745,2.615,6.445,4.54,9.05c-0.081,0.771-0.127,1.549-0.127,2.338
	c0,11.856,9.293,21.795,21.806,24.473c-3.063-0.297-5.912-0.89-8.22-1.865c-1.868,4.131-2.131,9.867-4,13.998
	c1.539,0,3.077,0,4.615,0v9.152c0,0.487,0.087,0.875,0.248,1.18h-1.567L30.09,86.204h-1.818l-4.536,12.688h2.466l0.954-2.789h3.87
	l1.008,2.789h2.592l-0.14-0.393h1.635c0.046,0.058,0.089,0.12,0.144,0.168c0.36,0.318,0.882,0.479,1.566,0.479
	c0.42,0,0.828-0.049,1.224-0.146c0.396-0.096,0.69-0.189,0.882-0.287L39.907,98.5h3.446l0.164,0.393
	c-0.132,0.61-0.327,1.035-0.585,1.27c-0.258,0.234-0.525,0.352-0.801,0.352c-0.18,0-0.36-0.035-0.54-0.107l-0.432,1.872
	c0.372,0.204,0.87,0.307,1.494,0.307c0.42,0,0.783-0.11,1.089-0.332c0.306-0.223,0.585-0.537,0.837-0.944
	c0.252-0.408,0.483-0.892,0.693-1.449c0.157-0.418,0.321-0.878,0.488-1.359h3.538c0.295,0.146,0.626,0.284,1.033,0.401
	c0.558,0.161,1.155,0.243,1.791,0.243c1.045,0,1.843-0.223,2.42-0.645h2.354c0.296,0.146,0.627,0.284,1.032,0.401
	c0.559,0.161,1.155,0.243,1.791,0.243c1.045,0,1.843-0.223,2.42-0.645h2.992c0.187,0.139,0.388,0.261,0.62,0.348
	c0.335,0.127,0.713,0.189,1.133,0.189c0.671,0,1.222-0.136,1.646-0.406c0.427-0.271,0.76-0.59,1-0.963h0.09l0.379,1.241h1.906
	c-0.145-0.433-0.233-0.892-0.271-1.377c-0.036-0.482-0.053-0.982-0.047-1.499c0.005-0.516,0.027-1.041,0.063-1.575
	c0.035-0.533,0.054-1.065,0.054-1.593c0-0.48-0.05-0.912-0.152-1.297c-0.102-0.385-0.276-0.715-0.521-0.99
	c-0.246-0.275-0.579-0.487-0.999-0.639c-0.421-0.152-0.941-0.227-1.566-0.227c-0.718,0-1.409,0.062-2.067,0.188
	c-0.66,0.126-1.231,0.298-1.711,0.513l0.557,1.75c0.336-0.155,0.765-0.281,1.287-0.378c0.521-0.097,1.016-0.146,1.484-0.146
	c0.623,0,1.024,0.146,1.204,0.44c0.183,0.293,0.229,0.776,0.146,1.449c-0.792-0.037-1.509-0.011-2.15,0.08
	c-0.641,0.09-1.194,0.252-1.655,0.485c-0.463,0.234-0.815,0.54-1.062,0.918c-0.246,0.379-0.369,0.844-0.369,1.396
	c0,0.396,0.065,0.754,0.198,1.071c0.126,0.303,0.303,0.566,0.528,0.793h-2.44c0.523-0.514,0.794-1.196,0.794-2.062
	c0-0.528-0.103-0.961-0.305-1.297c-0.205-0.337-0.457-0.608-0.757-0.818c-0.301-0.21-0.631-0.381-0.989-0.514
	c-0.36-0.132-0.691-0.255-0.99-0.369c-0.301-0.112-0.553-0.235-0.756-0.368c-0.205-0.132-0.308-0.306-0.308-0.521
	c0-0.539,0.349-0.811,1.045-0.811c0.432,0,0.856,0.061,1.276,0.181c0.421,0.12,0.769,0.234,1.046,0.343l0.521-1.691
	c-0.312-0.18-0.744-0.342-1.298-0.485c-0.553-0.145-1.17-0.216-1.854-0.216c-0.994,0-1.758,0.232-2.285,0.701
	s-0.791,1.146-0.791,2.033c0,0.539,0.102,0.98,0.307,1.322c0.203,0.342,0.455,0.625,0.756,0.846c0.299,0.223,0.629,0.396,0.99,0.522
	c0.357,0.126,0.688,0.247,0.988,0.368s0.553,0.252,0.756,0.396c0.205,0.145,0.307,0.336,0.307,0.576
	c0,0.312-0.104,0.535-0.312,0.666c-0.211,0.133-0.49,0.197-0.838,0.197c-0.479,0-0.947-0.075-1.404-0.226
	c-0.455-0.149-0.82-0.304-1.098-0.459l-0.626,1.685h-1.771c0.524-0.514,0.795-1.196,0.795-2.062c0-0.528-0.104-0.961-0.308-1.297
	c-0.203-0.337-0.455-0.608-0.756-0.818c-0.3-0.21-0.63-0.381-0.99-0.514c-0.358-0.132-0.688-0.255-0.99-0.369
	c-0.299-0.112-0.551-0.237-0.756-0.368c-0.203-0.132-0.306-0.306-0.306-0.521c0-0.539,0.349-0.811,1.044-0.811
	c0.432,0,0.858,0.061,1.278,0.181s0.769,0.234,1.044,0.343l0.521-1.691c-0.312-0.18-0.744-0.342-1.295-0.485
	c-0.554-0.146-1.17-0.216-1.854-0.216c-0.996,0-1.758,0.232-2.286,0.701c-0.528,0.469-0.792,1.146-0.792,2.033
	c0,0.539,0.102,0.98,0.306,1.322s0.456,0.625,0.756,0.846c0.3,0.223,0.63,0.396,0.99,0.522c0.36,0.126,0.69,0.247,0.99,0.368
	s0.553,0.252,0.756,0.396c0.204,0.145,0.307,0.336,0.307,0.576c0,0.312-0.104,0.535-0.313,0.666
	c-0.21,0.133-0.489,0.197-0.837,0.197c-0.479,0-0.948-0.075-1.404-0.226c-0.456-0.149-0.822-0.304-1.098-0.459l-0.626,1.685h-3.156
	c0.03-0.088,0.06-0.17,0.09-0.26l2.736-8.117h-2.412l-1.368,5.037l-0.234,1.422h-0.108l-0.324-1.402l-1.656-5.061h-2.808
	l3.503,8.381h-3.382l-0.192-1.396c-0.204,0.085-0.375,0.141-0.513,0.163c-0.138,0.022-0.279,0.035-0.423,0.035
	c-0.24,0-0.414-0.097-0.522-0.287c-0.108-0.191-0.162-0.498-0.162-0.918v-7.929c10.013,0,20.026,0,30.042,0
	c-1.342-4.656-2.037-9.961-4-13.998c-1.167,0.347-2.472,0.657-3.854,0.932c10.754-3.614,18.396-12.787,18.396-23.539
	c0-10.321-7.043-19.188-17.119-23.078c2.955-3.673,5.147-8.109,8.576-11.308c-0.436,6.22,16.685,29.991,16.998,14
	C82.896,18.825,71.738,13.651,59.107,9.952z M22.978,43.401c-0.391-1.596-0.477-3.396,0.132-5.453
	c1.067-0.104,2.095-0.246,3.092-0.42C24.854,39.337,23.766,41.308,22.978,43.401z M27.786,94.124l0.918-2.791l0.378-1.998h0.09
	l0.378,1.979l0.936,2.81H27.786z M66.773,95.456c0.156-0.156,0.365-0.276,0.629-0.36c0.265-0.084,0.568-0.138,0.91-0.162
	c0.34-0.023,0.698-0.019,1.069,0.02v1.169c-0.132,0.24-0.336,0.465-0.61,0.674c-0.275,0.212-0.647,0.315-1.115,0.315
	c-0.35,0-0.621-0.094-0.819-0.278c-0.196-0.187-0.297-0.447-0.297-0.783C66.54,95.811,66.618,95.612,66.773,95.456z M58.102,27.161
	c-2.544-0.655-5.231-1.013-8.016-1.013c-0.45,0-0.897,0.012-1.343,0.03c3.334-2.531,6.647-5.082,10.364-7.229
	C59.507,22.422,59.002,24.989,58.102,27.161z"/>
<path fill="#0AC1EB" d="M87.104,30.95c-0.313,15.991-17.434-7.781-16.998-14c-5.69,5.308-7.959,14.039-15.998,16.998
	c2.496-4.169,5.867-7.465,5-14.998c-11.621,6.713-19.29,17.375-35.998,18.998c-2.113,7.142,4.018,11.28,3,13.999
	c-5.781-1.219-6.241-7.758-8.999-12c-2.727,5.275-2.918,16.806,0,21.998c3.982,6.017,10.715,9.283,17.999,11.999
	c7.639,3.229,21.162,2.327,28.996,0C79.555,67.928,95.754,51.714,87.104,30.95z M32.341,47.268c-2.209,0-4-1.791-4-4
	c0-2.209,1.791-4,4-4c2.209,0,4,1.791,4,4C36.341,45.477,34.55,47.268,32.341,47.268z M51.3,66.605
	c-3.314,0-6.018-0.763-6.663-1.152c-0.433-0.26-0.422-0.57-0.376-0.731c0.126-0.454,0.652-0.454,0.85-0.454v0.916
	c0.05-0.05,0.097-0.121,0.118-0.215c0.045-0.197-0.05-0.349-0.104-0.392c0.789,0.629,10.446,2.96,16.231-2.505l0.688,0.727
	C58.897,65.77,54.765,66.605,51.3,66.605z M71.342,45.268c-2.209,0-4-1.791-4-4c0-2.209,1.791-4,4-4s4,1.791,4,4
	C75.342,43.477,73.551,45.268,71.342,45.268z"/>
</svg>
