<?xml version="1.0" encoding="utf-8"?>
<!-- Generator: Adobe Illustrator 15.0.2, SVG Export Plug-In . SVG Version: 6.00 Build 0)  -->
<!DOCTYPE svg PUBLIC "-//W3C//DTD SVG 1.1//EN" "http://www.w3.org/Graphics/SVG/1.1/DTD/svg11.dtd">
<svg version="1.1" id="Ebene_1" xmlns="http://www.w3.org/2000/svg" xmlns:xlink="http://www.w3.org/1999/xlink" x="0px" y="0px"
	 width="102.047px" height="102.047px" viewBox="0 0 102.047 102.047" enable-background="new 0 0 102.047 102.047"
	 xml:space="preserve">
<path fill="#67E63E" d="M90.648,38.585c0-18.639-17.741-33.749-39.625-33.749s-39.625,15.11-39.625,33.749
	c0,14.383,10.567,26.655,25.446,31.515c4.404,1.438,9.181,2.234,14.179,2.234c5.454,0,10.649-0.939,15.376-2.637
	C80.646,64.584,90.648,52.58,90.648,38.585z"/>
	<g>
		<path fill="#1A7D09" d="M51.023,72.334c-4.998,0-9.775-0.796-14.179-2.234c-0.255-0.012-0.521-0.025-0.764-0.033
			c-0.481,5.123-1.881,9.182-2.778,13.822l36.774,0.063c-2.154-3.675-2.065-9.948-3.677-14.255
			C61.672,71.395,56.477,72.334,51.023,72.334z M66.047,28.445c-2.348,0-4.251,1.903-4.251,4.251c0,2.348,1.903,4.251,4.251,4.251
			s4.251-1.903,4.251-4.251C70.298,30.348,68.395,28.445,66.047,28.445z M35.049,32.946c0-2.349-1.903-4.252-4.252-4.252
			c-2.348,0-4.252,1.903-4.252,4.252c0,2.348,1.904,4.252,4.252,4.252C33.146,37.198,35.049,35.294,35.049,32.946z M41.881,60.297
			c-0.09,0.255-0.058,0.626,0.303,0.901c0.717,0.547,4.466,1.507,9.035,1.507c4.191,0,9.073-0.808,12.934-3.484l-0.807-1.164
			c-7.582,5.254-19.315,2.664-20.311,2.009c0.093,0.062,0.272,0.302,0.206,0.619c-0.039,0.182-0.141,0.307-0.242,0.385l0.034-1.324
			C42.746,59.737,42.084,59.721,41.881,60.297z M90.072,29.915c-2.415-9.293-7.612-15.804-15.252-19.871
			c-6.575-4.007-15.723-7.209-24.296-7.209c-6.667,0-12.949,1.401-18.463,3.878h0.004c-6.329,2.067-10.802,5.99-12.984,12.203
			c2.276-1.39,3.874-3.459,5.999-4.999c4.91,1.423,9.587,3.079,14.998,3.999c4.132-0.199,3.12-5.545,7.999-4.998
			c-0.055,1.277-1.282,1.385-1,2.999c15.558-10.203,37.45,0.454,39.996,17.997C89.707,34.217,90.354,32.53,90.072,29.915z
			 M45.408,93.463c-0.24-0.252-0.522-0.449-0.846-0.594c-0.324-0.145-0.666-0.246-1.026-0.307v-0.107
			c0.408-0.095,0.756-0.243,1.044-0.441c0.288-0.197,0.522-0.426,0.702-0.684c0.18-0.257,0.309-0.543,0.387-0.855
			c0.078-0.312,0.117-0.623,0.117-0.936c0-0.624-0.133-1.141-0.396-1.547c-0.264-0.407-0.615-0.725-1.053-0.954
			s-0.936-0.387-1.494-0.478c-0.558-0.09-1.131-0.135-1.719-0.135c-0.348,0-0.699,0.006-1.053,0.019
			c-0.354,0.012-0.699,0.03-1.035,0.054c-0.336,0.025-0.651,0.054-0.945,0.09s-0.555,0.072-0.783,0.108v12.42
			c0.312,0.071,0.657,0.126,1.035,0.162c0.378,0.034,0.75,0.062,1.116,0.079c0.366,0.019,0.708,0.027,1.026,0.027h0.783
			c0.624,0,1.23-0.072,1.818-0.216s1.113-0.366,1.575-0.666s0.831-0.687,1.107-1.161c0.276-0.474,0.414-1.036,0.414-1.683
			c0-0.492-0.069-0.918-0.207-1.278C45.837,94.021,45.648,93.715,45.408,93.463z M39.684,88.566
			c0.144-0.024,0.348-0.041,0.612-0.054c0.264-0.012,0.552-0.019,0.864-0.019c0.276,0,0.54,0.023,0.792,0.07
			c0.252,0.049,0.477,0.132,0.675,0.25c0.198,0.119,0.357,0.278,0.477,0.48c0.119,0.202,0.18,0.457,0.18,0.766
			c0,0.463-0.165,0.838-0.495,1.123s-0.723,0.498-1.179,0.642c-0.144,0.024-0.327,0.041-0.549,0.053s-0.417,0.019-0.585,0.019
			h-0.792V88.566z M43.428,96.316c-0.132,0.227-0.306,0.414-0.521,0.562c-0.216,0.148-0.465,0.258-0.747,0.329
			c-0.282,0.071-0.573,0.106-0.873,0.106c-0.12,0-0.262-0.002-0.423-0.009c-0.162-0.006-0.318-0.012-0.468-0.018
			c-0.151-0.006-0.291-0.015-0.423-0.027c-0.132-0.012-0.228-0.03-0.288-0.054V93.77h1.314c0.312,0,0.624,0.018,0.936,0.053
			s0.594,0.115,0.846,0.24c0.252,0.125,0.456,0.3,0.612,0.525c0.156,0.227,0.234,0.534,0.234,0.927
			C43.626,95.824,43.56,96.091,43.428,96.316z M54.264,90.729c-0.337-0.276-0.721-0.475-1.152-0.595
			c-0.432-0.119-0.877-0.18-1.332-0.18c-1.368,0-2.43,0.397-3.187,1.188c-0.756,0.793-1.134,1.979-1.134,3.563
			c0,1.476,0.336,2.636,1.008,3.481c0.672,0.848,1.734,1.271,3.186,1.271c0.697,0,1.354-0.101,1.972-0.297
			c0.618-0.199,1.106-0.442,1.467-0.729L54.316,96.9c-0.203,0.156-0.5,0.311-0.891,0.459c-0.39,0.151-0.83,0.227-1.322,0.227
			c-0.792,0-1.366-0.191-1.72-0.575c-0.354-0.385-0.549-0.955-0.585-1.711h5.4c0.06-0.311,0.105-0.61,0.135-0.899
			c0.03-0.288,0.045-0.558,0.045-0.811c0-0.695-0.102-1.277-0.306-1.745C54.869,91.376,54.6,91.005,54.264,90.729z M49.853,93.842
			c0.06-0.613,0.237-1.102,0.531-1.468s0.747-0.549,1.359-0.549c0.528,0,0.915,0.174,1.161,0.522s0.345,0.847,0.297,1.494H49.853z
			 M64.166,90.729c-0.24-0.276-0.534-0.475-0.882-0.595c-0.349-0.119-0.745-0.18-1.188-0.18c-0.721,0-1.309,0.146-1.765,0.432
			c-0.456,0.288-0.822,0.625-1.099,1.009h-0.071l-0.271-1.188h-1.854v9h2.34v-5.832c0.133-0.384,0.351-0.705,0.657-0.963
			c0.306-0.258,0.681-0.388,1.125-0.388c0.504,0,0.859,0.162,1.07,0.486c0.209,0.323,0.314,0.853,0.314,1.584v5.113h2.343v-5.598
			c0-0.696-0.06-1.281-0.18-1.756S64.406,91.005,64.166,90.729z"/>
	</g>
</svg>
