<?xml version="1.0" encoding="utf-8"?>
<!-- Generator: Adobe Illustrator 15.0.2, SVG Export Plug-In . SVG Version: 6.00 Build 0)  -->
<!DOCTYPE svg PUBLIC "-//W3C//DTD SVG 1.1//EN" "http://www.w3.org/Graphics/SVG/1.1/DTD/svg11.dtd">
<svg version="1.1" id="Ebene_1" xmlns="http://www.w3.org/2000/svg" xmlns:xlink="http://www.w3.org/1999/xlink" x="0px" y="0px"
	 width="102.047px" height="102.047px" viewBox="0 0 102.047 102.047" enable-background="new 0 0 102.047 102.047"
	 xml:space="preserve">
<path fill="#0AC1EB" d="M89.494,2.126H12.553V2.125c-5.75,0-10.427,4.678-10.427,10.427v76.941c0,5.749,4.678,10.427,10.427,10.427
	h76.941c5.749,0,10.427-4.678,10.427-10.427v-76.94C99.921,6.803,95.243,2.126,89.494,2.126z M61.152,61.23
	c-0.273-0.191-0.609-0.367-1.008-0.527c-0.399-0.159-0.84-0.324-1.319-0.492s-0.921-0.398-1.32-0.695
	c-0.399-0.296-0.735-0.672-1.008-1.128s-0.408-1.044-0.408-1.765c0-1.184,0.353-2.088,1.056-2.711
	c0.705-0.626,1.723-0.938,3.049-0.938c0.912,0,1.738,0.097,2.475,0.286c0.734,0.191,1.312,0.408,1.729,0.648L63.7,56.166
	c-0.369-0.145-0.832-0.297-1.392-0.457c-0.562-0.159-1.129-0.239-1.705-0.239c-0.93,0-1.395,0.36-1.395,1.08
	c0,0.288,0.139,0.521,0.408,0.696c0.271,0.176,0.607,0.34,1.008,0.492c0.398,0.148,0.841,0.312,1.318,0.49
	c0.479,0.178,0.922,0.403,1.32,0.686c0.4,0.28,0.736,0.645,1.008,1.092c0.271,0.448,0.408,1.024,0.408,1.729
	c0,1.216-0.39,2.173-1.164,2.868c-0.774,0.692-1.938,1.043-3.492,1.043c-0.849,0-1.646-0.107-2.389-0.322
	c-0.744-0.217-1.348-0.469-1.812-0.758l0.864-2.326c0.367,0.207,0.854,0.412,1.465,0.611c0.604,0.197,1.229,0.299,1.871,0.299
	c0.463,0,0.836-0.086,1.115-0.265c0.278-0.177,0.42-0.471,0.42-0.887C61.561,61.679,61.423,61.423,61.152,61.23z M7.087,38.301
	v-8.504h88.372v8.504H7.087z M51.025,61.23c-0.272-0.191-0.608-0.367-1.008-0.527c-0.4-0.159-0.84-0.324-1.32-0.492
	c-0.48-0.168-0.92-0.398-1.32-0.695c-0.4-0.296-0.736-0.672-1.008-1.128s-0.408-1.044-0.408-1.765c0-1.184,0.352-2.088,1.056-2.711
	c0.704-0.626,1.72-0.938,3.048-0.938c0.912,0,1.736,0.097,2.472,0.286c0.736,0.191,1.312,0.408,1.729,0.648l-0.695,2.256
	c-0.369-0.146-0.834-0.297-1.394-0.457c-0.561-0.159-1.128-0.239-1.704-0.239c-0.928,0-1.392,0.36-1.392,1.08
	c0,0.288,0.136,0.521,0.408,0.696c0.271,0.176,0.608,0.34,1.008,0.492c0.4,0.148,0.84,0.312,1.319,0.489
	c0.479,0.179,0.918,0.404,1.318,0.687c0.401,0.28,0.737,0.646,1.01,1.092c0.271,0.448,0.406,1.024,0.406,1.729
	c0,1.216-0.388,2.173-1.162,2.867c-0.777,0.693-1.94,1.043-3.494,1.043c-0.848,0-1.644-0.106-2.388-0.321
	c-0.744-0.218-1.348-0.47-1.812-0.759l0.864-2.325c0.368,0.207,0.856,0.411,1.464,0.61c0.607,0.198,1.231,0.299,1.872,0.299
	c0.464,0,0.836-0.086,1.117-0.264c0.28-0.176,0.42-0.471,0.42-0.887C51.433,61.679,51.297,61.423,51.025,61.23z M21.048,58.951
	L19.8,55.207l-0.504-2.641h-0.049v-4.174h1.273l6.048,16.92h-3.456l-1.344-3.723h-5.16l-1.272,3.723h-3.288l6.048-16.92h1.123v4.174
	h-0.043l-0.504,2.664l-1.224,3.721H21.048z M7.378,27.051v-8.504H95.75v8.504H7.378z M95.169,7.047v8.504H15.353
	c1.832-0.57,3.17-2.258,3.17-4.277c0-1.959-1.259-3.608-3.007-4.227H95.169z M6.797,7.047h5.733
	c-1.748,0.618-3.007,2.268-3.007,4.227c0,2.02,1.339,3.708,3.17,4.277H6.797V7.047z M17.83,90.33
	c-0.346,0.756-0.831,1.385-1.456,1.89s-1.382,0.878-2.268,1.12c-0.887,0.242-1.862,0.363-2.926,0.363
	c-1.4,0-2.632-0.131-3.696-0.393c-1.064-0.263-1.848-0.521-2.352-0.783l1.232-3.275c0.206,0.111,0.471,0.233,0.798,0.363
	c0.326,0.131,0.695,0.252,1.106,0.363c0.41,0.11,0.844,0.207,1.302,0.278c0.458,0.074,0.929,0.111,1.414,0.111
	c1.139,0,2.011-0.191,2.618-0.574c0.606-0.381,0.91-0.964,0.91-1.749c0-0.597-0.22-1.082-0.658-1.455
	c-0.439-0.373-0.99-0.714-1.652-1.021c-0.663-0.31-1.382-0.625-2.156-0.952c-0.775-0.326-1.494-0.729-2.156-1.203
	c-0.663-0.479-1.214-1.068-1.652-1.778S5.58,80.021,5.58,78.92c0-0.953,0.158-1.777,0.476-2.479c0.317-0.699,0.77-1.283,1.358-1.75
	c0.588-0.47,1.283-0.812,2.086-1.035c0.802-0.228,1.698-0.337,2.688-0.337c1.138,0,2.212,0.099,3.22,0.294
	c1.008,0.195,1.838,0.479,2.492,0.854l-1.204,3.221c-0.411-0.262-1.027-0.498-1.848-0.714c-0.822-0.214-1.708-0.319-2.66-0.319
	c-0.896,0-1.582,0.177-2.058,0.529c-0.476,0.356-0.714,0.83-0.714,1.431c0,0.56,0.219,1.024,0.658,1.397
	c0.438,0.373,0.989,0.719,1.652,1.035c0.662,0.318,1.381,0.645,2.156,0.98c0.774,0.336,1.493,0.742,2.156,1.219
	c0.662,0.476,1.213,1.062,1.652,1.764c0.438,0.699,0.658,1.572,0.658,2.617C18.348,88.674,18.175,89.574,17.83,90.33z
	 M32.656,93.311h-11.76v-19.6h11.62v3.416h-7.784v4.564h7.084v3.416h-7.084v4.787h7.924V93.311z M32.472,65.456
	c-0.528,0.129-1.072,0.19-1.632,0.19c-0.912,0-1.608-0.211-2.088-0.637c-0.48-0.424-0.72-1.124-0.72-2.1v-14.4h3.12v12.77
	c0,0.561,0.072,0.969,0.216,1.225s0.376,0.384,0.696,0.384c0.192,0,0.38-0.017,0.564-0.048s0.412-0.104,0.684-0.216l0.336,2.448
	C33.392,65.2,33,65.328,32.472,65.456z M33.408,53.312h3.744l2.207,6.742l0.432,1.872h0.144l0.312-1.896l1.824-6.721h3.216
	L41.64,64.135c-0.304,0.897-0.596,1.717-0.876,2.46c-0.28,0.745-0.588,1.391-0.924,1.935s-0.708,0.964-1.116,1.26
	c-0.408,0.297-0.892,0.443-1.452,0.443c-0.832,0-1.496-0.137-1.992-0.406l0.576-2.496c0.24,0.096,0.48,0.145,0.72,0.145
	c0.368,0,0.724-0.156,1.068-0.469c0.344-0.311,0.604-0.877,0.78-1.691L33.408,53.312z M45.816,93.312l-4.452-7.675l-1.991-0.358
	v-2.607h1.599c1.064,0,1.913-0.242,2.548-0.728c0.634-0.484,0.952-1.287,0.952-2.408c0-0.84-0.262-1.498-0.784-1.976
	c-0.523-0.476-1.289-0.714-2.296-0.714c-0.392,0-0.78,0.011-1.162,0.027c-0.383,0.021-0.677,0.056-0.882,0.112v5.41h-0.003v3.562
	h0.003v7.352h-3.836V73.908c0.429-0.075,0.891-0.146,1.386-0.211c0.495-0.065,0.989-0.116,1.484-0.154
	c0.495-0.037,0.976-0.064,1.442-0.084c0.466-0.018,0.896-0.027,1.288-0.027c0.915,0,1.815,0.084,2.702,0.252
	c0.886,0.168,1.68,0.457,2.38,0.868c0.7,0.411,1.26,0.978,1.68,1.694s0.63,1.619,0.63,2.701c0,1.604-0.374,2.912-1.12,3.92
	c-0.746,1.008-1.746,1.709-2.996,2.1l1.372,0.868l4.48,7.478H45.816z M59.173,93.452H56.43l-7.337-19.74h4.452l3.919,11.508
	l0.504,3.332h0.14l0.562-3.36l3.752-11.479h4.031L59.173,93.452z M66.167,63.427c-0.177-0.424-0.267-0.898-0.267-1.428
	c0-0.736,0.164-1.354,0.492-1.86c0.327-0.504,0.801-0.912,1.416-1.224s1.354-0.528,2.209-0.647c0.854-0.119,1.812-0.154,2.866-0.105
	c0.113-0.897,0.05-1.541-0.19-1.934c-0.239-0.394-0.774-0.59-1.606-0.59c-0.625,0-1.282,0.063-1.979,0.192
	c-0.693,0.128-1.269,0.296-1.715,0.504l-0.746-2.328c0.641-0.288,1.398-0.516,2.279-0.684s1.801-0.253,2.762-0.253
	c0.832,0,1.525,0.101,2.088,0.3c0.562,0.202,1.004,0.485,1.332,0.854c0.328,0.368,0.561,0.808,0.694,1.317
	c0.138,0.513,0.204,1.089,0.204,1.729c0,0.705-0.023,1.412-0.07,2.125c-0.05,0.711-0.076,1.412-0.084,2.101
	c-0.009,0.688,0.013,1.354,0.062,2.004c0.047,0.647,0.168,1.26,0.358,1.836h-2.545l-0.504-1.656h-0.018l-0.507-1.769
	c0.075-0.098,0.157-0.193,0.214-0.295v-1.562c-0.496-0.047-0.975-0.055-1.43-0.021c-0.457,0.031-0.859,0.104-1.213,0.217
	c-0.353,0.111-0.634,0.27-0.84,0.479c-0.207,0.207-0.312,0.473-0.312,0.791c0,0.448,0.133,0.797,0.396,1.045
	c0.267,0.248,0.631,0.371,1.094,0.371c0.623,0,1.119-0.141,1.486-0.42c0.239-0.181,0.424-0.375,0.581-0.574l0.499,1.739h-0.072
	c-0.319,0.496-0.766,0.925-1.332,1.283c-0.567,0.361-1.301,0.541-2.194,0.541c-0.562,0-1.064-0.084-1.517-0.253
	c-0.447-0.168-0.832-0.409-1.148-0.721C66.591,64.219,66.343,63.852,66.167,63.427z M79.639,93.311h-11.76v-19.6h11.62v3.416h-7.784
	v4.564h7.084v3.416h-7.084v4.787h7.924V93.311z M79.079,52.014c-0.595,0-1.058-0.187-1.394-0.562s-0.504-0.876-0.504-1.5
	c0-0.64,0.101-1.184,0.299-1.632c0.201-0.448,0.44-0.819,0.722-1.116c0.278-0.296,0.571-0.528,0.877-0.696
	c0.303-0.168,0.565-0.292,0.791-0.372l0.771,1.296c-0.319,0.128-0.594,0.332-0.815,0.612c-0.226,0.28-0.354,0.58-0.386,0.9
	c0.319,0,0.61,0.141,0.877,0.42c0.265,0.281,0.396,0.653,0.395,1.115c0,0.465-0.154,0.836-0.467,1.116
	C79.932,51.874,79.542,52.014,79.079,52.014z M80.473,64.568l0.862-2.326c0.368,0.207,0.856,0.412,1.465,0.611
	c0.607,0.197,1.23,0.299,1.871,0.299c0.464,0,0.836-0.086,1.116-0.266c0.279-0.177,0.42-0.471,0.42-0.887
	c0-0.321-0.137-0.577-0.407-0.771c-0.274-0.189-0.61-0.365-1.009-0.525c-0.398-0.159-0.84-0.324-1.318-0.492
	s-0.922-0.396-1.32-0.693c-0.399-0.298-0.735-0.674-1.008-1.13c-0.271-0.454-0.408-1.044-0.408-1.765
	c0-1.186,0.354-2.088,1.058-2.711c0.704-0.626,1.722-0.938,3.048-0.938c0.912,0,1.737,0.098,2.475,0.287
	c0.734,0.191,1.312,0.408,1.729,0.648l-0.695,2.256c-0.369-0.146-0.832-0.297-1.393-0.457c-0.561-0.159-1.128-0.239-1.704-0.239
	c-0.928,0-1.394,0.36-1.394,1.08c0,0.288,0.138,0.521,0.408,0.696c0.271,0.176,0.607,0.34,1.008,0.492
	c0.398,0.148,0.841,0.312,1.318,0.49c0.48,0.178,0.922,0.403,1.32,0.686c0.398,0.28,0.734,0.645,1.008,1.092
	c0.271,0.448,0.408,1.024,0.408,1.729c0,1.216-0.391,2.173-1.164,2.866c-0.775,0.694-1.939,1.043-3.493,1.045
	c-0.848,0-1.646-0.106-2.388-0.321C81.54,65.109,80.936,64.857,80.473,64.568z M92.798,93.312l-4.45-7.675l-1.974-0.354v-2.611
	h1.581c1.064,0,1.913-0.242,2.548-0.728c0.634-0.484,0.952-1.287,0.952-2.408c0-0.84-0.262-1.498-0.784-1.976
	c-0.522-0.477-1.288-0.714-2.296-0.714c-0.393,0-0.779,0.011-1.162,0.027c-0.383,0.021-0.677,0.056-0.882,0.112v5.685h0.015v2.606
	l-0.016-0.004v8.037h-3.836V73.908h0.001c0.429-0.075,0.892-0.146,1.386-0.211c0.494-0.065,0.989-0.116,1.484-0.154
	c0.494-0.037,0.974-0.064,1.441-0.084c0.467-0.018,0.895-0.027,1.285-0.027c0.915,0,1.815,0.084,2.702,0.252
	c0.89,0.168,1.683,0.457,2.38,0.868c0.701,0.411,1.264,0.978,1.684,1.694s0.629,1.619,0.629,2.701c0,1.604-0.373,2.912-1.119,3.92
	c-0.747,1.008-1.746,1.709-2.996,2.1l1.372,0.869l4.479,7.477H92.798z"/>
</svg>
