<?xml version="1.0" encoding="utf-8"?>
<!-- Generator: Adobe Illustrator 15.0.2, SVG Export Plug-In . SVG Version: 6.00 Build 0)  -->
<!DOCTYPE svg PUBLIC "-//W3C//DTD SVG 1.1//EN" "http://www.w3.org/Graphics/SVG/1.1/DTD/svg11.dtd">
<svg version="1.1" id="Ebene_1" xmlns="http://www.w3.org/2000/svg" xmlns:xlink="http://www.w3.org/1999/xlink" x="0px" y="0px"
	 width="120.5px" height="93.543px" viewBox="0 0 120.5 93.543" enable-background="new 0 0 120.5 93.543" xml:space="preserve">
<path fill="#0AC1EB" d="M0,33.307v60.236h120.49V33.307H0z M91.02,45.462c0.705-0.624,1.724-0.936,3.049-0.936
	c0.912,0,1.738,0.096,2.476,0.288s1.312,0.408,1.729,0.648l-0.695,2.256c-0.369-0.144-0.832-0.296-1.393-0.456
	c-0.562-0.16-1.129-0.24-1.705-0.24c-0.93,0-1.395,0.36-1.395,1.08c0,0.288,0.139,0.521,0.408,0.695
	c0.271,0.178,0.607,0.341,1.008,0.492c0.398,0.152,0.841,0.316,1.318,0.492c0.479,0.176,0.922,0.404,1.32,0.684
	c0.399,0.281,0.735,0.646,1.008,1.092c0.271,0.449,0.408,1.025,0.408,1.729c0,1.217-0.391,2.172-1.164,2.868
	c-0.774,0.693-1.938,1.044-3.492,1.044c-0.85,0-1.646-0.107-2.39-0.324c-0.743-0.216-1.349-0.468-1.812-0.756l0.861-2.328
	c0.369,0.209,0.854,0.412,1.465,0.612c0.605,0.199,1.229,0.3,1.871,0.3c0.465,0,0.836-0.088,1.117-0.265
	c0.277-0.179,0.42-0.475,0.42-0.892c0-0.317-0.139-0.577-0.408-0.768c-0.272-0.191-0.608-0.367-1.008-0.527
	c-0.4-0.16-0.841-0.324-1.318-0.492c-0.48-0.168-0.922-0.396-1.32-0.692c-0.398-0.297-0.734-0.672-1.008-1.129
	c-0.271-0.455-0.408-1.043-0.408-1.766C89.964,46.99,90.316,46.086,91.02,45.462z M86.709,39.869c0.2-0.448,0.441-0.819,0.721-1.116
	c0.279-0.296,0.571-0.528,0.877-0.696c0.303-0.168,0.566-0.292,0.791-0.372l0.771,1.296c-0.32,0.128-0.596,0.332-0.816,0.612
	c-0.224,0.28-0.353,0.58-0.384,0.9c0.317,0,0.608,0.141,0.876,0.42c0.266,0.28,0.396,0.652,0.396,1.116
	c0,0.464-0.154,0.836-0.467,1.116s-0.701,0.42-1.164,0.42c-0.595,0-1.06-0.188-1.396-0.564s-0.504-0.876-0.504-1.5
	C86.409,40.861,86.509,40.317,86.709,39.869z M75.621,51.688c0.327-0.504,0.8-0.912,1.416-1.225
	c0.615-0.311,1.354-0.527,2.208-0.646c0.854-0.117,1.812-0.153,2.868-0.105c0.113-0.896,0.048-1.54-0.192-1.932
	c-0.239-0.395-0.774-0.588-1.606-0.588c-0.625,0-1.281,0.064-1.979,0.192c-0.693,0.128-1.27,0.296-1.716,0.504l-0.745-2.329
	c0.641-0.288,1.398-0.516,2.28-0.684c0.879-0.168,1.8-0.252,2.76-0.252c0.832,0,1.526,0.101,2.088,0.3
	c0.562,0.2,1.004,0.484,1.332,0.852c0.328,0.368,0.562,0.808,0.696,1.32c0.136,0.516,0.203,1.088,0.203,1.729
	c0,0.704-0.023,1.409-0.071,2.124c-0.048,0.712-0.077,1.41-0.084,2.1c-0.009,0.688,0.012,1.355,0.062,2.004
	c0.047,0.648,0.168,1.264,0.358,1.836h-2.544L82.45,55.23h-0.091l-0.485-1.699c0.099-0.119,0.194-0.239,0.265-0.365v-1.561
	c-0.496-0.052-0.975-0.06-1.431-0.023c-0.456,0.031-0.858,0.104-1.212,0.215c-0.354,0.113-0.633,0.272-0.84,0.48
	c-0.208,0.208-0.312,0.473-0.312,0.792c0,0.448,0.133,0.796,0.396,1.044c0.265,0.248,0.631,0.372,1.095,0.372
	c0.624,0,1.12-0.144,1.488-0.421c0.211-0.16,0.381-0.33,0.528-0.504l0.479,1.67H82.33c-0.32,0.496-0.764,0.925-1.332,1.281
	c-0.568,0.359-1.299,0.539-2.195,0.539c-0.561,0-1.062-0.084-1.513-0.252s-0.832-0.404-1.151-0.719
	c-0.32-0.312-0.568-0.684-0.744-1.104c-0.178-0.427-0.266-0.9-0.266-1.432C75.129,52.812,75.293,52.193,75.621,51.688z
	 M70.378,52.781c-0.274-0.191-0.61-0.367-1.009-0.527c-0.4-0.16-0.84-0.324-1.319-0.492s-0.921-0.396-1.319-0.695
	c-0.398-0.297-0.734-0.672-1.008-1.129c-0.271-0.455-0.408-1.043-0.408-1.764c0-1.184,0.354-2.088,1.059-2.712
	s1.72-0.936,3.048-0.936c0.912,0,1.737,0.096,2.476,0.288c0.733,0.192,1.312,0.408,1.729,0.648l-0.696,2.256
	c-0.368-0.144-0.831-0.296-1.392-0.456c-0.561-0.16-1.129-0.24-1.704-0.24c-0.929,0-1.394,0.36-1.394,1.08
	c0,0.288,0.137,0.521,0.405,0.695c0.273,0.178,0.609,0.341,1.011,0.492c0.397,0.152,0.84,0.316,1.317,0.492s0.92,0.404,1.32,0.684
	c0.397,0.281,0.733,0.646,1.008,1.092c0.271,0.449,0.408,1.025,0.408,1.729c0,1.217-0.392,2.172-1.164,2.868
	c-0.776,0.693-1.94,1.044-3.492,1.044c-0.851,0-1.646-0.107-2.388-0.324c-0.744-0.216-1.352-0.468-1.812-0.756l0.863-2.328
	c0.368,0.209,0.854,0.412,1.465,0.612c0.605,0.199,1.229,0.3,1.871,0.3c0.464,0,0.836-0.088,1.115-0.265
	c0.277-0.178,0.42-0.474,0.42-0.891C70.785,53.23,70.648,52.972,70.378,52.781z M60.25,52.781c-0.271-0.192-0.607-0.367-1.008-0.527
	c-0.401-0.16-0.84-0.324-1.32-0.492c-0.479-0.168-0.92-0.396-1.32-0.695c-0.4-0.297-0.736-0.672-1.008-1.129
	c-0.271-0.455-0.408-1.043-0.408-1.764c0-1.184,0.352-2.088,1.056-2.712c0.704-0.624,1.72-0.936,3.048-0.936
	c0.912,0,1.735,0.096,2.472,0.288c0.737,0.192,1.312,0.408,1.729,0.648l-0.695,2.256c-0.37-0.144-0.833-0.296-1.394-0.456
	c-0.562-0.16-1.127-0.24-1.703-0.24c-0.929,0-1.392,0.36-1.392,1.08c0,0.288,0.135,0.521,0.408,0.695
	c0.271,0.178,0.607,0.341,1.008,0.492c0.399,0.152,0.84,0.316,1.32,0.492c0.479,0.176,0.919,0.404,1.318,0.684
	c0.397,0.281,0.736,0.646,1.009,1.092c0.272,0.449,0.407,1.025,0.407,1.729c0,1.217-0.387,2.172-1.163,2.868
	c-0.776,0.693-1.94,1.044-3.492,1.044c-0.849,0-1.644-0.107-2.388-0.324c-0.744-0.216-1.348-0.468-1.812-0.756l0.864-2.328
	c0.368,0.209,0.856,0.412,1.464,0.612c0.607,0.199,1.232,0.3,1.872,0.3c0.464,0,0.836-0.088,1.116-0.265
	c0.28-0.178,0.42-0.474,0.42-0.891C60.658,53.23,60.521,52.972,60.25,52.781z M37.258,40.062h3.12v12.767
	c0,0.561,0.072,0.968,0.216,1.224c0.146,0.258,0.376,0.385,0.696,0.385c0.192,0,0.38-0.016,0.564-0.049
	c0.184-0.031,0.412-0.104,0.684-0.215l0.336,2.447c-0.256,0.129-0.648,0.256-1.176,0.385c-0.528,0.127-1.072,0.191-1.632,0.191
	c-0.912,0-1.608-0.212-2.088-0.637c-0.48-0.426-0.72-1.123-0.72-2.103V40.062z M22.987,84.861h-4.384v-22.4h4.384V84.861z
	 M24.563,56.862h-3.288l6.048-16.92h1.137v4.175h-0.058l-0.504,2.664l-1.224,3.721h3.6l-1.248-3.745l-0.504-2.64h-0.034v-4.175
	h1.259l6.048,16.92h-3.456l-1.344-3.725h-5.16L24.563,56.862z M44.458,85.021h-3.2L32.842,73.18l-1.76-3.521h-0.16l0.512,3.521
	v11.683h-4.16V62.301h3.2l8.48,11.938l1.696,3.424h0.16l-0.512-3.424V62.461h4.16V85.021z M46.498,61.78
	c-0.832,0-1.496-0.138-1.992-0.408l0.576-2.496c0.241,0.096,0.48,0.146,0.72,0.146c0.368,0,0.724-0.154,1.068-0.47
	c0.344-0.311,0.604-0.875,0.78-1.688l-5.016-12h3.744l2.208,6.741l0.432,1.871h0.144l0.312-1.896l1.824-6.721h3.216l-3.648,10.823
	c-0.304,0.896-0.596,1.717-0.876,2.461c-0.28,0.74-0.588,1.388-0.924,1.932s-0.708,0.964-1.116,1.261
	C47.542,61.632,47.058,61.78,46.498,61.78z M63.338,81.548c-0.49,0.843-1.146,1.531-1.968,2.064c-0.822,0.534-1.755,0.928-2.8,1.184
	c-1.046,0.256-2.124,0.385-3.232,0.385c-0.363,0-0.827,0-1.392,0s-1.173-0.016-1.824-0.049c-0.651-0.032-1.312-0.081-1.984-0.144
	c-0.672-0.063-1.285-0.16-1.84-0.288V62.62c0.405-0.064,0.869-0.128,1.392-0.191c0.522-0.062,1.083-0.116,1.68-0.159
	c0.597-0.043,1.21-0.072,1.84-0.097c0.629-0.02,1.253-0.033,1.872-0.033c1.045,0,2.064,0.08,3.056,0.24
	c0.992,0.161,1.878,0.444,2.656,0.851c0.778,0.404,1.401,0.972,1.872,1.694c0.469,0.726,0.704,1.646,0.704,2.752
	c0,0.556-0.069,1.109-0.208,1.664c-0.016,0.063-0.045,0.119-0.062,0.181h-4.334c0.097-0.28,0.158-0.582,0.158-0.916
	c0-0.55-0.107-1.002-0.32-1.359c-0.213-0.359-0.496-0.645-0.848-0.855s-0.752-0.354-1.2-0.438c-0.448-0.085-0.917-0.127-1.408-0.127
	c-0.555,0-1.067,0.01-1.536,0.03c-0.469,0.021-0.832,0.055-1.088,0.096v5.921l1.408-0.002c0.299,0,0.645-0.011,1.04-0.031
	c0.396-0.022,0.72-0.053,0.976-0.096c0.811-0.252,1.509-0.634,2.096-1.14c0.341-0.297,0.571-0.65,0.713-1.053h4.334
	c-0.142,0.473-0.339,0.913-0.615,1.312c-0.319,0.459-0.735,0.861-1.248,1.216c-0.515,0.352-1.134,0.612-1.855,0.784v0.188
	c0.639,0.107,1.248,0.289,1.822,0.545c0.576,0.258,1.078,0.608,1.505,1.06c0.428,0.446,0.764,0.991,1.009,1.631
	c0.143,0.369,0.23,0.789,0.29,1.235h-4.552c-0.067-0.334-0.168-0.633-0.329-0.864c-0.278-0.401-0.64-0.712-1.089-0.937
	c-0.447-0.223-0.949-0.365-1.503-0.428c-0.555-0.062-1.109-0.096-1.664-0.096h-2.336v6.113c0.106,0.043,0.277,0.071,0.512,0.096
	c0.235,0.021,0.485,0.037,0.752,0.047c0.266,0.012,0.544,0.02,0.832,0.033c0.287,0.01,0.537,0.016,0.751,0.016
	c0.533,0,1.05-0.062,1.552-0.189c0.501-0.127,0.943-0.319,1.328-0.588c0.384-0.264,0.693-0.596,0.928-0.996
	c0.235-0.399,0.354-0.877,0.354-1.427c0-0.28-0.039-0.52-0.084-0.752H64c0.042,0.32,0.076,0.647,0.076,1.006
	C64.074,79.708,63.828,80.706,63.338,81.548z M71.4,76.781c0.054,0.266,0.134,0.496,0.203,0.74h-4.729
	c-0.243-1.188-0.369-2.473-0.369-3.86c0-1.515,0.144-2.88,0.412-4.111H71.6c-0.322,1.104-0.484,2.472-0.484,4.111
	C71.114,74.793,71.21,75.832,71.4,76.781z M76.011,85.311c-1.62,0-3.028-0.275-4.225-0.832c-1.195-0.556-2.183-1.346-2.959-2.365
	c-0.779-1.024-1.361-2.25-1.744-3.684c-0.077-0.285-0.142-0.582-0.202-0.88h4.73c0.179,0.618,0.389,1.194,0.671,1.679
	c0.395,0.684,0.899,1.218,1.521,1.602c0.618,0.384,1.354,0.576,2.208,0.576c1.558,0,2.763-0.608,3.615-1.823
	c0.854-1.217,1.281-3.188,1.28-5.921c0-1.088-0.092-2.102-0.272-3.04c-0.183-0.938-0.465-1.76-0.85-2.464
	c-0.386-0.704-0.886-1.252-1.504-1.647c-0.619-0.394-1.375-0.592-2.271-0.592c-1.557,0-2.763,0.623-3.614,1.871
	c-0.324,0.475-0.586,1.053-0.787,1.731h-4.683c0.396-1.793,1.073-3.293,2.045-4.483c1.642-2.017,3.989-3.023,7.04-3.023
	c1.6,0,2.996,0.277,4.191,0.832c1.195,0.557,2.188,1.345,2.977,2.367c0.789,1.025,1.377,2.252,1.76,3.683
	c0.388,1.43,0.576,3.02,0.576,4.77c0,3.73-0.826,6.605-2.479,8.624C81.381,84.302,79.04,85.311,76.011,85.311z M99.658,84.861
	l-3.938-6.912l-0.862-2.367l-0.832,2.367l-3.969,6.912h-4.77l6.882-11.395L85.93,62.46h5.279l3.456,6.465l0.769,2.271l0.735-2.271
	l3.615-6.465h4.771L98.09,73.245l6.783,11.616H99.658z"/>
</svg>
