<?xml version="1.0" encoding="utf-8"?>
<!-- Generator: Adobe Illustrator 15.0.2, SVG Export Plug-In . SVG Version: 6.00 Build 0)  -->
<!DOCTYPE svg PUBLIC "-//W3C//DTD SVG 1.1//EN" "http://www.w3.org/Graphics/SVG/1.1/DTD/svg11.dtd">
<svg version="1.1" id="Ebene_1" xmlns="http://www.w3.org/2000/svg" xmlns:xlink="http://www.w3.org/1999/xlink" x="0px" y="0px"
	 width="120.5px" height="93.543px" viewBox="0 0 120.5 93.543" enable-background="new 0 0 120.5 93.543" xml:space="preserve">
<g transform="scale(0.03125 0.03125)">
	<path fill="#04475F" d="M0.172,1153.891h3807.109v1674.453H0.172V1153.891z"/>
	<path fill="#0AC1EB" d="M0.172,1065.859v1927.516h3855.641V1065.859H0.172z M2912.781,1454.797
		c22.562-19.922,55.156-29.922,97.562-29.922c29.219,0,55.625,3.078,79.219,9.188c23.594,6.156,42,13.047,55.344,20.734
		l-22.25,72.203c-11.844-4.625-26.625-9.438-44.594-14.547c-18-5.141-36.125-7.688-54.562-7.688
		c-29.688,0-44.562,11.484-44.562,34.516c0,9.25,4.375,16.656,13.062,22.25c8.656,5.719,19.438,10.906,32.25,15.781
		c12.719,4.812,26.875,10.062,42.188,15.688c15.312,5.656,29.438,13,42.25,21.938c12.75,8.938,23.5,20.625,32.25,34.938
		c8.688,14.375,13.062,32.781,13.062,55.312c0,38.938-12.5,69.5-37.281,91.812c-24.781,22.188-62.031,33.375-111.719,33.375
		c-27.219,0-52.688-3.406-76.5-10.375c-23.75-6.938-43.188-15-57.969-24.188l27.531-74.5c11.812,6.688,27.375,13.188,46.875,19.594
		c19.438,6.406,39.312,9.594,59.875,9.594c14.875,0,26.75-2.812,35.75-8.5c8.938-5.688,13.438-15.188,13.438-28.5
		c0-10.125-4.438-18.469-13.062-24.562c-8.688-6.125-19.438-11.75-32.25-16.875c-12.781-5.125-26.844-10.375-42.125-15.75
		c-15.438-5.375-29.531-12.688-42.25-22.188c-12.75-9.5-23.5-21.5-32.25-36.125c-8.688-14.531-13.062-33.375-13.062-56.469
		C2879.031,1503.703,2890.25,1474.797,2912.781,1454.797L2912.781,1454.797z M2774.844,1275.844
		c6.406-14.344,14.094-26.219,23.062-35.719c8.969-9.469,18.281-16.922,28.094-22.297c9.688-5.344,18.062-9.312,25.312-11.875
		l24.656,41.469c-10.219,4.125-19.031,10.609-26.125,19.547c-7.156,9.016-11.281,18.594-12.281,28.828
		c10.188,0,19.5,4.531,28.031,13.469c8.5,8.969,12.656,20.844,12.656,35.719c0,14.812-4.938,26.734-14.938,35.719
		c-9.938,8.953-22.438,13.438-37.219,13.438c-19,0-33.906-6.031-44.656-18.094c-10.75-12.016-16.125-28.031-16.125-47.953
		C2765.25,1307.578,2768.438,1290.172,2774.844,1275.844L2774.844,1275.844z M2420.062,1654.031
		c10.438-16.094,25.562-29.156,45.281-39.188c19.688-9.969,43.344-16.875,70.656-20.656s57.969-4.938,91.75-3.375
		c3.625-28.688,1.562-49.312-6.094-61.844c-7.688-12.594-24.781-18.812-51.438-18.812c-19.969,0-41.031,2.062-63.312,6.094
		c-22.188,4.125-40.656,9.5-54.906,16.188l-23.812-74.531c20.5-9.234,44.688-16.547,72.938-21.938
		c28.125-5.344,57.562-8.016,88.312-8.016c26.625,0,48.844,3.219,66.812,9.578c18,6.391,32.125,15.516,42.625,27.25
		c10.5,11.781,18,25.859,22.25,42.25c4.375,16.531,6.531,34.844,6.531,55.312c0,22.531-0.719,45.156-2.281,68.031
		c-1.562,22.75-2.469,45.125-2.688,67.125c-0.281,22,0.375,43.406,2,64.125c1.469,20.75,5.344,40.5,11.438,58.812h-81.406
		l-16.156-53.062h-2.875l-15.562-54.344c3.188-3.844,6.25-7.656,8.469-11.688v-49.969c-15.844-1.625-31.219-1.875-45.781-0.719
		c-14.625,1-27.438,3.344-38.75,6.844c-11.344,3.656-20.312,8.75-26.938,15.375s-9.938,15.125-9.938,25.375
		c0,14.312,4.25,25.5,12.656,33.375c8.469,7.938,20.188,11.938,35.031,11.938c20,0,35.875-4.562,47.625-13.469
		c6.75-5.156,12.188-10.594,16.906-16.156l15.344,53.438h-0.062c-10.188,15.938-24.438,29.625-42.594,41.062
		c-18.156,11.5-41.562,17.25-70.25,17.25c-17.969,0-33.969-2.75-48.406-8.094s-26.625-12.938-36.812-23.031
		c-10.25-10-18.188-21.875-23.812-35.312c-5.688-13.594-8.531-28.781-8.531-45.812
		C2404.281,1690,2409.531,1670.188,2420.062,1654.031L2420.062,1654.031z M2252.281,1689c-8.781-6.125-19.562-11.75-32.281-16.844
		c-12.812-5.094-26.938-10.344-42.219-15.75c-15.344-5.406-29.531-12.719-42.219-22.219c-12.781-9.5-23.5-21.562-32.25-36.188
		c-8.688-14.5-13.062-33.312-13.062-56.438c0-37.859,11.344-66.766,33.875-86.766c22.5-19.922,55-29.922,97.5-29.922
		c29.188,0,55.594,3.078,79.188,9.188c23.5,6.156,42,13.047,55.375,20.734L2333.875,1527c-11.75-4.625-26.625-9.438-44.5-14.547
		c-17.969-5.141-36.125-7.688-54.562-7.688c-29.719,0-44.625,11.484-44.625,34.516c0,9.25,4.375,16.656,13.031,22.25
		c8.719,5.719,19.469,10.906,32.281,15.781c12.75,4.812,26.906,10.062,42.219,15.688c15.281,5.656,29.406,13,42.219,21.938
		c12.719,8.938,23.5,20.625,32.25,34.938c8.656,14.375,13.062,32.781,13.062,55.312c0,38.938-12.531,69.5-37.25,91.812
		c-24.844,22.188-62.062,33.375-111.75,33.375c-27.188,0-52.688-3.406-76.375-10.375c-23.844-6.938-43.25-15-58-24.188l27.625-74.5
		c11.75,6.688,27.312,13.188,46.875,19.594c19.375,6.406,39.312,9.594,59.875,9.594c14.812,0,26.75-2.812,35.656-8.5
		s13.406-15.125,13.406-28.469C2265.281,1703.406,2260.906,1695.125,2252.281,1689L2252.281,1689z M1928.172,1689
		c-8.688-6.125-19.422-11.75-32.25-16.844c-12.844-5.094-26.906-10.344-42.25-15.75s-29.422-12.719-42.25-22.219
		c-12.797-9.5-23.531-21.562-32.25-36.188c-8.688-14.5-13.062-33.312-13.062-56.438c0-37.859,11.281-66.766,33.797-86.766
		c22.516-19.922,55.047-29.922,97.516-29.922c29.234,0,55.547,3.078,79.109,9.188c23.594,6.156,42.031,13.047,55.344,20.734
		l-22.25,72.203c-11.812-4.625-26.656-9.438-44.625-14.547c-17.969-5.141-36.016-7.688-54.469-7.688
		c-29.734,0-44.531,11.484-44.531,34.516c0,9.25,4.297,16.656,13.062,22.25c8.672,5.719,19.406,10.906,32.25,15.781
		c12.734,4.812,26.859,10.062,42.25,15.688c15.312,5.656,29.375,13,42.156,21.938c12.719,8.938,23.562,20.625,32.281,34.938
		c8.75,14.375,13.031,32.781,13.031,55.312c0,38.938-12.406,69.5-37.219,91.812c-24.812,22.188-62.078,33.375-111.734,33.375
		c-27.172,0-52.625-3.406-76.406-10.375c-23.844-6.938-43.172-15-58.016-24.188l27.672-74.5
		c11.75,6.688,27.359,13.188,46.828,19.594c19.406,6.406,39.422,9.594,59.922,9.594c14.844,0,26.719-2.812,35.719-8.5
		c8.953-5.688,13.422-15.125,13.422-28.469C1941.219,1703.406,1936.844,1695.125,1928.172,1689L1928.172,1689z M1192.422,1282.062
		h99.844v408.5c0,17.938,2.297,30.969,6.906,39.188c4.656,8.219,12.062,12.312,22.297,12.312c6.109,0,12.141-0.5,18.031-1.562
		c5.891-1,13.203-3.375,21.875-6.906l10.781,78.281c-8.219,4.156-20.781,8.25-37.641,12.344c-16.891,4.094-34.344,6.094-52.25,6.094
		c-29.188,0-51.422-6.75-66.812-20.375c-15.344-13.562-23.031-35.938-23.031-67.25V1282.062z M735.766,2715.594H595.453v-716.812
		h140.312V2715.594z M786.188,1819.656H680.953l193.531-541.453h36.406v133.562h-1.875L892.891,1497l-39.141,119.125h115.188
		l-39.922-119.859l-16.156-84.5h-1.062v-133.609h40.281l193.531,541.5h-110.578L992,1700.438H826.891L786.188,1819.656z
		 M1422.812,2720.75h-102.406l-269.297-378.938l-56.312-112.688h-5.125l16.406,112.688v373.781H872.938v-721.906h102.391
		l271.359,382l54.266,109.562h5.109l-16.344-109.562v-376.906h133.094V2720.75z M1488.078,1977
		c-26.578,0-47.859-4.438-63.703-13.062l18.391-79.875c7.734,3.094,15.406,4.625,23.078,4.625c11.734,0,23.156-4.938,34.156-14.938
		c11.016-10,19.328-28.062,24.984-54.062l-160.547-383.984h119.812l70.656,215.734l13.844,59.875h4.609l9.953-60.656l58.375-215.094
		h102.906l-116.703,346.375c-9.719,28.625-19.094,54.875-28.047,78.75c-8.953,23.688-18.812,44.375-29.547,61.781
		c-10.781,17.406-22.656,30.844-35.719,40.344C1521.516,1972.281,1506.031,1977,1488.078,1977z M2026.938,2609.562
		c-15.625,27-36.625,49-62.938,66.031c-26.297,17.094-56.156,29.688-89.594,37.906c-33.484,8.188-67.969,12.344-103.406,12.344
		c-11.656,0-26.5,0-44.578,0c-18.047,0-37.5-0.531-58.328-1.562c-20.875-1.031-41.984-2.656-63.484-4.656
		c-21.531-2-41.156-5.125-58.891-9.25v-706.5c12.938-2.062,27.781-4.094,44.547-6.094c16.656-2,34.656-3.75,53.75-5.125
		s38.734-2.344,58.875-3.094c20.141-0.625,40.109-1.062,59.891-1.062c33.422,0,66.047,2.562,97.781,7.719
		c31.75,5.125,60.109,14.156,85,27.219c24.875,12.875,44.875,31.062,59.938,54.188c14.969,23.25,22.5,52.656,22.5,88.062
		c0,17.812-2.188,35.531-6.656,53.25c-0.5,2-1.406,3.812-1.969,5.812h-138.703c3.094-9,5.016-18.594,5.016-29.281
		c0-17.656-3.422-32.062-10.234-43.594c-6.812-11.438-15.844-20.594-27.125-27.312c-11.281-6.75-24.078-11.312-38.422-14.062
		s-29.328-4.062-45.031-4.062c-17.766,0-34.172,0.312-49.141,0.938c-15.031,0.656-26.641,1.75-34.812,3.094v189.469l45.031-0.062
		c9.594,0,20.656-0.375,33.297-1c12.656-0.688,23.031-1.688,31.203-3.062c25.984-8.094,48.328-20.312,67.094-36.5
		c10.922-9.438,18.266-20.812,22.797-33.625h138.719c-4.562,15.062-10.875,29.188-19.688,41.938
		c-10.25,14.688-23.562,27.594-39.938,38.938c-16.484,11.25-36.297,19.625-59.406,25.094v6.031
		c20.453,3.375,39.953,9.219,58.344,17.406c18.438,8.281,34.5,19.469,48.125,33.906c13.688,14.281,24.438,31.719,32.312,52.188
		c4.5,11.812,7.312,25.25,9.25,39.562h-145.656c-2.141-10.688-5.344-20.281-10.516-27.688c-8.906-12.875-20.5-22.781-34.844-29.938
		c-14.344-7.125-30.375-11.688-48.094-13.719c-17.766-2.031-35.5-3.062-53.266-3.062h-74.766v195.625
		c3.375,1.375,8.859,2.281,16.406,3.062c7.531,0.688,15.531,1.219,24.062,1.531c8.5,0.312,17.406,0.625,26.625,1
		c9.188,0.312,17.172,0.5,24.031,0.5c17.031,0,33.578-1.969,49.656-6c16.016-4.125,30.188-10.25,42.469-18.812
		c12.328-8.438,22.203-19.094,29.734-31.875c7.484-12.812,11.328-28.062,11.328-45.688c0-8.938-1.281-16.625-2.688-24.031h145.609
		c1.344,10.219,2.469,20.656,2.469,32.156C2050.531,2550.75,2042.688,2582.594,2026.938,2609.562z M2284.969,2457
		c1.719,8.562,4.25,15.906,6.5,23.688h-151.344c-7.75-38-11.812-79.125-11.812-123.531c0-48.406,4.562-92.156,13.188-131.531
		h149.875c-10.312,35.344-15.531,79.062-15.531,131.531C2275.812,2393.438,2278.906,2426.656,2284.969,2457z M2432.5,2729.938
		c-51.812,0-96.875-8.75-135.188-26.562c-38.25-17.812-69.844-43.062-94.688-75.75c-24.938-32.75-43.562-71.969-55.812-117.812
		c-2.469-9.156-4.5-18.625-6.438-28.156h151.312c5.75,19.719,12.469,38.188,21.5,53.719c12.625,21.844,28.75,38.938,48.656,51.25
		c19.781,12.25,43.344,18.406,70.656,18.406c49.875,0,88.438-19.469,115.688-58.344c27.312-38.938,41-102.031,41-189.438
		c0-34.844-3-67.25-8.75-97.312c-5.812-30.031-14.875-56.344-27.219-78.812c-12.344-22.562-28.312-40.094-48.094-52.688
		c-19.812-12.625-44-19-72.656-19c-49.844,0-88.438,19.969-115.656,59.906c-10.375,15.156-18.812,33.688-25.219,55.406h-149.812
		c12.656-57.375,34.281-105.375,65.406-143.5c52.562-64.5,127.688-96.75,225.281-96.75c51.219,0,95.906,8.875,134.156,26.625
		c38.219,17.812,70,43,95.219,75.75c25.25,32.812,44.094,72.062,56.312,117.812c12.375,45.75,18.469,96.625,18.469,152.656
		c0,119.406-26.438,211.375-79.375,275.969c-52.906,64.375-127.812,96.688-224.75,96.688V2729.938z M3189.188,2715.594l-126-221.188
		l-27.594-75.781l-26.625,75.781L2882,2715.594h-152.625L2949.562,2351l-199.656-352.219h168.969l110.562,206.844l24.625,72.688
		l23.5-72.688l115.688-206.844h152.625l-206.812,345.125l217.062,371.688H3189.188z"/>
</g>
</svg>
