<?xml version="1.0" encoding="utf-8"?>
<!-- Generator: Adobe Illustrator 15.0.2, SVG Export Plug-In . SVG Version: 6.00 Build 0)  -->
<!DOCTYPE svg PUBLIC "-//W3C//DTD SVG 1.1//EN" "http://www.w3.org/Graphics/SVG/1.1/DTD/svg11.dtd">
<svg version="1.1" id="Ebene_1" xmlns="http://www.w3.org/2000/svg" xmlns:xlink="http://www.w3.org/1999/xlink" x="0px" y="0px"
	 width="120.5px" height="93.543px" viewBox="0 0 120.5 93.543" enable-background="new 0 0 120.5 93.543" xml:space="preserve">
<path fill="#0AC1EB" d="M0,33.307v60.236h120.49V33.307H0z M91.02,45.462c0.705-0.624,1.724-0.936,3.049-0.936
	c0.912,0,1.738,0.096,2.476,0.288s1.312,0.408,1.729,0.648l-0.695,2.256c-0.369-0.144-0.832-0.296-1.393-0.456
	c-0.562-0.16-1.129-0.24-1.705-0.24c-0.93,0-1.395,0.36-1.395,1.08c0,0.288,0.139,0.521,0.408,0.695
	c0.271,0.178,0.607,0.341,1.008,0.492c0.398,0.152,0.841,0.316,1.318,0.492c0.479,0.176,0.922,0.404,1.32,0.684
	c0.399,0.281,0.735,0.646,1.008,1.092c0.271,0.449,0.408,1.025,0.408,1.729c0,1.217-0.391,2.172-1.164,2.868
	c-0.774,0.693-1.938,1.044-3.492,1.044c-0.85,0-1.646-0.107-2.39-0.324c-0.743-0.216-1.349-0.468-1.812-0.756l0.861-2.328
	c0.369,0.209,0.854,0.412,1.465,0.612c0.605,0.199,1.229,0.3,1.871,0.3c0.465,0,0.836-0.088,1.117-0.265
	c0.277-0.179,0.42-0.475,0.42-0.892c0-0.317-0.139-0.577-0.408-0.768c-0.272-0.191-0.608-0.367-1.008-0.527
	c-0.4-0.16-0.841-0.324-1.318-0.492c-0.48-0.168-0.922-0.396-1.32-0.692c-0.398-0.297-0.734-0.672-1.008-1.129
	c-0.271-0.455-0.408-1.043-0.408-1.766C89.964,46.99,90.316,46.086,91.02,45.462z M86.709,39.869c0.2-0.448,0.441-0.819,0.721-1.116
	c0.279-0.296,0.571-0.528,0.877-0.696c0.303-0.168,0.566-0.292,0.791-0.372l0.771,1.296c-0.32,0.128-0.596,0.332-0.816,0.612
	c-0.224,0.28-0.353,0.58-0.384,0.9c0.317,0,0.608,0.141,0.876,0.42c0.266,0.28,0.396,0.652,0.396,1.116
	c0,0.464-0.154,0.836-0.467,1.116s-0.701,0.42-1.164,0.42c-0.595,0-1.06-0.188-1.396-0.564s-0.504-0.876-0.504-1.5
	C86.409,40.861,86.509,40.317,86.709,39.869z M70.378,52.781c-0.274-0.191-0.61-0.367-1.009-0.527c-0.4-0.16-0.84-0.324-1.319-0.492
	s-0.921-0.396-1.319-0.695c-0.398-0.297-0.734-0.672-1.008-1.129c-0.271-0.455-0.408-1.043-0.408-1.764
	c0-1.184,0.354-2.088,1.059-2.712s1.72-0.936,3.048-0.936c0.912,0,1.737,0.096,2.476,0.288c0.733,0.192,1.312,0.408,1.729,0.648
	l-0.696,2.256c-0.368-0.144-0.831-0.296-1.392-0.456c-0.561-0.16-1.129-0.24-1.704-0.24c-0.929,0-1.394,0.36-1.394,1.08
	c0,0.288,0.137,0.521,0.405,0.695c0.273,0.178,0.609,0.341,1.011,0.492c0.397,0.152,0.84,0.316,1.317,0.492s0.92,0.404,1.32,0.684
	c0.397,0.281,0.733,0.646,1.008,1.092c0.271,0.449,0.408,1.025,0.408,1.729c0,1.217-0.392,2.172-1.164,2.868
	c-0.776,0.693-1.94,1.044-3.492,1.044c-0.851,0-1.646-0.107-2.388-0.324c-0.744-0.216-1.352-0.468-1.812-0.756l0.863-2.328
	c0.368,0.209,0.854,0.412,1.465,0.612c0.605,0.199,1.229,0.3,1.871,0.3c0.464,0,0.836-0.088,1.115-0.265
	c0.277-0.178,0.42-0.474,0.42-0.891C70.785,53.23,70.648,52.972,70.378,52.781z M46.378,44.862l2.208,6.743l0.432,1.871h0.144
	l0.312-1.896l1.824-6.721h3.216l-3.648,10.823c-0.304,0.896-0.596,1.717-0.876,2.461c-0.28,0.742-0.588,1.39-0.924,1.934
	s-0.708,0.964-1.116,1.261c-0.408,0.295-0.892,0.443-1.452,0.443c-0.832,0-1.496-0.14-1.992-0.408l0.576-2.496
	c0.241,0.096,0.48,0.146,0.72,0.146c0.368,0,0.724-0.155,1.068-0.471c0.344-0.312,0.604-0.875,0.78-1.688l-5.016-12L46.378,44.862
	L46.378,44.862z M19.21,82.287c-1.654,2.015-3.995,3.023-7.024,3.023c-1.622,0-3.03-0.277-4.224-0.832
	c-1.195-0.558-2.182-1.348-2.96-2.367c-0.779-1.024-1.36-2.25-1.744-3.684C2.874,77,2.682,75.41,2.682,73.661
	c0-3.733,0.821-6.608,2.464-8.624c1.642-2.016,3.989-3.023,7.04-3.023c1.6,0,2.997,0.277,4.192,0.832
	c1.194,0.557,2.187,1.344,2.976,2.367c0.789,1.024,1.376,2.252,1.76,3.682c0.369,1.373,0.555,2.897,0.57,4.564h-4.61
	c-0.011-1.009-0.094-1.959-0.263-2.838c-0.182-0.938-0.464-1.76-0.848-2.464c-0.384-0.704-0.886-1.252-1.504-1.647
	c-0.619-0.395-1.376-0.592-2.272-0.592c-1.558,0-2.763,0.623-3.616,1.871c-0.854,1.248-1.28,3.205-1.28,5.872
	c0,1.132,0.096,2.171,0.288,3.12s0.485,1.765,0.88,2.447c0.395,0.684,0.901,1.217,1.52,1.601c0.618,0.384,1.354,0.576,2.208,0.576
	c1.557,0,2.762-0.608,3.616-1.823c0.854-1.217,1.28-3.189,1.28-5.921c0-0.06-0.007-0.114-0.007-0.174h4.609
	c0,0.06,0.005,0.116,0.005,0.177C21.69,77.395,20.863,80.27,19.21,82.287z M21.275,56.863l6.048-16.92h1.137v4.174h-0.058
	l-0.504,2.664l-1.224,3.721h3.6l-1.248-3.745l-0.504-2.64h-0.059v-4.174h1.284l6.048,16.92h-3.456l-1.344-3.725h-5.16l-1.272,3.725
	H21.275z M41.146,76.926c0,1.451-0.192,2.699-0.576,3.744c-0.384,1.045-0.917,1.908-1.6,2.592c-0.683,0.687-1.515,1.188-2.496,1.504
	c-0.981,0.32-2.059,0.479-3.232,0.479c-5.675,0-8.512-2.591-8.512-7.776V62.461h4.384v14.143c0,0.875,0.08,1.616,0.24,2.228
	c0.16,0.606,0.41,1.099,0.752,1.472c0.342,0.374,0.768,0.645,1.28,0.805c0.512,0.156,1.109,0.236,1.792,0.236
	c1.344,0,2.314-0.373,2.912-1.121c0.597-0.742,0.896-1.947,0.896-3.611v-14.15h4.16V76.926z M41.698,57.007
	c-0.528,0.127-1.072,0.191-1.632,0.191c-0.912,0-1.608-0.213-2.088-0.638c-0.48-0.426-0.72-1.123-0.72-2.103V40.062h3.12v12.767
	c0,0.561,0.072,0.968,0.216,1.224c0.144,0.258,0.376,0.385,0.696,0.385c0.192,0,0.38-0.016,0.564-0.049
	c0.184-0.031,0.412-0.104,0.684-0.214l0.336,2.447C42.618,56.751,42.226,56.878,41.698,57.007z M60.795,66.365h-6.529v18.496h-4.384
	V66.365h-6.56v-3.904h17.473V66.365z M59.122,57.199c-0.849,0-1.644-0.107-2.388-0.324c-0.744-0.216-1.348-0.468-1.812-0.756
	l0.864-2.328c0.368,0.209,0.856,0.412,1.464,0.612c0.607,0.198,1.232,0.3,1.872,0.3c0.464,0,0.836-0.088,1.116-0.266
	c0.28-0.178,0.42-0.474,0.42-0.891c0-0.316-0.137-0.577-0.408-0.768c-0.271-0.192-0.607-0.367-1.008-0.527
	c-0.401-0.16-0.84-0.324-1.32-0.492c-0.479-0.168-0.92-0.396-1.32-0.693s-0.736-0.672-1.008-1.129
	c-0.271-0.455-0.408-1.043-0.408-1.766c0-1.184,0.352-2.088,1.056-2.712c0.704-0.624,1.72-0.936,3.048-0.936
	c0.912,0,1.735,0.096,2.472,0.288c0.737,0.192,1.312,0.408,1.729,0.648l-0.695,2.256c-0.37-0.144-0.833-0.296-1.394-0.456
	c-0.562-0.16-1.127-0.24-1.703-0.24c-0.929,0-1.392,0.36-1.392,1.082c0,0.286,0.135,0.521,0.408,0.693
	c0.271,0.178,0.607,0.341,1.008,0.492c0.399,0.15,0.84,0.314,1.32,0.492c0.479,0.176,0.919,0.402,1.318,0.684
	c0.397,0.281,0.736,0.646,1.009,1.092c0.272,0.449,0.407,1.025,0.407,1.73c0,1.217-0.387,2.172-1.163,2.868
	S60.674,57.199,59.122,57.199z M67.295,65.949c-0.001,0-0.002,0-0.003,0H67.29v5.921h0.005v3.327h-0.006v6.113
	c0.002,0,0.004,0,0.006,0.002v3.834c-0.136-0.004-0.266-0.009-0.404-0.016c-0.65-0.031-1.312-0.081-1.982-0.144
	c-0.674-0.064-1.285-0.16-1.842-0.288V62.62c0.403-0.064,0.869-0.128,1.394-0.191c0.521-0.062,1.083-0.116,1.683-0.159
	c0.373-0.026,0.767-0.041,1.153-0.061L67.295,65.949L67.295,65.949z M78.105,81.548c-0.489,0.843-1.146,1.531-1.967,2.064
	c-0.822,0.534-1.76,0.928-2.804,1.184s-2.123,0.385-3.229,0.385c-0.362,0-0.828,0-1.395,0c-0.436,0-0.902-0.013-1.389-0.032V81.32
	c0.107,0.037,0.263,0.064,0.478,0.087c0.236,0.021,0.485,0.037,0.755,0.047c0.266,0.012,0.543,0.02,0.83,0.033
	c0.287,0.01,0.537,0.016,0.754,0.016c0.53,0,1.051-0.062,1.551-0.188c0.502-0.127,0.942-0.32,1.328-0.588
	c0.385-0.265,0.692-0.597,0.928-0.996c0.236-0.4,0.354-0.877,0.354-1.428c0-0.695-0.139-1.244-0.416-1.646s-0.641-0.712-1.089-0.937
	c-0.446-0.223-0.949-0.365-1.504-0.428c-0.558-0.062-1.108-0.096-1.664-0.096h-2.303V71.87l1.372-0.002
	c0.3,0,0.646-0.011,1.041-0.031c0.396-0.022,0.721-0.053,0.977-0.096c0.812-0.252,1.51-0.634,2.098-1.14
	c0.586-0.511,0.879-1.175,0.879-1.996c0-0.551-0.104-1.002-0.316-1.36c-0.214-0.359-0.496-0.644-0.852-0.855
	c-0.352-0.211-0.752-0.354-1.196-0.438c-0.448-0.085-0.918-0.127-1.408-0.127c-0.558,0-1.063,0.01-1.536,0.029
	c-0.454,0.021-0.803,0.054-1.057,0.093v-3.738c0.221-0.01,0.432-0.024,0.656-0.034c0.629-0.02,1.252-0.033,1.871-0.033
	c1.045,0,2.064,0.08,3.06,0.24c0.989,0.161,1.877,0.444,2.653,0.852c0.776,0.402,1.401,0.971,1.871,1.693
	c0.467,0.727,0.703,1.646,0.703,2.752c0,0.557-0.07,1.109-0.209,1.664c-0.139,0.557-0.367,1.062-0.688,1.521
	c-0.321,0.459-0.736,0.861-1.248,1.216c-0.512,0.352-1.13,0.612-1.855,0.784v0.188c0.639,0.107,1.248,0.289,1.823,0.545
	c0.576,0.258,1.077,0.608,1.504,1.06c0.427,0.448,0.763,0.991,1.009,1.631c0.243,0.641,0.366,1.397,0.366,2.271
	C78.841,79.708,78.598,80.706,78.105,81.548z M78.802,57.051c-0.561,0-1.062-0.084-1.513-0.252s-0.832-0.406-1.15-0.719
	c-0.32-0.312-0.568-0.682-0.744-1.104c-0.178-0.428-0.266-0.901-0.266-1.433c0-0.731,0.164-1.354,0.492-1.856
	c0.327-0.504,0.8-0.912,1.416-1.228c0.615-0.312,1.354-0.524,2.208-0.646c0.854-0.119,1.812-0.155,2.868-0.107
	c0.113-0.896,0.048-1.54-0.192-1.934c-0.239-0.393-0.774-0.586-1.606-0.586c-0.625,0-1.281,0.064-1.979,0.192
	c-0.693,0.128-1.27,0.296-1.716,0.504l-0.745-2.329c0.641-0.288,1.398-0.516,2.279-0.684c0.88-0.168,1.801-0.252,2.761-0.252
	c0.832,0,1.526,0.101,2.088,0.3c0.562,0.2,1.004,0.484,1.332,0.852s0.562,0.808,0.696,1.32c0.136,0.514,0.203,1.088,0.203,1.729
	c0,0.702-0.023,1.409-0.071,2.124c-0.048,0.712-0.077,1.41-0.084,2.1c-0.009,0.688,0.012,1.355,0.062,2.004
	c0.047,0.648,0.168,1.264,0.358,1.836h-2.544L82.45,55.23H82.4l-0.498-1.739c0.086-0.107,0.175-0.214,0.236-0.325v-1.561
	c-0.496-0.052-0.975-0.06-1.431-0.023c-0.456,0.031-0.858,0.104-1.212,0.215c-0.354,0.113-0.633,0.272-0.84,0.48
	c-0.208,0.208-0.312,0.473-0.312,0.792c0,0.448,0.133,0.796,0.396,1.044c0.262,0.248,0.629,0.372,1.093,0.372
	c0.624,0,1.12-0.143,1.489-0.421c0.227-0.174,0.404-0.356,0.559-0.545l0.491,1.711H82.33c-0.32,0.496-0.766,0.923-1.333,1.279
	C80.43,56.871,79.698,57.051,78.802,57.051z M90.777,85.311c-1.62,0-3.029-0.275-4.223-0.832c-1.195-0.556-2.186-1.346-2.964-2.365
	c-0.776-1.024-1.356-2.25-1.741-3.684c-0.387-1.43-0.576-3.02-0.576-4.769c0-3.733,0.817-6.608,2.465-8.624
	c1.642-2.016,3.988-3.023,7.039-3.023c1.599,0,2.996,0.277,4.188,0.832c1.195,0.557,2.188,1.344,2.979,2.367
	c0.789,1.025,1.377,2.252,1.76,3.682c0.369,1.373,0.556,2.896,0.568,4.564h-4.608c-0.011-1.009-0.095-1.959-0.263-2.838
	c-0.184-0.938-0.465-1.76-0.848-2.464c-0.387-0.704-0.889-1.252-1.507-1.647c-0.616-0.395-1.376-0.592-2.271-0.592
	c-1.557,0-2.762,0.623-3.613,1.871c-0.854,1.248-1.281,3.205-1.281,5.872c0,1.132,0.098,2.171,0.288,3.12s0.484,1.765,0.88,2.447
	c0.396,0.684,0.902,1.217,1.521,1.601c0.617,0.384,1.354,0.576,2.207,0.576c1.558,0,2.764-0.608,3.617-1.823
	c0.853-1.217,1.277-3.189,1.276-5.921c0-0.06-0.007-0.114-0.008-0.174h4.608c0,0.06,0.006,0.116,0.006,0.177
	c0,3.73-0.826,6.605-2.479,8.624C96.148,84.302,93.807,85.311,90.777,85.311z M114.426,84.86L114.426,84.86l-3.936-6.911
	l-0.864-2.367l-0.832,2.367l-3.968,6.912h-4.77l6.881-11.395l-6.239-11.008h5.28l3.455,6.465l0.769,2.271l0.735-2.271l3.617-6.465
	h4.769l-6.466,10.784l6.785,11.616L114.426,84.86L114.426,84.86z"/>
</svg>
