<?xml version="1.0" encoding="utf-8"?>
<!-- Generator: Adobe Illustrator 15.0.2, SVG Export Plug-In . SVG Version: 6.00 Build 0)  -->
<!DOCTYPE svg PUBLIC "-//W3C//DTD SVG 1.1//EN" "http://www.w3.org/Graphics/SVG/1.1/DTD/svg11.dtd">
<svg version="1.1" id="Ebene_1" xmlns="http://www.w3.org/2000/svg" xmlns:xlink="http://www.w3.org/1999/xlink" x="0px" y="0px"
	 width="102.047px" height="102.047px" viewBox="0 0 102.047 102.047" enable-background="new 0 0 102.047 102.047"
	 xml:space="preserve">
<path fill="#555555" d="M98.236,46.37L55.156,3.294c-2.479-2.48-6.502-2.48-8.984,0l-8.945,8.946l11.347,11.347
	c2.638-0.891,5.661-0.294,7.763,1.809c2.112,2.115,2.705,5.164,1.792,7.811l10.937,10.937c2.646-0.912,5.698-0.323,7.811,1.793
	c2.954,2.953,2.954,7.738,0,10.691c-2.954,2.954-7.738,2.954-10.694,0c-2.221-2.223-2.77-5.486-1.646-8.222L54.337,38.207v26.839
	c0.72,0.356,1.399,0.832,1.999,1.43c2.953,2.952,2.953,7.736,0,10.693c-2.953,2.952-7.74,2.952-10.691,0
	c-2.953-2.957-2.953-7.741,0-10.693c0.73-0.729,1.575-1.28,2.476-1.649V37.737c-0.901-0.368-1.745-0.915-2.476-1.649
	c-2.237-2.235-2.775-5.519-1.628-8.266L32.831,16.635L3.294,46.17c-2.482,2.483-2.482,6.507,0,8.988l43.077,43.075
	c2.48,2.481,6.502,2.481,8.986,0l42.878-42.871c2.481-2.482,2.481-6.507,0-8.989"/>
</svg>
