<?xml version="1.0" encoding="utf-8"?>
<!-- Generator: Adobe Illustrator 15.0.2, SVG Export Plug-In . SVG Version: 6.00 Build 0)  -->
<!DOCTYPE svg PUBLIC "-//W3C//DTD SVG 1.1//EN" "http://www.w3.org/Graphics/SVG/1.1/DTD/svg11.dtd">
<svg version="1.1" id="Ebene_2" xmlns="http://www.w3.org/2000/svg" xmlns:xlink="http://www.w3.org/1999/xlink" x="0px" y="0px"
	 width="120.5px" height="93.543px" viewBox="0 0 120.5 93.543" enable-background="new 0 0 120.5 93.543" xml:space="preserve">
<path fill="#555555" d="M75.261,34.653v10.765H1.134v29.479h74.127v7.604h22.084v11.042l22.084-11.042V34.653H75.261z
	 M20.997,67.771h-2.74v-5.86h-5.12v5.86h-2.74v-14h2.74v5.698h5.12v-5.698h2.74V67.771z M33.356,56.212h-4.08v11.56h-2.74v-11.56
	h-4.1v-2.44h10.92V56.212z M45.117,56.212h-4.08v11.56h-2.74v-11.56h-4.1v-2.44h10.92V56.212z M55.816,60.441
	c-0.307,0.605-0.713,1.104-1.22,1.488s-1.083,0.667-1.73,0.842c-0.646,0.174-1.317,0.26-2.01,0.26c-0.067,0-0.173,0-0.32,0
	s-0.3-0.003-0.46-0.01c-0.16-0.009-0.317-0.019-0.47-0.03c-0.142-0.012-0.244-0.024-0.311-0.037v-2.346
	c0.007,0.001,0.009,0.002,0.017,0.003c0.106,0.014,0.22,0.021,0.34,0.028c0.12,0.009,0.236,0.011,0.35,0.011c0.113,0,0.196,0,0.25,0
	c0.36,0,0.716-0.032,1.07-0.101c0.354-0.064,0.67-0.188,0.95-0.37c0.28-0.18,0.503-0.43,0.67-0.75c0.167-0.318,0.25-0.738,0.25-1.26
	c0-0.439-0.08-0.804-0.24-1.091c-0.16-0.284-0.37-0.515-0.63-0.687c-0.26-0.174-0.557-0.293-0.89-0.359s-0.673-0.102-1.02-0.102
	c-0.267,0-0.52,0.01-0.76,0.03c-0.24,0.021-0.434,0.043-0.58,0.069v4.54c0.042,0.011,0.116,0.021,0.194,0.032v7.168h-2.73v-13.86
	c0.56-0.106,1.176-0.189,1.85-0.25c0.673-0.06,1.343-0.09,2.01-0.09c0.693,0,1.39,0.057,2.09,0.17c0.7,0.112,1.33,0.34,1.89,0.681
	c0.56,0.34,1.017,0.813,1.37,1.42c0.353,0.607,0.53,1.396,0.53,2.37C56.276,59.092,56.123,59.835,55.816,60.441z M75.288,64.1
	h-13.27v-7.36h13.27V64.1z M97.345,45.695v33.126H78.942V67.778h-3.598V64.1h7.507v7.36l11.041-11.042L82.852,49.377v7.361h-7.507
	v-0.59h-0.041v-3.092h3.639V38.334h33.125L97.345,45.695z"/>
</svg>
