<?xml version="1.0" encoding="utf-8"?>
<!-- Generator: Adobe Illustrator 15.0.2, SVG Export Plug-In . SVG Version: 6.00 Build 0)  -->
<!DOCTYPE svg PUBLIC "-//W3C//DTD SVG 1.1//EN" "http://www.w3.org/Graphics/SVG/1.1/DTD/svg11.dtd">
<svg version="1.1" id="Ebene_1" xmlns="http://www.w3.org/2000/svg" xmlns:xlink="http://www.w3.org/1999/xlink" x="0px" y="0px"
	 width="102.047px" height="102.047px" viewBox="0 0 102.047 102.047" enable-background="new 0 0 102.047 102.047"
	 xml:space="preserve">
<g>
	<path fill="#3E373C" d="M69.164,51.595c0,10.01-8.12,18.109-18.109,18.109c-10.01,0-18.13-8.12-18.13-18.109
		c0-10.011,8.121-18.11,18.13-18.11C61.044,33.464,69.164,41.584,69.164,51.595"/>
	<g>
		<path fill="#FF7A00" d="M74.729,9.582l-6.126,11.463c-6.127-2.554-11.816-3.821-17.071-3.821c-9.013,0-16.988,2.928-23.966,8.785
			C20.609,31.886,17.12,38.968,17.12,47.296v26.146H4.888V6.508H17.12v14.268C24.95,10.246,36.414,4.992,51.532,4.992
			C60.026,4.992,67.772,6.508,74.729,9.582z"/>
	</g>
	<g>
		<path fill="#3E373C" d="M27.317,92.445l6.126-11.465c6.127,2.555,11.817,3.822,17.071,3.822c9.013,0,16.988-2.929,23.966-8.785
			c6.979-5.857,10.446-12.959,10.446-21.287V28.584h12.232v66.935H84.927V81.251c-7.809,10.528-19.294,15.804-34.413,15.804
			C42.021,97.035,34.295,95.519,27.317,92.445z"/>
	</g>
</g>
</svg>
