<?xml version="1.0" encoding="utf-8"?>
<!-- Generator: Adobe Illustrator 15.0.2, SVG Export Plug-In . SVG Version: 6.00 Build 0)  -->
<!DOCTYPE svg PUBLIC "-//W3C//DTD SVG 1.1//EN" "http://www.w3.org/Graphics/SVG/1.1/DTD/svg11.dtd">
<svg version="1.1" id="Ebene_1" xmlns="http://www.w3.org/2000/svg" xmlns:xlink="http://www.w3.org/1999/xlink" x="0px" y="0px"
	 width="120.5px" height="93.543px" viewBox="0 0 120.5 93.543" enable-background="new 0 0 120.5 93.543" xml:space="preserve">
<path fill="#F1007E" d="M0,33.307v60.236h120.49V33.307H0z M18.906,73.289c-1.654,2.015-3.995,3.021-7.024,3.021
	c-1.622,0-3.03-0.275-4.224-0.832c-1.195-0.556-2.182-1.346-2.96-2.365c-0.779-1.025-1.36-2.251-1.744-3.685
	C2.571,68,2.378,66.41,2.378,64.66c0-3.732,0.821-6.607,2.464-8.623c1.642-2.018,3.989-3.024,7.04-3.024
	c1.6,0,2.997,0.278,4.192,0.832c1.194,0.559,2.187,1.347,2.976,2.368c0.789,1.023,1.376,2.251,1.759,3.682
	c0.378,1.409,0.567,2.973,0.573,4.689h-4.607c-0.004-1.057-0.092-2.045-0.269-2.961c-0.182-0.939-0.464-1.76-0.848-2.465
	c-0.384-0.703-0.886-1.251-1.504-1.647c-0.619-0.395-1.376-0.592-2.272-0.592c-1.558,0-2.763,0.624-3.616,1.872
	c-0.854,1.248-1.28,3.205-1.28,5.871c0,1.132,0.096,2.172,0.288,3.121s0.484,1.765,0.88,2.447c0.395,0.684,0.901,1.217,1.52,1.6
	c0.618,0.385,1.354,0.576,2.208,0.576c1.557,0,2.762-0.607,3.616-1.823c0.853-1.216,1.28-3.188,1.28-5.921
	c0-0.021-0.002-0.041-0.003-0.063h4.607c0,0.022,0.002,0.043,0.002,0.065C21.385,68.396,20.559,71.271,18.906,73.289z
	 M40.843,67.926c0,1.451-0.192,2.699-0.576,3.744c-0.384,1.046-0.917,1.909-1.6,2.592c-0.683,0.687-1.515,1.188-2.496,1.506
	c-0.981,0.319-2.059,0.479-3.232,0.479c-5.675,0-8.512-2.591-8.512-7.775V53.463h4.384v14.143c0,0.875,0.08,1.616,0.24,2.227
	c0.16,0.607,0.41,1.1,0.752,1.473c0.341,0.373,0.768,0.645,1.28,0.805c0.512,0.155,1.109,0.235,1.792,0.235
	c1.344,0,2.314-0.373,2.912-1.116c0.597-0.746,0.896-1.951,0.896-3.615v-14.15h4.16V67.926z M60.49,57.367h-6.528v18.496h-4.384
	V57.367h-6.56v-3.904H60.49V57.367z M64.604,75.99c-0.67-0.064-1.285-0.16-1.84-0.287v-22.08c0.405-0.064,0.868-0.129,1.395-0.192
	c0.521-0.062,1.082-0.116,1.68-0.159c0.376-0.027,0.767-0.042,1.153-0.061v3.741h-0.002v5.921h0.002v3.326h-0.005v6.113
	c0.001,0,0.004,0.001,0.005,0.001v3.837c-0.136-0.006-0.266-0.009-0.405-0.016C65.938,76.104,65.275,76.054,64.604,75.99z
	 M77.803,72.551c-0.49,0.844-1.146,1.531-1.969,2.064c-0.82,0.533-1.755,0.928-2.8,1.184s-2.123,0.385-3.231,0.385
	c-0.363,0-0.828,0-1.393,0c-0.441,0-0.917-0.013-1.41-0.033v-3.834c0.105,0.04,0.271,0.068,0.499,0.092
	c0.233,0.021,0.485,0.037,0.752,0.047c0.267,0.011,0.545,0.021,0.832,0.032s0.538,0.016,0.751,0.016c0.533,0,1.051-0.063,1.553-0.19
	c0.5-0.125,0.943-0.318,1.328-0.586c0.383-0.264,0.693-0.596,0.928-0.998c0.234-0.397,0.354-0.877,0.354-1.425
	c0-0.696-0.142-1.247-0.416-1.646c-0.279-0.401-0.642-0.713-1.09-0.937c-0.447-0.222-0.949-0.364-1.505-0.428
	c-0.555-0.063-1.108-0.095-1.663-0.095H67v-3.326l1.393-0.003c0.299,0,0.646-0.01,1.039-0.031c0.396-0.021,0.725-0.054,0.979-0.096
	c0.812-0.253,1.51-0.633,2.096-1.142c0.587-0.509,0.884-1.174,0.884-1.994c0-0.549-0.106-1.002-0.32-1.36
	c-0.213-0.359-0.497-0.644-0.851-0.854c-0.352-0.212-0.752-0.355-1.198-0.44c-0.446-0.084-0.918-0.127-1.407-0.127
	c-0.556,0-1.066,0.011-1.535,0.03c-0.465,0.021-0.823,0.055-1.079,0.096v-3.74c0.228-0.012,0.446-0.027,0.678-0.036
	c0.631-0.02,1.256-0.032,1.873-0.032c1.045,0,2.062,0.08,3.057,0.24c0.992,0.16,1.879,0.444,2.654,0.848
	c0.779,0.406,1.402,0.974,1.873,1.696c0.469,0.729,0.701,1.646,0.701,2.752c0,0.56-0.066,1.109-0.207,1.664
	c-0.143,0.556-0.37,1.062-0.688,1.521c-0.319,0.459-0.735,0.862-1.248,1.215c-0.515,0.352-1.133,0.614-1.855,0.785v0.188
	c0.643,0.107,1.248,0.288,1.824,0.548c0.574,0.256,1.076,0.605,1.504,1.056c0.427,0.448,0.763,0.991,1.007,1.633
	c0.246,0.64,0.368,1.396,0.368,2.271C78.538,70.711,78.293,71.709,77.803,72.551z M90.477,76.311c-1.623,0-3.033-0.273-4.227-0.832
	c-1.193-0.554-2.184-1.344-2.96-2.363c-0.779-1.025-1.358-2.251-1.744-3.685c-0.385-1.429-0.577-3.019-0.577-4.769
	c0-3.732,0.821-6.607,2.465-8.623c1.646-2.016,3.988-3.024,7.041-3.024c1.602,0,2.995,0.278,4.19,0.832
	c1.194,0.559,2.188,1.345,2.978,2.368c0.789,1.024,1.375,2.251,1.76,3.68c0.381,1.41,0.568,2.973,0.572,4.689h-4.608
	c-0.005-1.057-0.092-2.045-0.269-2.961c-0.181-0.939-0.465-1.76-0.849-2.465c-0.385-0.703-0.886-1.251-1.504-1.647
	c-0.619-0.395-1.375-0.592-2.271-0.592c-1.561,0-2.766,0.624-3.617,1.872c-0.854,1.248-1.279,3.205-1.279,5.871
	c0,1.132,0.096,2.172,0.287,3.121c0.193,0.949,0.486,1.765,0.881,2.447c0.395,0.684,0.9,1.217,1.52,1.6
	c0.619,0.385,1.355,0.576,2.209,0.576c1.56,0,2.762-0.607,3.615-1.823s1.28-3.188,1.279-5.921c0-0.021-0.003-0.041-0.003-0.063
	h4.608c0,0.022,0.002,0.044,0.002,0.067c0,3.73-0.828,6.605-2.479,8.625C95.844,75.304,93.503,76.311,90.477,76.311z
	 M114.122,75.863l-3.937-6.912l-0.863-2.368l-0.832,2.368l-3.969,6.912h-4.771l6.882-11.395l-6.238-11.008h5.277l3.456,6.464
	l0.771,2.272l0.734-2.272l3.615-6.464h4.77l-6.463,10.783l6.781,11.617L114.122,75.863z"/>
</svg>
