<?xml version="1.0" encoding="utf-8"?>
<!-- Generator: Adobe Illustrator 15.0.2, SVG Export Plug-In . SVG Version: 6.00 Build 0)  -->
<!DOCTYPE svg PUBLIC "-//W3C//DTD SVG 1.1//EN" "http://www.w3.org/Graphics/SVG/1.1/DTD/svg11.dtd">
<svg version="1.1" id="Ebene_1" xmlns="http://www.w3.org/2000/svg" xmlns:xlink="http://www.w3.org/1999/xlink" x="0px" y="0px"
	 width="120.5px" height="93.543px" viewBox="0 0 120.5 93.543" enable-background="new 0 0 120.5 93.543" xml:space="preserve">
<path fill="#555555" d="M116.188,72.246l-10.557-31.782c-1.033-3.213-4.128-5.457-7.523-5.457h-5.342
	c-3.385,0-6.479,2.268-7.531,5.533l-9.902,31.362V64.1H61.886v-7.36h13.446V45.418H1v29.479h73.842
	c0.077,3.338,2.236,6.389,5.524,7.377c0.795,0.256,1.616,0.386,2.44,0.386c3.452,0,6.489-2.21,7.57-5.543l1.561-5.066h7.513
	l1.698,5.177c1.059,3.252,4.08,5.438,7.519,5.438c0.851,0,1.688-0.135,2.481-0.396c2.012-0.651,3.643-2.059,4.595-3.959
	C116.688,76.424,116.848,74.275,116.188,72.246z M14.354,66.161c-1.033,1.261-2.497,1.891-4.39,1.891
	c-1.014,0-1.894-0.174-2.64-0.521c-0.747-0.348-1.363-0.84-1.85-1.479c-0.487-0.641-0.85-1.407-1.09-2.3
	c-0.24-0.895-0.36-1.887-0.36-2.98c0-0.029,0.004-0.053,0.005-0.082h2.705c0,0.029-0.003,0.053-0.003,0.082
	c0,0.707,0.06,1.356,0.18,1.95c0.12,0.593,0.303,1.104,0.55,1.53c0.247,0.427,0.563,0.76,0.95,1c0.387,0.239,0.847,0.359,1.38,0.359
	c0.973,0,1.727-0.381,2.26-1.143c0.533-0.76,0.8-1.99,0.8-3.697c0-0.683-0.057-1.313-0.17-1.9c-0.114-0.586-0.29-1.1-0.53-1.54
	c-0.24-0.438-0.554-0.782-0.94-1.029c-0.387-0.247-0.86-0.37-1.42-0.37c-0.974,0-1.727,0.393-2.26,1.17
	c-0.521,0.762-0.783,1.953-0.795,3.56H4.03c0.017-2.275,0.524-4.04,1.534-5.279c1.027-1.261,2.493-1.891,4.4-1.891
	c1,0,1.873,0.174,2.62,0.521c0.747,0.35,1.367,0.84,1.86,1.479c0.493,0.641,0.86,1.407,1.1,2.3c0.24,0.895,0.36,1.888,0.36,2.98
	C15.904,63.104,15.387,64.9,14.354,66.161z M25.324,67.771l-1.12-3.103h-4.3l-1.06,3.103h-2.74l5.04-14.103h2.021l5.04,14.103
	H25.324z M36.184,67.777v-0.002v-0.002v-0.002l-0.46-1.48h-0.08c-0.307,0.508-0.733,0.928-1.28,1.261
	c-0.547,0.333-1.193,0.5-1.94,0.5c-0.507,0-0.96-0.064-1.36-0.2c-0.4-0.133-0.733-0.354-1-0.66c-0.267-0.306-0.47-0.72-0.61-1.237
	c-0.14-0.521-0.21-1.173-0.21-1.96v-6.223h2.6v5.683c0,0.812,0.096,1.397,0.29,1.761c0.193,0.359,0.57,0.54,1.13,0.54
	c0.493,0,0.903-0.146,1.23-0.438c0.327-0.293,0.57-0.652,0.73-1.08v-6.459h2.6v6.959c0,0.548,0.026,1.084,0.08,1.608
	c0.053,0.526,0.133,1.003,0.24,1.433H36.184z M44.584,67.871c-0.48,0.12-0.967,0.181-1.46,0.181c-0.92,0-1.597-0.237-2.03-0.71
	c-0.433-0.474-0.65-1.25-0.65-2.33v-5.04h-1.38v-2.2h1.38v-1.879l2.6-0.738v2.617h2.44v2.2h-2.44v3.841
	c0,0.692,0.07,1.189,0.21,1.489c0.14,0.3,0.403,0.45,0.79,0.45c0.267,0,0.497-0.027,0.69-0.08c0.193-0.054,0.41-0.134,0.65-0.24
	l0.46,2C45.484,67.604,45.064,67.752,44.584,67.871z M55.802,67.771h-2.599V62.09c0-0.812-0.113-1.398-0.34-1.761
	c-0.227-0.359-0.64-0.54-1.24-0.54c-0.44,0-0.844,0.148-1.21,0.45c-0.367,0.3-0.61,0.684-0.73,1.147v6.381h-2.6v-14h2.6v5.119h0.08
	c0.32-0.427,0.713-0.767,1.18-1.021c0.467-0.253,1.06-0.38,1.78-0.38c0.507,0,0.953,0.064,1.34,0.199
	c0.386,0.135,0.71,0.354,0.97,0.659c0.26,0.309,0.453,0.726,0.58,1.25c0.126,0.525,0.188,1.177,0.188,1.949V67.771z M110.379,75.623
	c-0.227,0.453-0.611,0.787-1.092,0.943c-0.98,0.322-2.115-0.223-2.434-1.203l-3.058-9.313H87.508l-2.851,9.257
	c-0.263,0.81-1.007,1.353-1.851,1.353c-0.199,0-0.402-0.032-0.658-0.114c-0.986-0.297-1.537-1.382-1.239-2.378l10.043-31.804
	c0.252-0.786,1.016-1.356,1.813-1.356h5.342c0.81,0,1.572,0.544,1.822,1.321l10.56,31.79
	C110.652,74.621,110.613,75.155,110.379,75.623z"/>
</svg>
