<?xml version="1.0" encoding="utf-8"?>
<!-- Generator: Adobe Illustrator 15.0.2, SVG Export Plug-In . SVG Version: 6.00 Build 0)  -->
<!DOCTYPE svg PUBLIC "-//W3C//DTD SVG 1.1//EN" "http://www.w3.org/Graphics/SVG/1.1/DTD/svg11.dtd">
<svg version="1.1" id="Ebene_1" xmlns="http://www.w3.org/2000/svg" xmlns:xlink="http://www.w3.org/1999/xlink" x="0px" y="0px"
	 width="102.047px" height="102.047px" viewBox="0 0 102.047 102.047" enable-background="new 0 0 102.047 102.047"
	 xml:space="preserve">
<path fill="#5C0432" d="M75.898,45.711c0-10.687-3.66-20.199-9.354-26.346c0.853,0.135,1.747,0.255,2.584,0.519
	c-0.142,2.873,4.894,3.64,8.394,3.64c-1,0-2,0-3,1c1.43-0.714,3.362-0.417,5.082-0.547c-2.725-4.084-6.304-7.549-10.477-10.146
	c0.77-0.034,1.562-0.058,2.396-0.058v-1c-1.314,0-2.645,0.052-3.939,0.15c-1.129-0.623-2.301-1.175-3.503-1.669l1.942-2.23
	c-1.18,0-2.287,0.348-3.252,0.958V9.17c-1.073,0-2.086,0.23-2.987,0.628c-0.468-0.123-0.942-0.226-1.418-0.329
	c-0.509-2.583-1.339-4.572-2.593-4.572v1c0.414,0,1.043,1.157,1.529,3.35c-0.393-0.073-0.791-0.131-1.188-0.19
	c-1.528-1.117-3.405-1.784-5.438-1.784v1c0.966,0,1.89,0.176,2.753,0.482c-0.796-0.055-1.598-0.088-2.407-0.088
	c-0.988,0-1.966,0.042-2.934,0.125c-1.37-0.68-3.953-0.893-5.691-0.893v1c1.222,0,2.26,0.087,3.107,0.214
	c-1.064,0.172-2.112,0.393-3.142,0.661C41.9,9.67,40.91,9.649,38.772,9.649v1c0.263,0,0.51,0.001,0.744,0.003
	c-3.382,1.205-6.521,2.92-9.321,5.06c2.908,0.79,6.543,0.668,9.327-1.188c0.352,0.703,0.206,1.282-0.084,1.825
	c-7.551,5.726-12.664,16.726-12.664,29.362c0,12.255,4.809,22.971,11.987,28.83c-0.805-0.188-1.585-0.385-2.303-0.598
	c-1.963,4.037-2.658,9.342-4,13.998c10.016,0,20.027,0,30.041,0h2.34c1.538,0,3.076,0,4.615,0c-1.869-4.131-2.133-9.867-4-13.998
	c-0.473,0.199-0.969,0.383-1.483,0.553C71.115,68.627,75.898,57.934,75.898,45.711z M66.521,18.524
	c-0.243,0.081-0.452,0.119-0.646,0.139c-0.622-0.625-1.266-1.212-1.931-1.756c-0.292-0.719-0.608-1.383-1.423-1.383
	c0,0.116,0.013,0.214,0.019,0.323c-0.444-0.312-0.896-0.607-1.354-0.882c0.352-0.1,0.713-0.198,1.112-0.289
	C63.871,15.383,65.473,16.949,66.521,18.524z M62.479,10.185c-0.14,0.099-0.276,0.204-0.409,0.314
	c-0.192-0.065-0.381-0.138-0.575-0.2C61.813,10.235,62.144,10.201,62.479,10.185z"/>
<path fill="#F1007E" d="M79.604,23.977c-1.72,0.131-3.651-0.167-5.08,0.547c1-1,2-1,3-1c-3.5,0-8.533-0.767-8.394-3.64
	c-2.938-0.925-6.606-0.077-6.606-4.36c2,0,1,4,4,3c-2-3-6-6-8-3c-3,1,2,0,3,2c-2,0-3,0-5,1c0-1,0-2,0-3c-2,1-3,1-5,1
	c-0.278-0.279-0.32-0.636-0.286-1.005c-1.74-0.014-3.21-0.095-4.898-0.485c-0.28,1.225-0.993,2.098-2.816,1.49c0,0,0-1,0-2
	c-2,1-4,3-5,5c-1-2,2-3,1-5c-2.784,1.856-6.419,1.978-9.327,1.188C21.989,21.985,16.69,31.871,16.69,43
	c0,18.962,15.372,34.333,34.333,34.333c18.961,0,34.333-15.371,34.333-34.333C85.355,35.963,83.234,29.423,79.604,23.977z
	 M56.445,61.455c-0.646,0.388-2.107,1.15-5.421,1.15c-3.464,0-8.838-0.836-11.984-3.807l0.688-0.727
	c5.785,5.465,15.441,3.134,16.23,2.505c-0.053,0.043-0.149,0.194-0.104,0.392c0.021,0.094,0.067,0.165,0.119,0.215v-0.916
	c0.195,0,0.723,0,0.85,0.457C56.867,60.885,56.878,61.195,56.445,61.455z M66.523,46.815c-4.137,0-7.5-3.364-7.5-7.5
	c0-0.064,0.006-0.127,0.01-0.191h1c-0.002,0.064-0.01,0.126-0.01,0.191c0,3.584,2.916,6.5,6.5,6.5s6.5-2.916,6.5-6.5
	s-2.916-6.5-6.5-6.5c-3.498,0-6.353,2.781-6.487,6.247h-1.637v0.003H42.622c-0.697,3.419-3.727,6-7.349,6
	c-4.136,0-7.5-3.364-7.5-7.5s3.364-7.5,7.5-7.5c4.136,0,7.5,3.364,7.5,7.5c0,0.141-0.011,0.28-0.021,0.419h-1
	c0.009-0.14,0.021-0.278,0.021-0.419c0-3.584-2.916-6.5-6.5-6.5s-6.5,2.916-6.5,6.5s2.916,6.5,6.5,6.5
	c3.421,0,6.227-2.659,6.476-6.018h1c0,0.006,0,0.012-0.001,0.018h16.388c0.599-3.542,3.679-6.25,7.388-6.25
	c4.136,0,7.5,3.364,7.5,7.5S70.659,46.815,66.523,46.815z M62.523,39.268c0-2.209,1.791-4,4-4s4,1.791,4,4c0,2.209-1.791,4-4,4
	S62.523,41.477,62.523,39.268z M39.523,37.268c0,2.209-1.791,4-4,4s-4-1.791-4-4c0-2.209,1.791-4,4-4S39.523,35.059,39.523,37.268z"
	/>
</svg>
