<?xml version="1.0" encoding="utf-8"?>
<!-- Generator: Adobe Illustrator 15.0.2, SVG Export Plug-In . SVG Version: 6.00 Build 0)  -->
<!DOCTYPE svg PUBLIC "-//W3C//DTD SVG 1.1//EN" "http://www.w3.org/Graphics/SVG/1.1/DTD/svg11.dtd">
<svg version="1.1" id="Ebene_1" xmlns="http://www.w3.org/2000/svg" xmlns:xlink="http://www.w3.org/1999/xlink" x="0px" y="0px"
	 width="102.047px" height="102.047px" viewBox="0 0 102.047 102.047" enable-background="new 0 0 102.047 102.047"
	 xml:space="preserve">
<path fill="#555555" d="M51.023,78.333c18.961,0,34.333-15.371,34.333-34.333c0-7.037-2.121-13.577-5.752-19.023
	c-1.72,0.131-3.65-0.167-5.08,0.547c1-1,2-1,3-1c-3.5,0-8.532-0.767-8.394-3.64c-2.938-0.925-6.606-0.077-6.606-4.36
	c0.173,0,0.317,0.039,0.45,0.093c0.205,0.367,0.475,0.648,0.79,0.871c0.531,1.113,0.736,2.71,2.76,2.036
	c-0.307-0.459-0.664-0.917-1.05-1.354c0.702,0.157,1.469,0.25,2.234,0.385c0.056,0.01,0.11,0.019,0.165,0.029
	c0.426,0.078,0.849,0.171,1.257,0.3c-0.139,2.873,4.894,3.64,8.394,3.64c-0.999,0-1.999,0-2.998,0.999
	c1.43-0.712,3.359-0.416,5.078-0.545c-2.725-4.084-6.304-7.549-10.477-10.146c0.77-0.034,1.562-0.058,2.396-0.058v-1
	c-1.314,0-2.646,0.052-3.939,0.15c-1.129-0.623-2.301-1.175-3.503-1.669l1.942-2.23c-1.181,0-2.287,0.348-3.252,0.958V8.17
	c-1.073,0-2.086,0.23-2.987,0.628c-0.468-0.123-0.942-0.226-1.418-0.329c-0.509-2.583-1.339-4.572-2.593-4.572v1
	c0.414,0,1.043,1.157,1.528,3.35c-0.393-0.073-0.791-0.131-1.188-0.19c-1.528-1.117-3.405-1.784-5.438-1.784v1
	c0.967,0,1.891,0.176,2.754,0.482c-0.797-0.055-1.599-0.088-2.408-0.088c-0.988,0-1.966,0.042-2.934,0.125
	c-1.37-0.68-3.953-0.893-5.691-0.893v1c1.222,0,2.26,0.087,3.107,0.214c-1.064,0.172-2.112,0.393-3.142,0.661
	C41.9,8.67,40.91,8.649,38.772,8.649v1c0.263,0,0.51,0.001,0.744,0.003c-3.382,1.205-6.521,2.92-9.321,5.06c0,0,0.001,0,0.002,0
	c0,0,0,0,0,0c1.09,0.296,2.282,0.464,3.494,0.46c2.019-0.006,4.091-0.489,5.831-1.648c0,0,0,0,0,0.001c0,0,0.001,0,0.001-0.001
	c0.081,0.163,0.128,0.316,0.161,0.466c0.007,0.031,0.011,0.061,0.016,0.091c0.022,0.135,0.029,0.267,0.019,0.394
	c-0.001,0.01,0,0.02-0.001,0.03c-0.042,0.423-0.242,0.806-0.478,1.181c-2.745,1.686-6.231,1.791-9.043,1.026
	C21.989,22.985,16.69,32.871,16.69,44c0,13.975,8.354,25.991,20.337,31.35l-0.457,0.791c-0.055-0.025-0.111-0.047-0.166-0.073
	c-1.919,4.022-2.618,9.264-3.946,13.874c10.016,0,20.026,0,30.041,0h2.34c1.538,0,3.076,0,4.615,0
	c-1.844-4.074-2.133-9.703-3.931-13.82c-4.406,2.057-9.317,3.212-14.5,3.212c-5.164,0-10.056-1.149-14.45-3.191l0.457-0.791
	C41.305,77.262,46.038,78.333,51.023,78.333z M56.445,62.455c-0.646,0.388-2.107,1.15-5.421,1.15c-3.464,0-8.838-0.836-11.984-3.808
	l0.688-0.727c5.785,5.465,15.441,3.134,16.23,2.505c-0.054,0.043-0.149,0.193-0.104,0.392c0.021,0.095,0.067,0.165,0.119,0.216
	v-0.916c0.195,0,0.723,0,0.851,0.457C56.867,61.885,56.878,62.195,56.445,62.455z M62.479,9.185
	c-0.14,0.099-0.275,0.204-0.408,0.314c-0.192-0.065-0.381-0.138-0.575-0.2C61.812,9.235,62.145,9.201,62.479,9.185z M58.523,14.524
	c2-3,6,0,8,3c-0.012,0.004-0.021,0.004-0.031,0.008c-0.131,0.042-0.252,0.071-0.365,0.092c-1.433,0.294-1.788-0.752-2.179-1.713
	c-0.002-0.001-0.003-0.003-0.005-0.004c-0.13-0.321-0.268-0.627-0.449-0.872c-0.027-0.036-0.055-0.074-0.084-0.107
	s-0.062-0.062-0.093-0.092c-0.038-0.036-0.077-0.069-0.119-0.099c-0.032-0.023-0.065-0.045-0.101-0.065
	c-0.051-0.029-0.105-0.052-0.162-0.073c-0.033-0.012-0.064-0.026-0.101-0.035c-0.093-0.023-0.192-0.039-0.304-0.04
	c-0.002,0-0.005,0-0.008,0c0,0.521,0.06,0.958,0.16,1.339c-0.965-0.517-1.936-0.734-2.782-0.451
	C58.269,14.943,56.408,15.229,58.523,14.524z M57.674,17.021c0.524,0.171,3.153,0.111,3.85,1.503c-2,0-3,0-5,1c0-0.667,0-1.333,0-2
	C56.947,17.312,57.321,17.152,57.674,17.021z M39.673,16.756c1.057-1.338,2.45-2.532,3.851-3.232c0,1,0,2,0,2
	c1.823,0.608,2.536-0.265,2.816-1.49c1.688,0.39,3.158,0.471,4.898,0.485c-0.034,0.369,0.008,0.726,0.286,1.005c2,0,3,0,5-1
	c0,0.667,0,1.333,0,2c-2,1-3,1-5,1c-0.277-0.279-0.319-0.636-0.286-1.005c-1.74-0.014-3.21-0.095-4.898-0.485
	c-0.28,1.225-0.993,2.098-2.816,1.49c0,0,0-1,0-2c-2,1-4,3-5,5C37.751,18.979,39.36,18.029,39.673,16.756z M27.773,38.565
	c0-4.136,3.364-7.5,7.5-7.5c4.136,0,7.5,3.364,7.5,7.5c0,0.141-0.011,0.28-0.021,0.419h-1c0.009-0.14,0.021-0.278,0.021-0.419
	c0-3.584-2.916-6.5-6.5-6.5s-6.5,2.916-6.5,6.5s2.916,6.5,6.5,6.5c3.421,0,6.227-2.659,6.476-6.018h1c0,0.006,0,0.012-0.001,0.018
	h16.388c0.599-3.542,3.679-6.25,7.388-6.25c4.137,0,7.5,3.364,7.5,7.5s-3.364,7.5-7.5,7.5c-4.138,0-7.5-3.364-7.5-7.5
	c0-0.064,0.006-0.127,0.01-0.191h1c-0.002,0.064-0.01,0.126-0.01,0.191c0,3.584,2.916,6.5,6.5,6.5s6.5-2.916,6.5-6.5
	s-2.916-6.5-6.5-6.5c-3.498,0-6.354,2.781-6.487,6.247h-1.638v0.003H42.622c-0.697,3.419-3.727,6-7.349,6
	C31.137,46.065,27.773,42.701,27.773,38.565z M39.523,38.268c0,2.209-1.791,4-4,4s-4-1.791-4-4s1.791-4,4-4
	S39.523,36.059,39.523,38.268z M62.523,40.268c0-2.209,1.791-4,4-4s4,1.791,4,4s-1.791,4-4,4S62.523,42.477,62.523,40.268z"/>
</svg>
