<?xml version="1.0" encoding="utf-8"?>
<!-- Generator: Adobe Illustrator 15.0.2, SVG Export Plug-In . SVG Version: 6.00 Build 0)  -->
<!DOCTYPE svg PUBLIC "-//W3C//DTD SVG 1.1//EN" "http://www.w3.org/Graphics/SVG/1.1/DTD/svg11.dtd">
<svg version="1.1" id="Ebene_1" xmlns="http://www.w3.org/2000/svg" xmlns:xlink="http://www.w3.org/1999/xlink" x="0px" y="0px"
	 width="102.047px" height="102.047px" viewBox="0 0 102.047 102.047" enable-background="new 0 0 102.047 102.047"
	 xml:space="preserve">
<path fill="#67E63E" d="M89.494,2.125H12.553c-5.75,0-10.427,4.678-10.427,10.427v76.941c0,5.749,4.678,10.427,10.427,10.427h76.941
	c5.749,0,10.427-4.678,10.427-10.427v-76.94C99.921,6.803,95.243,2.125,89.494,2.125z M95.209,7.047v8.504H52.034
	c1.771-0.561,3.062-2.197,3.062-4.152c0-2.336-1.837-4.229-4.143-4.352H95.209z M73.415,61.23c-0.274-0.191-0.61-0.367-1.009-0.527
	c-0.399-0.159-0.84-0.324-1.319-0.492s-0.921-0.398-1.319-0.695c-0.399-0.296-0.735-0.672-1.009-1.128
	c-0.272-0.456-0.407-1.044-0.407-1.765c0-1.184,0.354-2.088,1.058-2.711c0.702-0.626,1.72-0.938,3.048-0.938
	c0.912,0,1.734,0.097,2.475,0.286c0.734,0.191,1.312,0.408,1.729,0.648l-0.696,2.256c-0.369-0.146-0.832-0.297-1.394-0.457
	c-0.561-0.159-1.127-0.239-1.702-0.239c-0.929,0-1.394,0.36-1.394,1.08c0,0.288,0.137,0.521,0.406,0.696
	c0.271,0.176,0.609,0.34,1.01,0.492c0.398,0.148,0.84,0.312,1.318,0.489c0.479,0.179,0.92,0.404,1.318,0.687
	c0.4,0.28,0.736,0.646,1.01,1.092c0.271,0.448,0.406,1.024,0.406,1.729c0,1.216-0.389,2.173-1.164,2.867
	c-0.774,0.693-1.938,1.043-3.49,1.043c-0.85,0-1.646-0.106-2.389-0.321c-0.743-0.218-1.35-0.47-1.812-0.759l0.863-2.325
	c0.366,0.207,0.854,0.411,1.465,0.61c0.606,0.198,1.229,0.299,1.871,0.299c0.464,0,0.836-0.086,1.112-0.264
	c0.281-0.177,0.423-0.471,0.423-0.887C73.822,61.679,73.686,61.423,73.415,61.23z M6.838,38.301v-8.504h88.371v8.504H6.838z
	 M59.1,56.383c-0.283-0.431-0.757-0.646-1.43-0.646c-0.592,0-1.092,0.173-1.5,0.517c-0.406,0.344-0.7,0.771-0.876,1.283v7.775h-3.12
	v-12h2.473l0.359,1.584h0.098c0.366-0.514,0.855-0.959,1.463-1.346c0.608-0.384,1.394-0.574,2.354-0.574
	c0.592,0,1.12,0.078,1.584,0.237c0.464,0.16,0.855,0.425,1.178,0.793c0.32,0.368,0.561,0.867,0.719,1.5
	c0.16,0.632,0.24,1.412,0.24,2.34v7.464H59.52v-6.814C59.52,57.52,59.378,56.816,59.1,56.383z M43.307,62.382
	c0.472,0.515,1.236,0.769,2.292,0.769c0.656,0,1.244-0.1,1.764-0.299c0.52-0.197,0.916-0.402,1.188-0.609l1.032,2.039
	c-0.48,0.385-1.132,0.708-1.956,0.973c-0.824,0.264-1.701,0.396-2.628,0.396c-1.936,0-3.352-0.562-4.248-1.691
	c-0.896-1.127-1.344-2.676-1.344-4.645c0-0.429,0.035-0.818,0.077-1.203h3.123c-0.002,0.018-0.006,0.033-0.008,0.051h4.464
	c0.063-0.865-0.068-1.528-0.396-1.992c-0.328-0.465-0.844-0.695-1.548-0.695c-0.816,0-1.42,0.243-1.812,0.73
	c-0.376,0.469-0.605,1.093-0.694,1.864h-3.127c0.167-1.494,0.636-2.673,1.433-3.507c1.008-1.058,2.424-1.584,4.248-1.584
	c0.608,0,1.2,0.078,1.776,0.237c0.576,0.16,1.088,0.425,1.536,0.793s0.808,0.863,1.08,1.488c0.272,0.623,0.408,1.399,0.408,2.328
	c0,0.336-0.021,0.694-0.06,1.079c-0.04,0.384-0.1,0.783-0.18,1.199h-7.2C42.575,61.111,42.835,61.871,43.307,62.382z M29.024,48.324
	v17.201c-0.099-0.004-0.183-0.004-0.284-0.008c-0.488-0.022-0.984-0.062-1.488-0.106c-0.504-0.049-0.964-0.121-1.38-0.217V48.632
	c0.304-0.048,0.652-0.096,1.044-0.144c0.392-0.048,0.812-0.087,1.26-0.12C28.451,48.349,28.74,48.337,29.024,48.324z M6.838,27.051
	v-8.504h88.371v8.504H6.838z M6.837,7.047h43.652c-2.306,0.123-4.143,2.015-4.143,4.352c0,1.956,1.292,3.592,3.062,4.152H6.837
	V7.047z M17.83,90.33c-0.346,0.756-0.831,1.385-1.456,1.89s-1.382,0.878-2.268,1.12c-0.887,0.242-1.862,0.363-2.926,0.363
	c-1.4,0-2.632-0.131-3.696-0.393c-1.064-0.263-1.848-0.521-2.352-0.783l1.232-3.275c0.206,0.111,0.471,0.233,0.798,0.363
	c0.326,0.131,0.695,0.252,1.106,0.363c0.41,0.11,0.844,0.207,1.302,0.278c0.458,0.074,0.929,0.111,1.414,0.111
	c1.139,0,2.011-0.191,2.618-0.574c0.606-0.381,0.91-0.964,0.91-1.749c0-0.597-0.22-1.082-0.658-1.455
	c-0.439-0.373-0.99-0.714-1.652-1.021c-0.663-0.31-1.382-0.625-2.156-0.952c-0.775-0.326-1.494-0.729-2.156-1.203
	c-0.663-0.479-1.214-1.068-1.652-1.778S5.58,80.021,5.58,78.92c0-0.953,0.158-1.777,0.476-2.479c0.317-0.699,0.77-1.283,1.358-1.75
	c0.588-0.47,1.283-0.812,2.086-1.035c0.802-0.228,1.698-0.337,2.688-0.337c1.138,0,2.212,0.099,3.22,0.294
	c1.008,0.195,1.838,0.479,2.492,0.854l-1.204,3.221c-0.411-0.262-1.027-0.498-1.848-0.714c-0.822-0.214-1.708-0.319-2.66-0.319
	c-0.896,0-1.582,0.177-2.058,0.529c-0.476,0.356-0.714,0.83-0.714,1.431c0,0.56,0.219,1.024,0.658,1.397
	c0.438,0.373,0.989,0.719,1.652,1.035c0.662,0.318,1.381,0.645,2.156,0.98c0.774,0.336,1.493,0.742,2.156,1.219
	c0.662,0.476,1.213,1.062,1.652,1.764c0.438,0.699,0.658,1.572,0.658,2.617C18.348,88.674,18.175,89.574,17.83,90.33z
	 M32.656,93.311h-11.76v-19.6h11.62v3.416h-7.784v4.564h7.084v3.416h-7.084v4.787h7.924V93.311z M31.152,65.552
	c-0.272,0-0.621,0-1.044,0c-0.326,0-0.69-0.013-1.056-0.026v-2.87c0.081,0.028,0.203,0.053,0.372,0.066
	c0.176,0.018,0.364,0.027,0.564,0.035c0.2,0.007,0.408,0.017,0.624,0.023c0.216,0.007,0.404,0.011,0.564,0.011
	c0.399,0,0.788-0.047,1.164-0.143c0.375-0.096,0.708-0.24,0.996-0.439c0.288-0.197,0.52-0.447,0.696-0.748
	c0.176-0.301,0.264-0.657,0.264-1.068c0-0.521-0.104-0.936-0.312-1.234s-0.48-0.534-0.816-0.701
	c-0.336-0.166-0.712-0.271-1.128-0.32c-0.416-0.047-0.832-0.07-1.248-0.07h-1.74V55.57h1.044v-0.004c0.224,0,0.484-0.008,0.78-0.021
	c0.296-0.013,0.54-0.04,0.732-0.07C32.216,55.286,32.74,55,33.18,54.62c0.44-0.379,0.66-0.878,0.66-1.496
	c0-0.413-0.081-0.751-0.24-1.021c-0.16-0.271-0.372-0.484-0.636-0.644c-0.264-0.158-0.564-0.269-0.9-0.332s-0.688-0.095-1.056-0.095
	c-0.417,0-0.8,0.007-1.152,0.021c-0.346,0.018-0.612,0.039-0.804,0.07v-2.804c0.169-0.008,0.332-0.021,0.504-0.026
	c0.472-0.016,0.94-0.024,1.404-0.024c0.784,0,1.548,0.06,2.292,0.18s1.408,0.332,1.992,0.636c0.584,0.304,1.052,0.729,1.404,1.272
	c0.352,0.543,0.528,1.23,0.528,2.062c0,0.417-0.052,0.833-0.156,1.249s-0.276,0.796-0.516,1.143c-0.24,0.345-0.552,0.646-0.936,0.91
	c-0.384,0.266-0.849,0.461-1.392,0.59v0.144c0.48,0.08,0.936,0.217,1.368,0.408c0.432,0.189,0.808,0.456,1.128,0.793
	c0.32,0.336,0.572,0.743,0.756,1.223c0.184,0.48,0.276,1.049,0.276,1.705c0,0.863-0.184,1.611-0.552,2.244
	c-0.369,0.632-0.86,1.147-1.476,1.546c-0.616,0.4-1.316,0.697-2.1,0.889C32.792,65.455,31.984,65.552,31.152,65.552z M45.816,93.312
	l-4.452-7.675l-1.991-0.358v-2.607h1.599c1.064,0,1.913-0.242,2.548-0.728c0.634-0.484,0.952-1.287,0.952-2.408
	c0-0.84-0.262-1.498-0.784-1.976c-0.523-0.476-1.289-0.714-2.296-0.714c-0.392,0-0.78,0.011-1.162,0.027
	c-0.383,0.021-0.677,0.056-0.882,0.112v5.41h-0.003v3.562h0.003v7.352h-3.836V73.908c0.429-0.075,0.891-0.146,1.386-0.211
	c0.495-0.065,0.989-0.116,1.484-0.154c0.495-0.037,0.976-0.064,1.442-0.084c0.466-0.018,0.896-0.027,1.288-0.027
	c0.915,0,1.815,0.084,2.702,0.252c0.886,0.168,1.68,0.457,2.38,0.868c0.7,0.411,1.26,0.978,1.68,1.694s0.63,1.619,0.63,2.701
	c0,1.604-0.374,2.912-1.12,3.92c-0.746,1.008-1.746,1.709-2.996,2.1l1.372,0.868l4.48,7.478H45.816z M59.173,93.452H56.43
	l-7.337-19.74h4.452l3.919,11.508l0.504,3.332h0.14l0.562-3.36l3.752-11.479h4.031L59.173,93.452z M66.695,52.014
	c-0.592,0-1.057-0.187-1.396-0.562c-0.336-0.376-0.504-0.876-0.504-1.5c0-0.64,0.103-1.184,0.304-1.632
	c0.196-0.448,0.438-0.819,0.719-1.116c0.281-0.296,0.572-0.528,0.877-0.696c0.304-0.168,0.568-0.292,0.791-0.372l0.77,1.296
	c-0.32,0.128-0.592,0.332-0.816,0.612c-0.224,0.28-0.353,0.58-0.385,0.9c0.32,0,0.612,0.141,0.877,0.42
	c0.264,0.281,0.396,0.653,0.396,1.115c0,0.465-0.156,0.836-0.469,1.116C67.546,51.874,67.159,52.014,66.695,52.014z M79.639,93.311
	h-11.76v-19.6h11.62v3.416h-7.784v4.564h7.084v3.416h-7.084v4.787h7.924V93.311z M92.798,93.312l-4.45-7.675l-1.982-0.356v-2.609
	h1.591c1.063,0,1.913-0.242,2.548-0.728c0.635-0.484,0.952-1.287,0.952-2.408c0-0.84-0.263-1.498-0.784-1.976
	c-0.521-0.477-1.288-0.714-2.296-0.714c-0.394,0-0.778,0.011-1.162,0.027c-0.383,0.021-0.677,0.056-0.882,0.112v5.685h0.005v2.604
	l-0.006-0.002v8.037h-3.836V73.908h0.001c0.429-0.075,0.893-0.146,1.386-0.211c0.494-0.065,0.989-0.116,1.484-0.154
	c0.493-0.037,0.974-0.064,1.44-0.084c0.467-0.018,0.896-0.027,1.286-0.027c0.915,0,1.815,0.084,2.702,0.252
	c0.889,0.168,1.682,0.457,2.38,0.868c0.701,0.411,1.263,0.978,1.683,1.694s0.629,1.619,0.629,2.701c0,1.604-0.372,2.912-1.118,3.92
	c-0.747,1.008-1.746,1.709-2.996,2.1l1.372,0.869l4.479,7.477H92.798z"/>
</svg>
