<?xml version="1.0" encoding="utf-8"?>
<!-- Generator: Adobe Illustrator 15.0.2, SVG Export Plug-In . SVG Version: 6.00 Build 0)  -->
<!DOCTYPE svg PUBLIC "-//W3C//DTD SVG 1.1//EN" "http://www.w3.org/Graphics/SVG/1.1/DTD/svg11.dtd">
<svg version="1.1" id="Ebene_1" xmlns="http://www.w3.org/2000/svg" xmlns:xlink="http://www.w3.org/1999/xlink" x="0px" y="0px"
	 width="102.047px" height="102.047px" viewBox="0 0 102.047 102.047" enable-background="new 0 0 102.047 102.047"
	 xml:space="preserve">
<g transform="scale(0.03125 0.03125)">
	<path fill="#1A7D09" d="M3197.469,2849.75c0,192.062-155.656,347.719-347.625,347.719H415.703
		c-192,0-347.672-155.656-347.672-347.719V415.766c0-192.062,155.672-347.734,347.672-347.734h2434.141
		c191.969,0,347.625,155.672,347.625,347.734V2849.75z"/>
	<path fill="#67E63E" d="M2812.5,133.172H453c-176.344,0-319.781,143.484-319.781,319.781V2812.5
		c0,176.312,143.484,319.75,319.781,319.75h2359.5c176.312,0,319.844-143.438,319.844-319.75V453
		C3132.344,276.656,2988.812,133.172,2812.5,133.172z M2916.312,405.344c36,0,65.125,29.188,65.125,65.188
		s-29.125,65.172-65.125,65.172s-65.219-29.172-65.219-65.172S2880.312,405.344,2916.312,405.344z M370.828,374.688
		c36,0,65.219,29.234,65.219,65.234s-29.219,65.172-65.219,65.172c-36.016,0-65.188-29.172-65.188-65.172
		S334.812,374.688,370.828,374.688z M793.469,2741.562c-10.312,37.812-27.5,71.219-51.531,100.469
		c-24.062,29.219-55.719,52.719-94.875,70.375c-39.25,17.75-87.766,26.656-145.547,26.656c-9.156,0-21.344-0.312-36.484-0.875
		c-2.188-0.094-4.531-0.188-6.672-0.281v-106.594c2.188,0.375,4.859,0.594,8.344,0.781c5.453,0.188,11.328,0.562,17.625,0.844
		s12.328,0.469,18.047,0.781c5.688,0.375,9.984,0.469,12.844,0.469c33.234,0,60.844-5.812,82.906-17.562
		c22-11.656,39.5-27.312,52.375-46.812c12.844-19.469,21.875-41.812,27.031-67.312s7.75-51.688,7.75-78.531
		c0-23.469-2.312-47.062-6.875-70.938c-4.594-23.688-13.062-45.094-25.312-63.906c-12.375-18.906-29.094-34.281-50.25-46.5
		c-21.203-12.031-48.125-17.969-80.75-17.969c-12.594,0-25.297,0.312-38.188,0.781c-12.906,0.656-22.5,1.531-28.75,2.656v402.656
		c0.562,0.188,1.531,0.281,2.344,0.375v106.688c-12.953-0.469-25.984-1.062-39.734-1.812c-16.281-0.781-31.906-1.719-46.797-2.594
		c-14.906-0.844-26.078-1.906-33.469-2.969v-601.844c12.031-1.719,25.594-3.156,40.766-4.406
		c15.188-1.125,30.766-1.906,46.797-2.469c16-0.656,31.625-1.062,46.797-1.344c15.141-0.375,28.797-0.469,40.781-0.469
		c53.25,0,98.766,7.344,136.516,22.344c37.844,14.812,68.438,35.719,91.938,62.656c23.438,26.938,40.625,59,51.531,96.156
		c10.844,37.25,16.281,78.125,16.281,122.812C808.906,2664.562,803.75,2703.812,793.469,2741.562L793.469,2741.562z
		 M958.875,1772.188v76.5h-0.281v140.688c0.062,0,0.188,0,0.281,0v88.031c-3.281-0.094-6.094,0-9.5-0.188
		c-14.938-0.656-30.156-1.906-45.594-3.25c-15.469-1.531-29.594-3.719-42.344-6.688v-507.875c9.344-1.438,20-2.906,32.031-4.375
		c12.031-1.438,24.875-2.688,38.625-3.688c8.75-0.625,17.812-1,26.781-1.375v85.938c-0.031,0-0.188,0-0.281,0.062v136.219H958.875
		L958.875,1772.188z M1253.656,2929.594H893.031V2328.5h356.312v104.75h-238.688v140.031h217.25v104.656h-217.25v146.875h243
		V2929.594z M1110.219,1882.219c-6.375-9.188-14.719-16.438-25.031-21.594c-10.312-5.062-21.812-8.312-34.562-9.75
		s-25.562-2.188-38.312-2.188H959.75v-76.5h31.281v-0.094c6.875,0,14.844-0.281,23.906-0.656c9.094-0.406,16.531-1.25,22.438-2.125
		c18.625-5.812,34.688-14.594,48.188-26.25c13.469-11.656,20.219-26.938,20.219-45.938c0-12.594-2.5-23.031-7.375-31.219
		c-4.875-8.312-11.344-14.906-19.469-19.781c-8.125-4.812-17.281-8.219-27.594-10.156s-21.125-2.938-32.375-2.938
		c-12.812,0-24.562,0.188-35.344,0.688c-10.219,0.469-18.062,1.125-23.875,2.094v-85.969c4.969-0.188,9.688-0.562,14.688-0.75
		c14.469-0.469,28.844-0.75,43.094-0.75c24,0,47.469,1.844,70.281,5.531c22.781,3.656,43.156,10.156,61.062,19.469
		c17.906,9.375,32.25,22.344,43.094,39.062c10.781,16.625,16.188,37.719,16.188,63.219c0,12.812-1.625,25.5-4.781,38.312
		c-3.188,12.781-8.5,24.438-15.844,34.938c-7.375,10.625-16.906,19.875-28.719,28c-11.781,8.125-26.031,14.031-42.688,18.031v4.406
		c14.719,2.469,28.719,6.688,41.969,12.5c13.25,5.844,24.75,14.062,34.594,24.375c9.812,10.312,17.5,22.812,23.188,37.438
		c5.656,14.688,8.469,32.188,8.469,52.312c0,26.469-5.656,49.375-16.969,68.781c-11.312,19.469-26.344,35.25-45.25,47.469
		c-18.875,12.312-40.344,21.375-64.375,27.312c-24.062,5.812-48.844,8.781-74.344,8.781c-8.375,0-19.062,0-32.062,0
		c-9.719,0-20.625-0.375-31.562-0.781v-87.844c2.5,0.75,5.875,1.438,10.625,1.812c5.375,0.562,11.156,0.844,17.312,1.156
		c6.125,0.188,12.531,0.469,19.094,0.656c6.656,0.188,12.438,0.281,17.312,0.281c12.25,0,24.156-1.344,35.719-4.281
		c11.5-2.969,21.719-7.375,30.562-13.469c8.781-6.125,15.938-13.75,21.344-22.938c5.375-9.25,8.062-20.25,8.062-32.844
		C1119.812,1904.094,1116.594,1891.375,1110.219,1882.219L1110.219,1882.219z M1278.875,1849.938h95.781
		c-0.031,0.562-0.188,1.031-0.25,1.719h136.875c1.938-26.562-2.062-46.906-12.125-61.125
		c-10.031-14.344-25.906-21.406-47.469-21.406c-25.031,0-43.562,7.562-55.594,22.438c-11.562,14.438-18.625,33.719-21.281,57.406
		h-95.906c5.125-45.844,19.5-82.125,44-107.719c30.875-32.469,74.344-48.625,130.25-48.625c18.625,0,36.812,2.406,54.438,7.281
		c17.688,4.969,33.375,13.062,47.125,24.344s24.781,26.438,33.094,45.656c8.375,19.094,12.531,42.875,12.531,71.344
		c0,10.312-0.625,21.281-1.812,33.125c-1.25,11.75-3.062,24.062-5.562,36.781h-220.781c1.469,30.938,9.438,54.25,23.906,69.812
		c14.469,15.844,37.906,23.688,70.281,23.688c20.156,0,38.156-3.062,54.125-9.188c15.938-6.094,28.062-12.406,36.438-18.719
		l31.656,62.469c-14.75,11.844-34.719,21.781-60,29.906c-25.281,8-52.188,12.125-80.594,12.125
		c-59.344,0-102.812-17.188-130.25-51.875c-27.531-34.562-41.219-82.031-41.219-142.375
		C1276.531,1873.812,1277.594,1861.781,1278.875,1849.938L1278.875,1849.938z M1591.125,2933.906h-84.156l-224.938-605.312h136.5
		l120.188,352.875l15.5,102.188h4.281l17.156-103.031l115.062-352.031h123.688L1591.125,2933.906L1591.125,2933.906z
		 M1987.844,2929.594h-117.656V2328.5h117.656V2929.594z M1988.969,2070.938h-95.688v-208.969c0-30-4.375-51.562-12.781-64.844
		c-8.781-13.188-23.312-19.781-43.938-19.781c-18.156,0-33.438,5.344-46.031,15.844c-12.406,10.625-21.406,23.688-26.75,39.375
		v238.375h-95.75v-368h75.875l11,48.625h2.969c11.25-15.75,26.25-29.406,44.875-41.25c18.719-11.75,42.781-17.688,72.188-17.688
		c18.156,0,34.312,2.5,48.531,7.375s26.25,12.969,36.094,24.25c9.75,11.281,17.188,26.656,22.062,46.031
		c4.875,19.281,7.344,43.25,7.344,71.719V2070.938L1988.969,2070.938z M2055.062,1599.844c0-19.625,3.156-36.281,9.375-50.031
		c6-13.719,13.375-25.125,21.969-34.25c8.594-9.062,17.562-16.125,26.906-21.281c9.375-5.156,17.406-8.969,24.281-11.469
		l23.688,39.781c-9.844,3.906-18.156,10.156-25.031,18.75c-6.969,8.625-10.875,17.781-11.844,27.625
		c9.75,0,18.719,4.281,26.938,12.875c8.031,8.594,12.125,20.031,12.125,34.188c0,14.281-4.781,25.688-14.438,34.25
		c-9.531,8.594-21.375,12.906-35.719,12.844c-18.125,0-32.375-5.719-42.781-17.188c-10.312-11.594-15.469-26.938-15.469-46.031
		V1599.844z M2319.438,1945.812c-8.406-5.906-18.719-11.281-30.969-16.219c-12.219-4.875-25.781-9.938-40.469-15.094
		c-14.719-5.156-28.188-12.25-40.406-21.312c-12.312-9.062-22.625-20.625-30.938-34.562c-8.312-14.031-12.531-32-12.531-54.156
		c0-36.281,10.906-64,32.469-83.094c21.594-19.281,52.719-28.844,93.406-28.844c28.094,0,53.312,3.062,75.938,8.781
		c22.531,5.938,40.188,12.625,53,19.875l-21.406,69.25c-11.25-4.5-25.375-9.094-42.688-14.031
		c-17.188-4.875-34.562-7.281-52.219-7.281c-28.469,0-42.688,11-42.688,33.062c0,8.875,4.188,16.031,12.5,21.375
		s18.625,10.406,30.938,15.094c12.219,4.594,25.688,9.562,40.406,15c14.688,5.438,28.156,12.406,40.406,21.094
		c12.312,8.5,22.625,19.688,30.938,33.438c8.406,13.75,12.594,31.406,12.594,53c0,37.344-12.031,66.656-35.719,87.969
		c-23.875,21.281-59.5,32-107.156,32c-25.969,0-50.406-3.25-73.156-9.844c-22.812-6.688-41.438-14.438-55.562-23.312l26.438-71.25
		c11.281,6.312,26.281,12.625,45,18.719c18.5,6.031,37.625,9.188,57.281,9.188c14.25,0,25.594-2.688,34.188-8.125
		s12.906-14.438,12.906-27.219C2331.938,1959.562,2327.719,1951.656,2319.438,1945.812L2319.438,1945.812z M2439.938,2933.125
		c-28.438,5.719-57.469,8.5-87.188,8.5c-36.094,0-70.281-5.625-102.656-16.719c-32.375-11.25-60.75-29.219-85.375-54.25
		c-24.656-24.812-44.219-57.094-58.844-96.938c-14.719-39.812-21.969-87.938-21.969-144.688c0-59,8.219-108.281,24.562-148.125
		c16.312-39.812,37.438-71.812,63.5-96.156s55-41.75,87.188-52.438c32-10.594,64.094-15.938,96.188-15.938
		c34.375,0,63.406,2.281,87.094,6.875c23.781,4.688,43.344,10.125,58.812,16.406l-23.094,99.625
		c-13.188-6.406-28.844-10.875-46.812-13.844c-18.125-2.875-39.906-4.219-65.688-4.219c-47.562,0-85.781,16.812-114.625,50.625
		c-28.844,33.906-43.344,86.438-43.344,157.594c0,30.938,3.344,59.188,10.312,84.688c6.875,25.5,17.188,47.375,31.312,65.438
		c13.969,18.156,31.344,32.094,52.344,42.219c20.812,10.031,45.094,14.969,72.594,14.969c25.688,0,47.469-2.562,65.125-7.719
		c17.75-5.156,33.25-11.656,46.406-19.688l24.062,95.625C2491.531,2918.125,2468.219,2927.406,2439.938,2933.125z
		 M2943.531,2929.594h-360.719V2328.5h356.438v104.75h-238.781v140.031h217.281v104.656h-217.281v146.875h243.062V2929.594z
		 M3004.375,896.812H294.281V636.031h920.031v-92.016h870.062v92.016h920V896.812z"/>
</g>
</svg>
