<?xml version="1.0" encoding="utf-8"?>
<!-- Generator: Adobe Illustrator 15.0.2, SVG Export Plug-In . SVG Version: 6.00 Build 0)  -->
<!DOCTYPE svg PUBLIC "-//W3C//DTD SVG 1.1//EN" "http://www.w3.org/Graphics/SVG/1.1/DTD/svg11.dtd">
<svg version="1.1" id="Ebene_1" xmlns="http://www.w3.org/2000/svg" xmlns:xlink="http://www.w3.org/1999/xlink" x="0px" y="0px"
	 width="120.5px" height="93.543px" viewBox="0 0 120.5 93.543" enable-background="new 0 0 120.5 93.543" xml:space="preserve">
<path fill="#F1007E" d="M109.134,48.052c-0.051-16.888-13.452-25.103-30.944-21.422c-5.09-6.609-17.625-10.908-28.087-7.141
	c-3.967,1.427-6.713,5.54-10.473,6.188c-3.26,0.563-6.55-0.695-9.045-0.476c-12.22,1.073-23.937,10.11-18.09,24.755
	c-3.237,3.407-7.156,6.235-8.093,10.95c-3.09,15.554,12.271,23.3,24.754,24.756c6.463,0.754,13.136-1.732,18.09-1.429
	c2.558,0.156,4.765,1.927,6.666,2.38c6.4,1.527,14.709,1.047,19.994-0.951c3.278-1.24,5.653-4.283,8.569-4.762
	c3.533-0.578,7.17,0.815,10.473,0.478c9.998-1.025,19.789-7.288,22.375-13.808C118.773,58.877,114.016,52.613,109.134,48.052z
	 M14.398,49.48c-5.349-13.255,5.091-22.123,16.186-23.326c2.774-0.302,6.433,1.173,9.998,0.476c4.45-0.87,7.655-6.229,14.281-7.141
	c10.469-1.441,17.436,3.14,22.852,7.616c16.073-3.043,28.885,4.515,29.039,20.471c2.043,1.569,3.58,3.256,4.674,5.006h-7.386v-1.795
	h-4.526v-2.735h4.047v-1.951h-4.047v-2.607h4.446v-1.952h-6.64v11.041h-1.937V41.541h-2.192v4.561h-4.096v-4.561h-2.191v11.041h-4.4
	v-9.089h3.266v-1.952h-8.736v1.952h3.279v9.089H68.41v-4.369h4.097v-1.952H68.41v-2.768h4.449v-1.952h-6.641v11.041h-4.295
	c0.58-0.252,1.076-0.627,1.486-1.127c0.826-1.008,1.24-2.446,1.24-4.312c0-0.875-0.096-1.67-0.287-2.385
	c-0.193-0.714-0.486-1.327-0.881-1.84c-0.395-0.512-0.891-0.907-1.488-1.185c-0.598-0.276-1.295-0.416-2.096-0.416
	c-1.525,0-2.699,0.505-3.52,1.513c-0.821,1.007-1.232,2.444-1.232,4.312c0,0.874,0.097,1.67,0.289,2.385
	c0.192,0.716,0.482,1.328,0.872,1.841c0.389,0.512,0.882,0.906,1.48,1.184c0.03,0.014,0.067,0.018,0.098,0.031h-9.986v-9.089h3.264
	v-1.952h-8.736v1.952h3.28v9.089h-5.908c0.305-0.125,0.589-0.271,0.827-0.465c0.357-0.287,0.635-0.647,0.832-1.08
	c0.197-0.432,0.296-0.945,0.296-1.543c0-0.599-0.126-1.097-0.376-1.496c-0.251-0.4-0.566-0.737-0.944-1.008
	c-0.379-0.272-0.79-0.505-1.232-0.696c-0.443-0.192-0.854-0.378-1.232-0.561c-0.379-0.182-0.694-0.379-0.944-0.592
	c-0.251-0.214-0.376-0.48-0.376-0.801c0-0.34,0.136-0.613,0.408-0.815s0.664-0.304,1.176-0.304c0.544,0,1.051,0.062,1.52,0.185
	c0.469,0.123,0.821,0.259,1.056,0.407l0.688-1.84c-0.374-0.214-0.848-0.376-1.424-0.488c-0.576-0.111-1.19-0.168-1.84-0.168
	c-0.566,0-1.078,0.063-1.536,0.191c-0.459,0.129-0.856,0.326-1.192,0.593c-0.336,0.268-0.595,0.601-0.776,1
	c-0.182,0.399-0.272,0.872-0.272,1.416c0,0.629,0.125,1.146,0.376,1.553c0.251,0.405,0.566,0.744,0.944,1.016
	c0.378,0.271,0.789,0.501,1.232,0.688c0.442,0.188,0.853,0.368,1.232,0.544c0.379,0.177,0.693,0.37,0.944,0.584
	s0.376,0.49,0.376,0.832c0,0.448-0.173,0.781-0.52,1c-0.347,0.22-0.846,0.328-1.496,0.328c-0.277,0-0.546-0.021-0.808-0.063
	c-0.262-0.042-0.51-0.097-0.744-0.16c-0.235-0.063-0.445-0.133-0.632-0.208c-0.187-0.074-0.339-0.145-0.456-0.208l-0.704,1.872
	c0.186,0.096,0.445,0.191,0.763,0.288h-1.867v-1.795H28.57v-2.735h4.048v-1.951H28.57v-2.607h4.448v-1.952h-6.64v11.041h-1.31
	l-2.465-4.113l-0.784-0.495c0.714-0.224,1.285-0.624,1.712-1.2c0.427-0.575,0.64-1.321,0.64-2.239c0-0.618-0.12-1.134-0.36-1.544
	c-0.24-0.41-0.56-0.734-0.96-0.969c-0.4-0.233-0.854-0.399-1.36-0.496c-0.507-0.096-1.022-0.145-1.544-0.145
	c-0.224,0-0.469,0.006-0.736,0.017c-0.267,0.012-0.542,0.027-0.824,0.049c-0.283,0.021-0.565,0.051-0.848,0.088
	s-0.547,0.076-0.792,0.12v10.928h-5.343C12.363,51.481,13.382,50.45,14.398,49.48z M93.193,48.053v4.529h-4.096v-4.529H93.193z
	 M61.708,50.103c-0.428,0.607-1.03,0.912-1.809,0.912c-0.427,0-0.795-0.097-1.104-0.288c-0.311-0.193-0.563-0.459-0.76-0.801
	c-0.198-0.341-0.344-0.749-0.44-1.225c-0.097-0.475-0.144-0.994-0.144-1.56c0-1.334,0.213-2.312,0.639-2.935
	c0.428-0.624,1.03-0.937,1.809-0.937c0.449,0,0.826,0.1,1.137,0.296c0.309,0.197,0.56,0.472,0.752,0.824
	c0.192,0.352,0.332,0.762,0.424,1.231c0.09,0.47,0.136,0.977,0.136,1.521C62.348,48.508,62.134,49.494,61.708,50.103z
	 M18.939,48.148l1.152,0.208l2.452,4.226h-3.604V48.148z M18.938,46.661v-3.248c0.117-0.032,0.285-0.053,0.504-0.063
	c0.219-0.011,0.44-0.017,0.664-0.017c0.577,0,1.013,0.135,1.312,0.408c0.299,0.272,0.448,0.648,0.448,1.128
	c0,0.64-0.182,1.099-0.544,1.376c-0.363,0.276-0.848,0.416-1.456,0.416H18.938z M80.57,78.996
	c-6.269,6.507-21.823,8.433-31.418,3.81c1.636-1.538,4.468-1.879,5.712-3.81c-12.987,8.438-38.938,5.588-46.356-6.997h28.777
	l0.005,0.02h1.552l0.006-0.02h4.596l0.006,0.02h1.472l0.005-0.02h6.66c0.41,0.101,0.847,0.168,1.335,0.168
	c0.477,0,0.906-0.068,1.314-0.168h23.285c0.065,0.005,0.125,0.01,0.201,0.015c0.276,0.016,0.566,0.031,0.871,0.048
	s0.598,0.029,0.881,0.04c0.282,0.012,0.508,0.016,0.681,0.016c0.522,0,1.002-0.041,1.443-0.118h26.301
	C101.678,78.225,91.15,81.941,80.57,78.996z M38.857,71.971l1.969-6.16l0.272-1.729h0.08l0.272,1.713l1.984,6.176H38.857z
	 M51.059,69.126c-0.198-0.341-0.344-0.749-0.44-1.225c-0.096-0.475-0.144-0.995-0.144-1.56c0-1.334,0.213-2.312,0.64-2.936
	c0.427-0.623,1.029-0.936,1.808-0.936c0.448,0,0.826,0.1,1.136,0.296c0.309,0.197,0.56,0.472,0.752,0.824
	c0.192,0.351,0.333,0.762,0.424,1.231c0.091,0.47,0.136,0.977,0.136,1.521c0,1.365-0.213,2.353-0.64,2.96
	c-0.427,0.607-1.029,0.912-1.808,0.912c-0.427,0-0.794-0.098-1.104-0.288C51.509,69.733,51.256,69.468,51.059,69.126z
	 M62.585,67.592l2.542,4.379h-3.693v-4.587L62.585,67.592z M61.434,65.896v-3.247c0.117-0.032,0.285-0.053,0.504-0.063
	c0.22-0.011,0.441-0.017,0.664-0.017c0.576,0,1.015,0.135,1.313,0.407c0.299,0.273,0.448,0.649,0.448,1.128
	c0,0.641-0.182,1.1-0.545,1.377c-0.362,0.276-0.848,0.415-1.455,0.415H61.434z M79.289,70.102v-7.504
	c0.117-0.021,0.297-0.037,0.537-0.048s0.477-0.017,0.711-0.017c0.609,0,1.109,0.112,1.504,0.338
	c0.395,0.224,0.707,0.513,0.938,0.863c0.229,0.352,0.387,0.749,0.472,1.192c0.086,0.442,0.129,0.882,0.129,1.319
	c0,0.502-0.049,0.989-0.146,1.464c-0.096,0.476-0.264,0.894-0.504,1.257c-0.24,0.361-0.565,0.652-0.977,0.872
	c-0.41,0.219-0.926,0.327-1.543,0.327c-0.055,0-0.135-0.002-0.24-0.008c-0.107-0.006-0.219-0.012-0.336-0.017
	c-0.117-0.006-0.227-0.011-0.328-0.017C79.404,70.121,79.332,70.113,79.289,70.102z M107.928,71.971H81.735
	c0.413-0.082,0.793-0.195,1.131-0.35c0.731-0.33,1.321-0.768,1.769-1.312c0.448-0.544,0.77-1.168,0.96-1.872
	c0.191-0.704,0.288-1.434,0.288-2.191c0-0.832-0.102-1.595-0.304-2.288c-0.203-0.693-0.522-1.29-0.961-1.792
	c-0.438-0.501-1.009-0.891-1.711-1.168c-0.705-0.277-1.554-0.416-2.546-0.416c-0.223,0-0.477,0.003-0.76,0.009
	c-0.283,0.004-0.572,0.012-0.871,0.022c-0.299,0.012-0.59,0.027-0.873,0.049c-0.282,0.021-0.534,0.048-0.76,0.08v11.215
	c0.031,0.005,0.079,0.009,0.118,0.014h-1.254V70.02h-4.896v-9.248h-2.192v11.199h-1.22l-2.559-4.267l-0.783-0.495
	c0.715-0.225,1.285-0.624,1.713-1.2c0.427-0.576,0.64-1.322,0.64-2.24c0-0.618-0.119-1.133-0.358-1.544
	c-0.24-0.41-0.562-0.733-0.962-0.968c-0.399-0.233-0.853-0.399-1.358-0.496c-0.508-0.096-1.022-0.145-1.545-0.145
	c-0.223,0-0.469,0.006-0.735,0.017s-0.542,0.027-0.823,0.048c-0.284,0.022-0.567,0.052-0.849,0.088
	c-0.282,0.037-0.547,0.077-0.792,0.12v11.082h-4.912c0.846-0.227,1.557-0.65,2.104-1.316c0.827-1.008,1.239-2.445,1.239-4.312
	c0-0.875-0.096-1.67-0.287-2.385c-0.192-0.714-0.485-1.327-0.88-1.841c-0.395-0.512-0.891-0.906-1.488-1.184
	s-1.296-0.416-2.096-0.416c-1.525,0-2.699,0.505-3.52,1.512c-0.821,1.008-1.232,2.445-1.232,4.312c0,0.874,0.096,1.67,0.288,2.385
	s0.482,1.328,0.872,1.84c0.389,0.512,0.882,0.907,1.48,1.185c0.21,0.098,0.451,0.156,0.688,0.22h-6.563l3.075-11.232h-2.224
	l-1.36,6.226l-0.24,2.016h-0.064l-0.224-1.983l-1.92-6.256h-1.44l-1.952,6.225l-0.224,2.016h-0.064l-0.208-1.984l-1.488-6.258
	h-2.384l3.059,11.232H8.49c-0.795-1.355-1.382-2.821-1.708-4.4c-1.312-6.352,1.247-11.105,4.597-14.96h5.368v0.13h2.192v-0.13h3.621
	l0.075,0.13h2.528l-0.078-0.13h1.292v0.13h6.72v-0.13h1.959c0.151,0.044,0.311,0.088,0.489,0.132
	c0.608,0.149,1.312,0.224,2.112,0.224c0.608,0,1.165-0.069,1.672-0.208c0.141-0.039,0.263-0.098,0.393-0.147h5.984v0.13h2.192v-0.13
	h10.074c0.558,0.228,1.191,0.356,1.925,0.356c0.729,0,1.374-0.123,1.943-0.356h4.378v0.13h2.191v-0.13h11.904v0.13h2.191v-0.13h4.4
	v0.13h2.191v-0.13h4.096v0.13h2.192v-0.13h1.937v0.13h6.72v-0.13h7.402C115.497,59.125,113.369,66.508,107.928,71.971z"/>
</svg>
