<?xml version="1.0" encoding="utf-8"?>
<!-- Generator: Adobe Illustrator 15.0.2, SVG Export Plug-In . SVG Version: 6.00 Build 0)  -->
<!DOCTYPE svg PUBLIC "-//W3C//DTD SVG 1.1//EN" "http://www.w3.org/Graphics/SVG/1.1/DTD/svg11.dtd">
<svg version="1.1" id="Ebene_1" xmlns="http://www.w3.org/2000/svg" xmlns:xlink="http://www.w3.org/1999/xlink" x="0px" y="0px"
	 width="102.047px" height="102.047px" viewBox="0 0 102.047 102.047" enable-background="new 0 0 102.047 102.047"
	 xml:space="preserve">
<path fill="#555555" d="M80.768,11.662H74.68l2.754-5.765l-5.096-2.434l-3.917,8.199H32.594L28.67,3.451l-5.096,2.436l2.76,5.775
	h-5.055c-0.276,0-0.5,0.224-0.5,0.5v60.241c0,0.273,0.224,0.5,0.5,0.5h25.744v8.09h0.131l-5.45,5.45
	c-0.043,0.001-0.086,0-0.13,0.002c-0.354,0.012-0.699,0.031-1.035,0.054c-0.336,0.026-0.651,0.054-0.945,0.09
	c-0.294,0.036-0.555,0.072-0.783,0.108v12.42c0.312,0.07,0.657,0.126,1.035,0.162c0.378,0.033,0.75,0.061,1.116,0.078
	c0.366,0.019,0.708,0.025,1.026,0.025c0.318,0,0.579,0,0.783,0c0.488,0,0.962-0.058,1.429-0.146h7.557
	c0.437,0.131,0.908,0.218,1.454,0.218c0.541,0,1.02-0.085,1.463-0.218h5.906c0.331,0.14,0.725,0.217,1.197,0.217
	c0.445,0,0.881-0.056,1.312-0.162c0.435-0.104,0.812-0.241,1.138-0.396L63.812,97.1c-0.221,0.098-0.412,0.168-0.586,0.215
	c-0.178,0.051-0.385,0.07-0.621,0.07c-0.352,0-0.584-0.133-0.711-0.402c-0.125-0.271-0.188-0.719-0.188-1.344v-3.453h2.196v-1.979
	h-2.196V87.85l-2.34,0.666v1.691h-1.242v1.979h1.242v4.533c0,0.977,0.194,1.674,0.585,2.102c0.152,0.167,0.35,0.292,0.57,0.394
	h-5.746c0.613-0.201,1.141-0.52,1.559-0.985c0.738-0.821,1.105-1.996,1.105-3.521c0-0.708-0.086-1.354-0.26-1.943
	c-0.178-0.588-0.438-1.09-0.783-1.504c-0.351-0.414-0.787-0.733-1.314-0.963c-0.527-0.229-1.152-0.342-1.872-0.342
	c-1.344,0-2.388,0.411-3.132,1.231c-0.744,0.821-1.116,1.996-1.116,3.521c0,0.708,0.087,1.354,0.262,1.942
	c0.174,0.59,0.438,1.091,0.792,1.505s0.795,0.731,1.323,0.963c0.099,0.043,0.218,0.061,0.323,0.096h-7.306
	c0.077-0.016,0.156-0.022,0.232-0.042c0.588-0.144,1.113-0.366,1.575-0.666s0.831-0.687,1.107-1.161
	c0.276-0.474,0.414-1.037,0.414-1.683c0-0.492-0.069-0.918-0.207-1.278c-0.138-0.358-0.327-0.666-0.567-0.918
	c-0.24-0.252-0.522-0.448-0.846-0.594c-0.324-0.146-0.666-0.246-1.026-0.308v-0.106c0.408-0.094,0.756-0.243,1.044-0.44
	s0.522-0.427,0.702-0.685c0.18-0.256,0.309-0.543,0.387-0.854c0.078-0.312,0.117-0.623,0.117-0.937c0-0.624-0.133-1.142-0.396-1.546
	c-0.264-0.407-0.615-0.725-1.053-0.954s-0.936-0.387-1.494-0.479c-0.558-0.091-1.131-0.136-1.719-0.136
	c-0.298,0-0.6,0.007-0.902,0.018l5.449-5.448h7.851v-8.09h25.744c0.274,0,0.5-0.227,0.5-0.5V12.162
	C81.268,11.886,81.044,11.662,80.768,11.662z M51.482,95.803c-0.072-0.336-0.108-0.701-0.108-1.098c0-0.984,0.162-1.691,0.485-2.124
	c0.324-0.433,0.772-0.647,1.351-0.647c0.66,0,1.128,0.254,1.404,0.769c0.276,0.511,0.413,1.179,0.413,2.007
	c0,0.958-0.149,1.662-0.449,2.104c-0.301,0.444-0.756,0.666-1.368,0.666c-0.324,0-0.603-0.065-0.837-0.207
	c-0.234-0.138-0.422-0.332-0.566-0.584C51.663,96.436,51.555,96.139,51.482,95.803z M45.129,95.515c0,0.312-0.066,0.576-0.198,0.802
	c-0.132,0.229-0.306,0.414-0.522,0.562c-0.216,0.148-0.465,0.258-0.747,0.329c-0.282,0.071-0.573,0.106-0.873,0.106
	c-0.121,0-0.262-0.002-0.423-0.01c-0.162-0.006-0.318-0.012-0.468-0.018c-0.151-0.006-0.291-0.016-0.423-0.027
	c-0.132-0.012-0.228-0.029-0.288-0.054V93.77h1.314c0.312,0,0.624,0.021,0.936,0.056c0.312,0.032,0.594,0.112,0.846,0.237
	s0.456,0.302,0.612,0.525C45.051,94.814,45.129,95.122,45.129,95.515z M41.799,88.512c0.264-0.012,0.552-0.019,0.864-0.019
	c0.276,0,0.54,0.021,0.792,0.069c0.252,0.05,0.477,0.133,0.675,0.25c0.198,0.117,0.357,0.276,0.477,0.479
	c0.119,0.203,0.18,0.457,0.18,0.768c0,0.463-0.165,0.838-0.495,1.121c-0.33,0.286-0.723,0.498-1.179,0.645
	c-0.144,0.025-0.327,0.041-0.549,0.053s-0.417,0.02-0.585,0.02h-0.792v-3.33C41.331,88.542,41.535,88.525,41.799,88.512z
	 M45.828,64.873H29.939v-8.042h15.889V64.873z M45.828,56.132H29.939v-7.449h15.889V56.132z M54.4,64.873h-7.875v-8.042H54.4V64.873
	z M54.4,56.132h-7.875v-7.449H54.4V56.132z M62.948,64.873H55.1v-8.042h7.85L62.948,64.873L62.948,64.873z M62.948,56.132H55.1
	v-7.449h7.85L62.948,56.132L62.948,56.132z M72.859,64.873h-9.213v-8.042h9.213V64.873z M72.859,56.132h-9.213v-7.449h9.213V56.132z
	 M65.175,40.993c-7.266,0-13.204-5.373-13.493-12.077h2.012c0.291,5.6,5.322,10.077,11.481,10.077
	c6.347,0,11.511-4.749,11.511-10.585c0-5.837-5.164-10.586-11.511-10.586c-6.065,0-11.081,4.34-11.471,9.899l-0.039,0.658
	c0,0.009,0,0.019,0,0.028c0,0.171,0.021,0.337,0.028,0.505h-2.012c-0.002-0.042-0.011-0.083-0.012-0.125h-2.749
	c0.003,0.042,0.002,0.083,0.004,0.125h-2.007c-0.022-0.301-0.057-0.61-0.119-0.941l-0.023-0.122c-0.82-4.053-4.65-6.983-9.151-6.983
	c-5.139,0-9.32,3.838-9.32,8.556c0,4.717,4.181,8.555,9.32,8.555c5.138,0,9.319-3.838,9.319-8.555c0-0.165-0.013-0.336-0.026-0.506
	h2.008c0.01,0.17,0.018,0.339,0.018,0.506c0,5.82-5.078,10.555-11.319,10.555c-6.242,0-11.32-4.735-11.32-10.555
	c0-5.82,5.078-10.556,11.32-10.556c5.202,0,9.673,3.278,10.949,7.906h3.219c0.865-6.212,6.559-10.951,13.381-10.951
	c7.45,0,13.512,5.646,13.512,12.586C78.686,35.348,72.625,40.993,65.175,40.993z M63.799,30.527c0-1.83,1.488-3.318,3.317-3.318
	s3.317,1.489,3.317,3.318c0,1.829-1.488,3.315-3.317,3.315S63.799,32.356,63.799,30.527z M40.92,28.658
	c0,1.605-1.306,2.912-2.912,2.912c-1.605,0-2.912-1.307-2.912-2.912s1.306-2.911,2.912-2.911
	C39.614,25.747,40.92,27.053,40.92,28.658z"/>
</svg>
