<?xml version="1.0" encoding="utf-8"?>
<!-- Generator: Adobe Illustrator 15.0.2, SVG Export Plug-In . SVG Version: 6.00 Build 0)  -->
<!DOCTYPE svg PUBLIC "-//W3C//DTD SVG 1.1//EN" "http://www.w3.org/Graphics/SVG/1.1/DTD/svg11.dtd">
<svg version="1.1" id="Ebene_1" xmlns="http://www.w3.org/2000/svg" xmlns:xlink="http://www.w3.org/1999/xlink" x="0px" y="0px"
	 width="120.5px" height="93.543px" viewBox="0 0 120.5 93.543" enable-background="new 0 0 120.5 93.543" xml:space="preserve">
<g>
	<path fill="#333333" d="M64.334,28.426v9.423l32.639,18.844l-0.051,0.029H80.6l0.053-0.03l-16.318-9.422v9.453h-8.163V28.404
		l-40.797,23.55v9.421l8.056-4.65h16.321l-16.219,9.362l16.32,9.421V56.725h8.158v23.496l8.161,4.712V56.725h8.163v9.389
		l16.261-9.389h16.322L64.334,75.537v9.422l40.797-23.557V51.98L64.334,28.426z M39.853,56.722v-0.056l-0.097,0.056H23.435
		L48.01,42.535v14.187H39.853z"/>
	<polygon fill="#333333" points="56.171,28.403 56.171,28.404 56.172,28.403 	"/>
</g>
</svg>
