<?xml version="1.0" encoding="utf-8"?>
<!-- Generator: Adobe Illustrator 15.0.2, SVG Export Plug-In . SVG Version: 6.00 Build 0)  -->
<!DOCTYPE svg PUBLIC "-//W3C//DTD SVG 1.1//EN" "http://www.w3.org/Graphics/SVG/1.1/DTD/svg11.dtd">
<svg version="1.1" id="Ebene_1" xmlns="http://www.w3.org/2000/svg" xmlns:xlink="http://www.w3.org/1999/xlink" x="0px" y="0px"
	 width="120.5px" height="93.543px" viewBox="0 0 120.5 93.543" enable-background="new 0 0 120.5 93.543" xml:space="preserve">
<path fill="#555555" d="M77.248,17.858c-12.286,0-23.28,4.47-30.674,11.512H9.031c-1.691,0-3.062,1.371-3.062,3.062V44.68
	c0,1.691,1.371,3.062,3.062,3.062H24.34v3.062c0,1.691,1.371,3.062,3.062,3.062h9.743c1.087,8.946,6.595,16.839,14.737,22.203
	c0.11,0.734,0.169,1.489,0.169,2.259c0,5.503-4.681,10.318-10.078,12.962v2.12c9.994-0.229,20.332-1.78,28.989-10.44
	c2.049,0.263,4.147,0.397,6.286,0.397c22.264,0,40.312-14.665,40.312-32.755C117.561,32.522,99.512,17.858,77.248,17.858z
	 M24.34,41.618H12.092v-6.124H24.34V41.618z M30.465,35.494h11.023c-2.388,3.721-3.921,7.859-4.39,12.247h-6.633V35.494z
	 M55.795,53.866h-17.65c-0.13-1.071-0.21-2.155-0.21-3.254c0-0.968,0.062-1.925,0.164-2.871h17.696
	c7.393,0,13.579-5.271,15.002-12.247H42.489c1.412-2.2,3.121-4.252,5.086-6.124h26.592c0.849,0,2.219-0.036,2.294-0.064
	c0.245-0.091,0.768,2.481,0.768,3.126C77.229,44.251,67.611,53.866,55.795,53.866z"/>
</svg>
