<?xml version="1.0" encoding="utf-8"?>
<!-- Generator: Adobe Illustrator 15.0.2, SVG Export Plug-In . SVG Version: 6.00 Build 0)  -->
<!DOCTYPE svg PUBLIC "-//W3C//DTD SVG 1.1//EN" "http://www.w3.org/Graphics/SVG/1.1/DTD/svg11.dtd">
<svg version="1.1" id="Ebene_1" xmlns="http://www.w3.org/2000/svg" xmlns:xlink="http://www.w3.org/1999/xlink" x="0px" y="0px"
	 width="120.5px" height="93.543px" viewBox="0 0 120.5 93.543" enable-background="new 0 0 120.5 93.543" xml:space="preserve">
<path fill="#555555" d="M105.424,45.419h-60.12l-0.021-14.582L15.137,60.648l30.23,29.895l-0.022-15.624h60.079V45.419z
	 M59.301,66.499c-0.672,0.562-1.477,0.969-2.412,1.226c-0.936,0.256-1.86,0.383-2.772,0.383c-1.072,0-2.068-0.168-2.988-0.504
	s-1.716-0.857-2.388-1.569c-0.672-0.712-1.2-1.62-1.584-2.726c-0.384-1.104-0.576-2.416-0.576-3.938
	c0-1.584,0.228-2.932,0.684-4.044c0.456-1.111,1.056-2.017,1.8-2.712s1.58-1.199,2.508-1.512c0.928-0.313,1.872-0.472,2.832-0.472
	c0.96,0,1.804,0.072,2.532,0.22c0.728,0.145,1.308,0.297,1.739,0.453l-0.672,2.762c-0.399-0.158-0.848-0.283-1.343-0.371
	c-0.496-0.088-1.128-0.133-1.896-0.133c-0.688,0-1.32,0.104-1.896,0.312c-0.576,0.209-1.077,0.549-1.5,1.021
	c-0.424,0.474-0.752,1.075-0.984,1.812c-0.232,0.736-0.348,1.633-0.348,2.688c0,1.01,0.112,1.875,0.336,2.604
	s0.536,1.329,0.936,1.801c0.399,0.474,0.868,0.819,1.404,1.044c0.536,0.227,1.108,0.336,1.716,0.336
	c0.416,0,0.824-0.052,1.224-0.153c0.4-0.104,0.736-0.263,1.008-0.471v-3.168l-3.624-0.384v-1.993h6.264V66.499z M71.805,67.771
	h-10.08V50.971h9.959v2.93h-6.672v3.912h6.072v2.929h-6.072v4.104h6.793V67.771z M86.18,53.898h-4.896v13.873h-3.287V53.898h-4.92
	V50.97H86.18V53.898z"/>
</svg>
