<?xml version="1.0" encoding="utf-8"?>
<!-- Generator: Adobe Illustrator 15.0.2, SVG Export Plug-In . SVG Version: 6.00 Build 0)  -->
<!DOCTYPE svg PUBLIC "-//W3C//DTD SVG 1.1//EN" "http://www.w3.org/Graphics/SVG/1.1/DTD/svg11.dtd">
<svg version="1.1" id="Ebene_1" xmlns="http://www.w3.org/2000/svg" xmlns:xlink="http://www.w3.org/1999/xlink" x="0px" y="0px"
	 width="120.5px" height="93.543px" viewBox="0 0 120.5 93.543" enable-background="new 0 0 120.5 93.543" xml:space="preserve">
<path fill="#555555" d="M105.424,45.419h-60.12l-0.021-14.582L15.137,60.648l30.23,29.895l-0.022-15.624h60.079V45.419z
	 M56.78,60.764c-0.608,0.465-1.3,0.801-2.076,1.008c-0.776,0.209-1.581,0.312-2.412,0.312c-0.08,0-0.208,0-0.384,0
	c-0.176,0-0.36-0.003-0.552-0.012c-0.192-0.008-0.38-0.021-0.564-0.036c-0.184-0.017-0.316-0.031-0.396-0.048v5.783h-3.288V51.14
	c0.672-0.128,1.412-0.228,2.22-0.3c0.808-0.072,1.612-0.107,2.412-0.107c0.832,0,1.668,0.067,2.508,0.203
	c0.84,0.141,1.596,0.408,2.268,0.816c0.672,0.408,1.22,0.977,1.644,1.703c0.424,0.729,0.637,1.677,0.637,2.845
	c0,1.056-0.185,1.948-0.553,2.677c-0.016,0.032-0.04,0.057-0.057,0.088h-4.94c0.361-0.085,0.695-0.213,0.989-0.401
	c0.336-0.216,0.604-0.517,0.804-0.899c0.2-0.384,0.3-0.889,0.3-1.512c0-0.527-0.096-0.964-0.288-1.309
	c-0.192-0.344-0.444-0.62-0.756-0.828c-0.312-0.207-0.668-0.354-1.068-0.432c-0.4-0.08-0.808-0.121-1.224-0.121
	c-0.32,0-0.624,0.013-0.912,0.037c-0.288,0.021-0.52,0.051-0.696,0.084v5.444c0.064,0.019,0.16,0.032,0.288,0.048
	c0.128,0.02,0.264,0.028,0.408,0.036c0.144,0.008,0.284,0.015,0.42,0.015c0.136,0,0.236,0,0.3,0c0.432,0,0.86-0.039,1.284-0.119
	c0.049-0.01,0.092-0.029,0.141-0.04h4.949C57.824,59.752,57.361,60.321,56.78,60.764z M72.441,65.839
	c-1.24,1.513-2.998,2.269-5.271,2.269c-1.216,0-2.271-0.209-3.168-0.625s-1.636-1.008-2.22-1.772s-1.021-1.688-1.308-2.76
	c-0.288-1.071-0.431-2.267-0.431-3.576c0-0.105,0.007-0.203,0.009-0.307h3.461c-0.002,0.105-0.013,0.195-0.013,0.304
	c0,0.849,0.072,1.629,0.217,2.341s0.363,1.323,0.66,1.836c0.295,0.513,0.676,0.912,1.139,1.199c0.465,0.288,1.021,0.433,1.656,0.433
	c1.168,0,2.072-0.456,2.713-1.367c0.639-0.912,0.959-2.393,0.959-4.438c0-0.812-0.068-1.575-0.203-2.279
	c-0.137-0.707-0.348-1.322-0.637-1.852c-0.287-0.527-0.664-0.939-1.127-1.235c-0.465-0.296-1.033-0.444-1.705-0.444
	c-1.168,0-2.072,0.472-2.711,1.404c-0.605,0.887-0.915,2.262-0.947,4.096h-3.462c0.045-2.646,0.653-4.704,1.841-6.158
	c1.229-1.516,2.99-2.271,5.277-2.271c1.201,0,2.248,0.209,3.146,0.625c0.896,0.416,1.641,1.01,2.229,1.775
	c0.595,0.769,1.031,1.688,1.319,2.761c0.287,1.071,0.433,2.265,0.433,3.575C74.301,62.171,73.68,64.326,72.441,65.839z
	 M86.745,65.218c-0.297,0.647-0.711,1.188-1.248,1.62c-0.535,0.432-1.185,0.752-1.942,0.96c-0.761,0.207-1.597,0.312-2.509,0.312
	c-1.201,0-2.256-0.112-3.168-0.337c-0.912-0.227-1.584-0.446-2.017-0.672l1.056-2.812c0.176,0.097,0.403,0.201,0.685,0.312
	c0.28,0.11,0.6,0.218,0.948,0.312c0.353,0.097,0.724,0.177,1.115,0.24c0.394,0.062,0.797,0.097,1.213,0.097
	c0.976,0,1.724-0.164,2.244-0.492c0.519-0.33,0.778-0.83,0.778-1.502c0-0.512-0.188-0.928-0.564-1.248
	c-0.375-0.317-0.848-0.608-1.416-0.876c-0.568-0.265-1.184-0.533-1.848-0.812s-1.28-0.624-1.848-1.032
	c-0.568-0.407-1.041-0.915-1.416-1.523c-0.377-0.604-0.564-1.384-0.564-2.327c0-0.813,0.137-1.521,0.408-2.125
	c0.271-0.601,0.66-1.101,1.164-1.5c0.504-0.396,1.1-0.692,1.787-0.888c0.688-0.192,1.457-0.289,2.305-0.289
	c0.977,0,1.896,0.085,2.76,0.253c0.865,0.168,1.576,0.412,2.137,0.731l-1.033,2.761c-0.352-0.225-0.879-0.429-1.584-0.611
	c-0.703-0.185-1.463-0.273-2.275-0.273c-0.771,0-1.354,0.148-1.768,0.456c-0.408,0.305-0.608,0.712-0.608,1.225
	c0,0.479,0.188,0.88,0.562,1.199c0.377,0.32,0.848,0.616,1.416,0.889c0.567,0.271,1.185,0.556,1.851,0.843
	c0.661,0.287,1.278,0.637,1.85,1.045c0.563,0.404,1.039,0.912,1.416,1.512c0.375,0.601,0.562,1.349,0.562,2.244
	C87.189,63.799,87.042,64.57,86.745,65.218z M101.3,53.898h-4.895v13.873h-3.289V53.898h-4.921V50.97H101.3V53.898z"/>
</svg>
