<?xml version="1.0" encoding="utf-8"?>
<!-- Generator: Adobe Illustrator 15.0.2, SVG Export Plug-In . SVG Version: 6.00 Build 0)  -->
<!DOCTYPE svg PUBLIC "-//W3C//DTD SVG 1.1//EN" "http://www.w3.org/Graphics/SVG/1.1/DTD/svg11.dtd">
<svg version="1.1" id="Ebene_1" xmlns="http://www.w3.org/2000/svg" xmlns:xlink="http://www.w3.org/1999/xlink" x="0px" y="0px"
	 width="120.5px" height="93.543px" viewBox="0 0 120.5 93.543" enable-background="new 0 0 120.5 93.543" xml:space="preserve">
<path fill="#555555" d="M105.423,60.648L75.277,30.837l-0.021,14.582h-60.12v29.5h60.078l-0.021,15.624L105.423,60.648z
	 M31.004,67.771h-3.288v-7.032H21.57v7.032h-3.288V50.971h3.288v6.84h6.146v-6.84h3.288V67.771z M43.988,67.771h-10.08V50.971h9.96
	v2.93h-6.672v3.912h6.072v2.93h-6.072v4.104h6.792V67.771z M56.059,67.771l-1.343-3.723h-5.16l-1.272,3.723h-3.288l6.048-16.92
	h1.176v4.176h-0.097l-0.504,2.664l-1.224,3.72h3.6l-1.248-3.743l-0.504-2.641H52.22v-4.176h1.248l6.048,16.92H56.059z
	 M73.699,62.516c-0.287,1.059-0.768,1.992-1.438,2.811c-0.673,0.812-1.558,1.473-2.651,1.968c-1.096,0.496-2.452,0.744-4.066,0.744
	c-0.256,0-0.598-0.008-1.021-0.023c-0.424-0.017-0.863-0.034-1.318-0.061c-0.457-0.023-0.895-0.048-1.311-0.071
	c-0.416-0.021-0.729-0.053-0.938-0.084V50.972c0.336-0.048,0.717-0.088,1.143-0.12c0.424-0.027,0.857-0.057,1.307-0.068
	c0.292-0.012,0.57-0.017,0.852-0.023v2.99c-0.003,0.001-0.009,0.002-0.012,0.002V65.01c0.062,0.02,0.172,0.028,0.322,0.036
	s0.314,0.017,0.492,0.023c0.176,0.009,0.344,0.017,0.504,0.021c0.16,0.01,0.278,0.014,0.359,0.014c0.93,0,1.699-0.164,2.312-0.49
	c0.615-0.327,1.104-0.768,1.467-1.312c0.357-0.544,0.607-1.172,0.756-1.884c0.146-0.712,0.217-1.441,0.217-2.193
	c0-0.655-0.062-1.315-0.191-1.979c-0.127-0.662-0.363-1.259-0.707-1.786c-0.346-0.528-0.812-0.961-1.404-1.297
	s-1.344-0.503-2.256-0.503c-0.352,0-0.707,0.009-1.068,0.024c-0.348,0.016-0.609,0.035-0.785,0.066v-2.99
	c0.149-0.003,0.307-0.009,0.453-0.012c0.426-0.008,0.807-0.016,1.143-0.016c1.487,0,2.761,0.207,3.812,0.623
	c1.059,0.416,1.912,1,2.566,1.752c0.656,0.756,1.139,1.648,1.44,2.688c0.304,1.04,0.454,2.185,0.454,3.433
	C74.131,60.365,73.986,61.46,73.699,62.516z"/>
</svg>
