<?xml version="1.0" encoding="utf-8"?>
<!-- Generator: Adobe Illustrator 15.0.2, SVG Export Plug-In . SVG Version: 6.00 Build 0)  -->
<!DOCTYPE svg PUBLIC "-//W3C//DTD SVG 1.1//EN" "http://www.w3.org/Graphics/SVG/1.1/DTD/svg11.dtd">
<svg version="1.1" id="Ebene_1" xmlns="http://www.w3.org/2000/svg" xmlns:xlink="http://www.w3.org/1999/xlink" x="0px" y="0px"
	 width="120.5px" height="93.543px" viewBox="0 0 120.5 93.543" enable-background="new 0 0 120.5 93.543" xml:space="preserve">
<path fill="#555555" d="M105.423,60.648L75.277,30.837l-0.021,14.582h-60.12v29.5h60.078l-0.021,15.624L105.423,60.648z
	 M27.504,61.771c-0.776,0.209-1.581,0.312-2.412,0.312c-0.08,0-0.208,0-0.384,0s-0.36-0.003-0.552-0.012
	c-0.192-0.009-0.38-0.021-0.562-0.036c-0.151-0.015-0.259-0.026-0.34-0.039v-2.848c0.053,0.01,0.094,0.02,0.169,0.028
	c0.128,0.019,0.264,0.028,0.408,0.036s0.284,0.014,0.42,0.014c0.136,0,0.236,0,0.3,0c0.432,0,0.86-0.039,1.284-0.119
	c0.423-0.08,0.804-0.229,1.14-0.444s0.604-0.517,0.804-0.899c0.2-0.384,0.3-0.889,0.3-1.512c0-0.527-0.096-0.964-0.288-1.309
	c-0.192-0.344-0.444-0.62-0.756-0.828c-0.312-0.207-0.668-0.354-1.068-0.432c-0.4-0.08-0.808-0.121-1.224-0.121
	c-0.32,0-0.624,0.013-0.912,0.037c-0.288,0.021-0.52,0.051-0.696,0.084v5.445c0.024,0.007,0.076,0.012,0.109,0.018v2.848
	c-0.014-0.002-0.034-0.004-0.046-0.007v5.782H19.91V51.14c0.672-0.128,1.412-0.228,2.22-0.3c0.808-0.072,1.612-0.107,2.412-0.107
	c0.832,0,1.668,0.067,2.508,0.203c0.84,0.14,1.596,0.408,2.268,0.816c0.672,0.408,1.22,0.977,1.644,1.703
	c0.423,0.729,0.636,1.677,0.636,2.845c0,1.056-0.184,1.948-0.552,2.677c-0.369,0.729-0.856,1.323-1.464,1.787
	C28.972,61.229,28.28,61.564,27.504,61.771z M41.412,67.771l-1.344-3.722h-5.16l-1.272,3.722h-3.288l6.048-16.92h1.078v4.176h-0.059
	l-0.504,2.664l-1.224,3.72h3.6l-1.248-3.743l-0.504-2.641h-0.061v-4.176h1.345l6.048,16.92H41.412z M56.364,53.898h-4.896v13.873
	H48.18V53.898h-4.92V50.97h13.104V53.898z M66.552,67.869c-0.792,0.159-1.604,0.238-2.437,0.238c-1.01,0-1.965-0.156-2.867-0.471
	c-0.904-0.312-1.701-0.813-2.39-1.512c-0.688-0.696-1.235-1.604-1.644-2.713c-0.408-1.111-0.612-2.46-0.612-4.044
	c0-1.647,0.228-3.027,0.684-4.142c0.456-1.111,1.048-2.009,1.776-2.688s1.539-1.167,2.436-1.463
	c0.896-0.297,1.791-0.445,2.688-0.445c0.961,0,1.771,0.064,2.438,0.193c0.664,0.127,1.213,0.277,1.646,0.455l-0.646,2.783
	c-0.369-0.178-0.805-0.306-1.309-0.386s-1.117-0.118-1.836-0.118c-1.33,0-2.396,0.475-3.205,1.418
	c-0.809,0.949-1.21,2.418-1.21,4.404c0,0.865,0.096,1.655,0.287,2.368c0.192,0.714,0.484,1.323,0.876,1.828
	c0.391,0.505,0.879,0.897,1.463,1.179s1.26,0.421,2.027,0.421c0.721,0,1.327-0.071,1.823-0.216s0.929-0.328,1.297-0.553l0.672,2.673
	C67.996,67.449,67.344,67.711,66.552,67.869z M73.836,60.74v7.031h-3.289V50.971h3.289v6.84h1.404h0.06h4.619v-6.84h3.288v16.801
	h-3.288V60.74h-4.622H75.24H73.836z"/>
</svg>
