<?xml version="1.0" encoding="utf-8"?>
<!-- Generator: Adobe Illustrator 15.0.2, SVG Export Plug-In . SVG Version: 6.00 Build 0)  -->
<!DOCTYPE svg PUBLIC "-//W3C//DTD SVG 1.1//EN" "http://www.w3.org/Graphics/SVG/1.1/DTD/svg11.dtd">
<svg version="1.1" id="Ebene_1" xmlns="http://www.w3.org/2000/svg" xmlns:xlink="http://www.w3.org/1999/xlink" x="0px" y="0px"
	 width="120.5px" height="93.543px" viewBox="0 0 120.5 93.543" enable-background="new 0 0 120.5 93.543" xml:space="preserve">
<path fill="#555555" d="M75.215,74.919l-0.021,15.624l30.229-29.895L75.277,30.837l-0.021,14.581h-60.12v29.5H75.24v0.001H75.215z
	 M45.86,58.977c-0.369,0.729-0.856,1.323-1.464,1.787c-0.608,0.465-1.3,0.801-2.076,1.008c-0.776,0.209-1.581,0.312-2.412,0.312
	c-0.08,0-0.208,0-0.384,0c-0.176,0-0.36-0.003-0.552-0.012c-0.192-0.008-0.38-0.021-0.564-0.036
	c-0.139-0.013-0.239-0.024-0.318-0.036v-2.863c0.062,0.014,0.133,0.027,0.239,0.04c0.128,0.019,0.264,0.028,0.408,0.036
	s0.284,0.014,0.42,0.014c0.136,0,0.236,0,0.3,0c0.432,0,0.86-0.039,1.284-0.119c0.423-0.08,0.804-0.229,1.14-0.444
	s0.604-0.517,0.804-0.899c0.2-0.384,0.3-0.889,0.3-1.512c0-0.527-0.096-0.964-0.288-1.309c-0.192-0.344-0.444-0.62-0.756-0.828
	c-0.312-0.207-0.668-0.354-1.068-0.432c-0.401-0.08-0.808-0.121-1.224-0.121c-0.32,0-0.624,0.013-0.912,0.037
	c-0.288,0.021-0.52,0.051-0.696,0.084v4.445v1v2.863c-0.008-0.001-0.021-0.002-0.029-0.004v5.783h-3.288V51.14
	c0.672-0.128,1.412-0.228,2.22-0.3s1.612-0.107,2.412-0.107c0.832,0,1.668,0.067,2.508,0.203c0.84,0.14,1.596,0.408,2.268,0.816
	c0.672,0.408,1.22,0.977,1.644,1.703c0.423,0.729,0.636,1.677,0.636,2.845C46.412,57.355,46.228,58.248,45.86,58.977z M60.692,61.82
	c0,1.089-0.145,2.021-0.432,2.809c-0.289,0.783-0.688,1.432-1.201,1.943c-0.512,0.513-1.136,0.889-1.871,1.128
	c-0.736,0.239-1.544,0.36-2.424,0.36c-4.256,0-6.384-1.944-6.384-5.832V50.972h3.288v10.607c0,0.656,0.06,1.212,0.18,1.668
	c0.12,0.456,0.308,0.824,0.564,1.104c0.256,0.277,0.576,0.479,0.96,0.6c0.384,0.12,0.832,0.181,1.344,0.181
	c1.008,0,1.736-0.28,2.184-0.841c0.448-0.561,0.672-1.464,0.672-2.712V50.972h3.12V61.82z M70.53,53.898v13.873h-3.286V53.898h-4.92
	V50.97h12.925v0.001h0.118v2.928h-0.066h-0.056H70.53z"/>
</svg>
