<?xml version="1.0" encoding="utf-8"?>
<!-- Generator: Adobe Illustrator 15.0.2, SVG Export Plug-In . SVG Version: 6.00 Build 0)  -->
<!DOCTYPE svg PUBLIC "-//W3C//DTD SVG 1.1//EN" "http://www.w3.org/Graphics/SVG/1.1/DTD/svg11.dtd">
<svg version="1.1" id="Ebene_1" xmlns="http://www.w3.org/2000/svg" xmlns:xlink="http://www.w3.org/1999/xlink" x="0px" y="0px"
	 width="120.5px" height="93.543px" viewBox="0 0 120.5 93.543" enable-background="new 0 0 120.5 93.543" xml:space="preserve">
<path fill="#555555" d="M105.423,60.648L75.277,30.837l-0.021,14.582h-60.12v29.5h60.078l-0.021,15.624L105.423,60.648z
	 M75.434,53.771h8.301v2.438h-5.562v3.26h5.062v2.439h-5.062v3.42h5.66v2.438h-8.399V53.771z M27.244,67.372
	c-0.914,0.413-2.043,0.62-3.39,0.62c-0.213,0-0.497-0.01-0.85-0.021c-0.354-0.014-0.72-0.027-1.1-0.05
	c-0.38-0.021-0.743-0.04-1.09-0.062s-0.607-0.043-0.78-0.068v-14.02c0.28-0.041,0.596-0.073,0.95-0.104
	c0.353-0.023,0.717-0.047,1.09-0.062c0.373-0.015,0.736-0.021,1.09-0.028c0.353-0.006,0.67-0.011,0.95-0.011
	c1.24,0,2.3,0.175,3.18,0.521c0.88,0.35,1.593,0.833,2.14,1.46c0.546,0.627,0.946,1.373,1.2,2.239
	c0.253,0.867,0.38,1.818,0.38,2.857c0,0.951-0.12,1.864-0.36,2.744c-0.205,0.754-0.535,1.428-0.974,2.035h-4.42
	c0.285-0.067,0.552-0.153,0.783-0.275c0.513-0.272,0.92-0.64,1.22-1.093c0.3-0.45,0.51-0.977,0.63-1.566
	c0.12-0.595,0.18-1.203,0.18-1.83c0-0.547-0.053-1.099-0.16-1.649c-0.107-0.56-0.304-1.057-0.59-1.496
	c-0.287-0.438-0.677-0.8-1.17-1.078c-0.493-0.278-1.12-0.425-1.88-0.425c-0.293,0-0.59,0.009-0.89,0.021
	c-0.3,0.014-0.523,0.032-0.67,0.061v9.331h-0.03v0.003h0.03v0.046c0.053,0.018,0.143,0.023,0.27,0.03
	c0.126,0.007,0.263,0.013,0.41,0.021c0.146,0.01,0.287,0.017,0.42,0.021c0.133,0.008,0.233,0.011,0.3,0.011
	c0.42,0,0.795-0.049,1.139-0.129h4.426c-0.074,0.102-0.144,0.206-0.224,0.304C28.894,66.412,28.157,66.959,27.244,67.372z
	 M41.374,67.77h-8.4V53.771h8.3v2.438h-5.56v3.26h5.06v2.439h-5.06v3.42h5.66V67.77z M52.274,67.771h-8.86v-14h2.74v11.56h6.12
	V67.771z M62.094,67.77h-8.399V53.771h8.299v2.438h-5.56v3.26h5.06v2.439h-5.06v3.42h5.66V67.77z M74.074,56.211h-4.08v11.561h-2.74
	V56.211h-4.102v-2.439h10.922V56.211z"/>
</svg>
