<?xml version="1.0" encoding="utf-8"?>
<!-- Generator: Adobe Illustrator 15.0.2, SVG Export Plug-In . SVG Version: 6.00 Build 0)  -->
<!DOCTYPE svg PUBLIC "-//W3C//DTD SVG 1.1//EN" "http://www.w3.org/Graphics/SVG/1.1/DTD/svg11.dtd">
<svg version="1.1" id="Ebene_1" xmlns="http://www.w3.org/2000/svg" xmlns:xlink="http://www.w3.org/1999/xlink" x="0px" y="0px"
	 width="120.5px" height="93.543px" viewBox="0 0 120.5 93.543" enable-background="new 0 0 120.5 93.543" xml:space="preserve">
<path fill="#555555" d="M105.557,55.951c-0.674-6.573-2.529-11.577-5.779-15.616c-1.463-1.819-3.565-3.581-4.473-3.748
	c-0.225-0.044-0.492-0.029-0.854,0.043l-0.53,0.11l-0.384-0.196c-0.356-0.188-0.466-0.203-1.335-0.225
	c-1.521-0.044-6.809,0.116-7.794,0.239c-0.5,0.059-1.312,0.188-1.812,0.291c-1.036,0.217-1.139,0.209-2.465-0.146
	c-1.203-0.326-1.886-0.429-2.973-0.429c-1.06,0-1.595,0.103-3.002,0.588c-1.189,0.413-1.349,0.406-2.835-0.152
	c-0.603-0.218-1.334-0.442-1.633-0.486c-0.955-0.145-2.151,0.016-3.951,0.53c-1.362,0.384-1.659,0.369-3.297-0.203
	c-1.08-0.377-1.27-0.421-1.936-0.45c-0.907-0.043-1.625,0.059-3.068,0.436c-1.442,0.369-1.863,0.362-3.189-0.072
	c-0.501-0.16-1.008-0.312-1.124-0.334c-0.124-0.029-1.717-0.072-3.552-0.109l-3.343-0.064l-0.537-0.269
	c-0.934-0.471-1.674-0.413-2.719,0.203c-1.29,0.755-2.333,2.161-3.197,4.3c-1.195,2.986-2.276,8.468-2.747,13.951
	c-0.188,2.211-0.326,4.631-0.326,5.74v1.065l-0.66-0.429c-0.653-0.42-0.667-0.434-0.979-1.043c-0.653-1.312-1.69-2.705-3.001-4.062
	c-1.298-1.341-2.269-1.986-3.661-2.435c-0.552-0.183-0.754-0.312-2.625-1.713c-2.27-1.711-3.19-2.146-5.314-2.537
	c-0.863-0.151-2.98-0.217-3.567-0.108c-1.29,0.254-2.835,1.175-3.227,1.922c-0.573,1.094-0.884,3.153-0.646,4.228
	c0.211,0.92,1.312,3.371,2.176,4.836c0.754,1.275,4.162,5.705,6.453,8.382c4.125,4.813,7.163,7.715,11.374,10.875
	c2.545,1.914,4.307,3.01,6.815,4.241c1.139,0.564,1.393,0.719,1.56,0.949c0.311,0.428,0.949,0.973,1.363,1.167
	c0.768,0.356,1.965,0.399,2.783,0.109c0.348-0.123,0.746-0.152,2.756-0.226c3.791-0.131,3.828-0.131,4.625-0.405
	c0.855-0.29,1.871-0.472,2.632-0.472c0.378,0,1.132,0.107,2.255,0.334c1.4,0.274,1.834,0.334,2.56,0.34
	c0.813,0.008,0.951-0.015,2.162-0.333c1.536-0.406,1.84-0.421,3.044-0.13c1.559,0.384,2.632,0.491,3.502,0.377
	c0.326-0.052,1.132-0.247,1.791-0.442c2.021-0.603,2.227-0.603,4.422-0.08c1.443,0.349,2.256,0.464,2.792,0.399
	c0.231-0.021,0.914-0.203,1.53-0.406c1.298-0.414,1.898-0.565,2.269-0.565c0.146,0,0.669,0.115,1.16,0.269
	c2.306,0.683,1.677,0.608,5.75,0.631c1.993,0.008,3.72-0.014,3.828-0.043c0.116-0.029,0.349-0.167,0.522-0.312
	c0.174-0.139,0.34-0.254,0.369-0.254c0.028,0,0.211,0.102,0.405,0.226c0.188,0.123,0.464,0.254,0.609,0.282
	c0.616,0.138,2.261-0.522,3.233-1.291c1.493-1.188,3.247-3.727,4.633-6.707c1.688-3.64,2.77-7.976,3.196-12.848
	C105.73,62.057,105.709,57.475,105.557,55.951z M53.279,65.699c-0.296,0.646-0.712,1.188-1.248,1.62
	c-0.537,0.432-1.185,0.752-1.944,0.96c-0.759,0.208-1.596,0.312-2.508,0.312c-1.2,0-2.256-0.112-3.168-0.336
	s-1.584-0.446-2.016-0.672l1.056-2.808c0.176,0.096,0.404,0.199,0.684,0.312c0.28,0.112,0.596,0.216,0.948,0.312
	c0.352,0.097,0.724,0.177,1.116,0.239c0.392,0.064,0.795,0.098,1.212,0.098c0.976,0,1.724-0.164,2.244-0.492
	c0.52-0.328,0.78-0.828,0.78-1.5c0-0.513-0.188-0.929-0.564-1.248c-0.376-0.32-0.848-0.612-1.416-0.876s-1.184-0.536-1.848-0.816
	c-0.664-0.279-1.28-0.624-1.848-1.031c-0.568-0.407-1.041-0.916-1.416-1.523c-0.376-0.607-0.564-1.384-0.564-2.328
	c0-0.814,0.136-1.523,0.408-2.124c0.272-0.6,0.66-1.1,1.164-1.5c0.504-0.399,1.1-0.694,1.788-0.888
	c0.688-0.192,1.456-0.288,2.304-0.288c0.976,0,1.896,0.084,2.76,0.252c0.864,0.168,1.576,0.412,2.136,0.731l-1.032,2.761
	c-0.352-0.225-0.88-0.429-1.584-0.612c-0.704-0.184-1.464-0.275-2.28-0.275c-0.768,0-1.356,0.151-1.764,0.455
	c-0.408,0.306-0.612,0.713-0.612,1.226c0,0.479,0.188,0.88,0.564,1.2c0.376,0.319,0.848,0.615,1.416,0.888
	c0.568,0.272,1.184,0.552,1.848,0.84s1.28,0.636,1.848,1.044c0.568,0.408,1.04,0.912,1.416,1.512
	c0.375,0.602,0.564,1.35,0.564,2.244S53.574,65.051,53.279,65.699z M63.502,62.255c-0.775,0.208-1.58,0.312-2.412,0.312
	c-0.08,0-0.208,0-0.383,0c-0.176,0-0.36-0.004-0.552-0.013c-0.192-0.008-0.38-0.02-0.564-0.034
	c-0.167-0.016-0.287-0.029-0.368-0.045V59.62c0.063,0.014,0.144,0.028,0.259,0.043c0.128,0.017,0.264,0.028,0.408,0.036
	s0.284,0.012,0.42,0.012c0.136,0,0.236,0,0.3,0c0.432,0,0.859-0.04,1.285-0.12c0.422-0.079,0.804-0.228,1.14-0.442
	c0.336-0.218,0.604-0.518,0.804-0.9c0.2-0.383,0.301-0.888,0.301-1.512c0-0.528-0.097-0.965-0.289-1.31
	c-0.191-0.344-0.443-0.618-0.756-0.827c-0.312-0.207-0.668-0.353-1.066-0.433c-0.4-0.08-0.81-0.12-1.226-0.12
	c-0.32,0-0.624,0.014-0.912,0.036c-0.288,0.024-0.52,0.052-0.696,0.084v5.448c0.003,0.001,0.011,0.002,0.015,0.002v2.854
	c-0.003-0.001-0.01-0.001-0.014-0.002v5.784h-3.288V51.623c0.672-0.128,1.412-0.229,2.22-0.3c0.808-0.072,1.612-0.108,2.412-0.108
	c0.832,0,1.668,0.068,2.508,0.204c0.84,0.137,1.596,0.408,2.27,0.816c0.672,0.407,1.22,0.976,1.644,1.704
	c0.424,0.728,0.636,1.676,0.636,2.844c0,1.056-0.184,1.947-0.552,2.676s-0.856,1.324-1.464,1.788
	C64.97,61.711,64.277,62.048,63.502,62.255z M77.41,68.255l-1.344-3.72h-5.16l-1.272,3.72h-3.288l6.049-16.92h1.136v4.176h-0.056
	l-0.505,2.664l-1.224,3.722h3.6l-1.248-3.746l-0.504-2.64h-0.05v-4.176h1.274l6.049,16.92H77.41z M98.624,68.255h-3.286v-8.712
	l0.359-3.336h-0.143l-1.033,2.688l-3.576,6.265h-1.055l-3.771-6.288l-1.056-2.664h-0.121l0.48,3.312v8.734h-3.119v-16.8h3
	l4.486,7.68l0.793,1.92h0.096l0.721-1.968l4.248-7.632h2.976V68.255z"/>
</svg>
