<?xml version="1.0" encoding="utf-8"?>
<!-- Generator: Adobe Illustrator 15.0.2, SVG Export Plug-In . SVG Version: 6.00 Build 0)  -->
<!DOCTYPE svg PUBLIC "-//W3C//DTD SVG 1.1//EN" "http://www.w3.org/Graphics/SVG/1.1/DTD/svg11.dtd">
<svg version="1.1" id="Ebene_1" xmlns="http://www.w3.org/2000/svg" xmlns:xlink="http://www.w3.org/1999/xlink" x="0px" y="0px"
	 width="102.047px" height="102.047px" viewBox="0 0 102.047 102.047" enable-background="new 0 0 102.047 102.047"
	 xml:space="preserve">
<path fill="#555555" d="M86.652,32.827c-0.313,15.991-17.434-7.78-16.997-13.999c-5.691,5.307-7.96,14.039-15.998,16.998
	c0.581-0.97,1.208-1.893,1.819-2.833c-0.576,0.308-1.174,0.595-1.819,0.833c2.104-3.514,4.817-6.417,5.104-11.749
	c-0.021-0.404-0.055-0.818-0.104-1.249C47.037,27.54,39.368,38.203,22.66,39.826c-0.183,0.62-0.282,1.208-0.348,1.781h-0.047
	c-0.095-1.16-0.01-2.411,0.395-3.781c16.708-1.623,24.377-12.285,35.997-18.998c0.137,1.185,0.157,2.254,0.104,3.249
	c0.283,5.018-1.42,8.048-3.284,10.917c6.594-3.521,8.943-11.285,14.179-16.166c-0.437,6.218,16.684,29.99,16.997,13.999
	C82.445,18.702,71.288,13.528,58.657,9.829c-0.142-14.137-23.674-12.472-21.999,2C15.39,13.588,0.144,43.189,15.384,60.457
	c-0.632-2.466-0.895-5.418-0.82-8.337c-0.131-4.594,0.596-9.392,2.097-12.295c2.72,4.182,3.215,10.588,8.769,11.936
	c-0.957-2.325-3.576-5.465-3.151-9.904h0.001c0.497,4.745,4.188,7.807,3.379,9.968c-0.081-0.017-0.151-0.046-0.23-0.064
	c0.316,0.77,0.458,1.455,0.23,2.064c-5.781-1.218-6.241-7.758-8.999-12c-1.284,2.483-1.997,6.353-2.097,10.295
	c0.107,3.751,0.785,7.367,2.097,9.701c-0.452-0.444-0.869-0.902-1.277-1.364c0.328,1.275,0.75,2.426,1.277,3.364
	c3.859,5.831,10.304,9.077,17.328,11.743c-1.295,3.899-1.712,8.678-3.33,12.254c1.538,0,3.076,0,4.614,0v9.087
	c0,0.73,0.18,1.257,0.54,1.573c0.071,0.063,0.154,0.115,0.239,0.166h-1.898l-4.515-12.631H27.82l-4.536,12.69h2.466l0.954-2.79h3.87
	l1.008,2.79h2.592l-0.02-0.058h1.901c0.339,0.203,0.777,0.31,1.323,0.31c0.42,0,0.828-0.048,1.224-0.146
	c0.226-0.055,0.409-0.108,0.569-0.164h3.871l0.024,0.058c-0.132,0.61-0.327,1.035-0.585,1.269c-0.258,0.234-0.525,0.353-0.801,0.353
	c-0.18,0-0.36-0.036-0.54-0.108l-0.432,1.872c0.372,0.204,0.87,0.306,1.494,0.306c0.42,0,0.783-0.109,1.089-0.332
	s0.585-0.537,0.837-0.944c0.252-0.408,0.483-0.892,0.693-1.449c0.12-0.319,0.244-0.663,0.37-1.021h4.5
	c0.066,0.021,0.119,0.046,0.188,0.065c0.558,0.162,1.155,0.243,1.791,0.243c0.716,0,1.309-0.111,1.805-0.309h3.812
	c0.065,0.021,0.119,0.045,0.188,0.064c0.559,0.162,1.154,0.243,1.791,0.243c0.715,0,1.309-0.111,1.805-0.31h4.201
	c0.009,0.004,0.016,0.01,0.023,0.013c0.335,0.126,0.714,0.188,1.135,0.188c0.672,0,1.221-0.135,1.646-0.405
	c0.426-0.27,0.759-0.59,0.999-0.963h0.09l0.379,1.242h1.907c-0.144-0.432-0.233-0.891-0.271-1.377s-0.052-0.986-0.045-1.503
	c0.006-0.516,0.026-1.041,0.062-1.575c0.035-0.533,0.055-1.063,0.055-1.593c0-0.479-0.052-0.912-0.152-1.296
	c-0.104-0.384-0.276-0.714-0.522-0.99C70.333,90.113,70,89.9,69.58,89.75s-0.941-0.227-1.564-0.227c-0.721,0-1.41,0.063-2.07,0.189
	s-1.23,0.297-1.711,0.514l0.559,1.745c0.336-0.155,0.766-0.28,1.287-0.378c0.521-0.096,1.018-0.144,1.484-0.144
	c0.625,0,1.026,0.146,1.207,0.44c0.18,0.293,0.228,0.776,0.144,1.448c-0.792-0.036-1.509-0.009-2.149,0.081
	c-0.644,0.09-1.195,0.252-1.656,0.486c-0.463,0.232-0.816,0.54-1.062,0.918s-0.369,0.843-0.369,1.395
	c0,0.396,0.065,0.753,0.197,1.071c0.133,0.317,0.318,0.594,0.559,0.828c0.231,0.226,0.512,0.399,0.834,0.524H61.08
	c0.309-0.123,0.586-0.271,0.809-0.472c0.582-0.522,0.872-1.239,0.872-2.151c0-0.526-0.103-0.959-0.306-1.295
	c-0.204-0.337-0.457-0.608-0.757-0.818s-0.63-0.381-0.989-0.514s-0.689-0.256-0.99-0.369c-0.3-0.113-0.552-0.236-0.756-0.368
	s-0.307-0.308-0.307-0.522c0-0.54,0.349-0.81,1.045-0.81c0.432,0,0.857,0.06,1.277,0.18s0.768,0.234,1.043,0.342l0.522-1.69
	c-0.312-0.182-0.744-0.344-1.296-0.486c-0.553-0.145-1.17-0.216-1.854-0.216c-0.996,0-1.759,0.233-2.287,0.702
	c-0.527,0.468-0.791,1.146-0.791,2.033c0,0.539,0.103,0.98,0.307,1.322c0.203,0.342,0.455,0.624,0.756,0.846
	c0.301,0.224,0.63,0.396,0.99,0.522c0.359,0.126,0.689,0.249,0.988,0.369c0.301,0.12,0.553,0.252,0.757,0.396
	c0.204,0.146,0.307,0.336,0.307,0.576c0,0.312-0.104,0.534-0.315,0.666c-0.209,0.133-0.488,0.198-0.836,0.198
	c-0.479,0-0.949-0.075-1.404-0.226c-0.456-0.149-0.821-0.304-1.098-0.459l-0.647,1.746c0.303,0.188,0.7,0.352,1.161,0.498h-3.797
	c0.308-0.123,0.586-0.271,0.809-0.472c0.581-0.522,0.872-1.239,0.872-2.151c0-0.526-0.103-0.959-0.306-1.295
	c-0.204-0.337-0.457-0.608-0.756-0.818c-0.301-0.21-0.631-0.381-0.99-0.514s-0.69-0.256-0.99-0.369s-0.553-0.236-0.755-0.368
	c-0.204-0.132-0.306-0.308-0.306-0.522c0-0.54,0.348-0.81,1.043-0.81c0.433,0,0.857,0.06,1.278,0.18s0.769,0.234,1.044,0.342
	l0.521-1.69c-0.312-0.182-0.744-0.344-1.297-0.486c-0.551-0.145-1.17-0.216-1.854-0.216c-0.996,0-1.758,0.233-2.286,0.702
	c-0.528,0.468-0.792,1.146-0.792,2.033c0,0.539,0.102,0.98,0.306,1.322c0.204,0.342,0.456,0.624,0.756,0.846
	c0.3,0.224,0.63,0.396,0.99,0.522s0.69,0.249,0.991,0.369c0.299,0.12,0.551,0.252,0.756,0.396c0.203,0.146,0.306,0.336,0.306,0.576
	c0,0.312-0.104,0.534-0.314,0.666c-0.21,0.133-0.489,0.198-0.837,0.198c-0.48,0-0.948-0.075-1.404-0.226
	c-0.456-0.149-0.822-0.304-1.098-0.459l-0.648,1.746c0.302,0.188,0.7,0.352,1.162,0.498h-4.49c0.094-0.266,0.189-0.535,0.286-0.821
	l2.736-8.118h-2.412l-1.368,5.04l-0.234,1.422h-0.108l-0.324-1.404l-1.656-5.058h-2.808l3.737,8.939H39.18
	c0.116-0.039,0.225-0.08,0.306-0.121l-0.252-1.836c-0.204,0.084-0.375,0.14-0.513,0.162c-0.138,0.024-0.279,0.036-0.423,0.036
	c-0.24,0-0.414-0.096-0.522-0.288c-0.108-0.19-0.162-0.498-0.162-0.918v-7.861c10.014,0,20.028,0,30.042,0
	c-1.161-4.029-1.842-8.539-3.273-12.297C79.605,69.286,95.168,53.266,86.652,32.827z M27.335,93.936l0.918-2.791l0.378-1.998h0.09
	l0.378,1.98l0.936,2.809H27.335z M66.322,95.268c0.156-0.155,0.365-0.275,0.63-0.359c0.264-0.084,0.567-0.139,0.909-0.162
	c0.342-0.024,0.699-0.02,1.07,0.018v1.17c-0.133,0.24-0.336,0.467-0.611,0.676c-0.276,0.211-0.647,0.314-1.116,0.314
	c-0.349,0-0.621-0.093-0.818-0.279c-0.198-0.186-0.297-0.445-0.297-0.782C66.089,95.621,66.166,95.423,66.322,95.268z
	 M31.891,49.145c-2.209,0-4-1.791-4-4s1.791-4,4-4s4,1.791,4,4S34.1,49.145,31.891,49.145z M50.33,68.482
	c-3.314,0-6.017-0.765-6.663-1.153c-0.432-0.261-0.421-0.57-0.376-0.731c0.126-0.453,0.652-0.453,0.851-0.453v0.916
	c0.05-0.05,0.096-0.121,0.118-0.215c0.045-0.197-0.051-0.349-0.104-0.392c0.789,0.629,10.445,2.961,16.23-2.505l0.688,0.727
	C57.927,67.646,53.794,68.482,50.33,68.482z M70.893,47.145c-2.209,0-4-1.791-4-4s1.791-4,4-4s4,1.791,4,4
	S73.102,47.145,70.893,47.145z"/>
</svg>
