<?xml version="1.0" encoding="utf-8"?>
<!-- Generator: Adobe Illustrator 15.0.2, SVG Export Plug-In . SVG Version: 6.00 Build 0)  -->
<!DOCTYPE svg PUBLIC "-//W3C//DTD SVG 1.1//EN" "http://www.w3.org/Graphics/SVG/1.1/DTD/svg11.dtd">
<svg version="1.1" id="Ebene_1" xmlns="http://www.w3.org/2000/svg" xmlns:xlink="http://www.w3.org/1999/xlink" x="0px" y="0px"
	 width="102.047px" height="102.047px" viewBox="0 0 102.047 102.047" enable-background="new 0 0 102.047 102.047"
	 xml:space="preserve">
<path fill="#555555" d="M90.648,38.662c0-2.138-0.244-4.227-0.69-6.255c-0.337,1.153-1.202,1.777-2.885,1.584
	c-2.546-17.543-24.438-28.2-39.996-17.997c-0.224-1.28,0.495-1.62,0.832-2.34c15.495-9.306,36.663,1.268,39.164,18.502
	c2.634,0.303,3.28-1.384,2.999-3.999C87.657,18.864,82.46,12.354,74.82,8.286c-6.575-4.007-15.723-7.209-24.296-7.209
	c-6.667,0-12.949,1.401-18.463,3.878h0.004c-6.329,2.067-10.802,5.99-12.984,12.203c2.276-1.39,3.874-3.459,5.999-4.999
	c4.91,1.423,9.587,3.079,14.998,3.999c4.132-0.199,3.12-5.545,7.999-4.998c-0.037,0.854-0.592,1.192-0.875,1.802
	c-3.893,0.159-3.26,4.845-7.125,5.031c-5.411-0.92-10.088-2.576-14.998-3.999c-2.125,1.54-3.723,3.609-5.999,4.999
	c0.071-0.203,0.165-0.382,0.241-0.58c-4.975,5.641-7.924,12.651-7.924,20.249c0,14.3,10.447,26.51,25.19,31.426
	c-0.172-0.008-0.346-0.016-0.508-0.021c-0.481,5.123-1.881,9.183-2.778,13.822l4.116,0.007v2.784
	c-0.033,0.006-0.078,0.011-0.11,0.016v12.42c0.312,0.072,0.657,0.126,1.035,0.162c0.378,0.035,0.75,0.062,1.116,0.08
	c0.366,0.019,0.708,0.027,1.026,0.027s0.579,0,0.783,0c0.624,0,1.23-0.072,1.818-0.216c0.071-0.018,0.133-0.047,0.202-0.066H49.7
	c0.546,0.231,1.193,0.354,1.954,0.354c0.696,0,1.353-0.1,1.971-0.297c0.054-0.018,0.093-0.039,0.145-0.058h3.267v0.103h2.34v-5.832
	c0.133-0.384,0.352-0.705,0.657-0.963s0.681-0.387,1.125-0.387c0.504,0,0.86,0.162,1.071,0.486c0.209,0.323,0.314,0.852,0.314,1.584
	v5.111h2.34v-5.598c0-0.696-0.06-1.281-0.18-1.756c-0.12-0.474-0.3-0.848-0.54-1.125c-0.24-0.275-0.534-0.474-0.882-0.594
	c-0.348-0.119-0.744-0.18-1.188-0.18c-0.721,0-1.309,0.145-1.765,0.432c-0.456,0.288-0.821,0.625-1.098,1.008h-0.072l-0.271-1.188
	h-1.854V99.1h-3.259c0.54-0.188,0.988-0.407,1.315-0.668L54.317,96.9c-0.204,0.156-0.501,0.31-0.892,0.459
	c-0.39,0.15-0.83,0.226-1.322,0.226c-0.792,0-1.365-0.192-1.719-0.575c-0.354-0.385-0.549-0.955-0.585-1.711h5.4
	c0.061-0.312,0.105-0.611,0.135-0.9c0.03-0.287,0.045-0.557,0.045-0.81c0-0.696-0.102-1.278-0.306-1.745
	c-0.204-0.469-0.474-0.84-0.81-1.117c-0.336-0.275-0.721-0.474-1.152-0.594c-0.432-0.119-0.876-0.18-1.332-0.18
	c-1.368,0-2.43,0.396-3.186,1.188c-0.756,0.793-1.134,1.98-1.134,3.564c0,1.477,0.335,2.637,1.008,3.482
	c0.319,0.402,0.732,0.701,1.227,0.912h-6.398c0.5-0.143,0.96-0.335,1.364-0.597c0.462-0.3,0.831-0.687,1.107-1.161
	c0.276-0.474,0.414-1.035,0.414-1.683c0-0.492-0.069-0.918-0.207-1.278c-0.138-0.359-0.327-0.666-0.567-0.918
	c-0.24-0.252-0.522-0.449-0.846-0.594s-0.666-0.246-1.026-0.307v-0.107c0.408-0.096,0.756-0.243,1.044-0.441
	c0.288-0.197,0.522-0.426,0.702-0.684c0.18-0.258,0.309-0.543,0.387-0.855c0.078-0.312,0.117-0.623,0.117-0.936
	c0-0.624-0.132-1.14-0.396-1.548c-0.264-0.407-0.615-0.726-1.053-0.954s-0.936-0.387-1.494-0.477
	c-0.558-0.09-1.131-0.135-1.719-0.135c-0.348,0-0.699,0.006-1.053,0.018s-0.699,0.029-1.035,0.054
	c-0.336,0.024-0.651,0.054-0.945,0.09c-0.251,0.031-0.467,0.062-0.67,0.093v-2.784l32.656,0.057
	c-2.144-3.655-2.067-9.882-3.654-14.187C80.657,64.647,90.648,52.649,90.648,38.662z M50.384,92.374
	c0.294-0.366,0.747-0.549,1.359-0.549c0.528,0,0.915,0.174,1.161,0.522c0.246,0.348,0.345,0.846,0.297,1.494h-3.348
	C49.913,93.229,50.09,92.74,50.384,92.374z M39.684,88.566c0.144-0.023,0.348-0.041,0.612-0.053s0.552-0.019,0.864-0.019
	c0.276,0,0.54,0.024,0.792,0.071c0.252,0.048,0.477,0.131,0.675,0.25c0.198,0.118,0.357,0.278,0.477,0.48
	c0.12,0.201,0.18,0.457,0.18,0.766c0,0.463-0.165,0.838-0.495,1.122c-0.33,0.285-0.723,0.499-1.179,0.642
	c-0.144,0.023-0.327,0.041-0.549,0.053c-0.222,0.012-0.417,0.018-0.585,0.018h-0.792V88.566z M39.684,93.77h1.314
	c0.312,0,0.624,0.018,0.936,0.053c0.312,0.036,0.594,0.116,0.846,0.241c0.252,0.124,0.456,0.3,0.612,0.525
	c0.156,0.226,0.234,0.534,0.234,0.927c0,0.309-0.066,0.576-0.198,0.802c-0.132,0.226-0.306,0.413-0.522,0.562
	c-0.216,0.148-0.465,0.258-0.747,0.329c-0.282,0.071-0.573,0.106-0.873,0.106c-0.12,0-0.261-0.002-0.423-0.008
	c-0.162-0.006-0.318-0.012-0.468-0.018c-0.15-0.007-0.291-0.016-0.423-0.027c-0.132-0.012-0.228-0.029-0.288-0.054V93.77z
	 M41.881,60.374c0.203-0.576,0.865-0.56,1.152-0.551l-0.034,1.324c0.101-0.078,0.203-0.203,0.242-0.385
	c0.066-0.317-0.113-0.558-0.206-0.619c0.996,0.654,12.729,3.244,20.311-2.01l0.807,1.164c-3.86,2.676-8.742,3.484-12.934,3.484
	c-4.569,0-8.318-0.96-9.035-1.507C41.823,61,41.791,60.629,41.881,60.374z M30.797,37.275c-2.348,0-4.252-1.904-4.252-4.252
	c0-2.35,1.904-4.252,4.252-4.252c2.349,0,4.252,1.902,4.252,4.252C35.049,35.371,33.146,37.275,30.797,37.275z M66.047,37.024
	c-2.348,0-4.251-1.903-4.251-4.251c0-2.349,1.903-4.251,4.251-4.251s4.251,1.902,4.251,4.251
	C70.298,35.121,68.395,37.024,66.047,37.024z"/>
</svg>
