<?xml version="1.0" encoding="utf-8"?>
<!-- Generator: Adobe Illustrator 15.0.2, SVG Export Plug-In . SVG Version: 6.00 Build 0)  -->
<!DOCTYPE svg PUBLIC "-//W3C//DTD SVG 1.1//EN" "http://www.w3.org/Graphics/SVG/1.1/DTD/svg11.dtd">
<svg version="1.1" id="Ebene_1" xmlns="http://www.w3.org/2000/svg" xmlns:xlink="http://www.w3.org/1999/xlink" x="0px" y="0px"
	 width="102.047px" height="102.047px" viewBox="0 0 102.047 102.047" enable-background="new 0 0 102.047 102.047"
	 xml:space="preserve">
<g transform="scale(0.03125 0.03125)">
	<path fill="#04475F" d="M2849.781,68.031H415.719c-192.031,0-347.688,155.656-347.688,347.719v2434
		c0,192.031,155.656,347.719,347.688,347.719h2434.062c192.031,0,347.688-155.688,347.688-347.719v-2434
		C3197.469,223.688,3041.812,68.031,2849.781,68.031z M410.844,483.656c-40.25,0-72.844-32.625-72.844-72.875
		C338,370.594,370.594,338,410.844,338c40.188,0,72.812,32.594,72.812,72.781C483.656,451.031,451.031,483.656,410.844,483.656z"/>
	<path fill="#0AC1EB" d="M2812.5,133.25L453,133.156c-176.344,0-319.781,143.5-319.781,319.781V2812.5
		c0,176.312,143.469,319.75,319.781,319.75h2359.5c176.312,0,319.781-143.438,319.781-319.75V453
		C3132.281,276.656,2988.812,133.25,2812.5,133.25z M1943.375,1945.75c-8.406-5.875-18.688-11.281-30.938-16.188
		c-12.219-4.875-25.75-9.938-40.438-15.094c-14.719-5.156-28.25-12.219-40.5-21.281c-12.219-9.062-22.562-20.625-30.906-34.594
		c-8.344-14.031-12.5-32.031-12.5-54.156c0-36.281,10.844-64,32.375-83.125c21.625-19.188,52.812-28.781,93.5-28.781
		c27.969,0,53.312,3,75.875,8.844c22.531,5.844,40.25,12.5,53.031,19.844l-21.375,69.219c-11.312-4.406-25.5-9.094-42.688-14
		c-17.25-4.875-34.625-7.312-52.312-7.312c-28.438,0-42.719,11.031-42.719,33.094c0,8.812,4.25,16,12.5,21.344
		c8.375,5.406,18.625,10.406,30.906,15.094c12.219,4.562,25.781,9.594,40.438,15.031c14.719,5.469,28.281,12.375,40.5,21.062
		c12.281,8.531,22.594,19.75,30.906,33.406c8.281,13.75,12.5,31.438,12.5,53.062c0,37.312-11.938,66.625-35.656,87.969
		c-23.781,21.25-59.469,32-107.125,32c-26.031,0-50.469-3.312-73.25-9.875c-22.812-6.719-41.344-14.406-55.594-23.281l26.531-71.281
		c11.25,6.281,26.188,12.594,44.906,18.688c18.594,6.094,37.688,9.188,57.406,9.188c14.219,0,25.594-2.688,34.188-8.094
		c8.562-5.469,12.906-14.438,12.906-27.25C1955.875,1959.5,1951.688,1951.625,1943.375,1945.75L1943.375,1945.75z M285.344,1242.625
		V981.812h2710.094v260.812H285.344z M1632.781,1945.75c-8.344-5.875-18.656-11.281-30.875-16.188
		c-12.281-4.875-25.781-9.938-40.5-15.094s-28.219-12.219-40.5-21.281c-12.25-9.062-22.531-20.625-30.875-34.594
		c-8.375-14.031-12.531-32.031-12.531-54.156c0-36.281,10.812-64,32.375-83.125c21.594-19.188,52.781-28.781,93.469-28.781
		c27.969,0,53.219,3,75.812,8.844s40.219,12.5,53,19.844l-21.281,69.219c-11.375-4.469-25.594-9.125-42.75-14.062
		c-17.219-4.844-34.625-7.281-52.281-7.281c-28.469,0-42.688,11.031-42.688,33.062c0,8.875,4.188,16,12.5,21.406
		c8.312,5.344,18.688,10.406,30.938,15.094c12.281,4.531,25.75,9.531,40.469,15c14.688,5.438,28.125,12.406,40.438,21.031
		c12.312,8.562,22.594,19.781,30.938,33.469c8.312,13.75,12.531,31.438,12.531,53.031c0,37.344-11.938,66.656-35.688,87.938
		c-23.844,21.312-59.5,32-107.156,32c-25.969,0-50.375-3.25-73.188-9.812c-22.844-6.719-41.375-14.438-55.594-23.344l26.5-71.281
		c11.281,6.344,26.25,12.656,44.875,18.719c18.625,6.094,37.781,9.188,57.406,9.188c14.25,0,25.656-2.656,34.281-8.062
		c8.562-5.469,12.844-14.5,12.844-27.25C1645.312,1959.5,1641.156,1951.625,1632.781,1945.75L1632.781,1945.75z M713.469,1875.844
		L675.219,1761l-15.469-80.969h-1.469v-128h39l185.469,518.875H776.812l-41.219-114.125h-158.25l-39,114.125H437.469L623,1552.031
		h34.406v128h-1.312l-15.438,81.719l-37.531,114.094h110.406H713.469z M294.281,897.562V636.781h2710.094v260.781H294.281z
		 M276.469,284.156h2710.094v260.75H276.469V284.156z M614.812,2838.125c-10.625,23.188-25.5,42.469-44.625,58
		c-19.219,15.438-42.406,26.906-69.594,34.312c-27.156,7.438-57.094,11.156-89.719,11.156c-42.938,0-80.688-4.031-113.344-12.062
		c-32.625-8.094-56.656-16-72.125-24.031l37.781-100.406c6.344,3.406,14.469,7.125,24.5,11.125c9.969,4,21.281,7.75,33.906,11.125
		c12.562,3.375,25.875,6.344,39.906,8.562c14.031,2.281,28.5,3.406,43.375,3.406c34.938,0,61.688-5.844,80.312-17.594
		c18.562-11.688,27.875-29.562,27.875-53.625c0-18.344-6.719-33.188-20.188-44.594c-13.469-11.469-30.312-21.938-50.656-31.344
		c-20.312-9.438-42.375-19.188-66.094-29.219c-23.781-10-45.844-22.344-66.156-36.875c-20.344-14.688-37.188-32.75-50.656-54.531
		c-13.406-21.781-20.156-49.562-20.156-83.281c0-29.188,4.844-54.531,14.562-76c9.75-21.5,23.656-39.375,41.656-53.688
		c18.031-14.438,39.344-24.906,63.969-31.75c24.594-6.969,52.094-10.344,82.438-10.344c34.906,0,67.844,3.031,98.75,9.062
		c30.875,5.938,56.375,14.656,76.438,26.156l-36.938,98.75c-12.625-8-31.469-15.281-56.656-21.875
		c-25.219-6.594-52.375-9.812-81.594-9.812c-27.469,0-48.531,5.406-63.094,16.219c-14.594,10.938-21.906,25.5-21.906,43.906
		c0,17.125,6.719,31.406,20.188,42.812c13.438,11.469,30.344,22.062,50.625,31.812c20.344,9.719,42.406,19.75,66.125,30.031
		c23.75,10.281,45.812,22.781,66.156,37.375c20.281,14.625,37.188,32.562,50.656,54.062c13.406,21.5,20.156,48.219,20.156,80.25
		C630.688,2787.375,625.375,2815,614.812,2838.125L614.812,2838.125z M1069.469,2929.594H708.844V2328.5h356.344v104.75H826.469
		v139.969h217.25v104.75h-217.25v146.812h243V2929.594z M1063.844,2075.312c-16.188,4-32.875,5.875-50.062,5.875
		c-27.969,0-49.312-6.469-64.031-19.562c-14.688-12.969-22.094-34.469-22.094-64.344v-441.625h95.688v391.594
		c0,17.156,2.188,29.688,6.625,37.562s11.531,11.812,21.344,11.812c5.875,0,11.656-0.594,17.312-1.531
		c5.625-0.938,12.625-3.156,21-6.594l10.25,75.062C1092.062,2067.469,1080.031,2071.406,1063.844,2075.312z M1092.531,1702.938
		h114.844l67.656,206.75l13.25,57.406h4.438l9.531-58.156l55.969-206.031h98.625L1345,2034.812
		c-9.375,27.5-18.281,52.688-26.875,75.469s-18.031,42.594-28.344,59.281c-10.312,16.719-21.719,29.594-34.219,38.688
		c-12.531,9.062-27.375,13.562-44.5,13.562c-25.562,0-45.906-4.188-61.125-12.469l17.656-76.531
		c7.344,2.938,14.75,4.375,22.125,4.375c11.25,0,22.188-4.781,32.75-14.312c10.5-9.562,18.531-26.906,23.875-51.875
		L1092.531,1702.938z M1473.062,2929.594L1336.5,2694.25l-61.031-10.969v-80h49.031c32.625,0,58.656-7.375,78.125-22.281
		c19.438-14.844,29.188-39.5,29.188-73.875c0-25.719-8.031-45.938-24.031-60.594c-16.031-14.562-39.531-21.875-70.438-21.875
		c-11.969,0-23.875,0.281-35.594,0.844c-11.75,0.594-20.75,1.75-27.031,3.469v165.875h-0.094v109.25h0.094v225.5h-117.688v-595.062
		c13.188-2.312,27.344-4.469,42.5-6.438c15.188-2,30.375-3.562,45.531-4.781c15.188-1.125,29.938-1.875,44.25-2.562
		c14.281-0.531,27.469-0.812,39.5-0.812c28.031,0,55.625,2.594,82.844,7.75c27.188,5.125,51.531,13.969,72.969,26.562
		c21.5,12.625,38.688,30,51.531,51.969c12.875,22,19.344,49.656,19.344,82.844c0,49.188-11.469,89.312-34.344,120.188
		c-22.875,30.969-53.594,52.438-91.938,64.438l42.125,26.562l137.375,229.375h-135.656V2929.594L1473.062,2929.594z
		 M1882.688,2933.875h-84.156l-225-605.344h136.531l120.188,352.938l15.469,102.188H1850l17.25-103.062l115.031-352h123.625
		L1882.688,2933.875L1882.688,2933.875z M2097.125,2013.125c-5.375-12.969-8.156-27.594-8.156-43.844c0-22.531,5-41.469,15.094-57
		c10.031-15.469,24.531-28,43.406-37.531c18.906-9.531,41.531-16.188,67.75-19.875c26.219-3.625,55.594-4.719,87.906-3.219
		c3.5-27.5,1.531-47.25-5.875-59.281c-7.281-12.062-23.719-18.094-49.219-18.094c-19.156,0-39.312,1.906-60.688,5.938
		c-21.312,3.906-38.938,9.031-52.594,15.406l-22.875-71.406c19.625-8.812,42.844-15.844,69.875-20.938
		c27.031-5.188,55.25-7.812,84.719-7.812c25.5,0,46.75,3.125,64.031,9.219c17.188,6.188,30.812,14.875,40.812,26.219
		c10.094,11.281,17.188,24.75,21.312,40.406c4.25,15.75,6.25,33.438,6.25,53c0,21.625-0.719,43.312-2.156,65.188
		c-1.531,21.844-2.344,43.312-2.562,64.438c-0.25,21.094,0.375,41.5,1.844,61.469c1.5,19.844,5.156,38.625,11.031,56.25h-78.062
		l-15.438-50.75h-0.562l-15.531-54.25c2.312-3,4.781-5.906,6.562-9v-47.969c-15.25-1.406-29.906-1.656-43.844-0.656
		c-14.031,0.969-26.375,3.188-37.188,6.688c-10.812,3.406-19.438,8.281-25.781,14.688c-6.375,6.312-9.562,14.438-9.562,24.219
		c0,13.75,4.094,24.469,12.188,32.031c8.156,7.656,19.312,11.375,33.5,11.375c19.156,0,34.344-4.281,45.625-12.812
		c7.281-5.625,12.938-11.531,17.781-17.625l15.281,53.312h-2.188c-9.781,15.25-23.5,28.375-40.812,39.375
		c-17.438,11.031-39.938,16.531-67.344,16.531c-17.188,0-32.594-2.562-46.5-7.719c-13.719-5.156-25.5-12.531-35.25-22.125
		C2110.156,2037.406,2102.531,2026.188,2097.125,2013.125L2097.125,2013.125z M2510.281,2929.594h-360.625V2328.5h356.312v104.75
		h-238.688v139.969h217.25v104.75h-217.25v146.812h243V2929.594z M2493.125,1663.094c-18.219,0-32.469-5.719-42.781-17.219
		c-10.25-11.531-15.406-26.875-15.406-46c0-19.594,3.094-36.281,9.156-50.031c6.156-13.75,13.531-25.125,22.125-34.25
		c8.531-9.062,17.5-16.188,26.906-21.344c9.281-5.125,17.312-8.969,24.281-11.375l23.625,39.75
		c-9.844,3.938-18.25,10.125-25.031,18.719c-6.906,8.594-10.875,17.812-11.781,27.594c9.75,0,18.656,4.344,26.875,12.906
		c8.062,8.656,12.094,20.031,12.094,34.188c0,14.281-4.781,25.688-14.344,34.25
		C2519.312,1658.812,2507.312,1663.094,2493.125,1663.094z M2535.875,2048.094l26.406-71.344
		c11.312,6.375,26.25,12.688,44.938,18.75c18.625,6.094,37.719,9.188,57.406,9.188c14.219,0,25.625-2.625,34.219-8.125
		c8.562-5.406,12.906-14.469,12.906-27.188c0-9.875-4.219-17.75-12.531-23.688c-8.375-5.812-18.719-11.219-30.938-16.125
		c-12.219-4.875-25.719-9.938-40.406-15.094s-28.25-12.125-40.469-21.281c-12.281-9.062-22.594-20.625-30.938-34.594
		c-8.312-13.938-12.531-32.031-12.531-54.156c0-36.312,10.844-64,32.438-83.125c21.625-19.188,52.812-28.781,93.5-28.781
		c27.938,0,53.219,3.031,75.875,8.875c22.531,5.812,40.188,12.531,53,19.875l-21.312,69.156c-11.312-4.469-25.531-9.094-42.719-14
		c-17.188-4.875-34.594-7.312-52.25-7.312c-28.469,0-42.719,11.031-42.719,33.094c0,8.812,4.188,16,12.5,21.344
		c8.312,5.406,18.625,10.406,30.906,15.094c12.219,4.562,25.781,9.594,40.438,15.094c14.688,5.406,28.25,12.312,40.5,21
		c12.219,8.531,22.531,19.719,30.875,33.406c8.312,13.75,12.531,31.438,12.531,53.062c0,37.312-11.938,66.625-35.688,87.906
		c-23.812,21.312-59.5,32-107.156,32.094c-25.969,0-50.469-3.344-73.188-9.906
		C2568.594,2064.719,2550.062,2056.969,2535.875,2048.094L2535.875,2048.094z M2913.844,2929.594l-136.5-235.344l-60.5-10.875
		v-80.094h48.469c32.625,0,58.656-7.375,78.125-22.281c19.5-14.844,29.219-39.5,29.219-73.875c0-25.719-8-45.938-24.062-60.594
		c-16-14.625-39.5-21.875-70.375-21.875c-12.094,0-23.938,0.281-35.625,0.844c-11.75,0.594-20.781,1.75-27.094,3.469v174.281h0.5
		v79.938l-0.531-0.094v246.5h-117.625v-595.062h0.062c13.125-2.312,27.312-4.469,42.5-6.438c15.125-2,30.312-3.562,45.5-4.781
		c15.156-1.094,29.844-1.875,44.188-2.562c14.312-0.531,27.438-0.812,39.438-0.812c28.062,0,55.656,2.594,82.844,7.75
		c27.25,5.125,51.562,13.969,73,26.562c21.5,12.625,38.75,30,51.594,51.969c12.875,22,19.281,49.656,19.281,82.844
		c0,49.188-11.406,89.312-34.281,120.188c-22.938,30.969-53.594,52.438-91.875,64.438l42.062,26.688l137.344,229.25h-135.656
		V2929.594z"/>
</g>
</svg>
