<?xml version="1.0" encoding="utf-8"?>
<!-- Generator: Adobe Illustrator 15.0.2, SVG Export Plug-In . SVG Version: 6.00 Build 0)  -->
<!DOCTYPE svg PUBLIC "-//W3C//DTD SVG 1.1//EN" "http://www.w3.org/Graphics/SVG/1.1/DTD/svg11.dtd">
<svg version="1.1" id="Ebene_1" xmlns="http://www.w3.org/2000/svg" xmlns:xlink="http://www.w3.org/1999/xlink" x="0px" y="0px"
	 width="102.047px" height="102.047px" viewBox="0 0 102.047 102.047" enable-background="new 0 0 102.047 102.047"
	 xml:space="preserve">
<g transform="scale(0.03125 0.03125)">
	<path fill="#04475F" d="M3197.469,2849.75c0,192.062-155.656,347.719-347.688,347.719H415.688
		c-192,0-347.656-155.656-347.656-347.719v-2434c0-192.062,155.656-347.719,347.656-347.719h2434.094
		c192.031,0,347.688,155.656,347.688,347.719V2849.75z"/>
	<path fill="#0AC1EB" d="M2812.5,133.25H453c-176.312,0-319.812,143.406-319.812,319.75v2359.5
		c0,176.312,143.469,319.781,319.812,319.781h2359.5c176.312,0,319.781-143.469,319.781-319.781V453
		C3132.281,276.688,2988.812,133.25,2812.5,133.25z M2916.312,405.344c36,0,65.188,29.188,65.188,65.188
		s-29.188,65.156-65.188,65.156s-65.219-29.156-65.219-65.156S2880.312,405.344,2916.312,405.344z M370.812,374.688
		c36,0,65.219,29.219,65.219,65.219s-29.219,65.188-65.219,65.188s-65.188-29.188-65.188-65.188S334.812,374.688,370.812,374.688z
		 M793.469,2741.531c-10.312,37.812-27.5,71.25-51.531,100.469c-24.062,29.25-55.719,52.719-94.875,70.406
		c-39.25,17.75-87.781,26.625-145.562,26.625c-9.156,0-21.344-0.281-36.469-0.844c-2.188-0.094-4.531-0.188-6.688-0.281v-106.594
		c2.188,0.344,4.875,0.625,8.344,0.75c5.469,0.25,11.344,0.625,17.625,0.875c6.312,0.25,12.344,0.531,18.062,0.75
		c5.688,0.406,9.969,0.5,12.844,0.5c33.219,0,60.844-5.844,82.906-17.594c22-11.688,39.469-27.312,52.375-46.75
		c12.844-19.469,21.875-41.875,27.031-67.375c5.156-25.438,7.719-51.656,7.719-78.5c0-23.5-2.281-47.062-6.875-70.906
		c-4.562-23.719-13.031-45.125-25.312-63.938c-12.344-18.906-29.062-34.344-50.219-46.469c-21.219-12.031-48.125-18-80.75-18
		c-12.594,0-25.312,0.281-38.188,0.812c-12.906,0.625-22.5,1.438-28.75,2.594v402.688c0.562,0.188,1.531,0.281,2.344,0.406v106.656
		c-12.969-0.531-26-1.062-39.75-1.844c-16.281-0.75-31.906-1.75-46.781-2.562c-14.906-0.812-26.094-1.906-33.469-3v-601.875
		c12.031-1.656,25.594-3.094,40.75-4.281c15.188-1.156,30.781-2.031,46.812-2.594c16-0.625,31.625-1,46.781-1.281
		c15.156-0.344,28.812-0.469,40.781-0.469c53.25,0,98.75,7.375,136.531,22.344c37.812,14.844,68.438,35.719,91.938,62.656
		c23.438,26.906,40.625,59,51.5,96.156c10.844,37.25,16.281,78.188,16.281,122.812
		C808.875,2664.562,803.719,2703.812,793.469,2741.531L793.469,2741.531z M776.812,2070.906l-41.219-114.125h-158.25l-39,114.125
		H437.469L623,1552.062h34.406v127.969h-1.312l-15.438,81.75l-37.531,114.062h110.406L675.219,1761l-15.469-80.969h-1.469v-127.969
		h39l185.469,518.844H776.812L776.812,2070.906z M1253.656,2929.594H893.031V2328.5h356.312v104.75h-238.719v139.969h217.281v104.75
		h-217.281v146.812h243.031V2929.594z M1029.969,1984.875c4.438,7.812,11.531,11.75,21.344,11.75c5.875,0,11.656-0.531,17.312-1.438
		c5.625-0.969,12.625-3.25,21-6.688l10.25,75.062c-7.812,3.906-19.844,7.844-36.031,11.75c-16.188,4-32.875,5.812-50.062,5.812
		c-27.969,0-49.312-6.438-64.031-19.469c-14.688-13-22.062-34.469-22.062-64.375v-441.594h95.656v391.594
		C1023.344,1964.469,1025.531,1977,1029.969,1984.875z M1255.562,2208.25c-12.531,9.062-27.375,13.562-44.5,13.562
		c-25.562,0-45.906-4.219-61.125-12.469l17.656-76.531c7.344,2.938,14.75,4.469,22.125,4.469c11.25,0,22.188-4.812,32.75-14.406
		c10.5-9.562,18.531-26.875,23.875-51.875l-153.812-367.969h114.844l67.656,206.781l13.25,57.375h4.438l9.531-58.156l55.969-206.094
		h98.625L1345,2034.875c-9.375,27.5-18.281,52.625-26.875,75.438c-8.562,22.781-18.031,42.656-28.344,59.312
		S1268.062,2199.188,1255.562,2208.25z M1591.094,2933.875h-84.125L1282,2328.531h136.531l120.188,352.938l15.469,102.188h4.312
		l17.125-103.031l115.094-352.031h123.625L1591.094,2933.875L1591.094,2933.875z M1632.781,1945.75
		c-8.344-5.875-18.656-11.25-30.875-16.188c-12.281-4.875-25.781-9.938-40.5-15.062c-14.719-5.188-28.219-12.25-40.5-21.312
		s-22.531-20.625-30.875-34.562c-8.375-14.062-12.531-32.062-12.531-54.156c0-36.312,10.812-64.031,32.375-83.125
		c21.594-19.219,52.781-28.812,93.469-28.812c27.969,0,53.219,3,75.812,8.844c22.594,5.875,40.219,12.5,53,19.844l-21.281,69.188
		c-11.375-4.406-25.594-9.094-42.75-14.031c-17.219-4.875-34.625-7.312-52.281-7.312c-28.469,0-42.688,11.031-42.688,33.094
		c0,8.906,4.188,16,12.5,21.406c8.312,5.344,18.688,10.406,30.938,15.094c12.281,4.531,25.75,9.562,40.469,15
		c14.688,5.438,28.125,12.406,40.438,21.062c12.312,8.531,22.594,19.75,30.938,33.469c8.312,13.75,12.5,31.406,12.5,53
		c0,37.344-11.938,66.656-35.656,87.969c-23.844,21.281-59.5,31.969-107.156,31.969c-25.969,0-50.375-3.25-73.188-9.812
		c-22.844-6.688-41.375-14.438-55.594-23.312l26.5-71.312c11.281,6.375,26.25,12.656,44.875,18.75
		c18.625,6.031,37.781,9.156,57.406,9.156c14.219,0,25.656-2.625,34.281-8.062c8.562-5.438,12.844-14.469,12.844-27.219
		C1645.312,1959.5,1641.156,1951.625,1632.781,1945.75L1632.781,1945.75z M1987.844,2929.594h-117.688V2328.5h117.688V2929.594z
		 M2015.906,2049.25c-23.781,21.281-59.469,31.969-107.062,31.969c-26.062,0-50.531-3.219-73.281-9.812
		c-22.844-6.688-41.312-14.438-55.562-23.312l26.469-71.344c11.281,6.406,26.219,12.719,44.938,18.75
		c18.562,6.094,37.719,9.188,57.406,9.188c14.219,0,25.625-2.625,34.188-8.125c8.531-5.406,12.875-14.469,12.875-27.156
		c0-9.906-4.25-17.781-12.5-23.688c-8.406-5.844-18.688-11.219-30.938-16.156c-12.219-4.875-25.75-9.938-40.438-15.062
		c-14.688-5.188-28.25-12.156-40.5-21.312c-12.219-9.062-22.562-20.625-30.906-34.562c-8.344-13.969-12.5-32.062-12.5-54.156
		c0-36.344,10.812-64.031,32.375-83.125c21.625-19.219,52.812-28.812,93.5-28.812c27.969,0,53.312,3.062,75.875,8.875
		c22.531,5.844,40.281,12.531,53.031,19.875l-21.375,69.188c-11.312-4.438-25.5-9.125-42.688-14
		c-17.25-4.875-34.625-7.344-52.312-7.344c-28.438,0-42.719,11.094-42.719,33.156c0,8.812,4.25,15.938,12.5,21.344
		c8.375,5.375,18.625,10.406,30.906,15.062c12.219,4.562,25.781,9.625,40.438,15.062c14.719,5.438,28.281,12.344,40.5,21
		c12.219,8.562,22.531,19.781,30.906,33.531c8.281,13.75,12.5,31.406,12.5,53C2051.625,1998.625,2039.625,2027.938,2015.906,2049.25
		L2015.906,2049.25z M2439.906,2933.125c-28.375,5.719-57.469,8.5-87.156,8.5c-36.094,0-70.281-5.656-102.688-16.719
		c-32.344-11.219-60.781-29.219-85.375-54.188c-24.625-24.906-44.219-57.156-58.812-97c-14.656-39.812-21.906-87.969-21.906-144.688
		c0-58.969,8.156-108.344,24.469-148.125c16.281-39.812,37.438-71.812,63.531-96.219c26.062-24.312,55.062-41.688,87.188-52.375
		c32.031-10.594,64.094-15.906,96.156-15.906c34.344,0,63.375,2.281,87.156,6.875c23.719,4.625,43.375,10.031,58.844,16.375
		l-23.219,99.625c-13.188-6.344-28.781-10.906-46.812-13.812c-18.031-2.875-39.906-4.281-65.688-4.281
		c-47.5,0-85.719,16.906-114.594,50.656c-28.844,33.906-43.375,86.438-43.375,157.531c0,31,3.406,59.25,10.312,84.75
		c6.875,25.562,17.281,47.375,31.344,65.438c13.969,18.094,31.406,32.125,52.375,42.188c20.875,10.031,45.062,15,72.531,15
		c25.75,0,47.5-2.562,65.219-7.719c17.781-5.156,33.25-11.719,46.438-19.719l24,95.625
		C2491.5,2918.125,2468.25,2927.375,2439.906,2933.125z M2297.344,1792.375c-7.344-12.062-23.781-18.094-49.281-18.094
		c-19.188,0-39.344,1.906-60.719,5.938c-21.25,3.906-38.875,9.062-52.594,15.406l-22.875-71.375
		c19.625-8.844,42.906-15.875,69.906-21.031c27-5.094,55.219-7.719,84.688-7.719c25.531,0,46.781,3.094,64.031,9.219
		c17.219,6.156,30.844,14.844,40.875,26.219c10.031,11.25,17.188,24.719,21.281,40.375c4.219,15.781,6.281,33.375,6.281,53.031
		c0,21.625-0.781,43.281-2.219,65.156c-1.469,21.844-2.344,43.312-2.562,64.438c-0.25,21.125,0.438,41.531,1.906,61.438
		c1.438,19.812,5.156,38.625,10.969,56.312h-78.062l-15.438-50.75h-0.562l-15.562-54.312c2.281-2.969,4.812-5.906,6.531-9.031H2304
		v-47.875c-15.25-1.438-29.906-1.719-43.844-0.688c-14.031,0.969-26.375,3.156-37.188,6.656
		c-10.812,3.375-19.438,8.281-25.812,14.656c-6.344,6.406-9.531,14.5-9.531,24.25c0,13.75,4.062,24.438,12.125,32.094
		c8.219,7.594,19.375,11.344,33.562,11.344c19.094,0,34.344-4.375,45.625-12.875c7.281-5.594,12.969-11.562,17.844-17.625
		l15.281,53.344h-2.188c-9.812,15.219-23.5,28.375-40.875,39.344c-17.375,11.094-39.844,16.625-67.281,16.625
		c-17.25,0-32.656-2.594-46.469-7.75c-13.719-5.156-25.5-12.562-35.25-22.094c-9.781-9.594-17.375-20.875-22.781-33.875
		c-5.438-12.969-8.188-27.594-8.188-43.812c0-22.562,5-41.562,15.062-57.031c10.094-15.469,24.594-27.938,43.406-37.531
		c18.906-9.562,41.562-16.188,67.781-19.875c26.219-3.625,55.562-4.75,87.906-3.219
		C2306.656,1824.125,2304.719,1804.375,2297.344,1792.375z M2493.125,1663.125c-18.219,0-32.469-5.75-42.781-17.25
		c-10.25-11.5-15.406-26.875-15.406-45.969c0-19.625,3.094-36.312,9.156-50.062c6.156-13.75,13.531-25.125,22.094-34.219
		s17.531-16.188,26.938-21.344c9.281-5.156,17.312-9,24.281-11.438l23.625,39.781c-9.844,3.938-18.25,10.125-25.031,18.719
		c-6.906,8.594-10.875,17.812-11.781,27.594c9.75,0,18.656,4.375,26.875,12.906c8.062,8.656,12.094,20.062,12.094,34.188
		c0,14.281-4.781,25.688-14.344,34.25C2519.312,1658.812,2507.312,1663.125,2493.125,1663.125z M2562.281,1976.75
		c11.312,6.344,26.25,12.594,44.938,18.719c18.625,6.125,37.719,9.156,57.406,9.156c14.219,0,25.625-2.656,34.219-8.094
		c8.562-5.438,12.906-14.438,12.906-27.219c0-9.844-4.219-17.688-12.531-23.594c-8.406-5.844-18.719-11.281-30.938-16.156
		s-25.719-9.938-40.406-15.062c-14.688-5.188-28.25-12.25-40.469-21.312c-12.281-9.125-22.594-20.625-30.938-34.625
		c-8.312-14-12.531-32.031-12.531-54.094c0-36.344,10.844-64.094,32.438-83.188c21.625-19.188,52.812-28.75,93.5-28.75
		c27.938,0,53.219,2.969,75.875,8.781c22.531,5.875,40.188,12.531,53,19.875l-21.312,69.188c-11.312-4.438-25.531-9.125-42.719-14
		s-34.594-7.344-52.25-7.344c-28.469,0-42.719,11.062-42.719,33.125c0,8.844,4.188,15.969,12.5,21.344
		c8.312,5.406,18.625,10.438,30.906,15.094c12.219,4.562,25.781,9.625,40.438,15.062c14.688,5.438,28.25,12.375,40.5,21
		c12.219,8.594,22.531,19.781,30.875,33.531c8.312,13.688,12.531,31.375,12.531,53c0,37.25-11.938,66.656-35.688,87.969
		c-23.812,21.188-59.5,31.969-107.094,31.969c-26.031,0-50.5-3.344-73.25-9.812c-22.844-6.688-41.406-14.438-55.594-23.312
		l26.438-71.25H2562.281z M2943.531,2929.594h-360.656V2328.5h356.312v104.75h-238.719v139.969h217.281v104.75h-217.281v146.812
		h243.062V2929.594z M3004.375,896.812H294.281V636.031h920.031V544h870.062v92.031h920V896.812z"/>
</g>
</svg>
