<?xml version="1.0" encoding="utf-8"?>
<!-- Generator: Adobe Illustrator 15.0.2, SVG Export Plug-In . SVG Version: 6.00 Build 0)  -->
<!DOCTYPE svg PUBLIC "-//W3C//DTD SVG 1.1//EN" "http://www.w3.org/Graphics/SVG/1.1/DTD/svg11.dtd">
<svg version="1.1" id="Ebene_1" xmlns="http://www.w3.org/2000/svg" xmlns:xlink="http://www.w3.org/1999/xlink" x="0px" y="0px"
	 width="120.5px" height="93.543px" viewBox="0 0 120.5 93.543" enable-background="new 0 0 120.5 93.543" xml:space="preserve">
<g transform="scale(0.03125 0.03125)">
	<path fill="#04475F" d="M36.438,1153.812h3807.156v1674.5H36.438V1153.812z"/>
	<path fill="#0AC1EB" d="M0.172,1065.781v1927.594h3855.641V1065.781H0.172z M2912.781,1454.75
		c22.562-19.938,55.156-29.938,97.562-29.938c29.219,0,55.625,3.062,79.219,9.188c23.594,6.156,42,13.062,55.344,20.75
		l-22.25,72.188c-11.844-4.594-26.625-9.438-44.594-14.562c-17.969-5.094-36.125-7.656-54.562-7.656
		c-29.688,0-44.562,11.5-44.562,34.531c0,9.219,4.375,16.656,13.062,22.219c8.656,5.719,19.438,10.938,32.25,15.781
		c12.719,4.844,26.875,10.094,42.188,15.719c15.312,5.656,29.438,12.969,42.25,21.906c12.75,8.969,23.5,20.656,32.25,34.938
		c8.688,14.406,13.062,32.812,13.062,55.312c0,38.969-12.531,69.531-37.281,91.812c-24.781,22.219-62.031,33.406-111.719,33.406
		c-27.219,0-52.656-3.438-76.5-10.375c-23.75-6.938-43.188-14.969-57.969-24.219l27.531-74.469
		c11.812,6.688,27.375,13.188,46.875,19.594c19.406,6.375,39.312,9.562,59.875,9.562c14.875,0,26.75-2.812,35.75-8.469
		c8.938-5.688,13.438-15.188,13.438-28.5c0-10.156-4.438-18.469-13.062-24.594c-8.688-6.125-19.438-11.719-32.25-16.844
		c-12.781-5.125-26.844-10.375-42.156-15.781c-15.375-5.375-29.5-12.688-42.219-22.125c-12.75-9.562-23.5-21.531-32.25-36.156
		c-8.688-14.562-13.062-33.375-13.062-56.5C2879.031,1503.656,2890.25,1474.75,2912.781,1454.75L2912.781,1454.75z
		 M2774.844,1275.781c6.406-14.344,14.094-26.219,23.062-35.719c8.969-9.469,18.281-16.906,28.094-22.312
		c9.688-5.344,18.094-9.312,25.312-11.875l24.656,41.5c-10.219,4.094-19.031,10.594-26.125,19.531
		c-7.156,9-11.281,18.594-12.281,28.812c10.188,0,19.5,4.531,28.031,13.5c8.5,8.938,12.656,20.812,12.656,35.719
		c0,14.781-4.938,26.719-14.938,35.719c-9.938,8.938-22.438,13.438-37.219,13.438c-19,0-33.906-6.062-44.656-18.094
		s-16.125-28.062-16.125-47.969C2765.25,1307.531,2768.438,1290.125,2774.844,1275.781L2774.844,1275.781z M2252.281,1688.969
		c-8.781-6.125-19.531-11.75-32.281-16.844c-12.812-5.125-26.938-10.375-42.219-15.781c-15.344-5.375-29.531-12.688-42.219-22.188
		c-12.781-9.5-23.5-21.562-32.25-36.188c-8.656-14.5-13.062-33.344-13.062-56.438c0-37.875,11.344-66.781,33.875-86.781
		c22.5-19.938,55.031-29.938,97.5-29.938c29.188,0,55.594,3.062,79.188,9.188c23.5,6.156,42,13.062,55.375,20.75l-22.312,72.188
		c-11.75-4.594-26.625-9.438-44.5-14.562c-17.969-5.094-36.125-7.656-54.562-7.656c-29.719,0-44.625,11.5-44.625,34.531
		c0,9.219,4.406,16.656,13.031,22.219c8.719,5.719,19.469,10.938,32.281,15.781c12.75,4.844,26.906,10.094,42.219,15.719
		c15.281,5.656,29.406,12.969,42.219,21.906c12.719,8.969,23.5,20.656,32.281,34.938c8.625,14.406,13.031,32.812,13.031,55.312
		c0,38.969-12.531,69.531-37.25,91.812c-24.844,22.219-62.062,33.406-111.75,33.406c-27.188,0-52.688-3.438-76.375-10.375
		c-23.844-6.938-43.25-14.969-58-24.219l27.625-74.469c11.75,6.688,27.312,13.188,46.875,19.594
		c19.375,6.375,39.312,9.562,59.875,9.562c14.812,0,26.75-2.812,35.656-8.469c8.906-5.688,13.438-15.125,13.438-28.469
		C2265.312,1703.344,2260.906,1695.094,2252.281,1688.969L2252.281,1688.969z M1484.25,1435.562l70.656,215.781l13.844,59.875h4.609
		l9.953-60.656l58.375-215.094h102.906l-116.75,346.375c-9.672,28.625-19.047,54.938-28,78.75
		c-8.938,23.75-18.812,44.438-29.547,61.844c-10.781,17.375-22.656,30.812-35.719,40.312s-28.547,14.219-46.5,14.219
		c-26.625,0-47.859-4.438-63.703-13.062l18.406-79.906c7.719,3.125,15.344,4.656,23.062,4.656c11.734,0,23.156-4.906,34.156-15.062
		c11.016-9.969,19.328-27.938,24.938-54l-160.5-384h119.812V1435.562z M614.875,2633.188
		c-52.906,64.5-127.812,96.719-224.734,96.719c-51.922,0-96.969-8.844-135.188-26.625c-38.234-17.812-69.797-43.062-94.734-75.75
		c-24.891-32.719-43.484-72-55.812-117.844C92.156,2464,86,2413.125,86,2357.125c0-119.406,26.266-211.438,78.828-275.969
		c52.578-64.5,127.672-96.688,225.312-96.688c51.156,0,95.875,8.844,134.109,26.625c38.234,17.75,70.016,43.031,95.234,75.719
		c25.25,32.812,44.078,72.094,56.312,117.844c11.828,43.938,17.766,92.688,18.266,146.031H546.531
		c-0.359-32.312-3-62.719-8.406-90.812c-5.844-30-14.844-56.312-27.125-78.875c-12.281-22.469-28.359-40-48.141-52.719
		c-19.828-12.594-44.031-18.906-72.719-18.906c-49.828,0-88.422,19.906-115.688,59.844
		c-27.359,39.969-40.969,102.594-40.969,187.906c0,36.281,3.062,69.531,9.219,99.844c6.125,30.406,15.531,56.5,28.141,78.344
		c12.656,21.875,28.875,38.938,48.641,51.188c19.781,12.344,43.344,18.469,70.656,18.469c49.844,0,88.391-19.469,115.75-58.344
		c27.312-38.969,40.922-102.094,40.922-189.5c0-1.906-0.188-3.625-0.188-5.562h147.438c0,1.938,0.188,3.719,0.188,5.688
		C694.25,2476.594,667.812,2568.656,614.875,2633.188z M680.969,1819.594l193.516-541.438h36.406v133.562h-1.875l-16.125,85.219
		l-39.141,119.125h115.188l-39.922-119.844l-16.172-84.5h-1.859v-133.562h41.109l193.516,541.438h-110.578L992,1700.438H826.891
		l-40.703,119.156H680.969z M1316.844,2461.625c0,46.406-6.156,86.375-18.453,119.812c-12.281,33.469-29.312,61.062-51.203,82.938
		c-21.828,21.969-48.453,37.969-79.828,48.156c-31.422,10.219-65.922,15.281-103.453,15.281
		c-181.562,0-272.375-82.906-272.375-248.812v-480.25h140.281v452.562c0,28.031,2.547,51.688,7.719,71.281
		c5.109,19.438,13.109,35.188,24.016,47.094c10.969,11.969,24.578,20.656,40.984,25.781c16.391,5,35.484,7.562,57.312,7.562
		c43.031,0,74.094-11.969,93.219-35.906c19.094-23.75,28.641-62.281,28.641-115.531V1998.75h133.141V2461.625z M1334.531,1824.219
		c-16.906,4.062-34.359,6.125-52.25,6.125c-29.188,0-51.438-6.812-66.828-20.406c-15.344-13.625-23.016-35.969-23.016-67.312V1282
		h99.844v408.531c0,17.938,2.281,30.969,6.891,39.188s12.062,12.281,22.297,12.281c6.109,0,12.141-0.5,18.031-1.562
		c5.891-1,13.203-3.312,21.875-6.844l10.781,78.281C1363.938,1816.031,1351.375,1820.062,1334.531,1824.219L1334.531,1824.219z
		 M1945.625,2123.688h-208.938v591.906h-140.312v-591.906h-209.922V1998.75h559.172V2123.688z M1892.078,1830.375
		c-27.172,0-52.609-3.469-76.406-10.406c-23.844-6.906-43.172-14.969-58.016-24.156l27.688-74.5
		c11.734,6.656,27.359,13.156,46.812,19.562c19.406,6.344,39.422,9.562,59.922,9.562c14.844,0,26.719-2.781,35.672-8.469
		c9-5.688,13.469-15.125,13.469-28.469c0-10.188-4.375-18.5-13.062-24.562c-8.672-6.188-19.406-11.75-32.234-16.875
		c-12.844-5.094-26.906-10.406-42.25-15.75c-15.359-5.406-29.422-12.75-42.25-22.25c-12.797-9.5-23.531-21.469-32.25-36.094
		c-8.672-14.562-13.062-33.375-13.062-56.5c0-37.844,11.281-66.812,33.797-86.781s55.047-29.906,97.516-29.906
		c29.234,0,55.547,3,79.109,9.188c23.625,6.156,42.031,13.062,55.344,20.719l-22.219,72.219c-11.844-4.625-26.688-9.5-44.625-14.625
		c-18-5.094-36.047-7.656-54.5-7.656c-29.734,0-44.531,11.5-44.531,34.625c0,9.125,4.297,16.625,13.062,22.188
		c8.688,5.656,19.406,10.875,32.25,15.719c12.734,4.844,26.859,10.094,42.25,15.75c15.312,5.625,29.375,12.938,42.156,21.875
		c12.75,9,23.562,20.688,32.281,35c8.75,14.344,13.031,32.781,13.031,55.344c0,38.938-12.375,69.5-37.219,91.75
		C1979,1819.188,1941.719,1830.375,1892.078,1830.375z M2153.625,2110.375c-0.062,0-0.094,0-0.094,0h-0.094v189.469h0.188v106.469
		h-0.25v195.625c0.125,0,0.156,0,0.25,0.062v122.719c-4.375-0.188-8.562-0.281-12.938-0.562c-20.812-1-42-2.562-63.5-4.562
		c-21.5-2.062-41.094-5.094-58.906-9.219v-706.5c12.906-2.094,27.812-4.125,44.594-6.125c16.688-2,34.656-3.75,53.844-5.125
		c11.969-0.875,24.531-1.375,36.906-1.906V2110.375L2153.625,2110.375z M2499.5,2609.531c-15.625,27-36.656,49-62.938,66.031
		c-26.312,17.094-56.25,29.688-89.688,37.906c-33.375,8.188-67.938,12.344-103.312,12.344c-11.625,0-26.562,0-44.625,0
		c-14,0-28.938-0.469-44.438-1.062v-122.531c3.406,1.281,8.375,2.094,15.281,2.812c7.531,0.656,15.469,1.219,24.125,1.469
		c8.469,0.406,17.344,0.656,26.594,1.094c9.188,0.281,17.156,0.5,24.094,0.5c17,0,33.625-1.938,49.594-6.062
		c16.094-4.031,30.188-10.219,42.562-18.812c12.25-8.406,22.125-19.062,29.688-31.875c7.5-12.812,11.312-28.062,11.312-45.625
		c0-22.25-4.5-39.906-13.344-52.688c-8.844-12.812-20.5-22.781-34.844-29.969c-14.25-7.125-30.375-11.688-48.094-13.688
		c-17.875-1.969-35.469-3.062-53.281-3.062H2154.5v-106.469l43.938-0.094c9.562,0,20.625-0.312,33.281-0.969
		s23.062-1.688,31.25-3.031c25.969-8.094,48.312-20.281,67.156-36.5c18.75-16.312,28.125-37.594,28.125-63.906
		c0-17.531-3.344-32.062-10.156-43.469c-6.844-11.531-15.844-20.656-27.219-27.375c-11.281-6.75-24.062-11.344-38.312-14.062
		c-14.344-2.688-29.375-4.062-45.062-4.062c-17.812,0-34.062,0.312-49.125,0.938c-14.531,0.688-25.719,1.719-33.844,2.969v-119.625
		c7.094-0.312,13.844-0.75,21-1.094c20.156-0.625,40.062-1.031,59.906-1.031c33.406,0,66.031,2.531,97.875,7.656
		c31.688,5.156,60.062,14.219,84.938,27.219c24.812,12.906,44.812,31.062,59.875,54.219c14.938,23.25,22.5,52.688,22.5,88.062
		c0,17.781-2.25,35.5-6.688,53.281c-4.469,17.75-11.75,33.969-22,48.625c-10.281,14.719-23.562,27.594-40,38.938
		c-16.312,11.25-36.125,19.625-59.312,25.094v6.031c20.438,3.375,39.938,9.25,58.312,17.469c18.438,8.219,34.5,19.438,48.156,33.844
		c13.656,14.375,24.406,31.719,32.281,52.188c7.781,20.531,11.688,44.781,11.688,72.688
		C2523.062,2550.688,2515.312,2582.562,2499.5,2609.531z M2521.812,1825.625c-17.906,0-34-2.688-48.438-8.062
		c-14.438-5.344-26.562-12.969-36.75-23c-10.25-10-18.188-21.812-23.812-35.344c-5.688-13.656-8.531-28.812-8.531-45.812
		c0-23.438,5.25-43.344,15.75-59.438c10.469-16.156,25.594-29.188,45.312-39.281c19.688-9.938,43.344-16.781,70.656-20.625
		s57.969-5,91.75-3.469c3.625-28.656,1.562-49.25-6.125-61.875c-7.656-12.531-24.75-18.75-51.406-18.75
		c-19.969,0-41.031,2.062-63.312,6.156c-22.188,4.125-40.656,9.469-54.906,16.094l-23.812-74.5c20.5-9.25,44.688-16.5,72.875-21.906
		c28.188-5.375,57.656-8.062,88.375-8.062c26.625,0,48.844,3.219,66.812,9.625c18,6.406,32.125,15.438,42.625,27.219
		s18,25.875,22.25,42.25c4.375,16.469,6.531,34.875,6.531,55.312c0,22.5-0.719,45.156-2.281,67.969
		c-1.562,22.844-2.469,45.156-2.688,67.25c-0.281,22.031,0.375,43.344,2,64.125c1.5,20.75,5.344,40.469,11.438,58.75h-81.406
		l-16.156-52.906H2637l-15.938-55.625c2.75-3.469,5.562-6.844,7.531-10.406v-49.969c-15.906-1.656-31.219-1.875-45.781-0.75
		c-14.594,1-27.5,3.344-38.75,6.875c-11.344,3.656-20.312,8.75-26.938,15.375c-6.656,6.625-9.938,15.125-9.938,25.344
		c0,14.344,4.25,25.5,12.656,33.406c8.406,7.938,20.156,11.906,34.969,11.906c19.969,0,35.875-4.562,47.656-13.469
		c7.281-5.531,12.906-11.375,17.906-17.438l15.688,54.75h-1.344c-10.219,15.906-24.469,29.531-42.656,40.938
		c-18.125,11.594-41.562,17.344-70.219,17.344H2521.812z M2905,2729.906c-51.812,0-96.906-8.75-135.094-26.562
		c-38.281-17.812-69.906-43.062-94.812-75.719c-24.906-32.75-43.438-72-55.781-117.844c-12.312-45.781-18.406-96.656-18.406-152.625
		c0-119.438,26.188-211.469,78.906-275.969c52.5-64.531,127.594-96.719,225.188-96.719c51.188,0,95.875,8.844,134.062,26.625
		c38.25,17.812,70.031,43.031,95.344,75.719c25.25,32.812,44.062,72.094,56.312,117.844c11.844,43.938,17.812,92.625,18.219,146.031
		h-147.5c-0.344-32.312-3-62.719-8.438-90.812c-5.844-30-14.844-56.312-27.125-78.875c-12.312-22.469-28.406-40-48.188-52.656
		c-19.75-12.656-44.031-18.969-72.688-18.969c-49.75,0-88.375,19.906-115.594,59.875c-27.312,39.938-40.969,102.562-40.969,187.906
		c0,36.25,3.125,69.5,9.188,99.812c6.062,30.406,15.5,56.5,28.188,78.344c12.625,21.875,28.875,38.938,48.688,51.188
		c19.719,12.344,43.312,18.469,70.625,18.469c49.812,0,88.406-19.469,115.719-58.344c27.281-38.969,40.875-102.031,40.844-189.469
		c0-1.938-0.188-3.656-0.25-5.562h147.5c0,1.906,0.125,3.688,0.125,5.656c0,119.344-26.375,211.344-79.281,275.969
		c-52.906,64.469-127.781,96.75-224.781,96.75V2729.906z M3661.812,2715.5L3661.812,2715.5l-126-221.125l-27.625-75.781
		l-26.625,75.781l-126.969,221.219h-152.656l220.219-364.625L3222.5,1998.656h168.938L3502,2205.562l24.625,72.688l23.5-72.688
		l115.75-206.906h152.594l-206.906,345.125l217.125,371.719H3661.75H3661.812z"/>
</g>
</svg>
