<?xml version="1.0" encoding="utf-8"?>
<!-- Generator: Adobe Illustrator 15.0.2, SVG Export Plug-In . SVG Version: 6.00 Build 0)  -->
<!DOCTYPE svg PUBLIC "-//W3C//DTD SVG 1.1//EN" "http://www.w3.org/Graphics/SVG/1.1/DTD/svg11.dtd">
<svg version="1.1" id="Ebene_1" xmlns="http://www.w3.org/2000/svg" xmlns:xlink="http://www.w3.org/1999/xlink" x="0px" y="0px"
	 width="120.5px" height="93.543px" viewBox="0 0 120.5 93.543" enable-background="new 0 0 120.5 93.543" xml:space="preserve">
<path fill="#F1007E" d="M0,33.307v60.236h120.49V33.307H0z M22.683,75.863h-4.384v-22.4h4.384V75.863z M44.154,76.023h-3.2
	l-8.416-11.84l-1.76-3.521h-0.16l0.512,3.521v11.681h-4.16V53.303h3.2l8.48,11.938l1.696,3.424h0.16l-0.512-3.424V53.463h4.16
	V76.023z M52.25,56.949c-0.009,0.002-0.024,0.002-0.033,0.004v5.921h0.033v3.325h-0.032v6.113c0.008,0.004,0.023,0.005,0.032,0.008
	v3.831c-0.144-0.006-0.282-0.009-0.431-0.017c-0.651-0.031-1.312-0.081-1.984-0.145c-0.672-0.064-1.285-0.16-1.84-0.287v-22.08
	c0.405-0.064,0.869-0.129,1.392-0.192c0.522-0.062,1.083-0.116,1.68-0.159c0.384-0.027,0.786-0.043,1.183-0.062V56.949z
	 M63.036,72.551c-0.491,0.844-1.147,1.531-1.97,2.064c-0.82,0.533-1.754,0.928-2.799,1.184s-2.123,0.385-3.231,0.385
	c-0.363,0-0.827,0-1.392,0c-0.432,0-0.897-0.013-1.379-0.031v-3.828c0.107,0.035,0.257,0.062,0.466,0.084
	c0.235,0.021,0.485,0.037,0.752,0.047c0.266,0.011,0.544,0.021,0.832,0.032c0.287,0.011,0.538,0.016,0.751,0.016
	c0.533,0,1.05-0.063,1.552-0.19c0.501-0.125,0.944-0.317,1.328-0.586c0.384-0.264,0.692-0.596,0.928-0.998
	c0.235-0.396,0.353-0.877,0.353-1.425c0-0.696-0.139-1.247-0.416-1.646c-0.277-0.401-0.641-0.713-1.088-0.937
	c-0.448-0.222-0.95-0.364-1.504-0.428c-0.555-0.063-1.109-0.095-1.664-0.095h-2.291v-3.325l1.361-0.004
	c0.299,0,0.645-0.01,1.04-0.031c0.395-0.021,0.72-0.054,0.976-0.096c0.811-0.253,1.509-0.633,2.096-1.142
	c0.586-0.51,0.88-1.175,0.88-1.994c0-0.549-0.106-1.002-0.319-1.36c-0.214-0.359-0.496-0.644-0.849-0.854
	c-0.353-0.209-0.752-0.354-1.2-0.439c-0.448-0.084-0.917-0.127-1.408-0.127c-0.555,0-1.067,0.011-1.536,0.029
	c-0.446,0.021-0.788,0.053-1.042,0.092v-3.738c0.216-0.011,0.423-0.025,0.644-0.034c0.629-0.02,1.253-0.032,1.872-0.032
	c1.045,0,2.062,0.08,3.056,0.24s1.877,0.444,2.656,0.848c0.777,0.406,1.4,0.975,1.872,1.696c0.468,0.729,0.702,1.646,0.702,2.752
	c0,0.561-0.069,1.109-0.209,1.664c-0.143,0.556-0.367,1.062-0.688,1.521s-0.735,0.862-1.248,1.215
	c-0.512,0.352-1.131,0.614-1.855,0.785v0.188c0.64,0.107,1.248,0.288,1.825,0.548c0.575,0.256,1.075,0.605,1.504,1.057
	c0.426,0.447,0.765,0.99,1.008,1.633c0.246,0.64,0.367,1.396,0.367,2.271C63.77,70.711,63.525,71.709,63.036,72.551z M75.707,76.311
	c-1.622,0-3.031-0.272-4.225-0.832c-1.194-0.554-2.186-1.344-2.961-2.362c-0.778-1.025-1.358-2.251-1.744-3.686
	c-0.383-1.429-0.576-3.019-0.576-4.769c0-0.26,0.014-0.505,0.021-0.756h4.604c-0.008,0.247-0.016,0.495-0.016,0.756
	c0,1.132,0.099,2.172,0.287,3.121c0.191,0.949,0.483,1.765,0.881,2.447c0.396,0.684,0.899,1.217,1.521,1.6
	c0.618,0.385,1.354,0.576,2.208,0.576c1.558,0,2.763-0.607,3.616-1.823c0.853-1.216,1.277-3.188,1.277-5.921
	c0-1.088-0.094-2.1-0.271-3.039c-0.184-0.939-0.465-1.76-0.85-2.465c-0.388-0.703-0.89-1.251-1.504-1.647
	c-0.619-0.395-1.375-0.592-2.271-0.592c-1.559,0-2.766,0.624-3.616,1.872c-0.765,1.124-1.186,2.828-1.263,5.102h-4.604
	c0.108-3.355,0.917-5.981,2.443-7.854c1.643-2.016,3.988-3.024,7.04-3.024c1.601,0,2.997,0.278,4.192,0.832
	c1.189,0.56,2.186,1.345,2.976,2.368c0.788,1.024,1.376,2.251,1.76,3.68c0.384,1.434,0.576,3.021,0.575,4.771
	c0,3.73-0.827,6.605-2.479,8.625C81.077,75.304,78.734,76.311,75.707,76.311z M99.354,75.863l-3.937-6.912l-0.862-2.368
	l-0.832,2.368l-3.97,6.912h-4.769l6.882-11.396l-6.24-11.008h5.28l3.455,6.464l0.769,2.272l0.736-2.272l3.616-6.464h4.768
	l-6.464,10.783l6.784,11.616L99.354,75.863z"/>
</svg>
