<?xml version="1.0" encoding="utf-8"?>
<!-- Generator: Adobe Illustrator 15.0.2, SVG Export Plug-In . SVG Version: 6.00 Build 0)  -->
<!DOCTYPE svg PUBLIC "-//W3C//DTD SVG 1.1//EN" "http://www.w3.org/Graphics/SVG/1.1/DTD/svg11.dtd">
<svg version="1.1" id="Ebene_2" xmlns="http://www.w3.org/2000/svg" xmlns:xlink="http://www.w3.org/1999/xlink" x="0px" y="0px"
	 width="120.5px" height="93.543px" viewBox="0 0 120.5 93.543" enable-background="new 0 0 120.5 93.543" xml:space="preserve">
<path fill="#555555" d="M75.402,34.653v10.765H1.205v29.479h74.199v7.604h22.084v11.042l22.084-11.042V34.653H75.402z
	 M17.407,65.533c-0.12,0.479-0.317,0.902-0.59,1.271c-0.273,0.366-0.623,0.66-1.05,0.882c-0.427,0.22-0.947,0.328-1.56,0.328
	c-0.387,0-0.807-0.039-1.26-0.119c-0.454-0.08-0.847-0.192-1.18-0.341l0.6-2.239c0.346,0.175,0.74,0.261,1.18,0.261
	c0.56,0,0.917-0.206,1.07-0.62c0.153-0.413,0.229-0.96,0.229-1.641v-9.539h2.74v10.236h0.001
	C17.587,64.545,17.527,65.052,17.407,65.533z M28.519,65.643c-0.247,0.539-0.593,0.989-1.04,1.351
	c-0.447,0.358-0.987,0.627-1.62,0.8c-0.634,0.174-1.33,0.261-2.09,0.261c-1,0-1.88-0.094-2.64-0.278
	c-0.76-0.188-1.32-0.373-1.68-0.562l0.88-2.341c0.146,0.08,0.336,0.167,0.57,0.261c0.233,0.095,0.496,0.181,0.79,0.261
	s0.604,0.146,0.93,0.199c0.327,0.055,0.663,0.08,1.01,0.08c0.813,0,1.437-0.137,1.87-0.41c0.433-0.271,0.65-0.688,0.65-1.25
	c0-0.427-0.157-0.771-0.47-1.039s-0.707-0.511-1.18-0.729c-0.473-0.22-0.987-0.446-1.54-0.681c-0.553-0.233-1.067-0.521-1.54-0.859
	s-0.867-0.764-1.18-1.27c-0.313-0.509-0.47-1.153-0.47-1.94c0-0.681,0.113-1.271,0.34-1.771s0.55-0.918,0.97-1.25
	c0.42-0.334,0.917-0.58,1.49-0.74c0.573-0.159,1.213-0.239,1.92-0.239c0.812,0,1.58,0.069,2.3,0.21
	c0.72,0.141,1.313,0.344,1.78,0.609l-0.86,2.301c-0.293-0.188-0.733-0.356-1.32-0.51c-0.587-0.153-1.22-0.23-1.9-0.23
	c-0.64,0-1.13,0.127-1.47,0.381c-0.34,0.253-0.51,0.594-0.51,1.02c0,0.4,0.156,0.733,0.47,1c0.314,0.269,0.707,0.516,1.18,0.74
	c0.473,0.229,0.986,0.461,1.54,0.7c0.553,0.239,1.066,0.529,1.54,0.869c0.473,0.341,0.867,0.761,1.18,1.261s0.47,1.123,0.47,1.87
	C28.888,64.458,28.764,65.102,28.519,65.643z M40.597,66.161c-1.033,1.261-2.497,1.891-4.39,1.891c-0.104,0-0.202-0.01-0.304-0.014
	v-2.464c0.103,0.01,0.195,0.037,0.304,0.037c0.973,0,1.727-0.381,2.26-1.142c0.533-0.76,0.8-1.991,0.8-3.698
	c0-0.682-0.057-1.313-0.17-1.9c-0.113-0.586-0.289-1.1-0.53-1.54c-0.24-0.438-0.554-0.782-0.94-1.029
	c-0.387-0.247-0.86-0.37-1.42-0.37c-0.974,0-1.727,0.392-2.26,1.17c-0.533,0.78-0.8,2.004-0.8,3.67c0,0.707,0.06,1.356,0.18,1.95
	c0.12,0.593,0.303,1.104,0.55,1.53c0.247,0.427,0.563,0.76,0.95,1c0.301,0.186,0.659,0.277,1.048,0.319v2.466
	c-0.873-0.035-1.646-0.198-2.308-0.506c-0.747-0.348-1.363-0.84-1.85-1.479c-0.487-0.641-0.85-1.407-1.09-2.3
	c-0.24-0.895-0.36-1.887-0.36-2.98c0-2.332,0.513-4.129,1.54-5.39s2.493-1.891,4.4-1.891c1,0,1.873,0.174,2.62,0.521
	c0.747,0.349,1.367,0.84,1.86,1.479c0.493,0.641,0.86,1.407,1.1,2.3c0.24,0.895,0.36,1.888,0.36,2.98
	C42.148,63.104,41.63,64.9,40.597,66.161z M54.848,67.871h-2l-5.26-7.399l-1.1-2.2h-0.1l0.32,2.2v7.3h-2.6v-14.1h2l5.3,7.46
	l1.06,2.14h0.1l-0.32-2.14v-7.36h2.6V67.871z M75.345,64.1H62.091v-7.36h13.254V64.1z M97.486,45.695v33.126H79.085V67.778H75.55
	V64.1h-0.039v-7.36h0.039v7.36h7.522v7.36l11.041-11.042L83.072,49.377v7.361H75.55v-3.682h3.535V38.334h33.125L97.486,45.695z"/>
</svg>
