<?xml version="1.0" encoding="utf-8"?>
<!-- Generator: Adobe Illustrator 15.0.2, SVG Export Plug-In . SVG Version: 6.00 Build 0)  -->
<!DOCTYPE svg PUBLIC "-//W3C//DTD SVG 1.1//EN" "http://www.w3.org/Graphics/SVG/1.1/DTD/svg11.dtd">
<svg version="1.1" id="Ebene_1" xmlns="http://www.w3.org/2000/svg" xmlns:xlink="http://www.w3.org/1999/xlink" x="0px" y="0px"
	 width="120.5px" height="93.543px" viewBox="0 0 120.5 93.543" enable-background="new 0 0 120.5 93.543" xml:space="preserve">
<path fill="#555555" d="M103.35,63.929c0.396-2.719-0.439-5.585-2.527-7.672l-3.239-3.239c-0.748-0.748-1.963-0.748-2.712,0
	c-0.749,0.75-0.749,1.965,0,2.715l3.238,3.237c2.013,2.015,2.013,5.291,0,7.306c-0.977,0.976-2.273,1.513-3.653,1.513
	c-1.379,0-2.677-0.537-3.651-1.513l-7.085-7.084c-2.013-2.015-2.013-5.291,0-7.306c0.032-0.032,0.055-0.069,0.084-0.103l2.582,2.582
	c-0.031,0.033-0.053,0.071-0.085,0.104c-0.749,0.749-0.749,1.963,0,2.713c0.374,0.374,0.864,0.562,1.355,0.562
	c0.49,0,0.982-0.188,1.357-0.562c3.51-3.51,3.51-9.222,0-12.73l-7.084-7.084c-1.701-1.7-3.961-2.637-6.365-2.637
	c-2.405,0-4.664,0.936-6.364,2.636c-2.187,2.185-3.011,5.223-2.474,8.052H1v29.354h67V48.605c0.341,0.527,0.738,1.029,1.2,1.491
	l3.237,3.238c0.748,0.75,1.965,0.75,2.713,0c0.748-0.749,0.748-1.965,0-2.714l-3.237-3.236c-2.015-2.015-2.015-5.291,0-7.306
	c0.976-0.976,2.272-1.513,3.651-1.513s2.678,0.537,3.652,1.513l7.084,7.084c1.975,1.976,2.001,5.157,0.103,7.18l-2.582-2.581
	c0.638-0.754,0.609-1.879-0.102-2.589c-0.749-0.749-1.964-0.749-2.713,0c-3.511,3.511-3.511,9.222,0,12.731l7.084,7.083
	c1.701,1.7,3.961,2.638,6.365,2.638c1.065,0,2.099-0.194,3.071-0.546l2.146,2.147h3.706v3.707h3.708v3.705h3.705v1.854h1.854
	c1.023,0,1.854-0.831,1.854-1.854v-5.56L103.35,63.929z M14.338,65.91c-1.033,1.261-2.497,1.891-4.39,1.891
	c-1.014,0-1.894-0.174-2.64-0.521c-0.747-0.347-1.363-0.841-1.85-1.479c-0.487-0.641-0.85-1.406-1.09-2.3
	c-0.24-0.894-0.36-1.886-0.36-2.979c0-0.02,0.003-0.035,0.003-0.055h2.88c0,0.02-0.002,0.035-0.002,0.055
	c0,0.707,0.06,1.355,0.18,1.949c0.12,0.594,0.303,1.104,0.55,1.53c0.247,0.427,0.563,0.76,0.95,1
	c0.387,0.239,0.847,0.359,1.38,0.359c0.973,0,1.727-0.38,2.26-1.141c0.533-0.76,0.8-1.993,0.8-3.7c0-0.68-0.057-1.312-0.17-1.899
	c-0.113-0.586-0.29-1.101-0.53-1.54c-0.24-0.439-0.554-0.782-0.94-1.029c-0.387-0.247-0.86-0.37-1.42-0.37
	c-0.974,0-1.727,0.391-2.26,1.171c-0.523,0.766-0.787,1.964-0.796,3.587H4.013c0.013-2.291,0.521-4.063,1.535-5.308
	c1.027-1.261,2.493-1.89,4.4-1.89c1,0,1.873,0.173,2.62,0.52s1.367,0.841,1.86,1.479c0.493,0.641,0.86,1.406,1.1,2.3
	c0.24,0.894,0.36,1.888,0.36,2.979C15.888,62.854,15.371,64.65,14.338,65.91z M26.698,67.604c-0.66,0.132-1.337,0.197-2.03,0.197
	c-0.84,0-1.637-0.13-2.39-0.391c-0.753-0.26-1.417-0.68-1.99-1.26c-0.574-0.58-1.03-1.334-1.37-2.261s-0.51-2.05-0.51-3.37
	c0-1.373,0.19-2.522,0.57-3.449c0.38-0.928,0.873-1.674,1.48-2.24c0.606-0.565,1.283-0.973,2.03-1.22
	c0.747-0.246,1.493-0.369,2.24-0.369c0.8,0,1.477,0.053,2.03,0.159c0.553,0.105,1.01,0.232,1.37,0.38l-0.54,2.319
	c-0.307-0.146-0.67-0.253-1.09-0.319s-0.93-0.101-1.53-0.101c-1.107,0-1.997,0.396-2.67,1.184c-0.673,0.787-1.01,2.011-1.01,3.667
	c0,0.722,0.08,1.38,0.24,1.975c0.16,0.595,0.403,1.103,0.73,1.522c0.327,0.421,0.733,0.748,1.22,0.981
	c0.486,0.233,1.05,0.352,1.69,0.352c0.6,0,1.106-0.061,1.52-0.181c0.413-0.119,0.773-0.272,1.08-0.46l0.56,2.229
	C27.901,67.253,27.358,67.47,26.698,67.604z M39.168,67.521l-1.12-3.1h-4.3l-1.06,3.1h-2.74l5.04-14.1h2.02l5.04,14.1H39.168z
	 M53.028,60.191c-0.308,0.606-0.714,1.104-1.221,1.489c-0.507,0.386-1.083,0.667-1.73,0.841c-0.646,0.174-1.317,0.26-2.01,0.26
	c-0.067,0-0.173,0-0.32,0s-0.3-0.003-0.46-0.01c-0.16-0.008-0.317-0.018-0.47-0.03s-0.264-0.026-0.33-0.04v4.82h-2.74V53.662h0.001
	c0.56-0.107,1.176-0.19,1.85-0.25c0.673-0.061,1.343-0.091,2.01-0.091c0.693,0,1.39,0.058,2.09,0.171c0.7,0.113,1.33,0.34,1.89,0.68
	c0.561,0.34,1.017,0.813,1.37,1.42s0.53,1.396,0.53,2.37C53.488,58.842,53.334,59.585,53.028,60.191z"/>
</svg>
