<?xml version="1.0" encoding="utf-8"?>
<!-- Generator: Adobe Illustrator 15.0.2, SVG Export Plug-In . SVG Version: 6.00 Build 0)  -->
<!DOCTYPE svg PUBLIC "-//W3C//DTD SVG 1.1//EN" "http://www.w3.org/Graphics/SVG/1.1/DTD/svg11.dtd">
<svg version="1.1" id="Ebene_1" xmlns="http://www.w3.org/2000/svg" xmlns:xlink="http://www.w3.org/1999/xlink" x="0px" y="0px"
	 width="102.047px" height="102.047px" viewBox="0 0 102.047 102.047" enable-background="new 0 0 102.047 102.047"
	 xml:space="preserve">
<polygon id="Shape_1_" fill="#469EA2" points="9.023,74.931 50.743,98.99 92.463,74.931 92.463,26.811 50.743,2.75 9.023,26.811 "/>
<path id="Shape_2_" fill="#6ACAD1" d="M46.542,8.402L16.204,25.875c0.05,0.545,0.05,1.093,0,1.638l30.288,17.473
	c2.557-1.887,6.048-1.887,8.604,0l30.288-17.473c-0.05-0.545-0.05-1.093,0-1.638L55.146,8.402
	C52.59,10.289,49.099,10.289,46.542,8.402z M88.319,32.329L57.981,50c0.337,3.144-1.389,6.148-4.277,7.445l0.05,34.748
	c0.49,0.216,0.957,0.481,1.393,0.794l30.288-17.473c-0.337-3.145,1.389-6.148,4.277-7.446V33.123
	C89.227,32.896,88.761,32.63,88.319,32.329z M13.319,32.527c-0.435,0.312-0.902,0.578-1.392,0.794v34.946
	c2.928,1.253,4.672,4.289,4.277,7.445l30.288,17.473c0.436-0.312,0.902-0.578,1.393-0.794V57.445
	c-2.928-1.253-4.672-4.289-4.277-7.445L13.319,32.527z"/>
</svg>
