<?xml version="1.0" encoding="utf-8"?>
<!-- Generator: Adobe Illustrator 15.0.2, SVG Export Plug-In . SVG Version: 6.00 Build 0)  -->
<!DOCTYPE svg PUBLIC "-//W3C//DTD SVG 1.1//EN" "http://www.w3.org/Graphics/SVG/1.1/DTD/svg11.dtd">
<svg version="1.1" id="Ebene_1" xmlns="http://www.w3.org/2000/svg" xmlns:xlink="http://www.w3.org/1999/xlink" x="0px" y="0px"
	 width="102.047px" height="102.047px" viewBox="0 0 102.047 102.047" enable-background="new 0 0 102.047 102.047"
	 xml:space="preserve">
<path fill="#3E373C" d="M84.927,28.584V54.73c0,8.328-3.468,15.43-10.446,21.287c-6.979,5.856-14.953,8.785-23.966,8.785
	c-5.253,0-10.944-1.268-17.071-3.822l-1.669,3.124l9.264-17.424c2.871,1.906,6.312,3.023,10.017,3.023
	c9.989,0,18.109-8.1,18.109-18.109c0-6.559-3.498-12.289-8.712-15.467l8.042-15.126c0.037,0.015,0.072,0.028,0.109,0.043
	l6.126-11.463c-6.957-3.074-14.703-4.59-23.197-4.59c-15.119,0-26.583,5.254-34.412,15.784V6.508H4.888v66.935H17.12V47.296
	c0-8.328,3.489-15.41,10.446-21.287c6.978-5.857,14.953-8.785,23.966-8.785c5.223,0,10.875,1.254,16.959,3.776l-8.043,15.125
	c-2.742-1.671-5.951-2.648-9.394-2.641c-10.01,0-18.13,8.099-18.13,18.11c0,6.292,3.225,11.837,8.11,15.083L30.888,85.763
	l-3.571,6.683c6.979,3.073,14.704,4.59,23.197,4.609c15.119,0,26.604-5.275,34.413-15.804v14.268h12.232V28.584H84.927z"/>
</svg>
