<?xml version="1.0" encoding="utf-8"?>
<!-- Generator: Adobe Illustrator 15.0.2, SVG Export Plug-In . SVG Version: 6.00 Build 0)  -->
<!DOCTYPE svg PUBLIC "-//W3C//DTD SVG 1.1//EN" "http://www.w3.org/Graphics/SVG/1.1/DTD/svg11.dtd">
<svg version="1.1" id="Ebene_1" xmlns="http://www.w3.org/2000/svg" xmlns:xlink="http://www.w3.org/1999/xlink" x="0px" y="0px"
	 width="120.5px" height="93.543px" viewBox="0 0 120.5 93.543" enable-background="new 0 0 120.5 93.543" xml:space="preserve">
<path fill="#555555" d="M77.248,17.858c-22.265,0-40.314,14.664-40.314,32.754c0,10.277,5.831,19.45,14.948,25.457
	c0.11,0.735,0.169,1.489,0.169,2.259c0,5.503-4.681,10.318-10.078,12.962v2.12c9.994-0.229,20.332-1.78,28.989-10.44
	c2.049,0.261,4.147,0.397,6.286,0.397c22.264,0,40.312-14.666,40.312-32.755C117.561,32.523,99.512,17.858,77.248,17.858z
	 M77.088,73.087c-9.667-13.901-23.852-17.589-23.852-31.65c0-6.912,5.61-12.523,12.522-12.523c5.016,0,9.33,4.078,11.33,8.338
	c1.999-4.26,6.314-8.338,11.328-8.338c6.912,0,12.521,5.611,12.521,12.523C100.938,55.049,86.227,59.271,77.088,73.087z"/>
</svg>
