<?xml version="1.0" encoding="utf-8"?>
<!-- Generator: Adobe Illustrator 15.0.2, SVG Export Plug-In . SVG Version: 6.00 Build 0)  -->
<!DOCTYPE svg PUBLIC "-//W3C//DTD SVG 1.1//EN" "http://www.w3.org/Graphics/SVG/1.1/DTD/svg11.dtd">
<svg version="1.1" id="Ebene_1" xmlns="http://www.w3.org/2000/svg" xmlns:xlink="http://www.w3.org/1999/xlink" x="0px" y="0px"
	 width="102.047px" height="102.047px" viewBox="0 0 102.047 102.047" enable-background="new 0 0 102.047 102.047"
	 xml:space="preserve">
<g transform="scale(0.03125 0.03125)">
	<path fill="#1A7D09" d="M2849.844,68.031H415.703c-192,0-347.672,155.672-347.672,347.734V2849.75
		c0,192.062,155.672,347.719,347.672,347.719h2434.141c191.969,0,347.625-155.656,347.625-347.719V415.766
		C3197.469,223.703,3041.812,68.031,2849.844,68.031z M1606.812,483.656c-40.25,0-72.812-32.609-72.812-72.859
		c0-40.219,32.562-72.781,72.812-72.781c40.281,0,72.844,32.562,72.844,72.781C1679.656,451.047,1647.094,483.656,1606.812,483.656z
		"/>
	<path fill="#67E63E" d="M2812.5,133.172H453c-176.344,0-319.781,143.484-319.781,319.781V2812.5
		c0,176.312,143.484,319.75,319.781,319.75h2359.5c176.312,0,319.844-143.438,319.844-319.75V453
		C3132.344,276.656,2988.812,133.172,2812.5,133.172z M277.703,284.156H2987.75v260.766H277.703V284.156z M2319.438,1945.812
		c-8.406-5.906-18.719-11.281-30.969-16.219c-12.219-4.875-25.781-9.938-40.469-15.094c-14.719-5.156-28.188-12.25-40.406-21.312
		c-12.312-9.062-22.625-20.625-30.938-34.562c-8.312-14.031-12.531-32-12.531-54.156c0-36.281,10.906-64,32.469-83.094
		c21.594-19.281,52.719-28.844,93.406-28.844c28.094,0,53.312,3.062,75.938,8.781c22.531,5.938,40.188,12.625,53,19.875
		l-21.406,69.25c-11.25-4.5-25.375-9.094-42.688-14.031c-17.188-4.875-34.562-7.281-52.219-7.281c-28.469,0-42.688,11-42.688,33.062
		c0,8.875,4.188,16.031,12.5,21.375s18.625,10.406,30.938,15.094c12.219,4.594,25.688,9.562,40.406,15
		c14.688,5.438,28.156,12.406,40.406,21.094c12.312,8.5,22.625,19.688,30.938,33.438c8.406,13.75,12.594,31.406,12.594,53
		c0,37.344-12.031,66.656-35.719,87.969c-23.875,21.281-59.5,32-107.156,32c-25.969,0-50.406-3.25-73.156-9.844
		c-22.812-6.688-41.438-14.438-55.562-23.312l26.438-71.25c11.281,6.312,26.281,12.625,45,18.719
		c18.5,6.031,37.625,9.188,57.281,9.188c14.25,0,25.594-2.688,34.188-8.125s12.906-14.438,12.906-27.219
		C2331.938,1959.562,2327.719,1951.656,2319.438,1945.812L2319.438,1945.812z M277.75,1242.625V981.812h2710v260.812H277.75z
		 M1880.5,1797.125c-8.781-13.281-23.312-19.781-43.938-19.781c-18.156,0-33.438,5.25-46.031,15.844
		c-12.406,10.531-21.406,23.594-26.75,39.375v238.375h-95.75v-368h75.875l11,48.625h2.969c11.25-15.75,26.25-29.406,44.875-41.25
		c18.719-11.844,42.781-17.688,72.188-17.688c18.156,0,34.312,2.406,48.531,7.281c14.219,4.969,26.25,13.062,36.094,24.344
		s17.188,26.562,22.062,46.031c4.875,19.281,7.344,43.25,7.344,71.719v228.938h-95.688v-208.969
		C1893.281,1831.969,1888.906,1810.406,1880.5,1797.125z M1396.094,1981.062c14.531,15.844,37.906,23.594,70.281,23.594
		c20.156,0,38.156-3.062,54.125-9.188c15.938-6,28.125-12.312,36.438-18.719l31.656,62.562c-14.719,11.844-34.719,21.688-60,29.906
		c-25.25,8-52.188,12.125-80.594,12.125c-59.344,0-102.812-17.281-130.25-51.875c-27.531-34.562-41.219-82.125-41.219-142.469
		c0-13.094,1.062-25.031,2.344-36.875h95.781c-0.031,0.562-0.188,0.938-0.25,1.531h136.875c1.938-26.562-2.062-46.812-12.125-61.031
		c-10.031-14.344-25.906-21.406-47.469-21.406c-25.031,0-43.562,7.562-55.594,22.469c-11.5,14.312-18.531,33.5-21.25,57.094h-95.938
		c5.156-45.75,19.531-81.938,44-107.531c30.875-32.375,74.344-48.531,130.25-48.531c18.625,0,36.812,2.406,54.438,7.281
		c17.688,4.969,33.375,12.969,47.125,24.344c13.75,11.281,24.781,26.469,33.094,45.562c8.375,19.094,12.531,42.969,12.531,71.438
		c0,10.312-0.625,21.281-1.812,33.031c-1.25,11.844-3.062,24.062-5.562,36.875h-220.781
		C1373.656,1942.094,1381.625,1965.406,1396.094,1981.062L1396.094,1981.062z M958.125,1549.969v527.438
		c-3.062,0-5.625,0-8.75-0.188c-14.938-0.656-30.156-1.906-45.594-3.25c-15.469-1.531-29.594-3.719-42.344-6.688v-507.875
		c9.344-1.438,20-2.969,32.031-4.375c12.031-1.5,24.875-2.688,38.625-3.75C940.562,1550.719,949.375,1550.344,958.125,1549.969z
		 M277.75,897.562v-260.75h2710v260.75H277.75z M614.844,2838.188c-10.656,23.125-25.516,42.406-44.656,57.875
		c-19.203,15.469-42.406,26.938-69.578,34.375c-27.172,7.469-57.109,11.188-89.719,11.188c-42.938,0-80.703-4.094-113.359-12.125
		c-32.625-8.031-56.641-15.938-72.109-23.969l37.766-100.375c6.359,3.344,14.469,7.062,24.5,11.062
		c9.984,4.031,21.297,7.75,33.906,11.094c12.562,3.438,25.875,6.406,39.922,8.594c14.031,2.281,28.5,3.438,43.359,3.438
		c34.953,0,61.688-5.938,80.312-17.562c18.578-11.75,27.891-29.625,27.891-53.688c0-18.344-6.734-33.219-20.203-44.594
		c-13.469-11.469-30.312-21.875-50.656-31.312c-20.297-9.469-42.359-19.219-66.094-29.25
		c-23.781-10.031-45.844-22.344-66.141-36.844c-20.344-14.719-37.188-32.781-50.656-54.531
		c-13.422-21.781-20.156-49.562-20.156-83.281c0-29.219,4.828-54.531,14.562-76.031c9.75-21.5,23.641-39.344,41.641-53.656
		c18.047-14.438,39.344-24.938,63.984-31.719c24.594-7.062,52.094-10.406,82.422-10.406c34.906,0,67.859,3.062,98.75,9.062
		c30.891,5.938,56.406,14.719,76.438,26.188l-36.938,98.75c-12.609-8.031-31.469-15.281-56.641-21.875
		c-25.219-6.594-52.391-9.844-81.609-9.844c-27.453,0-48.516,5.438-63.078,16.219c-14.609,10.906-21.922,25.5-21.922,43.938
		c0,17.094,6.734,31.344,20.203,42.781c13.422,11.469,30.328,22.062,50.609,31.812c20.344,9.75,42.406,19.781,66.141,30.094
		c23.734,10.219,45.797,22.719,66.141,37.344c20.297,14.594,37.188,32.562,50.656,54.031c13.438,21.5,20.156,48.25,20.156,80.344
		C630.688,2787.375,625.375,2815,614.844,2838.188L614.844,2838.188z M1069.469,2929.594H708.844V2328.5h356.344v104.75H826.469
		v140.031h217.281v104.656H826.469v146.875h243V2929.594z M1023.344,2078.281c-8.312,0-19,0-32,0c-10,0-21.156-0.375-32.375-0.781
		v-88.031c2.5,0.844,6.219,1.625,11.375,2c5.438,0.562,11.188,0.844,17.344,1.156c6.094,0.188,12.5,0.469,19.125,0.656
		c6.594,0.188,12.375,0.281,17.312,0.281c12.219,0,24.156-1.344,35.656-4.281c11.5-2.969,21.719-7.375,30.562-13.469
		c8.844-6.125,15.938-13.75,21.344-22.938c5.406-9.25,8.062-20.25,8.062-32.844c0-15.938-3.156-28.656-9.531-37.812
		c-6.375-9.188-14.719-16.438-25.031-21.5s-21.812-8.312-34.562-9.844c-12.812-1.438-25.562-2.094-38.312-2.094h-53.344v-76.594h32
		v-0.094c6.875,0,14.844-0.281,23.938-0.656c9.062-0.406,16.562-1.25,22.438-2.125c18.656-5.812,34.719-14.594,48.219-26.25
		c13.469-11.656,20.219-26.938,20.219-45.938c0-12.594-2.5-23.031-7.375-31.219c-4.875-8.312-11.344-14.906-19.469-19.781
		c-8.125-4.812-17.281-8.219-27.594-10.156s-21.125-2.938-32.375-2.938c-12.812,0-24.562,0.188-35.344,0.688
		c-10.594,0.562-18.781,1.219-24.656,2.188v-86.062c5.156-0.188,10.188-0.594,15.438-0.75c14.469-0.469,28.844-0.75,43.062-0.75
		c24.031,0,47.469,1.844,70.312,5.531c22.812,3.656,43.156,10.156,61.062,19.469c17.906,9.375,32.281,22.344,43.062,39.062
		c10.812,16.625,16.188,37.719,16.188,63.219c0,12.812-1.562,25.5-4.781,38.312c-3.188,12.781-8.438,24.438-15.844,34.938
		c-7.344,10.625-16.906,19.875-28.688,28c-11.75,8.125-26.031,14.125-42.688,18.031v4.406c14.75,2.469,28.75,6.688,41.969,12.594
		c13.219,5.75,24.781,13.969,34.562,24.281c9.844,10.312,17.562,22.812,23.219,37.531c5.625,14.688,8.438,32.188,8.438,52.219
		c0,26.562-5.625,49.469-16.906,68.875c-11.312,19.375-26.406,35.156-45.25,47.375c-18.906,12.312-40.406,21.375-64.438,27.312
		C1073.688,2075.312,1048.906,2078.281,1023.344,2078.281z M1473.062,2929.594L1336.5,2694.281l-61.031-11v-80.031h49.062
		c32.594,0,58.625-7.344,78.094-22.25c19.438-14.781,29.188-39.438,29.188-73.812c0-25.781-8.031-46.031-24-60.656
		c-16.062-14.594-39.562-21.875-70.438-21.875c-12,0-23.875,0.312-35.625,0.875s-20.719,1.719-27.031,3.438v165.875h-0.094v109.281
		h0.094v225.469h-117.656V2334.5c13.156-2.281,27.312-4.375,42.5-6.375c15.188-2.031,30.375-3.531,45.5-4.781
		c15.188-1.156,29.938-1.906,44.25-2.594c14.281-0.562,27.469-0.75,39.5-0.75c28.031,0,55.625,2.469,82.844,7.625
		c27.188,5.156,51.531,14.062,72.969,26.656c21.5,12.594,38.688,30,51.531,51.969c12.906,22.062,19.344,49.656,19.344,82.781
		c0,49.281-11.469,89.406-34.344,120.25c-22.875,30.938-53.562,52.438-91.906,64.469l42.094,26.531l137.406,229.406h-135.688
		V2929.594z M1882.688,2933.906h-84.125l-225.031-605.312h136.594l120.125,352.875l15.469,102.188h4.312l17.281-103.031l115-352.031
		h123.562L1882.688,2933.906L1882.688,2933.906z M2113.312,1663.125c-18.125,0-32.375-5.719-42.781-17.25
		c-10.312-11.5-15.469-26.875-15.469-45.969c0-19.625,3.156-36.281,9.375-50.062c6-13.75,13.375-25.094,21.969-34.219
		c8.688-9.062,17.562-16.188,26.906-21.344c9.375-5.156,17.406-8.969,24.281-11.406l23.688,39.75
		c-9.844,3.938-18.156,10.125-25.031,18.719c-6.875,8.625-10.875,17.812-11.844,27.625c9.75,0,18.719,4.344,26.938,12.875
		c8.031,8.656,12.031,20.062,12.031,34.188c0,14.281-4.781,25.688-14.344,34.25
		C2139.5,1658.812,2127.562,1663.125,2113.312,1663.125z M2510.25,2929.594h-360.625V2328.5h356.406v104.75h-238.75v140.031h217.281
		v104.656h-217.281v146.875h242.969V2929.594z M2913.844,2929.594l-136.469-235.312l-60.844-11v-80.031h48.781
		c32.688,0,58.75-7.344,78.219-22.25c19.406-14.781,29.156-39.438,29.156-73.812c0-25.781-8.031-46.031-24-60.656
		c-16.031-14.594-39.531-21.875-70.469-21.875c-12.031,0-23.875,0.312-35.625,0.875s-20.719,1.719-27.031,3.438v174.281h0.188
		v79.844h-0.188v246.5h-117.656V2334.5l0,0c13.188-2.281,27.312-4.375,42.5-6.375c15.188-2.031,30.281-3.531,45.562-4.781
		c15.094-1.062,29.781-1.906,44.125-2.594c14.312-0.562,27.5-0.75,39.438-0.75c28.062,0,55.688,2.469,82.906,7.625
		s51.562,14.062,72.969,26.656c21.469,12.594,38.656,30,51.656,51.969c12.781,22.062,19.281,49.656,19.281,82.781
		c0,49.281-11.469,89.406-34.375,120.25c-22.906,30.938-53.469,52.438-91.875,64.469l42.031,26.625l137.406,229.312h-135.688
		V2929.594z"/>
</g>
</svg>
