<?xml version="1.0" encoding="utf-8"?>
<!-- Generator: Adobe Illustrator 15.0.2, SVG Export Plug-In . SVG Version: 6.00 Build 0)  -->
<!DOCTYPE svg PUBLIC "-//W3C//DTD SVG 1.1//EN" "http://www.w3.org/Graphics/SVG/1.1/DTD/svg11.dtd">
<svg version="1.1" id="Ebene_1" xmlns="http://www.w3.org/2000/svg" xmlns:xlink="http://www.w3.org/1999/xlink" x="0px" y="0px"
	 width="102.047px" height="102.047px" viewBox="0 0 102.047 102.047" enable-background="new 0 0 102.047 102.047"
	 xml:space="preserve">
<path fill="#67E63E" d="M89.494,2.125H12.553c-5.75,0-10.427,4.678-10.427,10.427v76.941c0,5.749,4.678,10.427,10.427,10.427h76.941
	c5.749,0,10.427-4.678,10.427-10.427v-76.94C99.921,6.803,95.243,2.125,89.494,2.125z M92.878,10.999
	c1.175,0,2.126,0.952,2.126,2.126s-0.951,2.126-2.126,2.126c-1.174,0-2.126-0.952-2.126-2.126S91.704,10.999,92.878,10.999z
	 M9.874,10C11.048,10,12,10.952,12,12.126s-0.952,2.126-2.126,2.126S7.748,13.3,7.748,12.126S8.7,10,9.874,10z M23.655,87.18
	c-0.336,1.232-0.896,2.324-1.68,3.275c-0.784,0.953-1.816,1.719-3.094,2.297c-1.279,0.578-2.861,0.867-4.746,0.867
	c-0.299,0-0.695-0.009-1.19-0.027c-0.07-0.003-0.147-0.007-0.217-0.01v-3.475c0.072,0.011,0.158,0.02,0.273,0.023
	c0.177,0.009,0.368,0.021,0.574,0.029s0.401,0.017,0.588,0.025c0.186,0.012,0.326,0.016,0.42,0.016c1.083,0,1.983-0.191,2.702-0.574
	c0.718-0.381,1.288-0.891,1.708-1.523c0.42-0.636,0.714-1.366,0.882-2.196c0.168-0.831,0.252-1.688,0.252-2.562
	c0-0.766-0.075-1.534-0.224-2.311c-0.149-0.774-0.425-1.472-0.826-2.086c-0.402-0.616-0.948-1.119-1.638-1.515
	c-0.691-0.393-1.568-0.588-2.632-0.588c-0.411,0-0.826,0.01-1.246,0.027c-0.42,0.02-0.733,0.047-0.938,0.084v13.132
	c0.019,0.005,0.051,0.009,0.076,0.013v3.478c-0.421-0.017-0.847-0.035-1.294-0.06c-0.532-0.024-1.041-0.057-1.526-0.084
	c-0.486-0.025-0.85-0.061-1.092-0.098V73.712c0.392-0.055,0.835-0.102,1.33-0.14c0.495-0.037,1.003-0.065,1.526-0.084
	c0.522-0.021,1.031-0.032,1.526-0.042c0.494-0.011,0.938-0.017,1.33-0.017c1.736,0,3.22,0.242,4.452,0.729
	c1.232,0.483,2.23,1.166,2.996,2.043c0.765,0.878,1.325,1.924,1.68,3.137c0.354,1.213,0.532,2.548,0.532,4.004
	C24.159,84.669,23.991,85.949,23.655,87.18z M29.049,55.57v2.494H29.04v4.586c0.002,0.002,0.007,0.002,0.009,0.004v2.871
	c-0.107-0.004-0.199-0.004-0.309-0.008c-0.488-0.022-0.984-0.062-1.488-0.106c-0.504-0.049-0.964-0.121-1.38-0.217V48.633
	c0.304-0.048,0.652-0.096,1.044-0.144c0.392-0.048,0.812-0.087,1.26-0.12c0.284-0.021,0.581-0.032,0.874-0.046v2.804
	c-0.002,0-0.007,0-0.009,0.001v4.442H29.049z M38.662,93.311h-11.76v-19.6h11.62v3.416h-7.784v4.564h7.084v3.416h-7.084v4.787h7.924
	V93.311z M33.984,59.157c-0.208-0.3-0.48-0.534-0.816-0.701c-0.336-0.166-0.712-0.272-1.128-0.32
	c-0.416-0.047-0.832-0.071-1.248-0.071h-1.714V55.57h1.019v-0.004c0.224,0,0.484-0.008,0.78-0.021c0.296-0.013,0.54-0.04,0.732-0.07
	C32.216,55.286,32.74,55,33.18,54.62c0.44-0.379,0.66-0.878,0.66-1.496c0-0.413-0.081-0.751-0.24-1.021
	c-0.16-0.271-0.372-0.484-0.636-0.644c-0.264-0.158-0.564-0.269-0.9-0.332s-0.688-0.095-1.056-0.095c-0.417,0-0.8,0.007-1.152,0.021
	c-0.333,0.017-0.588,0.037-0.778,0.067V48.32c0.161-0.007,0.315-0.02,0.479-0.025c0.472-0.016,0.94-0.024,1.404-0.024
	c0.784,0,1.548,0.06,2.292,0.18s1.408,0.332,1.992,0.636c0.584,0.304,1.052,0.729,1.404,1.272c0.352,0.543,0.528,1.23,0.528,2.062
	c0,0.417-0.052,0.833-0.156,1.249s-0.276,0.796-0.516,1.141c-0.24,0.347-0.552,0.646-0.936,0.912
	c-0.384,0.265-0.849,0.459-1.392,0.588v0.145c0.48,0.08,0.936,0.217,1.368,0.408c0.432,0.189,0.808,0.456,1.128,0.793
	c0.32,0.336,0.572,0.744,0.756,1.223c0.184,0.48,0.276,1.049,0.276,1.705c0,0.863-0.184,1.611-0.552,2.244
	c-0.369,0.632-0.86,1.146-1.476,1.547c-0.616,0.4-1.316,0.697-2.1,0.889c-0.784,0.191-1.592,0.288-2.424,0.288
	c-0.272,0-0.621,0-1.044,0c-0.318,0-0.674-0.014-1.03-0.026v-2.864c0.081,0.024,0.191,0.048,0.346,0.061
	c0.176,0.018,0.364,0.027,0.564,0.035c0.2,0.007,0.408,0.017,0.624,0.023c0.216,0.007,0.404,0.011,0.564,0.011
	c0.399,0,0.788-0.047,1.164-0.143c0.375-0.096,0.708-0.24,0.996-0.439c0.288-0.197,0.52-0.447,0.696-0.748
	c0.176-0.3,0.264-0.657,0.264-1.068C34.296,59.87,34.192,59.457,33.984,59.157z M39.484,58.104h3.123
	c-0.002,0.021-0.006,0.036-0.008,0.057h4.464c0.063-0.865-0.068-1.528-0.396-1.992c-0.328-0.465-0.844-0.696-1.548-0.696
	c-0.816,0-1.42,0.244-1.812,0.731c-0.378,0.471-0.607,1.098-0.695,1.873h-3.126c0.166-1.498,0.635-2.68,1.433-3.516
	c1.008-1.058,2.424-1.584,4.248-1.584c0.608,0,1.2,0.078,1.776,0.237c0.576,0.16,1.088,0.425,1.536,0.793s0.808,0.863,1.08,1.488
	c0.272,0.623,0.408,1.399,0.408,2.328c0,0.336-0.021,0.694-0.06,1.079c-0.04,0.384-0.1,0.783-0.18,1.199h-7.2
	c0.048,1.009,0.308,1.769,0.78,2.278c0.472,0.515,1.236,0.769,2.292,0.769c0.656,0,1.244-0.1,1.764-0.299
	c0.52-0.197,0.916-0.402,1.188-0.609l1.032,2.039c-0.48,0.385-1.132,0.708-1.956,0.973c-0.824,0.263-1.701,0.396-2.628,0.396
	c-1.936,0-3.352-0.562-4.248-1.691c-0.896-1.127-1.344-2.676-1.344-4.645C39.407,58.883,39.442,58.49,39.484,58.104z M49.666,93.452
	h-2.744l-7.336-19.74h4.452l3.92,11.508l0.504,3.332h0.14l0.56-3.36l3.752-11.479h4.031L49.666,93.452z M62.602,93.312h-3.836
	V73.711h3.836V93.312z M62.639,65.312H59.52v-6.815c0-0.978-0.142-1.681-0.42-2.113c-0.283-0.431-0.757-0.646-1.43-0.646
	c-0.592,0-1.092,0.173-1.5,0.517c-0.406,0.345-0.7,0.771-0.876,1.283v7.774h-3.12v-12h2.473l0.359,1.584h0.098
	c0.367-0.513,0.855-0.959,1.463-1.345c0.608-0.384,1.394-0.575,2.354-0.575c0.592,0,1.12,0.079,1.584,0.238
	c0.464,0.16,0.855,0.425,1.178,0.793c0.318,0.368,0.56,0.867,0.719,1.499c0.16,0.632,0.24,1.412,0.24,2.34v7.466H62.639z
	 M64.796,49.951c0-0.64,0.101-1.184,0.302-1.632c0.198-0.448,0.439-0.819,0.719-1.116c0.281-0.296,0.572-0.528,0.877-0.696
	c0.306-0.168,0.568-0.292,0.791-0.372l0.771,1.296c-0.318,0.128-0.592,0.332-0.814,0.612c-0.227,0.28-0.354,0.58-0.385,0.9
	c0.318,0,0.61,0.141,0.877,0.42c0.264,0.281,0.396,0.653,0.396,1.116c0,0.465-0.156,0.836-0.468,1.116
	c-0.313,0.28-0.7,0.42-1.166,0.419c-0.592,0-1.057-0.187-1.395-0.562C64.964,51.075,64.796,50.575,64.796,49.951z M73.415,61.23
	c-0.274-0.191-0.61-0.367-1.009-0.527c-0.399-0.159-0.84-0.324-1.319-0.492s-0.921-0.398-1.319-0.695
	c-0.399-0.296-0.735-0.672-1.009-1.128c-0.272-0.456-0.407-1.044-0.407-1.765c0-1.184,0.354-2.088,1.058-2.711
	c0.702-0.626,1.72-0.938,3.048-0.938c0.912,0,1.734,0.097,2.475,0.286c0.734,0.191,1.312,0.408,1.729,0.648l-0.696,2.256
	c-0.369-0.146-0.832-0.297-1.394-0.457c-0.561-0.159-1.127-0.239-1.702-0.239c-0.929,0-1.394,0.36-1.394,1.08
	c0,0.288,0.137,0.521,0.406,0.696c0.271,0.176,0.609,0.34,1.01,0.492c0.398,0.148,0.84,0.312,1.318,0.489
	c0.479,0.179,0.92,0.404,1.318,0.687c0.4,0.28,0.736,0.646,1.01,1.092c0.271,0.448,0.406,1.024,0.406,1.729
	c0,1.216-0.389,2.173-1.164,2.867c-0.774,0.693-1.938,1.043-3.49,1.043c-0.85,0-1.646-0.106-2.389-0.321
	c-0.743-0.218-1.35-0.47-1.812-0.759l0.863-2.325c0.366,0.207,0.854,0.411,1.465,0.61c0.606,0.198,1.229,0.299,1.871,0.299
	c0.464,0,0.836-0.086,1.112-0.264c0.281-0.177,0.423-0.471,0.423-0.887C73.822,61.679,73.686,61.423,73.415,61.23z M77.343,93.427
	c-0.924,0.188-1.872,0.277-2.842,0.277c-1.177,0-2.292-0.183-3.347-0.545c-1.055-0.366-1.982-0.954-2.785-1.767
	c-0.803-0.812-1.442-1.864-1.918-3.164c-0.477-1.299-0.715-2.868-0.715-4.719c0-1.922,0.267-3.531,0.799-4.83
	c0.531-1.297,1.222-2.342,2.072-3.137c0.849-0.793,1.795-1.359,2.842-1.707c1.045-0.346,2.09-0.52,3.136-0.52
	c1.12,0,2.067,0.074,2.842,0.225c0.775,0.15,1.414,0.327,1.919,0.533l-0.757,3.248c-0.429-0.206-0.938-0.355-1.526-0.449
	c-0.588-0.093-1.302-0.141-2.142-0.141c-1.549,0-2.796,0.552-3.737,1.653c-0.94,1.104-1.414,2.817-1.414,5.136
	c0,1.012,0.111,1.934,0.336,2.766s0.564,1.543,1.021,2.133c0.457,0.589,1.025,1.047,1.708,1.375c0.681,0.327,1.47,0.49,2.366,0.49
	c0.84,0,1.549-0.084,2.127-0.252c0.579-0.168,1.083-0.383,1.513-0.645l0.784,3.12C79.027,92.938,78.268,93.241,77.343,93.427z
	 M93.766,93.311H82.005v-19.6h11.62v3.416h-7.784v4.564h7.084v3.416h-7.084v4.787h7.925V93.311z M95.75,27.026H7.378v-8.504h30v-3
	H65.75v3h30V27.026z"/>
</svg>
