<?xml version="1.0" encoding="utf-8"?>
<!-- Generator: Adobe Illustrator 15.0.2, SVG Export Plug-In . SVG Version: 6.00 Build 0)  -->
<!DOCTYPE svg PUBLIC "-//W3C//DTD SVG 1.1//EN" "http://www.w3.org/Graphics/SVG/1.1/DTD/svg11.dtd">
<svg version="1.1" id="Ebene_1" xmlns="http://www.w3.org/2000/svg" xmlns:xlink="http://www.w3.org/1999/xlink" x="0px" y="0px"
	 width="120.5px" height="93.543px" viewBox="0 0 120.5 93.543" enable-background="new 0 0 120.5 93.543" xml:space="preserve">
<path fill="#1A7D09" d="M1.593,34.36h118.771v59.18H1.593V34.36z"/>
<g>
	<path fill="#67E63E" d="M40.102,47.095c0.296-0.015,0.54-0.04,0.732-0.071c0.608-0.19,1.132-0.475,1.572-0.855
		c0.44-0.38,0.66-0.878,0.66-1.496c0-0.413-0.081-0.752-0.24-1.021c-0.16-0.271-0.372-0.484-0.636-0.645
		c-0.264-0.158-0.564-0.269-0.9-0.332c-0.336-0.062-0.688-0.095-1.056-0.095c-0.417,0-0.8,0.008-1.152,0.024
		s-0.624,0.039-0.816,0.071v4.442h1.056C39.546,47.118,39.806,47.11,40.102,47.095z"/>
	<path fill="#67E63E" d="M42.394,50.007c-0.336-0.167-0.712-0.271-1.128-0.321c-0.416-0.048-0.832-0.067-1.248-0.067h-1.752v4.586
		c0.08,0.028,0.208,0.054,0.384,0.067c0.176,0.018,0.364,0.027,0.564,0.035c0.2,0.01,0.408,0.02,0.624,0.024
		c0.216,0.007,0.404,0.011,0.564,0.011c0.399,0,0.788-0.048,1.164-0.143c0.375-0.096,0.708-0.242,0.996-0.439
		s0.52-0.447,0.696-0.749c0.176-0.301,0.264-0.657,0.264-1.069c0-0.521-0.104-0.934-0.312-1.231S42.73,50.173,42.394,50.007z"/>
</g>
<g>
	<path fill="#67E63E" d="M55.894,47.717c-0.329-0.464-0.844-0.696-1.548-0.696c-0.816,0-1.42,0.244-1.812,0.732
		c-0.392,0.488-0.628,1.14-0.708,1.956h4.464C56.353,48.846,56.222,48.182,55.894,47.717z"/>
	<path fill="#67E63E" d="M0,33.307v60.236h120.49V33.307H0z M74.325,39.869c0.198-0.448,0.44-0.819,0.72-1.116
		c0.28-0.296,0.571-0.528,0.876-0.696c0.306-0.168,0.568-0.292,0.792-0.372l0.77,1.296c-0.317,0.128-0.592,0.332-0.813,0.612
		c-0.228,0.28-0.354,0.58-0.385,0.9c0.317,0,0.61,0.141,0.877,0.42c0.263,0.28,0.396,0.652,0.396,1.116
		c0,0.464-0.156,0.836-0.47,1.116s-0.7,0.42-1.164,0.42c-0.592,0-1.058-0.188-1.396-0.564c-0.336-0.376-0.504-0.876-0.504-1.5
		C74.023,40.861,74.124,40.317,74.325,39.869z M54.394,44.525c0.608,0,1.2,0.08,1.776,0.24c0.576,0.16,1.088,0.424,1.535,0.792
		c0.448,0.369,0.809,0.864,1.08,1.488c0.272,0.624,0.408,1.4,0.408,2.328c0,0.336-0.02,0.696-0.06,1.08
		c-0.04,0.385-0.101,0.784-0.181,1.2h-7.199c0.048,1.008,0.308,1.768,0.78,2.28c0.472,0.512,1.236,0.768,2.292,0.768
		c0.656,0,1.244-0.1,1.764-0.301c0.52-0.199,0.916-0.402,1.188-0.611l1.033,2.04c-0.479,0.384-1.132,0.708-1.956,0.972
		c-0.824,0.266-1.701,0.396-2.628,0.396c-1.936,0-3.352-0.564-4.248-1.691c-0.896-1.129-1.344-2.677-1.344-4.645
		c0-0.387,0.036-0.736,0.069-1.088h7.587v-0.016h-7.586c0.152-1.561,0.621-2.789,1.442-3.649
		C51.154,45.053,52.57,44.525,54.394,44.525z M35.098,40.181c0.304-0.048,0.652-0.096,1.044-0.144s0.812-0.087,1.26-0.12
		c0.275-0.02,0.564-0.031,0.849-0.044v17.202c-0.099-0.004-0.183-0.003-0.285-0.008c-0.488-0.022-0.984-0.061-1.488-0.106
		s-0.964-0.119-1.38-0.216V40.181z M19.21,82.287c-1.654,2.015-3.995,3.023-7.024,3.023c-1.622,0-3.03-0.277-4.224-0.832
		c-1.195-0.558-2.182-1.348-2.96-2.367c-0.779-1.024-1.36-2.25-1.744-3.684C2.874,77,2.682,75.41,2.682,73.661
		c0-3.733,0.821-6.608,2.464-8.624c1.642-2.016,3.989-3.023,7.04-3.023c1.6,0,2.997,0.277,4.192,0.832
		c1.194,0.557,2.187,1.344,2.976,2.367c0.789,1.024,1.376,2.252,1.76,3.682c0.373,1.391,0.561,2.935,0.572,4.625h-4.609
		c-0.008-1.033-0.093-2.001-0.266-2.898c-0.182-0.938-0.464-1.76-0.848-2.464c-0.384-0.704-0.886-1.252-1.504-1.647
		c-0.619-0.395-1.376-0.592-2.272-0.592c-1.558,0-2.763,0.623-3.616,1.871c-0.854,1.248-1.28,3.205-1.28,5.872
		c0,1.132,0.096,2.171,0.288,3.12s0.485,1.765,0.88,2.447c0.395,0.684,0.901,1.217,1.52,1.601c0.618,0.384,1.354,0.576,2.208,0.576
		c1.557,0,2.762-0.608,3.616-1.823c0.854-1.217,1.28-3.189,1.28-5.921c0-0.044-0.005-0.083-0.005-0.127h4.609
		c0,0.044,0.003,0.086,0.003,0.131C21.69,77.395,20.863,80.27,19.21,82.287z M41.146,76.926c0,1.451-0.192,2.699-0.576,3.744
		c-0.384,1.045-0.917,1.908-1.6,2.592c-0.683,0.687-1.515,1.188-2.496,1.504c-0.981,0.32-2.059,0.479-3.232,0.479
		c-5.675,0-8.512-2.591-8.512-7.776V62.461h4.384v14.143c0,0.875,0.08,1.616,0.24,2.228c0.16,0.606,0.41,1.099,0.752,1.472
		c0.342,0.374,0.768,0.645,1.28,0.805c0.512,0.156,1.109,0.236,1.792,0.236c1.344,0,2.314-0.373,2.912-1.121
		c0.597-0.742,0.896-1.947,0.896-3.611v-14.15h4.16V76.926z M40.378,57.102c-0.272,0-0.621,0-1.044,0
		c-0.331,0-0.698-0.014-1.069-0.027V39.872c0.174-0.009,0.34-0.021,0.518-0.027c0.472-0.015,0.94-0.021,1.404-0.021
		c0.784,0,1.548,0.06,2.292,0.18s1.408,0.332,1.992,0.636c0.584,0.306,1.052,0.729,1.404,1.272s0.528,1.231,0.528,2.062
		c0,0.417-0.052,0.833-0.156,1.248c-0.104,0.417-0.276,0.797-0.516,1.144c-0.24,0.344-0.552,0.646-0.936,0.912
		c-0.384,0.264-0.849,0.459-1.392,0.588v0.144c0.48,0.08,0.936,0.216,1.368,0.408s0.808,0.456,1.128,0.792s0.572,0.745,0.756,1.225
		c0.184,0.48,0.276,1.049,0.276,1.703c0,0.865-0.184,1.613-0.552,2.244c-0.369,0.633-0.86,1.148-1.476,1.548
		c-0.616,0.401-1.316,0.696-2.1,0.891C42.018,57.005,41.21,57.102,40.378,57.102z M60.795,66.365h-6.529v18.496h-4.384V66.365h-6.56
		v-3.904h17.473V66.365z M61.4,44.859h2.472l0.36,1.584h0.097c0.366-0.515,0.854-0.96,1.463-1.344
		c0.608-0.384,1.394-0.576,2.354-0.576c0.592,0,1.119,0.08,1.584,0.24c0.463,0.16,0.854,0.424,1.177,0.792
		c0.319,0.369,0.559,0.868,0.719,1.5c0.16,0.633,0.24,1.413,0.24,2.34v7.468h-3.12v-6.816c0-0.975-0.141-1.679-0.42-2.108
		c-0.282-0.435-0.756-0.648-1.43-0.648c-0.592,0-1.092,0.172-1.5,0.516c-0.406,0.344-0.699,0.772-0.875,1.285H64.52v7.773H61.4
		V44.859z M67.323,65.946c-0.009,0.001-0.021,0.003-0.03,0.004H67.29v5.921h0.033v3.326h-0.034v6.113
		c0.009,0.004,0.024,0.006,0.034,0.009v3.829c-0.145-0.006-0.284-0.009-0.433-0.017c-0.651-0.032-1.312-0.081-1.983-0.144
		c-0.673-0.064-1.285-0.16-1.841-0.288V62.62c0.402-0.064,0.869-0.128,1.393-0.191c0.521-0.062,1.083-0.116,1.682-0.159
		c0.383-0.027,0.785-0.043,1.183-0.062V65.946z M78.105,81.548c-0.489,0.843-1.146,1.531-1.967,2.064
		c-0.822,0.534-1.76,0.928-2.804,1.184s-2.123,0.385-3.229,0.385c-0.362,0-0.828,0-1.395,0c-0.432,0-0.895-0.013-1.373-0.031v-3.826
		c0.107,0.035,0.256,0.062,0.463,0.083c0.236,0.021,0.485,0.037,0.754,0.047c0.266,0.012,0.543,0.02,0.831,0.033
		c0.287,0.01,0.537,0.016,0.753,0.016c0.531,0,1.051-0.062,1.551-0.189c0.502-0.127,0.943-0.319,1.328-0.588
		c0.385-0.264,0.693-0.596,0.928-0.996c0.236-0.399,0.354-0.877,0.354-1.427c0-0.696-0.139-1.245-0.416-1.646
		c-0.278-0.401-0.642-0.712-1.09-0.936c-0.446-0.223-0.949-0.365-1.504-0.428c-0.558-0.062-1.108-0.096-1.664-0.096h-2.288v-3.326
		l1.357-0.003c0.3,0,0.646-0.011,1.041-0.031c0.396-0.022,0.721-0.053,0.977-0.096c0.812-0.252,1.51-0.634,2.098-1.14
		c0.586-0.511,0.879-1.175,0.879-1.996c0-0.551-0.104-1.002-0.316-1.36c-0.214-0.359-0.496-0.644-0.852-0.855
		c-0.352-0.211-0.752-0.354-1.196-0.438c-0.448-0.085-0.918-0.127-1.408-0.127c-0.558,0-1.063,0.01-1.536,0.029
		c-0.447,0.021-0.79,0.053-1.043,0.092v-3.738c0.216-0.011,0.422-0.025,0.643-0.034c0.629-0.02,1.252-0.033,1.871-0.033
		c1.045,0,2.064,0.08,3.06,0.24c0.989,0.161,1.877,0.444,2.653,0.851c0.776,0.403,1.401,0.972,1.871,1.694
		c0.467,0.726,0.703,1.646,0.703,2.752c0,0.556-0.07,1.109-0.209,1.664c-0.139,0.556-0.367,1.062-0.688,1.521
		c-0.321,0.459-0.736,0.862-1.248,1.216c-0.512,0.352-1.13,0.613-1.855,0.784v0.188c0.639,0.107,1.248,0.289,1.823,0.545
		c0.576,0.259,1.077,0.608,1.504,1.06c0.427,0.449,0.763,0.992,1.009,1.631c0.243,0.641,0.366,1.398,0.366,2.271
		C78.841,79.708,78.598,80.706,78.105,81.548z M77.314,56.119l0.86-2.328c0.368,0.209,0.856,0.412,1.468,0.612
		c0.604,0.198,1.229,0.3,1.871,0.3c0.465,0,0.836-0.088,1.113-0.266c0.28-0.178,0.42-0.474,0.42-0.891
		c0-0.316-0.136-0.577-0.404-0.768c-0.273-0.191-0.609-0.367-1.012-0.527c-0.396-0.16-0.84-0.324-1.316-0.492
		c-0.479-0.168-0.92-0.396-1.319-0.693c-0.401-0.297-0.737-0.672-1.009-1.129c-0.272-0.455-0.407-1.043-0.407-1.766
		c0-1.184,0.353-2.088,1.056-2.712c0.704-0.624,1.721-0.936,3.049-0.936c0.912,0,1.736,0.096,2.476,0.288
		c0.733,0.192,1.312,0.408,1.728,0.648l-0.693,2.256c-0.369-0.144-0.832-0.296-1.395-0.456c-0.562-0.16-1.128-0.24-1.704-0.24
		c-0.928,0-1.393,0.36-1.393,1.082c0,0.286,0.137,0.521,0.405,0.693c0.272,0.178,0.608,0.341,1.011,0.492
		c0.397,0.15,0.841,0.314,1.317,0.492c0.479,0.176,0.92,0.402,1.319,0.684c0.401,0.281,0.737,0.646,1.009,1.092
		c0.271,0.449,0.407,1.025,0.407,1.729c0,1.217-0.389,2.172-1.164,2.868c-0.776,0.693-1.94,1.044-3.491,1.045
		c-0.85,0-1.646-0.107-2.39-0.324C78.382,56.659,77.777,56.407,77.314,56.119z M90.777,85.311c-1.62,0-3.029-0.275-4.223-0.832
		c-1.195-0.556-2.186-1.346-2.964-2.365c-0.776-1.024-1.356-2.25-1.741-3.684c-0.387-1.43-0.576-3.02-0.576-4.769
		c0-3.733,0.817-6.608,2.465-8.624c1.642-2.016,3.988-3.023,7.039-3.023c1.599,0,2.996,0.277,4.188,0.832
		c1.195,0.557,2.188,1.344,2.979,2.367c0.789,1.025,1.377,2.252,1.76,3.682c0.374,1.391,0.562,2.934,0.571,4.625h-4.608
		c-0.008-1.033-0.093-2.001-0.266-2.898c-0.183-0.938-0.465-1.76-0.848-2.464c-0.386-0.704-0.888-1.252-1.506-1.647
		c-0.617-0.395-1.376-0.592-2.271-0.592c-1.557,0-2.762,0.623-3.612,1.871c-0.854,1.248-1.281,3.205-1.281,5.872
		c0,1.132,0.099,2.171,0.288,3.12s0.484,1.765,0.88,2.447c0.396,0.684,0.902,1.217,1.521,1.601c0.616,0.384,1.354,0.576,2.207,0.576
		c1.558,0,2.764-0.608,3.616-1.823c0.854-1.217,1.278-3.189,1.277-5.921c0-0.044-0.005-0.083-0.006-0.127h4.608
		c0.001,0.044,0.004,0.086,0.004,0.131c0,3.729-0.826,6.604-2.479,8.624C96.148,84.302,93.807,85.311,90.777,85.311z
		 M114.426,84.861l-3.936-6.912l-0.864-2.367l-0.832,2.367l-3.968,6.912h-4.77l6.881-11.395l-6.239-11.008h5.28l3.455,6.465
		l0.769,2.271l0.735-2.271l3.617-6.465h4.769l-6.466,10.784l6.785,11.616L114.426,84.861z"/>
</g>
</svg>
