<?xml version="1.0" encoding="utf-8"?>
<!-- Generator: Adobe Illustrator 15.0.2, SVG Export Plug-In . SVG Version: 6.00 Build 0)  -->
<!DOCTYPE svg PUBLIC "-//W3C//DTD SVG 1.1//EN" "http://www.w3.org/Graphics/SVG/1.1/DTD/svg11.dtd">
<svg version="1.1" id="Ebene_1" xmlns="http://www.w3.org/2000/svg" xmlns:xlink="http://www.w3.org/1999/xlink" x="0px" y="0px"
	 width="102.047px" height="102.047px" viewBox="0 0 102.047 102.047" enable-background="new 0 0 102.047 102.047"
	 xml:space="preserve">
<path fill="#555555" d="M80.768,11.662H74.68l2.754-5.765l-5.096-2.434l-3.917,8.199H32.594L28.67,3.451l-5.096,2.436l2.76,5.775
	h-5.055c-0.276,0-0.5,0.224-0.5,0.5v60.241c0,0.275,0.224,0.5,0.5,0.5h25.744v8.09h0.131l-5.45,5.45
	c-0.043,0.001-0.086,0-0.13,0.002c-0.354,0.012-0.699,0.031-1.035,0.054c-0.336,0.026-0.651,0.054-0.945,0.09
	c-0.294,0.036-0.555,0.072-0.783,0.108v12.42c0.312,0.07,0.657,0.126,1.035,0.162c0.378,0.033,0.75,0.061,1.116,0.078
	c0.366,0.019,0.708,0.027,1.026,0.027c0.318,0,0.579,0,0.783,0c0.488,0,0.962-0.058,1.429-0.146h7.557
	c0.436,0.131,0.908,0.218,1.454,0.218c0.541,0,1.02-0.085,1.463-0.218h5.906c0.331,0.14,0.725,0.217,1.197,0.217
	c0.445,0,0.881-0.054,1.312-0.162c0.434-0.106,0.812-0.241,1.137-0.396L63.812,97.1c-0.219,0.096-0.412,0.168-0.586,0.215
	c-0.176,0.049-0.383,0.07-0.621,0.07c-0.35,0-0.584-0.133-0.711-0.402c-0.125-0.272-0.188-0.719-0.188-1.344v-3.453h2.196v-1.98
	h-2.196v-2.357l-2.34,0.666v1.691h-1.242v1.979h1.242v4.534c0,0.975,0.194,1.673,0.585,2.1c0.152,0.167,0.35,0.292,0.57,0.394
	h-5.745c0.613-0.201,1.14-0.52,1.558-0.986c0.738-0.822,1.105-1.996,1.105-3.52c0-0.708-0.086-1.355-0.26-1.943
	c-0.176-0.588-0.436-1.09-0.783-1.504c-0.349-0.414-0.787-0.734-1.314-0.963s-1.152-0.342-1.872-0.342
	c-1.344,0-2.388,0.411-3.132,1.232c-0.744,0.822-1.116,1.996-1.116,3.52c0,0.708,0.087,1.355,0.262,1.943
	c0.174,0.589,0.438,1.09,0.792,1.504s0.795,0.733,1.323,0.963c0.099,0.043,0.218,0.061,0.323,0.096h-7.306
	c0.077-0.016,0.156-0.023,0.232-0.042c0.588-0.144,1.113-0.366,1.575-0.666s0.831-0.687,1.107-1.161
	c0.276-0.474,0.414-1.037,0.414-1.683c0-0.492-0.069-0.918-0.207-1.278c-0.138-0.359-0.327-0.666-0.567-0.918
	c-0.24-0.252-0.522-0.449-0.846-0.594c-0.324-0.145-0.666-0.246-1.026-0.307v-0.107c0.408-0.094,0.756-0.243,1.044-0.441
	c0.288-0.197,0.522-0.426,0.702-0.684c0.18-0.256,0.309-0.543,0.387-0.855c0.078-0.312,0.117-0.623,0.117-0.936
	c0-0.624-0.133-1.141-0.396-1.546c-0.264-0.407-0.615-0.724-1.053-0.954s-0.936-0.387-1.494-0.479
	c-0.558-0.09-1.131-0.135-1.719-0.135c-0.298,0-0.6,0.007-0.902,0.017l5.449-5.449h7.85v-8.09h25.744c0.275,0,0.5-0.225,0.5-0.5
	V12.162C81.268,11.886,81.044,11.662,80.768,11.662z M51.482,95.803c-0.072-0.336-0.108-0.701-0.108-1.098
	c0-0.984,0.162-1.691,0.485-2.124c0.324-0.433,0.774-0.647,1.351-0.647c0.66,0,1.128,0.254,1.404,0.767
	c0.276,0.511,0.413,1.179,0.413,2.007c0,0.958-0.149,1.662-0.449,2.104c-0.301,0.445-0.756,0.666-1.368,0.666
	c-0.324,0-0.603-0.066-0.837-0.207c-0.234-0.137-0.422-0.332-0.566-0.584S51.555,96.139,51.482,95.803z M45.129,95.515
	c0,0.311-0.066,0.576-0.198,0.802c-0.132,0.227-0.306,0.414-0.522,0.562c-0.216,0.148-0.465,0.258-0.747,0.329
	c-0.282,0.071-0.573,0.106-0.873,0.106c-0.121,0-0.262-0.002-0.423-0.008c-0.162-0.006-0.318-0.012-0.468-0.018
	c-0.151-0.006-0.291-0.014-0.423-0.027c-0.132-0.012-0.228-0.031-0.288-0.054V93.77h1.314c0.312,0,0.624,0.019,0.936,0.054
	c0.312,0.034,0.594,0.114,0.846,0.239s0.456,0.3,0.612,0.525C45.051,94.814,45.129,95.122,45.129,95.515z M42.663,88.493
	c0.276,0,0.54,0.022,0.792,0.069c0.252,0.05,0.477,0.133,0.675,0.25c0.198,0.119,0.357,0.278,0.477,0.48
	c0.119,0.203,0.18,0.457,0.18,0.766c0,0.463-0.165,0.838-0.495,1.123c-0.33,0.286-0.723,0.498-1.179,0.643
	c-0.144,0.025-0.327,0.041-0.549,0.053s-0.417,0.02-0.585,0.02h-0.792v-3.33c0.144-0.025,0.348-0.041,0.612-0.055
	C42.063,88.5,42.351,88.493,42.663,88.493z M38.599,27.599c1.04,0,1.883,0.843,1.883,1.883c0,1.04-0.843,1.883-1.883,1.883
	s-1.883-0.843-1.883-1.883C36.716,28.442,37.559,27.599,38.599,27.599z M45.828,64.873H29.939v-8.042h15.889V64.873z M45.828,56.132
	H29.939v-7.449h15.889V56.132z M54.401,64.873h-7.874v-8.042h7.874V64.873z M54.401,56.132h-7.874v-7.449h7.874V56.132z
	 M67.273,29.039c1.26,0,2.283,1.022,2.283,2.283c0,1.261-1.023,2.283-2.283,2.283c-1.262,0-2.283-1.022-2.283-2.283
	C64.99,30.061,66.012,29.039,67.273,29.039z M62.948,64.873h-7.848v-8.042h7.848V64.873z M62.948,56.132h-7.848v-7.449h7.848V56.132
	z M72.859,64.873h-9.212v-8.042h9.212V64.873z M72.859,56.132h-9.212v-7.449h9.212V56.132z"/>
<path fill="#FF9D00" d="M65.175,16.822c-6.678,0-12.117,4.849-12.476,10.951h-4.918c-0.845-4.49-5.065-7.906-10.155-7.906
	c-5.7,0-10.32,4.278-10.32,9.556c0,5.277,4.62,9.555,10.32,9.555c5.699,0,10.319-4.278,10.319-9.555
	c0-0.559-0.062-1.103-0.162-1.635h4.916c-0.012,0.207-0.034,0.411-0.034,0.62c0,6.398,5.601,11.585,12.51,11.585
	c6.91,0,12.511-5.188,12.511-11.585C77.686,22.009,72.085,16.822,65.175,16.822z M38.008,30.57c-1.056,0-1.912-0.856-1.912-1.912
	s0.856-1.911,1.912-1.911s1.912,0.855,1.912,1.911S39.064,30.57,38.008,30.57z M67.116,32.844c-1.281,0-2.317-1.038-2.317-2.317
	c0-1.28,1.036-2.318,2.317-2.318c1.278,0,2.317,1.038,2.317,2.318C69.434,31.806,68.395,32.844,67.116,32.844z"/>
</svg>
