<?xml version="1.0" encoding="utf-8"?>
<!-- Generator: Adobe Illustrator 15.0.2, SVG Export Plug-In . SVG Version: 6.00 Build 0)  -->
<!DOCTYPE svg PUBLIC "-//W3C//DTD SVG 1.1//EN" "http://www.w3.org/Graphics/SVG/1.1/DTD/svg11.dtd">
<svg version="1.1" id="Ebene_1" xmlns="http://www.w3.org/2000/svg" xmlns:xlink="http://www.w3.org/1999/xlink" x="0px" y="0px"
	 width="336.189px" height="93.543px" viewBox="0 0 336.189 93.543" enable-background="new 0 0 336.189 93.543"
	 xml:space="preserve">
<path fill="#333333" d="M0,33.307v60.354h336.268V33.307H0z M49.61,54.758l14.785,8.536L49.61,71.831V54.758z M27.431,80.367
	L12.645,71.83l14.786-8.534V80.367z M42.217,88.9l-7.394-4.269V50.488L5.253,67.561v-8.535l36.964-21.339V88.9z M86.573,67.562
	L49.61,88.904v-8.536l29.571-17.073L49.61,46.223v-8.537l36.963,21.342V67.562z M132.427,78.448l-2.312-8.496h-8.873l-2.204,8.496
	h-6.721l10.916-37.907h2.624v9.14h-0.149l-0.913,5.97l-2.097,8.71h6.237l-2.15-8.764l-0.862-5.916h-0.037v-9.14h2.67l10.969,37.907
	H132.427z M153.415,78.607c-1.254,0.356-2.511,0.537-3.765,0.537c-1.828,0-3.369-0.321-4.623-0.968
	c-1.218-0.682-2.224-1.631-3.011-2.85c-0.79-1.254-1.362-2.74-1.722-4.463c-0.323-1.757-0.483-3.711-0.483-5.861
	c0-4.694,0.841-8.228,2.524-10.593c1.688-2.365,4.16-3.547,7.422-3.547c1.612,0,2.922,0.144,3.926,0.429
	c1.04,0.287,1.955,0.646,2.742,1.077l-1.506,5.322c-0.644-0.321-1.271-0.556-1.881-0.699c-0.572-0.18-1.271-0.268-2.096-0.268
	c-1.504,0-2.634,0.662-3.387,1.99c-0.754,1.289-1.129,3.387-1.129,6.29c0,2.437,0.375,4.427,1.129,5.968
	c0.787,1.541,2.024,2.312,3.709,2.312c0.896,0,1.648-0.106,2.259-0.321c0.646-0.251,1.236-0.557,1.773-0.916l1.345,4.947
	C155.745,77.712,154.668,78.249,153.415,78.607z M170.447,78.66c-1.039,0.287-2.132,0.429-3.278,0.429
	c-2.044,0-3.584-0.589-4.625-1.772c-1.003-1.183-1.506-3.172-1.506-5.967V57.262h-2.956v-5.699h2.956v-5.054l6.398-1.99
	l-0.003,7.043h5.215v5.699h-5.215v11.721c0,1.541,0.144,2.634,0.431,3.279c0.322,0.646,0.878,0.969,1.666,0.969
	c0.538,0,1.021-0.056,1.453-0.161c0.431-0.109,0.899-0.271,1.397-0.484l0.81,5.106C172.402,78.086,171.487,78.409,170.447,78.66z
	 M182.557,78.448h-6.399V51.562h6.399V78.448z M182.34,46.617c-0.752,0.646-1.754,0.969-3.009,0.969s-2.224-0.324-2.904-0.969
	c-0.681-0.68-1.021-1.559-1.021-2.634c0-1.077,0.341-1.953,1.021-2.634c0.682-0.718,1.651-1.077,2.904-1.077
	c1.254,0,2.257,0.34,3.009,1.023c0.753,0.681,1.132,1.576,1.132,2.688C183.471,45.093,183.093,45.971,182.34,46.617z
	 M198.298,78.717h-4.3l-9.519-27.152l7.475-0.002l3.71,14.033l0.646,4.248h0.216l0.593-4.3l3.333-13.979h6.878L198.298,78.717z
	 M215.646,78.448h-6.398V51.562h6.398V78.448z M215.431,46.617c-0.754,0.646-1.757,0.969-3.012,0.969
	c-1.256,0-2.223-0.324-2.902-0.969c-0.683-0.68-1.022-1.559-1.022-2.634c0-1.077,0.34-1.953,1.022-2.634
	c0.681-0.718,1.648-1.077,2.902-1.077c1.255,0,2.258,0.34,3.012,1.023c0.753,0.681,1.129,1.576,1.129,2.688
	C216.56,45.093,216.184,45.971,215.431,46.617z M230.85,78.66c-1.04,0.287-2.134,0.429-3.279,0.429
	c-2.044,0-3.585-0.589-4.624-1.772c-1.004-1.183-1.505-3.172-1.505-5.967V57.262h-2.958v-5.699h2.958v-5.054l6.397-1.99v7.043h5.215
	v5.699h-5.217v11.721c0,1.541,0.146,2.634,0.433,3.279c0.32,0.646,0.877,0.969,1.665,0.969c0.538,0,1.021-0.056,1.451-0.161
	c0.431-0.109,0.897-0.271,1.398-0.484l0.808,5.106C232.807,78.086,231.89,78.409,230.85,78.66z M250.351,75.814
	c-0.61,2.115-1.182,4.016-1.722,5.698c-0.539,1.687-1.11,3.118-1.721,4.302s-1.31,2.078-2.097,2.688
	c-0.753,0.645-1.668,0.969-2.743,0.969c-0.753,0-1.487-0.072-2.203-0.216c-0.681-0.106-1.273-0.304-1.774-0.591l1.074-5.485
	c0.47,0.179,0.937,0.252,1.401,0.216c0.5,0,0.95-0.179,1.344-0.537c0.431-0.323,0.808-0.844,1.13-1.561
	c0.324-0.716,0.593-1.666,0.809-2.849l-9.355-26.884h-0.004v-0.002h0.003l0.001,0.002h7.686l3.765,15.108l0.698,4.195h0.269
	l0.484-4.249l3.118-15.055h6.559L250.351,75.814z M284.81,58.715c-0.646,1.648-1.522,2.991-2.636,4.031
	c-1.112,1.04-2.4,1.793-3.869,2.258c-1.435,0.467-2.923,0.699-4.464,0.699h-0.697h-1.021l-1.077-0.107
	c-0.262-0.028-0.449-0.058-0.593-0.086v-6.066c0.228,0.063,0.581,0.125,1.08,0.188c0.609,0.038,1.022,0.055,1.237,0.055
	c0.788,0,1.541-0.107,2.257-0.322c0.718-0.217,1.346-0.574,1.883-1.075c0.572-0.538,1.021-1.256,1.344-2.152
	c0.324-0.933,0.484-2.095,0.484-3.493c0-1.184-0.162-2.188-0.484-3.012c-0.289-0.827-0.701-1.473-1.238-1.939
	c-0.5-0.502-1.092-0.859-1.772-1.074s-1.399-0.322-2.152-0.322c-1.11,0-2.023,0.089-2.741,0.27v12.85
	c0.021,0.007,0.051,0.014,0.075,0.021v6.068c-0.022-0.005-0.057-0.01-0.076-0.015v12.96h-6.773V41.187
	c1.29-0.287,2.705-0.502,4.246-0.646c1.541-0.179,3.083-0.269,4.624-0.269c1.648,0,3.262,0.16,4.838,0.482
	c1.612,0.288,3.046,0.879,4.301,1.775c1.255,0.896,2.278,2.168,3.066,3.816c0.788,1.612,1.182,3.729,1.182,6.346
	C285.831,55.059,285.49,57.064,284.81,58.715z M303.816,78.45L303.816,78.45l-1.131-3.656h-0.16
	c-0.679,1.253-1.611,2.294-2.796,3.118c-1.146,0.824-2.579,1.236-4.3,1.236c-1.111,0-2.098-0.161-2.956-0.484
	c-0.86-0.286-1.598-0.807-2.206-1.561c-0.608-0.752-1.075-1.773-1.396-3.064c-0.324-1.326-0.483-2.994-0.483-5.002V51.566h6.396
	v16.076c0,2.115,0.197,3.584,0.592,4.409c0.395,0.822,1.111,1.237,2.151,1.237c1.004,0,1.845-0.359,2.524-1.075
	c0.682-0.753,1.165-1.649,1.453-2.688V51.566h6.397v18.712c0,1.47,0.056,2.921,0.162,4.354c0.106,1.398,0.304,2.672,0.591,3.818
	H303.816z M328.537,75.545c-2.006,2.365-4.748,3.548-8.225,3.548c-1.899,0-3.657-0.179-5.271-0.538
	c-1.578-0.358-2.797-0.752-3.656-1.184v-36.56h6.396v10.541h-0.019v21h0.02v0.286c0.753,0.396,1.738,0.593,2.957,0.593
	c1.362,0,2.401-0.646,3.117-1.937c0.719-1.327,1.076-3.53,1.076-6.614c0-2.725-0.286-4.712-0.86-5.966
	c-0.572-1.29-1.469-1.936-2.688-1.936c-1.785,0-2.98,0.926-3.594,2.773v-6.268h0.152c1.29-1.575,3.135-2.365,5.537-2.365
	c2.546,0,4.516,1.06,5.914,3.173c1.435,2.115,2.151,5.521,2.151,10.217C331.549,69.398,330.544,73.145,328.537,75.545z"/>
</svg>
